%TF.GenerationSoftware,KiCad,Pcbnew,9.0.7*%
%TF.CreationDate,2026-03-11T20:41:50+01:00*%
%TF.ProjectId,Multi-emitter V2 Thesis,4d756c74-692d-4656-9d69-747465722056,rev?*%
%TF.SameCoordinates,Original*%
%TF.FileFunction,Copper,L2,Bot*%
%TF.FilePolarity,Positive*%
%FSLAX46Y46*%
G04 Gerber Fmt 4.6, Leading zero omitted, Abs format (unit mm)*
G04 Created by KiCad (PCBNEW 9.0.7) date 2026-03-11 20:41:50*
%MOMM*%
%LPD*%
G01*
G04 APERTURE LIST*
G04 Aperture macros list*
%AMRoundRect*
0 Rectangle with rounded corners*
0 $1 Rounding radius*
0 $2 $3 $4 $5 $6 $7 $8 $9 X,Y pos of 4 corners*
0 Add a 4 corners polygon primitive as box body*
4,1,4,$2,$3,$4,$5,$6,$7,$8,$9,$2,$3,0*
0 Add four circle primitives for the rounded corners*
1,1,$1+$1,$2,$3*
1,1,$1+$1,$4,$5*
1,1,$1+$1,$6,$7*
1,1,$1+$1,$8,$9*
0 Add four rect primitives between the rounded corners*
20,1,$1+$1,$2,$3,$4,$5,0*
20,1,$1+$1,$4,$5,$6,$7,0*
20,1,$1+$1,$6,$7,$8,$9,0*
20,1,$1+$1,$8,$9,$2,$3,0*%
G04 Aperture macros list end*
%TA.AperFunction,ComponentPad*%
%ADD10R,1.800000X1.800000*%
%TD*%
%TA.AperFunction,ComponentPad*%
%ADD11C,1.800000*%
%TD*%
%TA.AperFunction,ComponentPad*%
%ADD12RoundRect,0.250000X-0.350000X-0.625000X0.350000X-0.625000X0.350000X0.625000X-0.350000X0.625000X0*%
%TD*%
%TA.AperFunction,ComponentPad*%
%ADD13O,1.200000X1.750000*%
%TD*%
%TA.AperFunction,ComponentPad*%
%ADD14RoundRect,0.250000X0.350000X0.625000X-0.350000X0.625000X-0.350000X-0.625000X0.350000X-0.625000X0*%
%TD*%
%TA.AperFunction,ComponentPad*%
%ADD15C,5.600000*%
%TD*%
%TA.AperFunction,ComponentPad*%
%ADD16RoundRect,0.250000X0.625000X-0.350000X0.625000X0.350000X-0.625000X0.350000X-0.625000X-0.350000X0*%
%TD*%
%TA.AperFunction,ComponentPad*%
%ADD17O,1.750000X1.200000*%
%TD*%
%TA.AperFunction,ComponentPad*%
%ADD18R,1.650000X1.650000*%
%TD*%
%TA.AperFunction,ComponentPad*%
%ADD19C,1.650000*%
%TD*%
%TA.AperFunction,ComponentPad*%
%ADD20C,4.950000*%
%TD*%
%TA.AperFunction,ViaPad*%
%ADD21C,0.600000*%
%TD*%
%TA.AperFunction,Conductor*%
%ADD22C,0.250000*%
%TD*%
%TA.AperFunction,Conductor*%
%ADD23C,0.200000*%
%TD*%
G04 APERTURE END LIST*
D10*
%TO.P,D2,1,K*%
%TO.N,GND*%
X125730000Y-77724000D03*
D11*
%TO.P,D2,2,A*%
%TO.N,Net-(D2-A)*%
X128270000Y-77724000D03*
%TD*%
D12*
%TO.P,J7,1,Pin_1*%
%TO.N,Net-(J7-Pin_1)*%
X163354000Y-99568000D03*
D13*
%TO.P,J7,2,Pin_2*%
%TO.N,GND*%
X165354000Y-99568000D03*
%TD*%
D14*
%TO.P,J1,1,Pin_1*%
%TO.N,Net-(J1-Pin_1)*%
X146112000Y-64500000D03*
D13*
%TO.P,J1,2,Pin_2*%
%TO.N,GND*%
X144112000Y-64500000D03*
%TD*%
D15*
%TO.P,H1,1*%
%TO.N,N/C*%
X125000000Y-66000000D03*
%TD*%
D16*
%TO.P,J5,1,Pin_1*%
%TO.N,Net-(J5-Pin_1)*%
X192622000Y-87090000D03*
D17*
%TO.P,J5,2,Pin_2*%
%TO.N,GND*%
X192622000Y-85090000D03*
%TD*%
D12*
%TO.P,J8,1,Pin_1*%
%TO.N,Net-(J8-Pin_1)*%
X144050000Y-99568000D03*
D13*
%TO.P,J8,2,Pin_2*%
%TO.N,GND*%
X146050000Y-99568000D03*
%TD*%
D15*
%TO.P,H4,1*%
%TO.N,N/C*%
X125000000Y-98000000D03*
%TD*%
D14*
%TO.P,J3,1,Pin_1*%
%TO.N,Net-(J3-Pin_1)*%
X184704000Y-64500000D03*
D13*
%TO.P,J3,2,Pin_2*%
%TO.N,GND*%
X182704000Y-64500000D03*
%TD*%
D12*
%TO.P,J6,1,Pin_1*%
%TO.N,Net-(J6-Pin_1)*%
X182658000Y-99568000D03*
D13*
%TO.P,J6,2,Pin_2*%
%TO.N,GND*%
X184658000Y-99568000D03*
%TD*%
D15*
%TO.P,H2,1*%
%TO.N,N/C*%
X191000000Y-66000000D03*
%TD*%
D14*
%TO.P,J2,1,Pin_1*%
%TO.N,Net-(J2-Pin_1)*%
X165432000Y-64500000D03*
D13*
%TO.P,J2,2,Pin_2*%
%TO.N,GND*%
X163432000Y-64500000D03*
%TD*%
D18*
%TO.P,J0,1,1*%
%TO.N,/PWM8*%
X118618000Y-91625000D03*
D19*
%TO.P,J0,2,2*%
%TO.N,/PWM6*%
X118618000Y-88885000D03*
%TO.P,J0,3,3*%
%TO.N,/PWM4*%
X118618000Y-86145000D03*
%TO.P,J0,4,4*%
%TO.N,/PWM2*%
X118618000Y-83405000D03*
%TO.P,J0,5,5*%
%TO.N,GND*%
X118618000Y-80665000D03*
%TO.P,J0,6,6*%
X118618000Y-77925000D03*
%TO.P,J0,7,7*%
%TO.N,VCC*%
X118618000Y-75185000D03*
%TO.P,J0,8,8*%
X118618000Y-72445000D03*
%TO.P,J0,9,P9*%
%TO.N,/PWM7*%
X115778000Y-90255000D03*
%TO.P,J0,10,P10*%
%TO.N,/PWM5*%
X115778000Y-87515000D03*
%TO.P,J0,11,P111*%
%TO.N,/PWM3*%
X115778000Y-84775000D03*
%TO.P,J0,12,P12*%
%TO.N,/PWM1*%
X115778000Y-82035000D03*
%TO.P,J0,13,P13*%
%TO.N,GND*%
X115778000Y-79295000D03*
%TO.P,J0,14,P14*%
X115778000Y-76555000D03*
%TO.P,J0,15,P15*%
%TO.N,VCC*%
X115778000Y-73815000D03*
D20*
%TO.P,J0,MH1*%
%TO.N,N/C*%
X117198000Y-65375000D03*
%TO.P,J0,MH2*%
X117198000Y-98695000D03*
%TD*%
D15*
%TO.P,H3,1*%
%TO.N,N/C*%
X191000000Y-98000000D03*
%TD*%
D16*
%TO.P,J4,1,Pin_1*%
%TO.N,Net-(J4-Pin_1)*%
X192622000Y-78962000D03*
D17*
%TO.P,J4,2,Pin_2*%
%TO.N,GND*%
X192622000Y-76962000D03*
%TD*%
D21*
%TO.N,Net-(Q5-D)*%
X165354000Y-83566000D03*
X161290000Y-83566000D03*
%TO.N,GND*%
X164846000Y-71628000D03*
X186690000Y-67310000D03*
X164846000Y-92202000D03*
X146304000Y-75946000D03*
X145796000Y-70866000D03*
X181610000Y-89154000D03*
X184150000Y-69850000D03*
X165100000Y-69850000D03*
X162560000Y-89916000D03*
X121666000Y-75438000D03*
X187198000Y-86614000D03*
X145796000Y-69850000D03*
X155448000Y-74168000D03*
X135890000Y-78740000D03*
X188722000Y-73406000D03*
X177800000Y-73406000D03*
X144018000Y-69596000D03*
X181356000Y-77216000D03*
X190754000Y-72390000D03*
X185674000Y-86614000D03*
X174498000Y-90170000D03*
X184150000Y-92202000D03*
X189738000Y-91186000D03*
X178816000Y-82550000D03*
X184150000Y-71374000D03*
X146050000Y-92456000D03*
X139954000Y-74168000D03*
X187198000Y-76962000D03*
X185674000Y-78232000D03*
X121920000Y-79248000D03*
X172720000Y-73660000D03*
%TO.N,/PWM8*%
X144780000Y-93340000D03*
X147320000Y-93440000D03*
%TO.N,/PWM2*%
X166448000Y-71850000D03*
X163908000Y-72578000D03*
%TO.N,/PWM6*%
X183134000Y-93340000D03*
X185674000Y-93456000D03*
%TO.N,/PWM4*%
X184436000Y-79486000D03*
X184470000Y-77254000D03*
%TO.N,/PWM7*%
X163830000Y-93340000D03*
X166370000Y-93456000D03*
%TO.N,/PWM3*%
X185674000Y-71866000D03*
X183212000Y-72512000D03*
%TO.N,/PWM5*%
X184420000Y-87614000D03*
X184470000Y-85425000D03*
%TO.N,/PWM1*%
X144604000Y-72512000D03*
X147144000Y-71850000D03*
%TD*%
D22*
%TO.N,Net-(Q5-D)*%
X165354000Y-83566000D02*
X161290000Y-83566000D01*
D23*
%TO.N,/PWM8*%
X144780000Y-93340000D02*
X147220000Y-93340000D01*
X120333000Y-93340000D02*
X118618000Y-91625000D01*
X144780000Y-93340000D02*
X120333000Y-93340000D01*
X147220000Y-93340000D02*
X147320000Y-93440000D01*
%TO.N,/PWM2*%
X163908000Y-72578000D02*
X165720000Y-72578000D01*
X118618000Y-83405000D02*
X153081000Y-83405000D01*
X165720000Y-72578000D02*
X166448000Y-71850000D01*
X153081000Y-83405000D02*
X163908000Y-72578000D01*
%TO.N,/PWM6*%
X183134000Y-93340000D02*
X185558000Y-93340000D01*
X178679000Y-88885000D02*
X183134000Y-93340000D01*
X185558000Y-93340000D02*
X185674000Y-93456000D01*
X118618000Y-88885000D02*
X178679000Y-88885000D01*
%TO.N,/PWM4*%
X184436000Y-79280000D02*
X184470000Y-79246000D01*
X177308000Y-79486000D02*
X184436000Y-79486000D01*
X184470000Y-79246000D02*
X184470000Y-77254000D01*
X118618000Y-86145000D02*
X170649000Y-86145000D01*
X170649000Y-86145000D02*
X177308000Y-79486000D01*
X184436000Y-79486000D02*
X184436000Y-79280000D01*
%TO.N,/PWM7*%
X166254000Y-93340000D02*
X166370000Y-93456000D01*
X115778000Y-90255000D02*
X160745000Y-90255000D01*
X160745000Y-90255000D02*
X163830000Y-93340000D01*
X163830000Y-93340000D02*
X166254000Y-93340000D01*
%TO.N,/PWM3*%
X170949000Y-84775000D02*
X183212000Y-72512000D01*
X185028000Y-72512000D02*
X185674000Y-71866000D01*
X183212000Y-72512000D02*
X185028000Y-72512000D01*
X115778000Y-84775000D02*
X170949000Y-84775000D01*
%TO.N,/PWM5*%
X184420000Y-85475000D02*
X184470000Y-85425000D01*
X115778000Y-87515000D02*
X115877000Y-87614000D01*
X184420000Y-87614000D02*
X184420000Y-85475000D01*
X115877000Y-87614000D02*
X184420000Y-87614000D01*
%TO.N,/PWM1*%
X146482000Y-72512000D02*
X147144000Y-71850000D01*
X135081000Y-82035000D02*
X144604000Y-72512000D01*
X115778000Y-82035000D02*
X135081000Y-82035000D01*
X144604000Y-72512000D02*
X146482000Y-72512000D01*
%TD*%
%TA.AperFunction,Conductor*%
%TO.N,GND*%
G36*
X194942539Y-62020185D02*
G01*
X194988294Y-62072989D01*
X194999500Y-62124500D01*
X194999500Y-101875500D01*
X194979815Y-101942539D01*
X194927011Y-101988294D01*
X194875500Y-101999500D01*
X113124500Y-101999500D01*
X113057461Y-101979815D01*
X113011706Y-101927011D01*
X113000500Y-101875500D01*
X113000500Y-98527895D01*
X114222500Y-98527895D01*
X114222500Y-98862104D01*
X114259917Y-99194187D01*
X114259919Y-99194199D01*
X114334286Y-99520025D01*
X114334289Y-99520033D01*
X114444666Y-99835472D01*
X114589668Y-100136570D01*
X114589670Y-100136573D01*
X114767475Y-100419549D01*
X114975846Y-100680838D01*
X115212162Y-100917154D01*
X115473451Y-101125525D01*
X115756427Y-101303330D01*
X116057531Y-101448335D01*
X116294449Y-101531235D01*
X116372966Y-101558710D01*
X116372974Y-101558713D01*
X116372977Y-101558713D01*
X116372978Y-101558714D01*
X116698800Y-101633081D01*
X117030896Y-101670499D01*
X117030897Y-101670500D01*
X117030900Y-101670500D01*
X117365103Y-101670500D01*
X117365103Y-101670499D01*
X117697200Y-101633081D01*
X118023022Y-101558714D01*
X118338469Y-101448335D01*
X118639573Y-101303330D01*
X118922549Y-101125525D01*
X119183838Y-100917154D01*
X119420154Y-100680838D01*
X119628525Y-100419549D01*
X119806330Y-100136573D01*
X119951335Y-99835469D01*
X120061714Y-99520022D01*
X120136081Y-99194200D01*
X120173500Y-98862100D01*
X120173500Y-98527900D01*
X120136081Y-98195800D01*
X120061714Y-97869978D01*
X120061712Y-97869972D01*
X120061710Y-97869964D01*
X120050476Y-97837860D01*
X121699500Y-97837860D01*
X121699500Y-98162139D01*
X121731284Y-98484857D01*
X121731287Y-98484874D01*
X121794545Y-98802902D01*
X121794548Y-98802913D01*
X121888686Y-99113247D01*
X122012786Y-99412849D01*
X122012788Y-99412854D01*
X122165646Y-99698830D01*
X122165657Y-99698848D01*
X122345811Y-99968467D01*
X122345821Y-99968481D01*
X122551546Y-100219158D01*
X122780841Y-100448453D01*
X122780846Y-100448457D01*
X122780847Y-100448458D01*
X123031524Y-100654183D01*
X123301158Y-100834347D01*
X123301167Y-100834352D01*
X123301169Y-100834353D01*
X123587145Y-100987211D01*
X123587147Y-100987211D01*
X123587153Y-100987215D01*
X123886754Y-101111314D01*
X124197077Y-101205449D01*
X124197083Y-101205450D01*
X124197086Y-101205451D01*
X124197097Y-101205454D01*
X124396528Y-101245122D01*
X124515132Y-101268714D01*
X124837857Y-101300500D01*
X124837860Y-101300500D01*
X125162140Y-101300500D01*
X125162143Y-101300500D01*
X125484868Y-101268714D01*
X125642295Y-101237399D01*
X125802902Y-101205454D01*
X125802913Y-101205451D01*
X125802913Y-101205450D01*
X125802923Y-101205449D01*
X126113246Y-101111314D01*
X126412847Y-100987215D01*
X126698842Y-100834347D01*
X126968476Y-100654183D01*
X127219153Y-100448458D01*
X127448458Y-100219153D01*
X127654183Y-99968476D01*
X127834347Y-99698842D01*
X127987215Y-99412847D01*
X128111314Y-99113246D01*
X128178130Y-98892983D01*
X142949500Y-98892983D01*
X142949500Y-100243001D01*
X142949501Y-100243018D01*
X142960000Y-100345796D01*
X142960001Y-100345799D01*
X143015185Y-100512331D01*
X143015186Y-100512334D01*
X143107288Y-100661656D01*
X143231344Y-100785712D01*
X143380666Y-100877814D01*
X143547203Y-100932999D01*
X143649991Y-100943500D01*
X144450008Y-100943499D01*
X144450016Y-100943498D01*
X144450019Y-100943498D01*
X144506302Y-100937748D01*
X144552797Y-100932999D01*
X144719334Y-100877814D01*
X144868656Y-100785712D01*
X144992712Y-100661656D01*
X145032581Y-100597016D01*
X145084525Y-100550294D01*
X145153488Y-100539071D01*
X145217570Y-100566914D01*
X145225799Y-100574434D01*
X145333397Y-100682032D01*
X145473475Y-100783804D01*
X145627744Y-100862408D01*
X145792415Y-100915914D01*
X145792414Y-100915914D01*
X145799999Y-100917115D01*
X145800000Y-100917114D01*
X145800000Y-99848330D01*
X145819745Y-99868075D01*
X145905255Y-99917444D01*
X146000630Y-99943000D01*
X146099370Y-99943000D01*
X146194745Y-99917444D01*
X146280255Y-99868075D01*
X146300000Y-99848330D01*
X146300000Y-100917115D01*
X146307584Y-100915914D01*
X146472255Y-100862408D01*
X146626524Y-100783804D01*
X146766602Y-100682032D01*
X146889032Y-100559602D01*
X146990804Y-100419524D01*
X147069408Y-100265257D01*
X147122914Y-100100584D01*
X147150000Y-99929571D01*
X147150000Y-99818000D01*
X146330330Y-99818000D01*
X146350075Y-99798255D01*
X146399444Y-99712745D01*
X146425000Y-99617370D01*
X146425000Y-99518630D01*
X146399444Y-99423255D01*
X146350075Y-99337745D01*
X146330330Y-99318000D01*
X147150000Y-99318000D01*
X147150000Y-99206428D01*
X147122914Y-99035415D01*
X147088062Y-98928153D01*
X147076635Y-98892983D01*
X162253500Y-98892983D01*
X162253500Y-100243001D01*
X162253501Y-100243018D01*
X162264000Y-100345796D01*
X162264001Y-100345799D01*
X162319185Y-100512331D01*
X162319186Y-100512334D01*
X162411288Y-100661656D01*
X162535344Y-100785712D01*
X162684666Y-100877814D01*
X162851203Y-100932999D01*
X162953991Y-100943500D01*
X163754008Y-100943499D01*
X163754016Y-100943498D01*
X163754019Y-100943498D01*
X163810302Y-100937748D01*
X163856797Y-100932999D01*
X164023334Y-100877814D01*
X164172656Y-100785712D01*
X164296712Y-100661656D01*
X164336581Y-100597016D01*
X164388525Y-100550294D01*
X164457488Y-100539071D01*
X164521570Y-100566914D01*
X164529799Y-100574434D01*
X164637397Y-100682032D01*
X164777475Y-100783804D01*
X164931744Y-100862408D01*
X165096415Y-100915914D01*
X165096414Y-100915914D01*
X165103999Y-100917115D01*
X165104000Y-100917114D01*
X165104000Y-99848330D01*
X165123745Y-99868075D01*
X165209255Y-99917444D01*
X165304630Y-99943000D01*
X165403370Y-99943000D01*
X165498745Y-99917444D01*
X165584255Y-99868075D01*
X165604000Y-99848330D01*
X165604000Y-100917115D01*
X165611584Y-100915914D01*
X165776255Y-100862408D01*
X165930524Y-100783804D01*
X166070602Y-100682032D01*
X166193032Y-100559602D01*
X166294804Y-100419524D01*
X166373408Y-100265257D01*
X166426914Y-100100584D01*
X166454000Y-99929571D01*
X166454000Y-99818000D01*
X165634330Y-99818000D01*
X165654075Y-99798255D01*
X165703444Y-99712745D01*
X165729000Y-99617370D01*
X165729000Y-99518630D01*
X165703444Y-99423255D01*
X165654075Y-99337745D01*
X165634330Y-99318000D01*
X166454000Y-99318000D01*
X166454000Y-99206428D01*
X166426914Y-99035415D01*
X166392062Y-98928153D01*
X166380635Y-98892983D01*
X181557500Y-98892983D01*
X181557500Y-100243001D01*
X181557501Y-100243018D01*
X181568000Y-100345796D01*
X181568001Y-100345799D01*
X181623185Y-100512331D01*
X181623186Y-100512334D01*
X181715288Y-100661656D01*
X181839344Y-100785712D01*
X181988666Y-100877814D01*
X182155203Y-100932999D01*
X182257991Y-100943500D01*
X183058008Y-100943499D01*
X183058016Y-100943498D01*
X183058019Y-100943498D01*
X183114302Y-100937748D01*
X183160797Y-100932999D01*
X183327334Y-100877814D01*
X183476656Y-100785712D01*
X183600712Y-100661656D01*
X183640581Y-100597016D01*
X183692525Y-100550294D01*
X183761488Y-100539071D01*
X183825570Y-100566914D01*
X183833799Y-100574434D01*
X183941397Y-100682032D01*
X184081475Y-100783804D01*
X184235744Y-100862408D01*
X184400415Y-100915914D01*
X184400414Y-100915914D01*
X184407999Y-100917115D01*
X184408000Y-100917114D01*
X184408000Y-99848330D01*
X184427745Y-99868075D01*
X184513255Y-99917444D01*
X184608630Y-99943000D01*
X184707370Y-99943000D01*
X184802745Y-99917444D01*
X184888255Y-99868075D01*
X184908000Y-99848330D01*
X184908000Y-100917115D01*
X184915584Y-100915914D01*
X185080255Y-100862408D01*
X185234524Y-100783804D01*
X185374602Y-100682032D01*
X185497032Y-100559602D01*
X185598804Y-100419524D01*
X185677408Y-100265257D01*
X185730914Y-100100584D01*
X185758000Y-99929571D01*
X185758000Y-99818000D01*
X184938330Y-99818000D01*
X184958075Y-99798255D01*
X185007444Y-99712745D01*
X185033000Y-99617370D01*
X185033000Y-99518630D01*
X185007444Y-99423255D01*
X184958075Y-99337745D01*
X184938330Y-99318000D01*
X185758000Y-99318000D01*
X185758000Y-99206428D01*
X185730914Y-99035415D01*
X185677408Y-98870742D01*
X185598804Y-98716475D01*
X185497032Y-98576397D01*
X185374602Y-98453967D01*
X185234524Y-98352195D01*
X185080257Y-98273591D01*
X184915589Y-98220087D01*
X184915581Y-98220085D01*
X184908000Y-98218884D01*
X184908000Y-99287670D01*
X184888255Y-99267925D01*
X184802745Y-99218556D01*
X184707370Y-99193000D01*
X184608630Y-99193000D01*
X184513255Y-99218556D01*
X184427745Y-99267925D01*
X184408000Y-99287670D01*
X184408000Y-98218884D01*
X184407999Y-98218884D01*
X184400418Y-98220085D01*
X184400410Y-98220087D01*
X184235742Y-98273591D01*
X184081475Y-98352195D01*
X183941401Y-98453964D01*
X183833799Y-98561566D01*
X183772476Y-98595050D01*
X183702784Y-98590066D01*
X183646851Y-98548194D01*
X183640585Y-98538988D01*
X183600712Y-98474344D01*
X183476656Y-98350288D01*
X183327334Y-98258186D01*
X183160797Y-98203001D01*
X183160795Y-98203000D01*
X183058010Y-98192500D01*
X182257998Y-98192500D01*
X182257980Y-98192501D01*
X182155203Y-98203000D01*
X182155200Y-98203001D01*
X181988668Y-98258185D01*
X181988663Y-98258187D01*
X181839342Y-98350289D01*
X181715289Y-98474342D01*
X181623187Y-98623663D01*
X181623186Y-98623666D01*
X181568001Y-98790203D01*
X181568001Y-98790204D01*
X181568000Y-98790204D01*
X181557500Y-98892983D01*
X166380635Y-98892983D01*
X166373408Y-98870742D01*
X166294804Y-98716475D01*
X166193032Y-98576397D01*
X166070602Y-98453967D01*
X165930524Y-98352195D01*
X165776257Y-98273591D01*
X165611589Y-98220087D01*
X165611581Y-98220085D01*
X165604000Y-98218884D01*
X165604000Y-99287670D01*
X165584255Y-99267925D01*
X165498745Y-99218556D01*
X165403370Y-99193000D01*
X165304630Y-99193000D01*
X165209255Y-99218556D01*
X165123745Y-99267925D01*
X165104000Y-99287670D01*
X165104000Y-98218884D01*
X165103999Y-98218884D01*
X165096418Y-98220085D01*
X165096410Y-98220087D01*
X164931742Y-98273591D01*
X164777475Y-98352195D01*
X164637401Y-98453964D01*
X164529799Y-98561566D01*
X164468476Y-98595050D01*
X164398784Y-98590066D01*
X164342851Y-98548194D01*
X164336585Y-98538988D01*
X164296712Y-98474344D01*
X164172656Y-98350288D01*
X164023334Y-98258186D01*
X163856797Y-98203001D01*
X163856795Y-98203000D01*
X163754010Y-98192500D01*
X162953998Y-98192500D01*
X162953980Y-98192501D01*
X162851203Y-98203000D01*
X162851200Y-98203001D01*
X162684668Y-98258185D01*
X162684663Y-98258187D01*
X162535342Y-98350289D01*
X162411289Y-98474342D01*
X162319187Y-98623663D01*
X162319186Y-98623666D01*
X162264001Y-98790203D01*
X162264001Y-98790204D01*
X162264000Y-98790204D01*
X162253500Y-98892983D01*
X147076635Y-98892983D01*
X147069408Y-98870742D01*
X146990804Y-98716475D01*
X146889032Y-98576397D01*
X146766602Y-98453967D01*
X146626524Y-98352195D01*
X146472257Y-98273591D01*
X146307589Y-98220087D01*
X146307581Y-98220085D01*
X146300000Y-98218884D01*
X146300000Y-99287670D01*
X146280255Y-99267925D01*
X146194745Y-99218556D01*
X146099370Y-99193000D01*
X146000630Y-99193000D01*
X145905255Y-99218556D01*
X145819745Y-99267925D01*
X145800000Y-99287670D01*
X145800000Y-98218884D01*
X145799999Y-98218884D01*
X145792418Y-98220085D01*
X145792410Y-98220087D01*
X145627742Y-98273591D01*
X145473475Y-98352195D01*
X145333401Y-98453964D01*
X145225799Y-98561566D01*
X145164476Y-98595050D01*
X145094784Y-98590066D01*
X145038851Y-98548194D01*
X145032585Y-98538988D01*
X144992712Y-98474344D01*
X144868656Y-98350288D01*
X144719334Y-98258186D01*
X144552797Y-98203001D01*
X144552795Y-98203000D01*
X144450010Y-98192500D01*
X143649998Y-98192500D01*
X143649980Y-98192501D01*
X143547203Y-98203000D01*
X143547200Y-98203001D01*
X143380668Y-98258185D01*
X143380663Y-98258187D01*
X143231342Y-98350289D01*
X143107289Y-98474342D01*
X143015187Y-98623663D01*
X143015186Y-98623666D01*
X142960001Y-98790203D01*
X142960001Y-98790204D01*
X142960000Y-98790204D01*
X142949500Y-98892983D01*
X128178130Y-98892983D01*
X128205449Y-98802923D01*
X128205452Y-98802906D01*
X128205454Y-98802902D01*
X128247789Y-98590066D01*
X128268714Y-98484868D01*
X128300500Y-98162143D01*
X128300500Y-97837860D01*
X187699500Y-97837860D01*
X187699500Y-98162139D01*
X187731284Y-98484857D01*
X187731287Y-98484874D01*
X187794545Y-98802902D01*
X187794548Y-98802913D01*
X187888686Y-99113247D01*
X188012786Y-99412849D01*
X188012788Y-99412854D01*
X188165646Y-99698830D01*
X188165657Y-99698848D01*
X188345811Y-99968467D01*
X188345821Y-99968481D01*
X188551546Y-100219158D01*
X188780841Y-100448453D01*
X188780846Y-100448457D01*
X188780847Y-100448458D01*
X189031524Y-100654183D01*
X189301158Y-100834347D01*
X189301167Y-100834352D01*
X189301169Y-100834353D01*
X189587145Y-100987211D01*
X189587147Y-100987211D01*
X189587153Y-100987215D01*
X189886754Y-101111314D01*
X190197077Y-101205449D01*
X190197083Y-101205450D01*
X190197086Y-101205451D01*
X190197097Y-101205454D01*
X190396528Y-101245122D01*
X190515132Y-101268714D01*
X190837857Y-101300500D01*
X190837860Y-101300500D01*
X191162140Y-101300500D01*
X191162143Y-101300500D01*
X191484868Y-101268714D01*
X191642295Y-101237399D01*
X191802902Y-101205454D01*
X191802913Y-101205451D01*
X191802913Y-101205450D01*
X191802923Y-101205449D01*
X192113246Y-101111314D01*
X192412847Y-100987215D01*
X192698842Y-100834347D01*
X192968476Y-100654183D01*
X193219153Y-100448458D01*
X193448458Y-100219153D01*
X193654183Y-99968476D01*
X193834347Y-99698842D01*
X193987215Y-99412847D01*
X194111314Y-99113246D01*
X194205449Y-98802923D01*
X194205451Y-98802913D01*
X194205454Y-98802902D01*
X194247789Y-98590066D01*
X194268714Y-98484868D01*
X194300500Y-98162143D01*
X194300500Y-97837857D01*
X194268714Y-97515132D01*
X194245122Y-97396528D01*
X194205454Y-97197097D01*
X194205451Y-97197086D01*
X194205450Y-97197083D01*
X194205449Y-97197077D01*
X194111314Y-96886754D01*
X193987215Y-96587153D01*
X193926116Y-96472846D01*
X193834353Y-96301169D01*
X193834352Y-96301167D01*
X193834347Y-96301158D01*
X193654183Y-96031524D01*
X193448458Y-95780847D01*
X193448457Y-95780846D01*
X193448453Y-95780841D01*
X193219158Y-95551546D01*
X192968481Y-95345821D01*
X192968480Y-95345820D01*
X192968476Y-95345817D01*
X192698842Y-95165653D01*
X192698837Y-95165650D01*
X192698830Y-95165646D01*
X192412854Y-95012788D01*
X192412849Y-95012786D01*
X192113247Y-94888686D01*
X191802913Y-94794548D01*
X191802902Y-94794545D01*
X191484874Y-94731287D01*
X191484857Y-94731284D01*
X191240812Y-94707248D01*
X191162143Y-94699500D01*
X190837857Y-94699500D01*
X190765099Y-94706666D01*
X190515142Y-94731284D01*
X190515125Y-94731287D01*
X190197097Y-94794545D01*
X190197086Y-94794548D01*
X189886752Y-94888686D01*
X189587150Y-95012786D01*
X189587145Y-95012788D01*
X189301169Y-95165646D01*
X189301151Y-95165657D01*
X189031532Y-95345811D01*
X189031518Y-95345821D01*
X188780841Y-95551546D01*
X188551546Y-95780841D01*
X188345821Y-96031518D01*
X188345811Y-96031532D01*
X188165657Y-96301151D01*
X188165646Y-96301169D01*
X188012788Y-96587145D01*
X188012786Y-96587150D01*
X187888686Y-96886752D01*
X187794548Y-97197086D01*
X187794545Y-97197097D01*
X187731287Y-97515125D01*
X187731284Y-97515142D01*
X187699500Y-97837860D01*
X128300500Y-97837860D01*
X128300500Y-97837857D01*
X128268714Y-97515132D01*
X128245122Y-97396528D01*
X128205454Y-97197097D01*
X128205451Y-97197086D01*
X128205450Y-97197083D01*
X128205449Y-97197077D01*
X128111314Y-96886754D01*
X127987215Y-96587153D01*
X127926116Y-96472846D01*
X127834353Y-96301169D01*
X127834352Y-96301167D01*
X127834347Y-96301158D01*
X127654183Y-96031524D01*
X127448458Y-95780847D01*
X127448457Y-95780846D01*
X127448453Y-95780841D01*
X127219158Y-95551546D01*
X126968481Y-95345821D01*
X126968480Y-95345820D01*
X126968476Y-95345817D01*
X126698842Y-95165653D01*
X126698837Y-95165650D01*
X126698830Y-95165646D01*
X126412854Y-95012788D01*
X126412849Y-95012786D01*
X126113247Y-94888686D01*
X125802913Y-94794548D01*
X125802902Y-94794545D01*
X125484874Y-94731287D01*
X125484857Y-94731284D01*
X125240812Y-94707248D01*
X125162143Y-94699500D01*
X124837857Y-94699500D01*
X124765099Y-94706666D01*
X124515142Y-94731284D01*
X124515125Y-94731287D01*
X124197097Y-94794545D01*
X124197086Y-94794548D01*
X123886752Y-94888686D01*
X123587150Y-95012786D01*
X123587145Y-95012788D01*
X123301169Y-95165646D01*
X123301151Y-95165657D01*
X123031532Y-95345811D01*
X123031518Y-95345821D01*
X122780841Y-95551546D01*
X122551546Y-95780841D01*
X122345821Y-96031518D01*
X122345811Y-96031532D01*
X122165657Y-96301151D01*
X122165646Y-96301169D01*
X122012788Y-96587145D01*
X122012786Y-96587150D01*
X121888686Y-96886752D01*
X121794548Y-97197086D01*
X121794545Y-97197097D01*
X121731287Y-97515125D01*
X121731284Y-97515142D01*
X121699500Y-97837860D01*
X120050476Y-97837860D01*
X119995535Y-97680848D01*
X119951335Y-97554531D01*
X119806330Y-97253427D01*
X119628525Y-96970451D01*
X119420154Y-96709162D01*
X119183838Y-96472846D01*
X118922549Y-96264475D01*
X118639573Y-96086670D01*
X118639570Y-96086668D01*
X118338472Y-95941666D01*
X118023033Y-95831289D01*
X118023025Y-95831286D01*
X117778655Y-95775510D01*
X117697200Y-95756919D01*
X117697196Y-95756918D01*
X117697187Y-95756917D01*
X117365104Y-95719500D01*
X117365100Y-95719500D01*
X117030900Y-95719500D01*
X117030895Y-95719500D01*
X116698812Y-95756917D01*
X116698800Y-95756919D01*
X116372974Y-95831286D01*
X116372966Y-95831289D01*
X116057527Y-95941666D01*
X115756429Y-96086668D01*
X115473452Y-96264474D01*
X115212162Y-96472845D01*
X114975845Y-96709162D01*
X114767474Y-96970452D01*
X114589668Y-97253429D01*
X114444666Y-97554527D01*
X114334289Y-97869966D01*
X114334286Y-97869974D01*
X114259919Y-98195800D01*
X114259917Y-98195812D01*
X114222500Y-98527895D01*
X113000500Y-98527895D01*
X113000500Y-73710675D01*
X114452500Y-73710675D01*
X114452500Y-73919324D01*
X114485137Y-74125389D01*
X114549612Y-74323820D01*
X114634431Y-74490286D01*
X114644330Y-74509714D01*
X114766965Y-74678505D01*
X114914495Y-74826035D01*
X115083286Y-74948670D01*
X115269184Y-75043389D01*
X115342874Y-75067332D01*
X115400547Y-75106768D01*
X115427746Y-75171127D01*
X115415832Y-75239973D01*
X115368588Y-75291449D01*
X115342874Y-75303192D01*
X115269376Y-75327073D01*
X115083552Y-75421757D01*
X115034180Y-75457627D01*
X115607766Y-76031212D01*
X115565708Y-76042482D01*
X115440292Y-76114890D01*
X115337890Y-76217292D01*
X115265482Y-76342708D01*
X115254212Y-76384765D01*
X114680627Y-75811180D01*
X114644757Y-75860552D01*
X114550075Y-76046372D01*
X114485626Y-76244727D01*
X114453000Y-76450720D01*
X114453000Y-76659279D01*
X114485626Y-76865272D01*
X114550075Y-77063627D01*
X114644759Y-77249451D01*
X114680627Y-77298818D01*
X114680627Y-77298819D01*
X115254212Y-76725234D01*
X115265482Y-76767292D01*
X115337890Y-76892708D01*
X115440292Y-76995110D01*
X115565708Y-77067518D01*
X115607765Y-77078787D01*
X115034179Y-77652371D01*
X115034180Y-77652372D01*
X115083543Y-77688236D01*
X115083556Y-77688244D01*
X115269372Y-77782924D01*
X115343682Y-77807069D01*
X115401357Y-77846507D01*
X115428555Y-77910866D01*
X115416640Y-77979712D01*
X115369396Y-78031188D01*
X115343682Y-78042931D01*
X115269372Y-78067075D01*
X115083552Y-78161757D01*
X115034180Y-78197627D01*
X115607766Y-78771212D01*
X115565708Y-78782482D01*
X115440292Y-78854890D01*
X115337890Y-78957292D01*
X115265482Y-79082708D01*
X115254212Y-79124765D01*
X114680627Y-78551180D01*
X114644757Y-78600552D01*
X114550075Y-78786372D01*
X114485626Y-78984727D01*
X114453000Y-79190720D01*
X114453000Y-79399279D01*
X114485626Y-79605272D01*
X114550075Y-79803627D01*
X114644759Y-79989451D01*
X114680627Y-80038818D01*
X114680627Y-80038819D01*
X115254212Y-79465234D01*
X115265482Y-79507292D01*
X115337890Y-79632708D01*
X115440292Y-79735110D01*
X115565708Y-79807518D01*
X115607765Y-79818787D01*
X115034179Y-80392371D01*
X115034180Y-80392372D01*
X115083543Y-80428236D01*
X115083556Y-80428244D01*
X115269372Y-80522924D01*
X115342873Y-80546806D01*
X115400548Y-80586244D01*
X115427746Y-80650603D01*
X115415831Y-80719449D01*
X115368587Y-80770925D01*
X115342873Y-80782668D01*
X115269179Y-80806612D01*
X115083285Y-80901330D01*
X114914493Y-81023966D01*
X114766966Y-81171493D01*
X114644330Y-81340285D01*
X114549612Y-81526179D01*
X114485137Y-81724610D01*
X114452500Y-81930675D01*
X114452500Y-82139324D01*
X114485137Y-82345389D01*
X114549612Y-82543820D01*
X114610263Y-82662853D01*
X114644330Y-82729714D01*
X114766965Y-82898505D01*
X114914495Y-83046035D01*
X115083286Y-83168670D01*
X115171116Y-83213421D01*
X115269179Y-83263387D01*
X115269181Y-83263387D01*
X115269184Y-83263389D01*
X115342064Y-83287069D01*
X115399739Y-83326507D01*
X115426937Y-83390866D01*
X115415022Y-83459712D01*
X115367778Y-83511188D01*
X115342065Y-83522930D01*
X115323986Y-83528804D01*
X115269179Y-83546612D01*
X115083285Y-83641330D01*
X114914493Y-83763966D01*
X114766966Y-83911493D01*
X114644330Y-84080285D01*
X114549612Y-84266179D01*
X114485137Y-84464610D01*
X114452500Y-84670675D01*
X114452500Y-84879324D01*
X114485137Y-85085389D01*
X114549612Y-85283820D01*
X114628907Y-85439444D01*
X114644330Y-85469714D01*
X114766965Y-85638505D01*
X114914495Y-85786035D01*
X115083286Y-85908670D01*
X115135535Y-85935292D01*
X115269179Y-86003387D01*
X115269181Y-86003387D01*
X115269184Y-86003389D01*
X115342064Y-86027069D01*
X115399739Y-86066507D01*
X115426937Y-86130866D01*
X115415022Y-86199712D01*
X115367778Y-86251188D01*
X115342065Y-86262930D01*
X115323986Y-86268804D01*
X115269179Y-86286612D01*
X115083285Y-86381330D01*
X114914493Y-86503966D01*
X114766966Y-86651493D01*
X114644330Y-86820285D01*
X114549612Y-87006179D01*
X114485137Y-87204610D01*
X114452500Y-87410675D01*
X114452500Y-87619324D01*
X114485137Y-87825389D01*
X114549612Y-88023820D01*
X114634540Y-88190500D01*
X114644330Y-88209714D01*
X114766965Y-88378505D01*
X114914495Y-88526035D01*
X115083286Y-88648670D01*
X115171116Y-88693421D01*
X115269179Y-88743387D01*
X115269181Y-88743387D01*
X115269184Y-88743389D01*
X115342064Y-88767069D01*
X115399739Y-88806507D01*
X115426937Y-88870866D01*
X115415022Y-88939712D01*
X115367778Y-88991188D01*
X115342065Y-89002930D01*
X115323986Y-89008804D01*
X115269179Y-89026612D01*
X115083285Y-89121330D01*
X114914493Y-89243966D01*
X114766966Y-89391493D01*
X114644330Y-89560285D01*
X114549612Y-89746179D01*
X114485137Y-89944610D01*
X114452500Y-90150675D01*
X114452500Y-90359324D01*
X114485137Y-90565389D01*
X114549612Y-90763820D01*
X114614831Y-90891819D01*
X114644330Y-90949714D01*
X114766965Y-91118505D01*
X114914495Y-91266035D01*
X115083286Y-91388670D01*
X115171116Y-91433421D01*
X115269179Y-91483387D01*
X115269181Y-91483387D01*
X115269184Y-91483389D01*
X115375545Y-91517948D01*
X115467610Y-91547862D01*
X115673676Y-91580500D01*
X115673681Y-91580500D01*
X115882324Y-91580500D01*
X116088389Y-91547862D01*
X116286816Y-91483389D01*
X116472714Y-91388670D01*
X116641505Y-91266035D01*
X116789035Y-91118505D01*
X116911670Y-90949714D01*
X116925177Y-90923205D01*
X116935626Y-90912140D01*
X116941949Y-90898297D01*
X116959129Y-90887255D01*
X116973152Y-90872409D01*
X116988831Y-90868167D01*
X117000727Y-90860523D01*
X117035662Y-90855500D01*
X117168500Y-90855500D01*
X117235539Y-90875185D01*
X117281294Y-90927989D01*
X117292500Y-90979500D01*
X117292500Y-92497870D01*
X117292501Y-92497876D01*
X117298908Y-92557483D01*
X117349202Y-92692328D01*
X117349206Y-92692335D01*
X117435452Y-92807544D01*
X117435455Y-92807547D01*
X117550664Y-92893793D01*
X117550671Y-92893797D01*
X117685517Y-92944091D01*
X117685516Y-92944091D01*
X117692444Y-92944835D01*
X117745127Y-92950500D01*
X119042902Y-92950499D01*
X119109941Y-92970184D01*
X119130583Y-92986818D01*
X119848139Y-93704374D01*
X119848149Y-93704385D01*
X119852479Y-93708715D01*
X119852480Y-93708716D01*
X119964284Y-93820520D01*
X120015845Y-93850288D01*
X120051095Y-93870639D01*
X120051097Y-93870641D01*
X120101213Y-93899576D01*
X120101215Y-93899577D01*
X120253942Y-93940500D01*
X120253943Y-93940500D01*
X144200234Y-93940500D01*
X144267273Y-93960185D01*
X144269125Y-93961398D01*
X144400814Y-94049390D01*
X144400827Y-94049397D01*
X144546498Y-94109735D01*
X144546503Y-94109737D01*
X144701153Y-94140499D01*
X144701156Y-94140500D01*
X144701158Y-94140500D01*
X144858844Y-94140500D01*
X144858845Y-94140499D01*
X145013497Y-94109737D01*
X145159179Y-94049394D01*
X145159185Y-94049390D01*
X145290875Y-93961398D01*
X145357553Y-93940520D01*
X145359766Y-93940500D01*
X146637060Y-93940500D01*
X146704099Y-93960185D01*
X146724736Y-93976814D01*
X146797312Y-94049390D01*
X146809712Y-94061790D01*
X146940814Y-94149390D01*
X146940827Y-94149397D01*
X147086498Y-94209735D01*
X147086503Y-94209737D01*
X147241153Y-94240499D01*
X147241156Y-94240500D01*
X147241158Y-94240500D01*
X147398844Y-94240500D01*
X147398845Y-94240499D01*
X147553497Y-94209737D01*
X147699179Y-94149394D01*
X147830289Y-94061789D01*
X147941789Y-93950289D01*
X148029394Y-93819179D01*
X148089737Y-93673497D01*
X148120500Y-93518842D01*
X148120500Y-93361158D01*
X148120500Y-93361155D01*
X148120499Y-93361153D01*
X148092921Y-93222510D01*
X148089737Y-93206503D01*
X148036024Y-93076827D01*
X148029397Y-93060827D01*
X148029390Y-93060814D01*
X147941789Y-92929711D01*
X147941786Y-92929707D01*
X147830292Y-92818213D01*
X147830288Y-92818210D01*
X147699185Y-92730609D01*
X147699172Y-92730602D01*
X147553501Y-92670264D01*
X147553489Y-92670261D01*
X147398845Y-92639500D01*
X147398842Y-92639500D01*
X147241158Y-92639500D01*
X147241155Y-92639500D01*
X147086510Y-92670261D01*
X147086498Y-92670264D01*
X146942136Y-92730061D01*
X146894684Y-92739500D01*
X145359766Y-92739500D01*
X145292727Y-92719815D01*
X145290875Y-92718602D01*
X145159185Y-92630609D01*
X145159172Y-92630602D01*
X145013501Y-92570264D01*
X145013489Y-92570261D01*
X144858845Y-92539500D01*
X144858842Y-92539500D01*
X144701158Y-92539500D01*
X144701155Y-92539500D01*
X144546510Y-92570261D01*
X144546498Y-92570264D01*
X144400827Y-92630602D01*
X144400814Y-92630609D01*
X144269125Y-92718602D01*
X144202447Y-92739480D01*
X144200234Y-92739500D01*
X120633097Y-92739500D01*
X120566058Y-92719815D01*
X120545416Y-92703181D01*
X119979818Y-92137583D01*
X119946333Y-92076260D01*
X119943499Y-92049902D01*
X119943499Y-90979500D01*
X119963184Y-90912461D01*
X120015988Y-90866706D01*
X120067499Y-90855500D01*
X160444903Y-90855500D01*
X160511942Y-90875185D01*
X160532584Y-90891819D01*
X162995425Y-93354660D01*
X163028910Y-93415983D01*
X163029361Y-93418149D01*
X163060261Y-93573491D01*
X163060264Y-93573501D01*
X163120602Y-93719172D01*
X163120609Y-93719185D01*
X163208210Y-93850288D01*
X163208213Y-93850292D01*
X163319707Y-93961786D01*
X163319711Y-93961789D01*
X163450814Y-94049390D01*
X163450827Y-94049397D01*
X163596498Y-94109735D01*
X163596503Y-94109737D01*
X163751153Y-94140499D01*
X163751156Y-94140500D01*
X163751158Y-94140500D01*
X163908844Y-94140500D01*
X163908845Y-94140499D01*
X164063497Y-94109737D01*
X164209179Y-94049394D01*
X164209185Y-94049390D01*
X164340875Y-93961398D01*
X164407553Y-93940520D01*
X164409766Y-93940500D01*
X165671059Y-93940500D01*
X165738098Y-93960185D01*
X165758740Y-93976819D01*
X165859707Y-94077786D01*
X165859711Y-94077789D01*
X165990814Y-94165390D01*
X165990827Y-94165397D01*
X166136498Y-94225735D01*
X166136503Y-94225737D01*
X166291153Y-94256499D01*
X166291156Y-94256500D01*
X166291158Y-94256500D01*
X166448844Y-94256500D01*
X166448845Y-94256499D01*
X166603497Y-94225737D01*
X166749179Y-94165394D01*
X166880289Y-94077789D01*
X166991789Y-93966289D01*
X167079394Y-93835179D01*
X167139737Y-93689497D01*
X167170500Y-93534842D01*
X167170500Y-93377158D01*
X167170500Y-93377155D01*
X167170499Y-93377153D01*
X167139738Y-93222510D01*
X167139737Y-93222503D01*
X167133108Y-93206498D01*
X167079397Y-93076827D01*
X167079390Y-93076814D01*
X166991789Y-92945711D01*
X166991786Y-92945707D01*
X166880292Y-92834213D01*
X166880288Y-92834210D01*
X166749185Y-92746609D01*
X166749172Y-92746602D01*
X166603501Y-92686264D01*
X166603489Y-92686261D01*
X166448845Y-92655500D01*
X166448842Y-92655500D01*
X166291158Y-92655500D01*
X166291155Y-92655500D01*
X166136510Y-92686261D01*
X166136498Y-92686264D01*
X166030764Y-92730061D01*
X165983312Y-92739500D01*
X164409766Y-92739500D01*
X164342727Y-92719815D01*
X164340875Y-92718602D01*
X164209185Y-92630609D01*
X164209172Y-92630602D01*
X164063501Y-92570264D01*
X164063491Y-92570261D01*
X163908149Y-92539361D01*
X163846238Y-92506976D01*
X163844660Y-92505425D01*
X161232590Y-89893355D01*
X161232588Y-89893352D01*
X161113717Y-89774481D01*
X161113716Y-89774480D01*
X161026904Y-89724360D01*
X161026904Y-89724359D01*
X161026902Y-89724359D01*
X161013959Y-89716886D01*
X160965745Y-89666321D01*
X160952521Y-89597714D01*
X160978489Y-89532849D01*
X161035403Y-89492320D01*
X161075960Y-89485500D01*
X178378903Y-89485500D01*
X178445942Y-89505185D01*
X178466584Y-89521819D01*
X182299425Y-93354660D01*
X182332910Y-93415983D01*
X182333361Y-93418149D01*
X182364261Y-93573491D01*
X182364264Y-93573501D01*
X182424602Y-93719172D01*
X182424609Y-93719185D01*
X182512210Y-93850288D01*
X182512213Y-93850292D01*
X182623707Y-93961786D01*
X182623711Y-93961789D01*
X182754814Y-94049390D01*
X182754827Y-94049397D01*
X182900498Y-94109735D01*
X182900503Y-94109737D01*
X183055153Y-94140499D01*
X183055156Y-94140500D01*
X183055158Y-94140500D01*
X183212844Y-94140500D01*
X183212845Y-94140499D01*
X183367497Y-94109737D01*
X183513179Y-94049394D01*
X183513185Y-94049390D01*
X183644875Y-93961398D01*
X183711553Y-93940520D01*
X183713766Y-93940500D01*
X184975059Y-93940500D01*
X185042098Y-93960185D01*
X185062740Y-93976819D01*
X185163707Y-94077786D01*
X185163711Y-94077789D01*
X185294814Y-94165390D01*
X185294827Y-94165397D01*
X185440498Y-94225735D01*
X185440503Y-94225737D01*
X185595153Y-94256499D01*
X185595156Y-94256500D01*
X185595158Y-94256500D01*
X185752844Y-94256500D01*
X185752845Y-94256499D01*
X185907497Y-94225737D01*
X186053179Y-94165394D01*
X186184289Y-94077789D01*
X186295789Y-93966289D01*
X186383394Y-93835179D01*
X186443737Y-93689497D01*
X186474500Y-93534842D01*
X186474500Y-93377158D01*
X186474500Y-93377155D01*
X186474499Y-93377153D01*
X186443738Y-93222510D01*
X186443737Y-93222503D01*
X186437108Y-93206498D01*
X186383397Y-93076827D01*
X186383390Y-93076814D01*
X186295789Y-92945711D01*
X186295786Y-92945707D01*
X186184292Y-92834213D01*
X186184288Y-92834210D01*
X186053185Y-92746609D01*
X186053172Y-92746602D01*
X185907501Y-92686264D01*
X185907489Y-92686261D01*
X185752845Y-92655500D01*
X185752842Y-92655500D01*
X185595158Y-92655500D01*
X185595155Y-92655500D01*
X185440510Y-92686261D01*
X185440498Y-92686264D01*
X185334764Y-92730061D01*
X185287312Y-92739500D01*
X183713766Y-92739500D01*
X183646727Y-92719815D01*
X183644875Y-92718602D01*
X183513185Y-92630609D01*
X183513172Y-92630602D01*
X183367501Y-92570264D01*
X183367491Y-92570261D01*
X183212149Y-92539361D01*
X183150238Y-92506976D01*
X183148660Y-92505425D01*
X179166590Y-88523355D01*
X179159521Y-88516286D01*
X179159520Y-88516284D01*
X179069414Y-88426178D01*
X179045536Y-88382446D01*
X179035932Y-88364858D01*
X179040916Y-88295166D01*
X179082788Y-88239233D01*
X179148252Y-88214816D01*
X179157098Y-88214500D01*
X183840234Y-88214500D01*
X183907273Y-88234185D01*
X183909125Y-88235398D01*
X184040814Y-88323390D01*
X184040827Y-88323397D01*
X184183386Y-88382446D01*
X184186503Y-88383737D01*
X184341153Y-88414499D01*
X184341156Y-88414500D01*
X184341158Y-88414500D01*
X184498844Y-88414500D01*
X184498845Y-88414499D01*
X184653497Y-88383737D01*
X184799179Y-88323394D01*
X184930289Y-88235789D01*
X185041789Y-88124289D01*
X185129394Y-87993179D01*
X185189737Y-87847497D01*
X185220500Y-87692842D01*
X185220500Y-87535158D01*
X185220500Y-87535155D01*
X185220499Y-87535153D01*
X185195740Y-87410681D01*
X185189737Y-87380503D01*
X185189735Y-87380498D01*
X185129397Y-87234827D01*
X185129390Y-87234814D01*
X185041398Y-87103125D01*
X185020520Y-87036447D01*
X185020500Y-87034234D01*
X185020500Y-86689983D01*
X191246500Y-86689983D01*
X191246500Y-87490001D01*
X191246501Y-87490019D01*
X191257000Y-87592796D01*
X191257001Y-87592799D01*
X191290153Y-87692844D01*
X191312186Y-87759334D01*
X191404288Y-87908656D01*
X191528344Y-88032712D01*
X191677666Y-88124814D01*
X191844203Y-88179999D01*
X191946991Y-88190500D01*
X193297008Y-88190499D01*
X193399797Y-88179999D01*
X193566334Y-88124814D01*
X193715656Y-88032712D01*
X193839712Y-87908656D01*
X193931814Y-87759334D01*
X193986999Y-87592797D01*
X193997500Y-87490009D01*
X193997499Y-86689992D01*
X193993566Y-86651495D01*
X193986999Y-86587203D01*
X193986998Y-86587200D01*
X193931814Y-86420666D01*
X193839712Y-86271344D01*
X193715656Y-86147288D01*
X193715655Y-86147287D01*
X193651019Y-86107420D01*
X193604294Y-86055472D01*
X193593071Y-85986510D01*
X193620914Y-85922428D01*
X193628434Y-85914199D01*
X193736035Y-85806598D01*
X193837804Y-85666524D01*
X193916408Y-85512255D01*
X193969914Y-85347584D01*
X193971115Y-85340000D01*
X192902330Y-85340000D01*
X192922075Y-85320255D01*
X192971444Y-85234745D01*
X192997000Y-85139370D01*
X192997000Y-85040630D01*
X192971444Y-84945255D01*
X192922075Y-84859745D01*
X192902330Y-84840000D01*
X193971115Y-84840000D01*
X193971115Y-84839999D01*
X193969914Y-84832415D01*
X193916408Y-84667744D01*
X193837804Y-84513475D01*
X193736032Y-84373397D01*
X193613602Y-84250967D01*
X193473524Y-84149195D01*
X193319257Y-84070591D01*
X193154584Y-84017085D01*
X192983571Y-83990000D01*
X192872000Y-83990000D01*
X192872000Y-84809670D01*
X192852255Y-84789925D01*
X192766745Y-84740556D01*
X192671370Y-84715000D01*
X192572630Y-84715000D01*
X192477255Y-84740556D01*
X192391745Y-84789925D01*
X192372000Y-84809670D01*
X192372000Y-83990000D01*
X192260429Y-83990000D01*
X192089415Y-84017085D01*
X191924742Y-84070591D01*
X191770475Y-84149195D01*
X191630397Y-84250967D01*
X191507967Y-84373397D01*
X191406195Y-84513475D01*
X191327591Y-84667744D01*
X191274085Y-84832415D01*
X191272884Y-84839999D01*
X191272885Y-84840000D01*
X192341670Y-84840000D01*
X192321925Y-84859745D01*
X192272556Y-84945255D01*
X192247000Y-85040630D01*
X192247000Y-85139370D01*
X192272556Y-85234745D01*
X192321925Y-85320255D01*
X192341670Y-85340000D01*
X191272885Y-85340000D01*
X191274085Y-85347584D01*
X191327591Y-85512255D01*
X191406195Y-85666524D01*
X191507967Y-85806602D01*
X191615565Y-85914200D01*
X191649050Y-85975523D01*
X191644066Y-86045215D01*
X191602194Y-86101148D01*
X191592981Y-86107420D01*
X191528342Y-86147289D01*
X191404289Y-86271342D01*
X191312187Y-86420663D01*
X191312186Y-86420666D01*
X191257001Y-86587203D01*
X191257001Y-86587204D01*
X191257000Y-86587204D01*
X191246500Y-86689983D01*
X185020500Y-86689983D01*
X185020500Y-86057940D01*
X185040185Y-85990901D01*
X185056820Y-85970258D01*
X185091786Y-85935292D01*
X185091789Y-85935289D01*
X185179394Y-85804179D01*
X185239737Y-85658497D01*
X185270500Y-85503842D01*
X185270500Y-85346158D01*
X185270500Y-85346155D01*
X185270499Y-85346153D01*
X185269275Y-85340000D01*
X185239737Y-85191503D01*
X185218143Y-85139370D01*
X185179397Y-85045827D01*
X185179390Y-85045814D01*
X185112668Y-84945958D01*
X185112667Y-84945957D01*
X185091786Y-84914707D01*
X184980292Y-84803213D01*
X184980288Y-84803210D01*
X184849185Y-84715609D01*
X184849172Y-84715602D01*
X184703501Y-84655264D01*
X184703489Y-84655261D01*
X184548845Y-84624500D01*
X184548842Y-84624500D01*
X184391158Y-84624500D01*
X184391155Y-84624500D01*
X184236510Y-84655261D01*
X184236498Y-84655264D01*
X184090827Y-84715602D01*
X184090814Y-84715609D01*
X183959711Y-84803210D01*
X183959707Y-84803213D01*
X183848213Y-84914707D01*
X183848210Y-84914711D01*
X183760609Y-85045814D01*
X183760602Y-85045827D01*
X183700264Y-85191498D01*
X183700261Y-85191510D01*
X183669500Y-85346153D01*
X183669500Y-85503846D01*
X183700261Y-85658489D01*
X183700264Y-85658501D01*
X183760602Y-85804172D01*
X183760606Y-85804179D01*
X183798602Y-85861044D01*
X183819480Y-85927721D01*
X183819500Y-85929935D01*
X183819500Y-86889500D01*
X183799815Y-86956539D01*
X183747011Y-87002294D01*
X183695500Y-87013500D01*
X119865471Y-87013500D01*
X119862829Y-87012724D01*
X119860158Y-87013386D01*
X119829503Y-87002938D01*
X119798432Y-86993815D01*
X119796629Y-86991735D01*
X119794024Y-86990847D01*
X119773880Y-86965480D01*
X119752677Y-86941011D01*
X119752285Y-86938287D01*
X119750573Y-86936131D01*
X119747341Y-86903904D01*
X119742733Y-86871853D01*
X119743792Y-86868510D01*
X119743602Y-86866610D01*
X119754987Y-86833203D01*
X119765178Y-86813203D01*
X119813154Y-86762408D01*
X119875662Y-86745500D01*
X170562331Y-86745500D01*
X170562347Y-86745501D01*
X170569943Y-86745501D01*
X170728054Y-86745501D01*
X170728057Y-86745501D01*
X170880785Y-86704577D01*
X170968705Y-86653816D01*
X171017716Y-86625520D01*
X171129520Y-86513716D01*
X171129520Y-86513714D01*
X171139724Y-86503511D01*
X171139727Y-86503506D01*
X177520416Y-80122819D01*
X177581739Y-80089334D01*
X177608097Y-80086500D01*
X183856234Y-80086500D01*
X183923273Y-80106185D01*
X183925125Y-80107398D01*
X184056814Y-80195390D01*
X184056827Y-80195397D01*
X184202498Y-80255735D01*
X184202503Y-80255737D01*
X184357153Y-80286499D01*
X184357156Y-80286500D01*
X184357158Y-80286500D01*
X184514844Y-80286500D01*
X184514845Y-80286499D01*
X184669497Y-80255737D01*
X184815179Y-80195394D01*
X184946289Y-80107789D01*
X185057789Y-79996289D01*
X185145394Y-79865179D01*
X185205737Y-79719497D01*
X185236500Y-79564842D01*
X185236500Y-79407158D01*
X185236500Y-79407155D01*
X185236499Y-79407153D01*
X185234933Y-79399279D01*
X185205737Y-79252503D01*
X185179356Y-79188813D01*
X185145395Y-79106823D01*
X185134164Y-79090015D01*
X185091398Y-79026010D01*
X185070520Y-78959332D01*
X185070500Y-78957119D01*
X185070500Y-78561983D01*
X191246500Y-78561983D01*
X191246500Y-79362001D01*
X191246501Y-79362019D01*
X191257000Y-79464796D01*
X191257001Y-79464799D01*
X191303550Y-79605272D01*
X191312186Y-79631334D01*
X191404288Y-79780656D01*
X191528344Y-79904712D01*
X191677666Y-79996814D01*
X191844203Y-80051999D01*
X191946991Y-80062500D01*
X193297008Y-80062499D01*
X193399797Y-80051999D01*
X193566334Y-79996814D01*
X193715656Y-79904712D01*
X193839712Y-79780656D01*
X193931814Y-79631334D01*
X193986999Y-79464797D01*
X193997500Y-79362009D01*
X193997499Y-78561992D01*
X193996394Y-78551179D01*
X193986999Y-78459203D01*
X193986998Y-78459200D01*
X193978524Y-78433627D01*
X193931814Y-78292666D01*
X193839712Y-78143344D01*
X193715656Y-78019288D01*
X193715655Y-78019287D01*
X193671988Y-77992353D01*
X193651018Y-77979419D01*
X193604294Y-77927472D01*
X193593071Y-77858510D01*
X193620914Y-77794428D01*
X193628434Y-77786199D01*
X193736035Y-77678598D01*
X193837804Y-77538524D01*
X193916408Y-77384255D01*
X193969914Y-77219584D01*
X193971115Y-77212000D01*
X192902330Y-77212000D01*
X192922075Y-77192255D01*
X192971444Y-77106745D01*
X192997000Y-77011370D01*
X192997000Y-76912630D01*
X192971444Y-76817255D01*
X192922075Y-76731745D01*
X192902330Y-76712000D01*
X193971115Y-76712000D01*
X193971115Y-76711999D01*
X193969914Y-76704415D01*
X193916408Y-76539744D01*
X193837804Y-76385475D01*
X193736032Y-76245397D01*
X193613602Y-76122967D01*
X193473524Y-76021195D01*
X193319257Y-75942591D01*
X193154584Y-75889085D01*
X192983571Y-75862000D01*
X192872000Y-75862000D01*
X192872000Y-76681670D01*
X192852255Y-76661925D01*
X192766745Y-76612556D01*
X192671370Y-76587000D01*
X192572630Y-76587000D01*
X192477255Y-76612556D01*
X192391745Y-76661925D01*
X192372000Y-76681670D01*
X192372000Y-75862000D01*
X192260429Y-75862000D01*
X192089415Y-75889085D01*
X191924742Y-75942591D01*
X191770475Y-76021195D01*
X191630397Y-76122967D01*
X191507967Y-76245397D01*
X191406195Y-76385475D01*
X191327591Y-76539744D01*
X191274085Y-76704415D01*
X191272884Y-76711999D01*
X191272885Y-76712000D01*
X192341670Y-76712000D01*
X192321925Y-76731745D01*
X192272556Y-76817255D01*
X192247000Y-76912630D01*
X192247000Y-77011370D01*
X192272556Y-77106745D01*
X192321925Y-77192255D01*
X192341670Y-77212000D01*
X191272885Y-77212000D01*
X191274085Y-77219584D01*
X191327591Y-77384255D01*
X191406195Y-77538524D01*
X191507967Y-77678602D01*
X191615565Y-77786200D01*
X191649050Y-77847523D01*
X191644066Y-77917215D01*
X191602194Y-77973148D01*
X191592983Y-77979418D01*
X191564498Y-77996987D01*
X191528342Y-78019289D01*
X191404289Y-78143342D01*
X191312187Y-78292663D01*
X191312186Y-78292666D01*
X191257001Y-78459203D01*
X191257001Y-78459204D01*
X191257000Y-78459204D01*
X191246500Y-78561983D01*
X185070500Y-78561983D01*
X185070500Y-77833765D01*
X185090185Y-77766726D01*
X185091398Y-77764874D01*
X185179390Y-77633185D01*
X185179390Y-77633184D01*
X185179394Y-77633179D01*
X185239737Y-77487497D01*
X185270500Y-77332842D01*
X185270500Y-77175158D01*
X185270500Y-77175155D01*
X185270499Y-77175153D01*
X185256892Y-77106745D01*
X185239737Y-77020503D01*
X185195055Y-76912630D01*
X185179397Y-76874827D01*
X185179393Y-76874820D01*
X185179389Y-76874814D01*
X185123892Y-76791757D01*
X185091792Y-76743715D01*
X185091786Y-76743707D01*
X184980292Y-76632213D01*
X184980288Y-76632210D01*
X184849185Y-76544609D01*
X184849172Y-76544602D01*
X184703501Y-76484264D01*
X184703489Y-76484261D01*
X184548845Y-76453500D01*
X184548842Y-76453500D01*
X184391158Y-76453500D01*
X184391155Y-76453500D01*
X184236510Y-76484261D01*
X184236498Y-76484264D01*
X184090827Y-76544602D01*
X184090814Y-76544609D01*
X183959711Y-76632210D01*
X183959707Y-76632213D01*
X183848213Y-76743707D01*
X183848210Y-76743711D01*
X183760609Y-76874814D01*
X183760602Y-76874827D01*
X183700264Y-77020498D01*
X183700261Y-77020510D01*
X183669500Y-77175153D01*
X183669500Y-77332846D01*
X183700261Y-77487489D01*
X183700264Y-77487501D01*
X183760602Y-77633172D01*
X183760609Y-77633185D01*
X183848602Y-77764874D01*
X183869480Y-77831551D01*
X183869500Y-77833765D01*
X183869500Y-78761500D01*
X183849815Y-78828539D01*
X183797011Y-78874294D01*
X183745500Y-78885500D01*
X177987097Y-78885500D01*
X177920058Y-78865815D01*
X177874303Y-78813011D01*
X177864359Y-78743853D01*
X177893384Y-78680297D01*
X177899416Y-78673819D01*
X180552040Y-76021195D01*
X183226662Y-73346572D01*
X183287983Y-73313089D01*
X183290150Y-73312638D01*
X183348085Y-73301113D01*
X183445497Y-73281737D01*
X183591179Y-73221394D01*
X183623513Y-73199789D01*
X183722875Y-73133398D01*
X183789553Y-73112520D01*
X183791766Y-73112500D01*
X184941331Y-73112500D01*
X184941347Y-73112501D01*
X184948943Y-73112501D01*
X185107054Y-73112501D01*
X185107057Y-73112501D01*
X185259785Y-73071577D01*
X185309904Y-73042639D01*
X185396716Y-72992520D01*
X185508520Y-72880716D01*
X185508520Y-72880714D01*
X185518728Y-72870507D01*
X185518729Y-72870504D01*
X185688661Y-72700572D01*
X185749983Y-72667089D01*
X185752150Y-72666638D01*
X185810085Y-72655113D01*
X185907497Y-72635737D01*
X186053179Y-72575394D01*
X186184289Y-72487789D01*
X186295789Y-72376289D01*
X186383394Y-72245179D01*
X186443737Y-72099497D01*
X186474500Y-71944842D01*
X186474500Y-71787158D01*
X186474500Y-71787155D01*
X186474499Y-71787153D01*
X186465569Y-71742261D01*
X186443737Y-71632503D01*
X186422608Y-71581493D01*
X186383397Y-71486827D01*
X186383390Y-71486814D01*
X186295789Y-71355711D01*
X186295786Y-71355707D01*
X186184292Y-71244213D01*
X186184288Y-71244210D01*
X186053185Y-71156609D01*
X186053172Y-71156602D01*
X185907501Y-71096264D01*
X185907489Y-71096261D01*
X185752845Y-71065500D01*
X185752842Y-71065500D01*
X185595158Y-71065500D01*
X185595155Y-71065500D01*
X185440510Y-71096261D01*
X185440498Y-71096264D01*
X185294827Y-71156602D01*
X185294814Y-71156609D01*
X185163711Y-71244210D01*
X185163707Y-71244213D01*
X185052213Y-71355707D01*
X185052210Y-71355711D01*
X184964609Y-71486814D01*
X184964602Y-71486827D01*
X184904264Y-71632498D01*
X184904261Y-71632508D01*
X184873361Y-71787850D01*
X184864596Y-71804605D01*
X184860577Y-71823083D01*
X184841832Y-71848123D01*
X184840976Y-71849761D01*
X184839427Y-71851337D01*
X184815586Y-71875179D01*
X184754264Y-71908666D01*
X184727903Y-71911500D01*
X183791766Y-71911500D01*
X183724727Y-71891815D01*
X183722875Y-71890602D01*
X183591185Y-71802609D01*
X183591172Y-71802602D01*
X183445501Y-71742264D01*
X183445489Y-71742261D01*
X183290845Y-71711500D01*
X183290842Y-71711500D01*
X183133158Y-71711500D01*
X183133155Y-71711500D01*
X182978510Y-71742261D01*
X182978498Y-71742264D01*
X182832827Y-71802602D01*
X182832814Y-71802609D01*
X182701711Y-71890210D01*
X182701707Y-71890213D01*
X182590213Y-72001707D01*
X182590210Y-72001711D01*
X182502609Y-72132814D01*
X182502602Y-72132827D01*
X182442264Y-72278498D01*
X182442261Y-72278508D01*
X182411361Y-72433850D01*
X182378976Y-72495761D01*
X182377425Y-72497339D01*
X170736584Y-84138181D01*
X170675261Y-84171666D01*
X170648903Y-84174500D01*
X166142155Y-84174500D01*
X166075116Y-84154815D01*
X166029361Y-84102011D01*
X166019417Y-84032853D01*
X166039053Y-83981609D01*
X166063390Y-83945185D01*
X166063390Y-83945184D01*
X166063394Y-83945179D01*
X166123737Y-83799497D01*
X166154500Y-83644842D01*
X166154500Y-83487158D01*
X166154500Y-83487155D01*
X166154499Y-83487153D01*
X166129306Y-83360500D01*
X166123737Y-83332503D01*
X166104918Y-83287069D01*
X166063397Y-83186827D01*
X166063390Y-83186814D01*
X165975789Y-83055711D01*
X165975786Y-83055707D01*
X165864292Y-82944213D01*
X165864288Y-82944210D01*
X165733185Y-82856609D01*
X165733172Y-82856602D01*
X165587501Y-82796264D01*
X165587489Y-82796261D01*
X165432845Y-82765500D01*
X165432842Y-82765500D01*
X165275158Y-82765500D01*
X165275155Y-82765500D01*
X165120510Y-82796261D01*
X165120498Y-82796264D01*
X164974827Y-82856602D01*
X164974815Y-82856609D01*
X164880541Y-82919602D01*
X164813864Y-82940480D01*
X164811650Y-82940500D01*
X161832350Y-82940500D01*
X161765311Y-82920815D01*
X161763459Y-82919602D01*
X161669184Y-82856609D01*
X161669172Y-82856602D01*
X161523501Y-82796264D01*
X161523489Y-82796261D01*
X161368845Y-82765500D01*
X161368842Y-82765500D01*
X161211158Y-82765500D01*
X161211155Y-82765500D01*
X161056510Y-82796261D01*
X161056498Y-82796264D01*
X160910827Y-82856602D01*
X160910814Y-82856609D01*
X160779711Y-82944210D01*
X160779707Y-82944213D01*
X160668213Y-83055707D01*
X160668210Y-83055711D01*
X160580609Y-83186814D01*
X160580602Y-83186827D01*
X160520264Y-83332498D01*
X160520261Y-83332510D01*
X160489500Y-83487153D01*
X160489500Y-83644846D01*
X160520261Y-83799489D01*
X160520264Y-83799501D01*
X160580602Y-83945172D01*
X160580609Y-83945185D01*
X160604947Y-83981609D01*
X160625825Y-84048287D01*
X160607340Y-84115667D01*
X160555361Y-84162357D01*
X160501845Y-84174500D01*
X153411962Y-84174500D01*
X153344923Y-84154815D01*
X153299168Y-84102011D01*
X153289224Y-84032853D01*
X153318249Y-83969297D01*
X153349957Y-83943115D01*
X153400705Y-83913816D01*
X153449716Y-83885520D01*
X153561520Y-83773716D01*
X153561520Y-83773714D01*
X153571724Y-83763511D01*
X153571727Y-83763506D01*
X163922662Y-73412572D01*
X163983983Y-73379089D01*
X163986150Y-73378638D01*
X164044085Y-73367113D01*
X164141497Y-73347737D01*
X164287179Y-73287394D01*
X164295648Y-73281735D01*
X164418875Y-73199398D01*
X164485553Y-73178520D01*
X164487766Y-73178500D01*
X165633331Y-73178500D01*
X165633347Y-73178501D01*
X165640943Y-73178501D01*
X165799054Y-73178501D01*
X165799057Y-73178501D01*
X165951785Y-73137577D01*
X166036849Y-73088465D01*
X166088716Y-73058520D01*
X166200520Y-72946716D01*
X166200520Y-72946714D01*
X166210724Y-72936511D01*
X166210727Y-72936506D01*
X166462661Y-72684572D01*
X166523983Y-72651089D01*
X166526150Y-72650638D01*
X166601070Y-72635735D01*
X166681497Y-72619737D01*
X166827179Y-72559394D01*
X166958289Y-72471789D01*
X167069789Y-72360289D01*
X167157394Y-72229179D01*
X167169972Y-72198814D01*
X167211108Y-72099501D01*
X167217737Y-72083497D01*
X167248500Y-71928842D01*
X167248500Y-71771158D01*
X167248500Y-71771155D01*
X167248499Y-71771153D01*
X167220921Y-71632510D01*
X167217737Y-71616503D01*
X167203236Y-71581495D01*
X167157397Y-71470827D01*
X167157390Y-71470814D01*
X167069789Y-71339711D01*
X167069786Y-71339707D01*
X166958292Y-71228213D01*
X166958288Y-71228210D01*
X166827185Y-71140609D01*
X166827172Y-71140602D01*
X166681501Y-71080264D01*
X166681489Y-71080261D01*
X166526845Y-71049500D01*
X166526842Y-71049500D01*
X166369158Y-71049500D01*
X166369155Y-71049500D01*
X166214510Y-71080261D01*
X166214498Y-71080264D01*
X166068827Y-71140602D01*
X166068814Y-71140609D01*
X165937711Y-71228210D01*
X165937707Y-71228213D01*
X165826213Y-71339707D01*
X165826210Y-71339711D01*
X165738609Y-71470814D01*
X165738602Y-71470827D01*
X165678264Y-71616498D01*
X165678261Y-71616508D01*
X165647361Y-71771850D01*
X165638595Y-71788607D01*
X165634576Y-71807084D01*
X165615831Y-71832125D01*
X165614976Y-71833761D01*
X165613427Y-71835338D01*
X165507582Y-71941182D01*
X165446262Y-71974666D01*
X165419903Y-71977500D01*
X164487766Y-71977500D01*
X164420727Y-71957815D01*
X164418875Y-71956602D01*
X164287185Y-71868609D01*
X164287172Y-71868602D01*
X164141501Y-71808264D01*
X164141489Y-71808261D01*
X163986845Y-71777500D01*
X163986842Y-71777500D01*
X163829158Y-71777500D01*
X163829155Y-71777500D01*
X163674510Y-71808261D01*
X163674498Y-71808264D01*
X163528827Y-71868602D01*
X163528814Y-71868609D01*
X163397711Y-71956210D01*
X163397707Y-71956213D01*
X163286213Y-72067707D01*
X163286210Y-72067711D01*
X163198609Y-72198814D01*
X163198602Y-72198827D01*
X163138264Y-72344498D01*
X163138261Y-72344508D01*
X163107361Y-72499850D01*
X163074976Y-72561761D01*
X163073425Y-72563339D01*
X152868584Y-82768181D01*
X152807261Y-82801666D01*
X152780903Y-82804500D01*
X135411962Y-82804500D01*
X135344923Y-82784815D01*
X135299168Y-82732011D01*
X135289224Y-82662853D01*
X135318249Y-82599297D01*
X135349957Y-82573115D01*
X135400705Y-82543816D01*
X135449716Y-82515520D01*
X135561520Y-82403716D01*
X135561520Y-82403714D01*
X135571724Y-82393511D01*
X135571727Y-82393506D01*
X144618664Y-73346571D01*
X144679985Y-73313088D01*
X144682152Y-73312637D01*
X144682841Y-73312500D01*
X144682842Y-73312500D01*
X144837497Y-73281737D01*
X144983179Y-73221394D01*
X145015513Y-73199789D01*
X145114875Y-73133398D01*
X145181553Y-73112520D01*
X145183766Y-73112500D01*
X146395331Y-73112500D01*
X146395347Y-73112501D01*
X146402943Y-73112501D01*
X146561054Y-73112501D01*
X146561057Y-73112501D01*
X146713785Y-73071577D01*
X146763904Y-73042639D01*
X146850716Y-72992520D01*
X146962520Y-72880716D01*
X146962520Y-72880714D01*
X146972728Y-72870507D01*
X146972729Y-72870504D01*
X147158661Y-72684572D01*
X147219983Y-72651089D01*
X147222150Y-72650638D01*
X147297070Y-72635735D01*
X147377497Y-72619737D01*
X147523179Y-72559394D01*
X147654289Y-72471789D01*
X147765789Y-72360289D01*
X147853394Y-72229179D01*
X147865972Y-72198814D01*
X147907108Y-72099501D01*
X147913737Y-72083497D01*
X147944500Y-71928842D01*
X147944500Y-71771158D01*
X147944500Y-71771155D01*
X147944499Y-71771153D01*
X147916921Y-71632510D01*
X147913737Y-71616503D01*
X147899236Y-71581495D01*
X147853397Y-71470827D01*
X147853390Y-71470814D01*
X147765789Y-71339711D01*
X147765786Y-71339707D01*
X147654292Y-71228213D01*
X147654288Y-71228210D01*
X147523185Y-71140609D01*
X147523172Y-71140602D01*
X147377501Y-71080264D01*
X147377489Y-71080261D01*
X147222845Y-71049500D01*
X147222842Y-71049500D01*
X147065158Y-71049500D01*
X147065155Y-71049500D01*
X146910510Y-71080261D01*
X146910498Y-71080264D01*
X146764827Y-71140602D01*
X146764814Y-71140609D01*
X146633711Y-71228210D01*
X146633707Y-71228213D01*
X146522213Y-71339707D01*
X146522210Y-71339711D01*
X146434609Y-71470814D01*
X146434602Y-71470827D01*
X146374264Y-71616498D01*
X146374261Y-71616508D01*
X146343361Y-71771850D01*
X146334596Y-71788605D01*
X146330577Y-71807084D01*
X146311832Y-71832122D01*
X146310976Y-71833761D01*
X146309426Y-71835338D01*
X146269585Y-71875180D01*
X146208263Y-71908666D01*
X146181903Y-71911500D01*
X145183766Y-71911500D01*
X145116727Y-71891815D01*
X145114875Y-71890602D01*
X144983185Y-71802609D01*
X144983172Y-71802602D01*
X144837501Y-71742264D01*
X144837489Y-71742261D01*
X144682845Y-71711500D01*
X144682842Y-71711500D01*
X144525158Y-71711500D01*
X144525155Y-71711500D01*
X144370510Y-71742261D01*
X144370498Y-71742264D01*
X144224827Y-71802602D01*
X144224814Y-71802609D01*
X144093711Y-71890210D01*
X144093707Y-71890213D01*
X143982213Y-72001707D01*
X143982210Y-72001711D01*
X143894609Y-72132814D01*
X143894602Y-72132827D01*
X143834264Y-72278498D01*
X143834261Y-72278508D01*
X143803362Y-72433848D01*
X143770977Y-72495759D01*
X143769426Y-72497337D01*
X134868584Y-81398181D01*
X134807261Y-81431666D01*
X134780903Y-81434500D01*
X119915352Y-81434500D01*
X119848313Y-81414815D01*
X119802558Y-81362011D01*
X119792614Y-81292853D01*
X119804867Y-81254205D01*
X119845924Y-81173627D01*
X119910373Y-80975272D01*
X119943000Y-80769279D01*
X119943000Y-80560720D01*
X119910373Y-80354727D01*
X119845924Y-80156372D01*
X119751244Y-79970556D01*
X119751236Y-79970543D01*
X119715372Y-79921180D01*
X119715371Y-79921179D01*
X119141787Y-80494764D01*
X119130518Y-80452708D01*
X119058110Y-80327292D01*
X118955708Y-80224890D01*
X118830292Y-80152482D01*
X118788233Y-80141212D01*
X119361819Y-79567627D01*
X119312451Y-79531759D01*
X119126625Y-79437075D01*
X119052318Y-79412931D01*
X118994642Y-79373493D01*
X118967444Y-79309135D01*
X118979359Y-79240288D01*
X119026603Y-79188813D01*
X119052318Y-79177069D01*
X119126625Y-79152924D01*
X119312451Y-79058240D01*
X119361818Y-79022372D01*
X119361818Y-79022371D01*
X118788234Y-78448787D01*
X118830292Y-78437518D01*
X118955708Y-78365110D01*
X119058110Y-78262708D01*
X119130518Y-78137292D01*
X119141787Y-78095234D01*
X119715371Y-78668818D01*
X119715372Y-78668818D01*
X119751240Y-78619451D01*
X119845924Y-78433627D01*
X119910373Y-78235272D01*
X119943000Y-78029279D01*
X119943000Y-77820720D01*
X119910373Y-77614727D01*
X119845924Y-77416372D01*
X119751244Y-77230556D01*
X119751236Y-77230543D01*
X119715372Y-77181180D01*
X119715371Y-77181179D01*
X119141787Y-77754764D01*
X119130518Y-77712708D01*
X119058110Y-77587292D01*
X118955708Y-77484890D01*
X118830292Y-77412482D01*
X118788233Y-77401212D01*
X119361819Y-76827627D01*
X119312451Y-76791759D01*
X119281827Y-76776155D01*
X124330000Y-76776155D01*
X124330000Y-77474000D01*
X125354722Y-77474000D01*
X125310667Y-77550306D01*
X125280000Y-77664756D01*
X125280000Y-77783244D01*
X125310667Y-77897694D01*
X125354722Y-77974000D01*
X124330000Y-77974000D01*
X124330000Y-78671844D01*
X124336401Y-78731372D01*
X124336403Y-78731379D01*
X124386645Y-78866086D01*
X124386649Y-78866093D01*
X124472809Y-78981187D01*
X124472812Y-78981190D01*
X124587906Y-79067350D01*
X124587913Y-79067354D01*
X124722620Y-79117596D01*
X124722627Y-79117598D01*
X124782155Y-79123999D01*
X124782172Y-79124000D01*
X125480000Y-79124000D01*
X125480000Y-78099277D01*
X125556306Y-78143333D01*
X125670756Y-78174000D01*
X125789244Y-78174000D01*
X125903694Y-78143333D01*
X125980000Y-78099277D01*
X125980000Y-79124000D01*
X126677828Y-79124000D01*
X126677844Y-79123999D01*
X126737372Y-79117598D01*
X126737379Y-79117596D01*
X126872086Y-79067354D01*
X126872093Y-79067350D01*
X126987187Y-78981190D01*
X126987190Y-78981187D01*
X127073350Y-78866093D01*
X127073354Y-78866086D01*
X127103213Y-78786031D01*
X127145084Y-78730097D01*
X127210548Y-78705680D01*
X127278821Y-78720531D01*
X127307076Y-78741683D01*
X127357636Y-78792243D01*
X127357641Y-78792247D01*
X127485994Y-78885500D01*
X127535978Y-78921815D01*
X127664375Y-78987237D01*
X127732393Y-79021895D01*
X127732396Y-79021896D01*
X127837221Y-79055955D01*
X127942049Y-79090015D01*
X128159778Y-79124500D01*
X128159779Y-79124500D01*
X128380221Y-79124500D01*
X128380222Y-79124500D01*
X128597951Y-79090015D01*
X128807606Y-79021895D01*
X129004022Y-78921815D01*
X129182365Y-78792242D01*
X129338242Y-78636365D01*
X129467815Y-78458022D01*
X129567895Y-78261606D01*
X129636015Y-78051951D01*
X129670500Y-77834222D01*
X129670500Y-77613778D01*
X129636015Y-77396049D01*
X129601955Y-77291221D01*
X129567896Y-77186396D01*
X129567895Y-77186393D01*
X129505341Y-77063627D01*
X129467815Y-76989978D01*
X129397145Y-76892708D01*
X129338247Y-76811641D01*
X129338243Y-76811636D01*
X129182363Y-76655756D01*
X129182358Y-76655752D01*
X129004025Y-76526187D01*
X129004024Y-76526186D01*
X129004022Y-76526185D01*
X128941096Y-76494122D01*
X128807606Y-76426104D01*
X128807603Y-76426103D01*
X128597952Y-76357985D01*
X128489086Y-76340742D01*
X128380222Y-76323500D01*
X128159778Y-76323500D01*
X128087201Y-76334995D01*
X127942047Y-76357985D01*
X127732396Y-76426103D01*
X127732393Y-76426104D01*
X127535974Y-76526187D01*
X127357641Y-76655752D01*
X127357636Y-76655756D01*
X127307075Y-76706317D01*
X127245752Y-76739801D01*
X127176060Y-76734816D01*
X127120127Y-76692945D01*
X127103213Y-76661968D01*
X127073354Y-76581913D01*
X127073350Y-76581906D01*
X126987190Y-76466812D01*
X126987187Y-76466809D01*
X126872093Y-76380649D01*
X126872086Y-76380645D01*
X126737379Y-76330403D01*
X126737372Y-76330401D01*
X126677844Y-76324000D01*
X125980000Y-76324000D01*
X125980000Y-77348722D01*
X125903694Y-77304667D01*
X125789244Y-77274000D01*
X125670756Y-77274000D01*
X125556306Y-77304667D01*
X125480000Y-77348722D01*
X125480000Y-76324000D01*
X124782155Y-76324000D01*
X124722627Y-76330401D01*
X124722620Y-76330403D01*
X124587913Y-76380645D01*
X124587906Y-76380649D01*
X124472812Y-76466809D01*
X124472809Y-76466812D01*
X124386649Y-76581906D01*
X124386645Y-76581913D01*
X124336403Y-76716620D01*
X124336401Y-76716627D01*
X124330000Y-76776155D01*
X119281827Y-76776155D01*
X119126628Y-76697076D01*
X119053125Y-76673193D01*
X118995451Y-76633754D01*
X118968253Y-76569395D01*
X118980168Y-76500549D01*
X119027413Y-76449074D01*
X119053122Y-76437333D01*
X119126816Y-76413389D01*
X119312714Y-76318670D01*
X119481505Y-76196035D01*
X119629035Y-76048505D01*
X119751670Y-75879714D01*
X119846389Y-75693816D01*
X119910862Y-75495389D01*
X119922524Y-75421757D01*
X119943500Y-75289324D01*
X119943500Y-75080675D01*
X119910862Y-74874610D01*
X119846387Y-74676179D01*
X119751669Y-74490285D01*
X119630721Y-74323816D01*
X119629035Y-74321495D01*
X119481505Y-74173965D01*
X119312714Y-74051330D01*
X119126816Y-73956611D01*
X119053935Y-73932930D01*
X118996260Y-73893493D01*
X118969062Y-73829135D01*
X118980977Y-73760288D01*
X119028221Y-73708813D01*
X119053934Y-73697069D01*
X119126816Y-73673389D01*
X119312714Y-73578670D01*
X119481505Y-73456035D01*
X119629035Y-73308505D01*
X119751670Y-73139714D01*
X119846389Y-72953816D01*
X119910862Y-72755389D01*
X119922592Y-72681330D01*
X119943500Y-72549324D01*
X119943500Y-72340675D01*
X119910862Y-72134610D01*
X119859813Y-71977500D01*
X119846389Y-71936184D01*
X119846387Y-71936181D01*
X119846387Y-71936179D01*
X119781211Y-71808264D01*
X119751670Y-71750286D01*
X119629035Y-71581495D01*
X119481505Y-71433965D01*
X119312714Y-71311330D01*
X119126820Y-71216612D01*
X118928389Y-71152137D01*
X118722324Y-71119500D01*
X118722319Y-71119500D01*
X118513681Y-71119500D01*
X118513676Y-71119500D01*
X118307610Y-71152137D01*
X118109179Y-71216612D01*
X117923285Y-71311330D01*
X117754493Y-71433966D01*
X117606966Y-71581493D01*
X117484330Y-71750285D01*
X117389612Y-71936179D01*
X117325137Y-72134610D01*
X117292500Y-72340675D01*
X117292500Y-72549324D01*
X117325137Y-72755389D01*
X117389612Y-72953820D01*
X117474431Y-73120286D01*
X117484330Y-73139714D01*
X117606965Y-73308505D01*
X117754495Y-73456035D01*
X117923286Y-73578670D01*
X118011116Y-73623421D01*
X118109179Y-73673387D01*
X118109181Y-73673387D01*
X118109184Y-73673389D01*
X118182064Y-73697069D01*
X118239739Y-73736507D01*
X118266937Y-73800866D01*
X118255022Y-73869712D01*
X118207778Y-73921188D01*
X118182065Y-73932930D01*
X118163986Y-73938804D01*
X118109179Y-73956612D01*
X117923285Y-74051330D01*
X117754493Y-74173966D01*
X117606966Y-74321493D01*
X117484330Y-74490285D01*
X117389612Y-74676179D01*
X117325137Y-74874610D01*
X117292500Y-75080675D01*
X117292500Y-75289324D01*
X117325137Y-75495389D01*
X117389612Y-75693820D01*
X117475304Y-75862000D01*
X117484330Y-75879714D01*
X117606965Y-76048505D01*
X117754495Y-76196035D01*
X117923286Y-76318670D01*
X118109184Y-76413389D01*
X118182874Y-76437332D01*
X118240547Y-76476768D01*
X118267746Y-76541127D01*
X118255832Y-76609973D01*
X118208588Y-76661449D01*
X118182874Y-76673192D01*
X118109376Y-76697073D01*
X117923552Y-76791757D01*
X117874180Y-76827627D01*
X118447766Y-77401212D01*
X118405708Y-77412482D01*
X118280292Y-77484890D01*
X118177890Y-77587292D01*
X118105482Y-77712708D01*
X118094212Y-77754765D01*
X117520627Y-77181180D01*
X117484757Y-77230552D01*
X117390075Y-77416372D01*
X117325626Y-77614727D01*
X117293000Y-77820720D01*
X117293000Y-78029279D01*
X117325626Y-78235272D01*
X117390075Y-78433627D01*
X117484759Y-78619451D01*
X117520627Y-78668818D01*
X117520627Y-78668819D01*
X118094212Y-78095234D01*
X118105482Y-78137292D01*
X118177890Y-78262708D01*
X118280292Y-78365110D01*
X118405708Y-78437518D01*
X118447765Y-78448787D01*
X117874179Y-79022371D01*
X117874180Y-79022372D01*
X117923543Y-79058236D01*
X117923556Y-79058244D01*
X118109372Y-79152924D01*
X118183682Y-79177069D01*
X118241357Y-79216507D01*
X118268555Y-79280866D01*
X118256640Y-79349712D01*
X118209396Y-79401188D01*
X118183682Y-79412931D01*
X118109372Y-79437075D01*
X117923552Y-79531757D01*
X117874180Y-79567627D01*
X118447766Y-80141212D01*
X118405708Y-80152482D01*
X118280292Y-80224890D01*
X118177890Y-80327292D01*
X118105482Y-80452708D01*
X118094212Y-80494765D01*
X117520627Y-79921180D01*
X117484757Y-79970552D01*
X117390075Y-80156372D01*
X117325626Y-80354727D01*
X117293000Y-80560720D01*
X117293000Y-80769279D01*
X117325626Y-80975272D01*
X117390075Y-81173627D01*
X117431133Y-81254205D01*
X117444029Y-81322874D01*
X117417753Y-81387614D01*
X117360647Y-81427872D01*
X117320648Y-81434500D01*
X117035662Y-81434500D01*
X116968623Y-81414815D01*
X116925177Y-81366795D01*
X116911669Y-81340285D01*
X116899019Y-81322874D01*
X116789035Y-81171495D01*
X116641505Y-81023965D01*
X116472714Y-80901330D01*
X116286816Y-80806611D01*
X116213124Y-80782667D01*
X116155451Y-80743230D01*
X116128253Y-80678871D01*
X116140168Y-80610025D01*
X116187412Y-80558549D01*
X116213127Y-80546806D01*
X116286625Y-80522924D01*
X116472451Y-80428240D01*
X116521818Y-80392372D01*
X116521818Y-80392371D01*
X115948234Y-79818787D01*
X115990292Y-79807518D01*
X116115708Y-79735110D01*
X116218110Y-79632708D01*
X116290518Y-79507292D01*
X116301787Y-79465234D01*
X116875371Y-80038818D01*
X116875372Y-80038818D01*
X116911240Y-79989451D01*
X117005924Y-79803627D01*
X117070373Y-79605272D01*
X117103000Y-79399279D01*
X117103000Y-79190720D01*
X117071923Y-78994510D01*
X117071923Y-78994509D01*
X117071922Y-78994506D01*
X117070372Y-78984723D01*
X117005924Y-78786372D01*
X116911244Y-78600556D01*
X116911236Y-78600543D01*
X116875372Y-78551180D01*
X116875371Y-78551179D01*
X116301787Y-79124764D01*
X116290518Y-79082708D01*
X116218110Y-78957292D01*
X116115708Y-78854890D01*
X115990292Y-78782482D01*
X115948233Y-78771212D01*
X116521819Y-78197627D01*
X116472451Y-78161759D01*
X116286625Y-78067075D01*
X116212318Y-78042931D01*
X116154642Y-78003493D01*
X116127444Y-77939135D01*
X116139359Y-77870288D01*
X116186603Y-77818813D01*
X116212318Y-77807069D01*
X116286630Y-77782923D01*
X116286631Y-77782922D01*
X116438843Y-77705365D01*
X116438847Y-77705363D01*
X116472451Y-77688240D01*
X116521818Y-77652372D01*
X116521818Y-77652371D01*
X115948234Y-77078787D01*
X115990292Y-77067518D01*
X116115708Y-76995110D01*
X116218110Y-76892708D01*
X116290518Y-76767292D01*
X116301787Y-76725234D01*
X116875371Y-77298818D01*
X116875372Y-77298818D01*
X116911240Y-77249451D01*
X117005924Y-77063627D01*
X117070373Y-76865272D01*
X117103000Y-76659279D01*
X117103000Y-76450720D01*
X117070373Y-76244727D01*
X117005924Y-76046372D01*
X116911244Y-75860556D01*
X116911236Y-75860543D01*
X116875372Y-75811180D01*
X116875371Y-75811179D01*
X116301787Y-76384764D01*
X116290518Y-76342708D01*
X116218110Y-76217292D01*
X116115708Y-76114890D01*
X115990292Y-76042482D01*
X115948233Y-76031212D01*
X116521819Y-75457627D01*
X116472451Y-75421759D01*
X116286628Y-75327076D01*
X116213125Y-75303193D01*
X116155451Y-75263754D01*
X116128253Y-75199395D01*
X116140168Y-75130549D01*
X116187413Y-75079074D01*
X116213122Y-75067333D01*
X116286816Y-75043389D01*
X116472714Y-74948670D01*
X116641505Y-74826035D01*
X116789035Y-74678505D01*
X116911670Y-74509714D01*
X117006389Y-74323816D01*
X117070862Y-74125389D01*
X117082592Y-74051330D01*
X117103500Y-73919324D01*
X117103500Y-73710675D01*
X117070862Y-73504610D01*
X117019890Y-73347735D01*
X117006389Y-73306184D01*
X117006387Y-73306181D01*
X117006387Y-73306179D01*
X116918550Y-73133789D01*
X116911670Y-73120286D01*
X116789035Y-72951495D01*
X116641505Y-72803965D01*
X116472714Y-72681330D01*
X116286820Y-72586612D01*
X116088389Y-72522137D01*
X115882324Y-72489500D01*
X115882319Y-72489500D01*
X115673681Y-72489500D01*
X115673676Y-72489500D01*
X115467610Y-72522137D01*
X115269179Y-72586612D01*
X115083285Y-72681330D01*
X114914493Y-72803966D01*
X114766966Y-72951493D01*
X114644330Y-73120285D01*
X114549612Y-73306179D01*
X114485137Y-73504610D01*
X114452500Y-73710675D01*
X113000500Y-73710675D01*
X113000500Y-65207895D01*
X114222500Y-65207895D01*
X114222500Y-65542104D01*
X114259917Y-65874187D01*
X114259918Y-65874196D01*
X114259919Y-65874200D01*
X114260216Y-65875500D01*
X114334286Y-66200025D01*
X114334289Y-66200033D01*
X114444666Y-66515472D01*
X114589668Y-66816570D01*
X114589670Y-66816573D01*
X114767475Y-67099549D01*
X114975846Y-67360838D01*
X115212162Y-67597154D01*
X115473451Y-67805525D01*
X115756427Y-67983330D01*
X116057531Y-68128335D01*
X116294449Y-68211235D01*
X116372966Y-68238710D01*
X116372974Y-68238713D01*
X116372977Y-68238713D01*
X116372978Y-68238714D01*
X116698800Y-68313081D01*
X117030896Y-68350499D01*
X117030897Y-68350500D01*
X117030900Y-68350500D01*
X117365103Y-68350500D01*
X117365103Y-68350499D01*
X117697200Y-68313081D01*
X118023022Y-68238714D01*
X118338469Y-68128335D01*
X118639573Y-67983330D01*
X118922549Y-67805525D01*
X119183838Y-67597154D01*
X119420154Y-67360838D01*
X119628525Y-67099549D01*
X119806330Y-66816573D01*
X119951335Y-66515469D01*
X120061714Y-66200022D01*
X120136081Y-65874200D01*
X120138380Y-65853794D01*
X120140176Y-65837860D01*
X121699500Y-65837860D01*
X121699500Y-66162139D01*
X121731284Y-66484857D01*
X121731287Y-66484874D01*
X121794545Y-66802902D01*
X121794548Y-66802913D01*
X121888686Y-67113247D01*
X122012786Y-67412849D01*
X122012788Y-67412854D01*
X122165646Y-67698830D01*
X122165657Y-67698848D01*
X122345811Y-67968467D01*
X122345821Y-67968481D01*
X122551546Y-68219158D01*
X122780841Y-68448453D01*
X122780846Y-68448457D01*
X122780847Y-68448458D01*
X123031524Y-68654183D01*
X123301158Y-68834347D01*
X123301167Y-68834352D01*
X123301169Y-68834353D01*
X123587145Y-68987211D01*
X123587147Y-68987211D01*
X123587153Y-68987215D01*
X123886754Y-69111314D01*
X124197077Y-69205449D01*
X124197083Y-69205450D01*
X124197086Y-69205451D01*
X124197097Y-69205454D01*
X124396528Y-69245122D01*
X124515132Y-69268714D01*
X124837857Y-69300500D01*
X124837860Y-69300500D01*
X125162140Y-69300500D01*
X125162143Y-69300500D01*
X125484868Y-69268714D01*
X125642295Y-69237399D01*
X125802902Y-69205454D01*
X125802913Y-69205451D01*
X125802913Y-69205450D01*
X125802923Y-69205449D01*
X126113246Y-69111314D01*
X126412847Y-68987215D01*
X126698842Y-68834347D01*
X126968476Y-68654183D01*
X127219153Y-68448458D01*
X127448458Y-68219153D01*
X127654183Y-67968476D01*
X127834347Y-67698842D01*
X127987215Y-67412847D01*
X128111314Y-67113246D01*
X128205449Y-66802923D01*
X128205451Y-66802913D01*
X128205454Y-66802902D01*
X128262626Y-66515472D01*
X128268714Y-66484868D01*
X128300500Y-66162143D01*
X128300500Y-65837857D01*
X128268714Y-65515132D01*
X128245122Y-65396528D01*
X128205454Y-65197097D01*
X128205451Y-65197086D01*
X128205450Y-65197083D01*
X128205449Y-65197077D01*
X128111314Y-64886754D01*
X127987215Y-64587153D01*
X127967344Y-64549978D01*
X127834353Y-64301169D01*
X127834352Y-64301167D01*
X127834347Y-64301158D01*
X127725614Y-64138428D01*
X143012000Y-64138428D01*
X143012000Y-64250000D01*
X143831670Y-64250000D01*
X143811925Y-64269745D01*
X143762556Y-64355255D01*
X143737000Y-64450630D01*
X143737000Y-64549370D01*
X143762556Y-64644745D01*
X143811925Y-64730255D01*
X143831670Y-64750000D01*
X143012000Y-64750000D01*
X143012000Y-64861571D01*
X143039085Y-65032584D01*
X143092591Y-65197257D01*
X143171195Y-65351524D01*
X143272967Y-65491602D01*
X143395397Y-65614032D01*
X143535475Y-65715804D01*
X143689744Y-65794408D01*
X143854415Y-65847914D01*
X143854414Y-65847914D01*
X143861999Y-65849115D01*
X143862000Y-65849114D01*
X143862000Y-64780330D01*
X143881745Y-64800075D01*
X143967255Y-64849444D01*
X144062630Y-64875000D01*
X144161370Y-64875000D01*
X144256745Y-64849444D01*
X144342255Y-64800075D01*
X144362000Y-64780330D01*
X144362000Y-65849115D01*
X144369584Y-65847914D01*
X144534255Y-65794408D01*
X144688524Y-65715804D01*
X144828598Y-65614035D01*
X144936199Y-65506434D01*
X144997522Y-65472949D01*
X145067214Y-65477933D01*
X145123148Y-65519804D01*
X145129418Y-65529016D01*
X145169288Y-65593656D01*
X145293344Y-65717712D01*
X145442666Y-65809814D01*
X145609203Y-65864999D01*
X145711991Y-65875500D01*
X146512008Y-65875499D01*
X146512016Y-65875498D01*
X146512019Y-65875498D01*
X146568302Y-65869748D01*
X146614797Y-65864999D01*
X146781334Y-65809814D01*
X146930656Y-65717712D01*
X147054712Y-65593656D01*
X147146814Y-65444334D01*
X147201999Y-65277797D01*
X147212500Y-65175009D01*
X147212499Y-64450630D01*
X147212499Y-64138428D01*
X162332000Y-64138428D01*
X162332000Y-64250000D01*
X163151670Y-64250000D01*
X163131925Y-64269745D01*
X163082556Y-64355255D01*
X163057000Y-64450630D01*
X163057000Y-64549370D01*
X163082556Y-64644745D01*
X163131925Y-64730255D01*
X163151670Y-64750000D01*
X162332000Y-64750000D01*
X162332000Y-64861571D01*
X162359085Y-65032584D01*
X162412591Y-65197257D01*
X162491195Y-65351524D01*
X162592967Y-65491602D01*
X162715397Y-65614032D01*
X162855475Y-65715804D01*
X163009744Y-65794408D01*
X163174415Y-65847914D01*
X163174414Y-65847914D01*
X163181999Y-65849115D01*
X163182000Y-65849114D01*
X163182000Y-64780330D01*
X163201745Y-64800075D01*
X163287255Y-64849444D01*
X163382630Y-64875000D01*
X163481370Y-64875000D01*
X163576745Y-64849444D01*
X163662255Y-64800075D01*
X163682000Y-64780330D01*
X163682000Y-65849115D01*
X163689584Y-65847914D01*
X163854255Y-65794408D01*
X164008524Y-65715804D01*
X164148598Y-65614035D01*
X164256199Y-65506434D01*
X164317522Y-65472949D01*
X164387214Y-65477933D01*
X164443148Y-65519804D01*
X164449418Y-65529016D01*
X164489288Y-65593656D01*
X164613344Y-65717712D01*
X164762666Y-65809814D01*
X164929203Y-65864999D01*
X165031991Y-65875500D01*
X165832008Y-65875499D01*
X165832016Y-65875498D01*
X165832019Y-65875498D01*
X165888302Y-65869748D01*
X165934797Y-65864999D01*
X166101334Y-65809814D01*
X166250656Y-65717712D01*
X166374712Y-65593656D01*
X166466814Y-65444334D01*
X166521999Y-65277797D01*
X166532500Y-65175009D01*
X166532499Y-64450630D01*
X166532499Y-64138428D01*
X181604000Y-64138428D01*
X181604000Y-64250000D01*
X182423670Y-64250000D01*
X182403925Y-64269745D01*
X182354556Y-64355255D01*
X182329000Y-64450630D01*
X182329000Y-64549370D01*
X182354556Y-64644745D01*
X182403925Y-64730255D01*
X182423670Y-64750000D01*
X181604000Y-64750000D01*
X181604000Y-64861571D01*
X181631085Y-65032584D01*
X181684591Y-65197257D01*
X181763195Y-65351524D01*
X181864967Y-65491602D01*
X181987397Y-65614032D01*
X182127475Y-65715804D01*
X182281744Y-65794408D01*
X182446415Y-65847914D01*
X182446414Y-65847914D01*
X182453999Y-65849115D01*
X182454000Y-65849114D01*
X182454000Y-64780330D01*
X182473745Y-64800075D01*
X182559255Y-64849444D01*
X182654630Y-64875000D01*
X182753370Y-64875000D01*
X182848745Y-64849444D01*
X182934255Y-64800075D01*
X182954000Y-64780330D01*
X182954000Y-65849115D01*
X182961584Y-65847914D01*
X183126255Y-65794408D01*
X183280524Y-65715804D01*
X183420598Y-65614035D01*
X183528199Y-65506434D01*
X183589522Y-65472949D01*
X183659214Y-65477933D01*
X183715148Y-65519804D01*
X183721418Y-65529016D01*
X183761288Y-65593656D01*
X183885344Y-65717712D01*
X184034666Y-65809814D01*
X184201203Y-65864999D01*
X184303991Y-65875500D01*
X185104008Y-65875499D01*
X185104016Y-65875498D01*
X185104019Y-65875498D01*
X185160302Y-65869748D01*
X185206797Y-65864999D01*
X185288697Y-65837860D01*
X187699500Y-65837860D01*
X187699500Y-66162139D01*
X187731284Y-66484857D01*
X187731287Y-66484874D01*
X187794545Y-66802902D01*
X187794548Y-66802913D01*
X187888686Y-67113247D01*
X188012786Y-67412849D01*
X188012788Y-67412854D01*
X188165646Y-67698830D01*
X188165657Y-67698848D01*
X188345811Y-67968467D01*
X188345821Y-67968481D01*
X188551546Y-68219158D01*
X188780841Y-68448453D01*
X188780846Y-68448457D01*
X188780847Y-68448458D01*
X189031524Y-68654183D01*
X189301158Y-68834347D01*
X189301167Y-68834352D01*
X189301169Y-68834353D01*
X189587145Y-68987211D01*
X189587147Y-68987211D01*
X189587153Y-68987215D01*
X189886754Y-69111314D01*
X190197077Y-69205449D01*
X190197083Y-69205450D01*
X190197086Y-69205451D01*
X190197097Y-69205454D01*
X190396528Y-69245122D01*
X190515132Y-69268714D01*
X190837857Y-69300500D01*
X190837860Y-69300500D01*
X191162140Y-69300500D01*
X191162143Y-69300500D01*
X191484868Y-69268714D01*
X191642295Y-69237399D01*
X191802902Y-69205454D01*
X191802913Y-69205451D01*
X191802913Y-69205450D01*
X191802923Y-69205449D01*
X192113246Y-69111314D01*
X192412847Y-68987215D01*
X192698842Y-68834347D01*
X192968476Y-68654183D01*
X193219153Y-68448458D01*
X193448458Y-68219153D01*
X193654183Y-67968476D01*
X193834347Y-67698842D01*
X193987215Y-67412847D01*
X194111314Y-67113246D01*
X194205449Y-66802923D01*
X194205451Y-66802913D01*
X194205454Y-66802902D01*
X194262626Y-66515472D01*
X194268714Y-66484868D01*
X194300500Y-66162143D01*
X194300500Y-65837857D01*
X194268714Y-65515132D01*
X194245122Y-65396528D01*
X194205454Y-65197097D01*
X194205451Y-65197086D01*
X194205450Y-65197083D01*
X194205449Y-65197077D01*
X194111314Y-64886754D01*
X193987215Y-64587153D01*
X193967344Y-64549978D01*
X193834353Y-64301169D01*
X193834352Y-64301167D01*
X193834347Y-64301158D01*
X193654183Y-64031524D01*
X193448458Y-63780847D01*
X193448457Y-63780846D01*
X193448453Y-63780841D01*
X193219158Y-63551546D01*
X192968481Y-63345821D01*
X192968480Y-63345820D01*
X192968476Y-63345817D01*
X192698842Y-63165653D01*
X192698837Y-63165650D01*
X192698830Y-63165646D01*
X192412854Y-63012788D01*
X192412849Y-63012786D01*
X192113247Y-62888686D01*
X191802913Y-62794548D01*
X191802902Y-62794545D01*
X191484874Y-62731287D01*
X191484857Y-62731284D01*
X191240812Y-62707248D01*
X191162143Y-62699500D01*
X190837857Y-62699500D01*
X190765099Y-62706666D01*
X190515142Y-62731284D01*
X190515125Y-62731287D01*
X190197097Y-62794545D01*
X190197086Y-62794548D01*
X189886752Y-62888686D01*
X189587150Y-63012786D01*
X189587145Y-63012788D01*
X189301169Y-63165646D01*
X189301151Y-63165657D01*
X189031532Y-63345811D01*
X189031518Y-63345821D01*
X188780841Y-63551546D01*
X188551546Y-63780841D01*
X188345821Y-64031518D01*
X188345811Y-64031532D01*
X188165657Y-64301151D01*
X188165646Y-64301169D01*
X188012788Y-64587145D01*
X188012786Y-64587150D01*
X187888686Y-64886752D01*
X187794548Y-65197086D01*
X187794545Y-65197097D01*
X187731287Y-65515125D01*
X187731284Y-65515142D01*
X187706666Y-65765099D01*
X187701168Y-65820929D01*
X187699500Y-65837860D01*
X185288697Y-65837860D01*
X185373334Y-65809814D01*
X185522656Y-65717712D01*
X185646712Y-65593656D01*
X185738814Y-65444334D01*
X185793999Y-65277797D01*
X185804500Y-65175009D01*
X185804499Y-63824992D01*
X185793999Y-63722203D01*
X185738814Y-63555666D01*
X185646712Y-63406344D01*
X185522656Y-63282288D01*
X185373334Y-63190186D01*
X185206797Y-63135001D01*
X185206795Y-63135000D01*
X185104010Y-63124500D01*
X184303998Y-63124500D01*
X184303980Y-63124501D01*
X184201203Y-63135000D01*
X184201200Y-63135001D01*
X184034668Y-63190185D01*
X184034663Y-63190187D01*
X183885342Y-63282289D01*
X183761289Y-63406342D01*
X183721420Y-63470981D01*
X183669472Y-63517705D01*
X183600509Y-63528928D01*
X183536427Y-63501084D01*
X183528200Y-63493565D01*
X183420602Y-63385967D01*
X183280524Y-63284195D01*
X183126257Y-63205591D01*
X182961589Y-63152087D01*
X182961581Y-63152085D01*
X182954000Y-63150884D01*
X182954000Y-64219670D01*
X182934255Y-64199925D01*
X182848745Y-64150556D01*
X182753370Y-64125000D01*
X182654630Y-64125000D01*
X182559255Y-64150556D01*
X182473745Y-64199925D01*
X182454000Y-64219670D01*
X182454000Y-63150884D01*
X182453999Y-63150884D01*
X182446418Y-63152085D01*
X182446410Y-63152087D01*
X182281742Y-63205591D01*
X182127475Y-63284195D01*
X181987397Y-63385967D01*
X181864967Y-63508397D01*
X181763195Y-63648475D01*
X181684591Y-63802742D01*
X181631085Y-63967415D01*
X181604000Y-64138428D01*
X166532499Y-64138428D01*
X166532499Y-64133556D01*
X166532499Y-63824998D01*
X166532498Y-63824981D01*
X166521999Y-63722203D01*
X166521998Y-63722200D01*
X166498223Y-63650452D01*
X166466814Y-63555666D01*
X166374712Y-63406344D01*
X166250656Y-63282288D01*
X166101334Y-63190186D01*
X165934797Y-63135001D01*
X165934795Y-63135000D01*
X165832010Y-63124500D01*
X165031998Y-63124500D01*
X165031980Y-63124501D01*
X164929203Y-63135000D01*
X164929200Y-63135001D01*
X164762668Y-63190185D01*
X164762663Y-63190187D01*
X164613342Y-63282289D01*
X164489289Y-63406342D01*
X164449420Y-63470981D01*
X164397472Y-63517705D01*
X164328509Y-63528928D01*
X164264427Y-63501084D01*
X164256200Y-63493565D01*
X164148602Y-63385967D01*
X164008524Y-63284195D01*
X163854257Y-63205591D01*
X163689589Y-63152087D01*
X163689581Y-63152085D01*
X163682000Y-63150884D01*
X163682000Y-64219670D01*
X163662255Y-64199925D01*
X163576745Y-64150556D01*
X163481370Y-64125000D01*
X163382630Y-64125000D01*
X163287255Y-64150556D01*
X163201745Y-64199925D01*
X163182000Y-64219670D01*
X163182000Y-63150884D01*
X163181999Y-63150884D01*
X163174418Y-63152085D01*
X163174410Y-63152087D01*
X163009742Y-63205591D01*
X162855475Y-63284195D01*
X162715397Y-63385967D01*
X162592967Y-63508397D01*
X162491195Y-63648475D01*
X162412591Y-63802742D01*
X162359085Y-63967415D01*
X162332000Y-64138428D01*
X147212499Y-64138428D01*
X147212499Y-64133556D01*
X147212499Y-63824998D01*
X147212498Y-63824981D01*
X147201999Y-63722203D01*
X147201998Y-63722200D01*
X147178223Y-63650452D01*
X147146814Y-63555666D01*
X147054712Y-63406344D01*
X146930656Y-63282288D01*
X146781334Y-63190186D01*
X146614797Y-63135001D01*
X146614795Y-63135000D01*
X146512010Y-63124500D01*
X145711998Y-63124500D01*
X145711980Y-63124501D01*
X145609203Y-63135000D01*
X145609200Y-63135001D01*
X145442668Y-63190185D01*
X145442663Y-63190187D01*
X145293342Y-63282289D01*
X145169289Y-63406342D01*
X145129420Y-63470981D01*
X145077472Y-63517705D01*
X145008509Y-63528928D01*
X144944427Y-63501084D01*
X144936200Y-63493565D01*
X144828602Y-63385967D01*
X144688524Y-63284195D01*
X144534257Y-63205591D01*
X144369589Y-63152087D01*
X144369581Y-63152085D01*
X144362000Y-63150884D01*
X144362000Y-64219670D01*
X144342255Y-64199925D01*
X144256745Y-64150556D01*
X144161370Y-64125000D01*
X144062630Y-64125000D01*
X143967255Y-64150556D01*
X143881745Y-64199925D01*
X143862000Y-64219670D01*
X143862000Y-63150884D01*
X143861999Y-63150884D01*
X143854418Y-63152085D01*
X143854410Y-63152087D01*
X143689742Y-63205591D01*
X143535475Y-63284195D01*
X143395397Y-63385967D01*
X143272967Y-63508397D01*
X143171195Y-63648475D01*
X143092591Y-63802742D01*
X143039085Y-63967415D01*
X143012000Y-64138428D01*
X127725614Y-64138428D01*
X127654183Y-64031524D01*
X127448458Y-63780847D01*
X127448457Y-63780846D01*
X127448453Y-63780841D01*
X127219158Y-63551546D01*
X126968481Y-63345821D01*
X126968480Y-63345820D01*
X126968476Y-63345817D01*
X126698842Y-63165653D01*
X126698837Y-63165650D01*
X126698830Y-63165646D01*
X126412854Y-63012788D01*
X126412849Y-63012786D01*
X126113247Y-62888686D01*
X125802913Y-62794548D01*
X125802902Y-62794545D01*
X125484874Y-62731287D01*
X125484857Y-62731284D01*
X125240812Y-62707248D01*
X125162143Y-62699500D01*
X124837857Y-62699500D01*
X124765099Y-62706666D01*
X124515142Y-62731284D01*
X124515125Y-62731287D01*
X124197097Y-62794545D01*
X124197086Y-62794548D01*
X123886752Y-62888686D01*
X123587150Y-63012786D01*
X123587145Y-63012788D01*
X123301169Y-63165646D01*
X123301151Y-63165657D01*
X123031532Y-63345811D01*
X123031518Y-63345821D01*
X122780841Y-63551546D01*
X122551546Y-63780841D01*
X122345821Y-64031518D01*
X122345811Y-64031532D01*
X122165657Y-64301151D01*
X122165646Y-64301169D01*
X122012788Y-64587145D01*
X122012786Y-64587150D01*
X121888686Y-64886752D01*
X121794548Y-65197086D01*
X121794545Y-65197097D01*
X121731287Y-65515125D01*
X121731284Y-65515142D01*
X121706666Y-65765099D01*
X121701168Y-65820929D01*
X121699500Y-65837860D01*
X120140176Y-65837860D01*
X120142084Y-65820929D01*
X120167691Y-65593655D01*
X120173500Y-65542100D01*
X120173500Y-65207900D01*
X120136081Y-64875800D01*
X120061714Y-64549978D01*
X119951335Y-64234531D01*
X119806330Y-63933427D01*
X119628525Y-63650451D01*
X119420154Y-63389162D01*
X119183838Y-63152846D01*
X119148294Y-63124501D01*
X119117479Y-63099927D01*
X118922549Y-62944475D01*
X118639573Y-62766670D01*
X118639570Y-62766668D01*
X118338472Y-62621666D01*
X118023033Y-62511289D01*
X118023025Y-62511286D01*
X117778655Y-62455510D01*
X117697200Y-62436919D01*
X117697196Y-62436918D01*
X117697187Y-62436917D01*
X117365104Y-62399500D01*
X117365100Y-62399500D01*
X117030900Y-62399500D01*
X117030895Y-62399500D01*
X116698812Y-62436917D01*
X116698800Y-62436919D01*
X116372974Y-62511286D01*
X116372966Y-62511289D01*
X116057527Y-62621666D01*
X115756429Y-62766668D01*
X115473452Y-62944474D01*
X115212162Y-63152845D01*
X114975845Y-63389162D01*
X114767474Y-63650452D01*
X114589668Y-63933429D01*
X114444666Y-64234527D01*
X114334289Y-64549966D01*
X114334286Y-64549974D01*
X114259919Y-64875800D01*
X114259917Y-64875812D01*
X114222500Y-65207895D01*
X113000500Y-65207895D01*
X113000500Y-62124500D01*
X113020185Y-62057461D01*
X113072989Y-62011706D01*
X113124500Y-62000500D01*
X194875500Y-62000500D01*
X194942539Y-62020185D01*
G37*
%TD.AperFunction*%
%TD*%
M02*
