%TF.GenerationSoftware,KiCad,Pcbnew,9.0.7*%
%TF.CreationDate,2026-03-11T20:41:50+01:00*%
%TF.ProjectId,Multi-emitter V2 Thesis,4d756c74-692d-4656-9d69-747465722056,rev?*%
%TF.SameCoordinates,Original*%
%TF.FileFunction,Legend,Top*%
%TF.FilePolarity,Positive*%
%FSLAX46Y46*%
G04 Gerber Fmt 4.6, Leading zero omitted, Abs format (unit mm)*
G04 Created by KiCad (PCBNEW 9.0.7) date 2026-03-11 20:41:50*
%MOMM*%
%LPD*%
G01*
G04 APERTURE LIST*
G04 Aperture macros list*
%AMRoundRect*
0 Rectangle with rounded corners*
0 $1 Rounding radius*
0 $2 $3 $4 $5 $6 $7 $8 $9 X,Y pos of 4 corners*
0 Add a 4 corners polygon primitive as box body*
4,1,4,$2,$3,$4,$5,$6,$7,$8,$9,$2,$3,0*
0 Add four circle primitives for the rounded corners*
1,1,$1+$1,$2,$3*
1,1,$1+$1,$4,$5*
1,1,$1+$1,$6,$7*
1,1,$1+$1,$8,$9*
0 Add four rect primitives between the rounded corners*
20,1,$1+$1,$2,$3,$4,$5,0*
20,1,$1+$1,$4,$5,$6,$7,0*
20,1,$1+$1,$6,$7,$8,$9,0*
20,1,$1+$1,$8,$9,$2,$3,0*%
G04 Aperture macros list end*
%ADD10C,0.125000*%
%ADD11C,0.150000*%
%ADD12C,0.254000*%
%ADD13C,0.120000*%
%ADD14C,0.200000*%
%ADD15C,0.100000*%
%ADD16RoundRect,0.250000X0.450000X-0.350000X0.450000X0.350000X-0.450000X0.350000X-0.450000X-0.350000X0*%
%ADD17R,1.800000X1.800000*%
%ADD18C,1.800000*%
%ADD19RoundRect,0.150000X0.587500X0.150000X-0.587500X0.150000X-0.587500X-0.150000X0.587500X-0.150000X0*%
%ADD20RoundRect,0.250000X-0.337500X-0.475000X0.337500X-0.475000X0.337500X0.475000X-0.337500X0.475000X0*%
%ADD21R,2.200000X3.050000*%
%ADD22RoundRect,0.150000X0.150000X-0.587500X0.150000X0.587500X-0.150000X0.587500X-0.150000X-0.587500X0*%
%ADD23RoundRect,0.250000X-0.450000X0.350000X-0.450000X-0.350000X0.450000X-0.350000X0.450000X0.350000X0*%
%ADD24RoundRect,0.250000X-0.350000X-0.625000X0.350000X-0.625000X0.350000X0.625000X-0.350000X0.625000X0*%
%ADD25O,1.200000X1.750000*%
%ADD26RoundRect,0.250000X0.350000X0.625000X-0.350000X0.625000X-0.350000X-0.625000X0.350000X-0.625000X0*%
%ADD27C,5.600000*%
%ADD28RoundRect,0.250000X0.625000X-0.350000X0.625000X0.350000X-0.625000X0.350000X-0.625000X-0.350000X0*%
%ADD29O,1.750000X1.200000*%
%ADD30RoundRect,0.250000X-0.350000X-0.450000X0.350000X-0.450000X0.350000X0.450000X-0.350000X0.450000X0*%
%ADD31RoundRect,0.250000X-0.475000X0.337500X-0.475000X-0.337500X0.475000X-0.337500X0.475000X0.337500X0*%
%ADD32R,1.650000X1.650000*%
%ADD33C,1.650000*%
%ADD34C,4.950000*%
G04 APERTURE END LIST*
D10*
X173865759Y-78851992D02*
X173818140Y-78899612D01*
X173818140Y-78899612D02*
X173675283Y-78947231D01*
X173675283Y-78947231D02*
X173580045Y-78947231D01*
X173580045Y-78947231D02*
X173437188Y-78899612D01*
X173437188Y-78899612D02*
X173341950Y-78804373D01*
X173341950Y-78804373D02*
X173294331Y-78709135D01*
X173294331Y-78709135D02*
X173246712Y-78518659D01*
X173246712Y-78518659D02*
X173246712Y-78375802D01*
X173246712Y-78375802D02*
X173294331Y-78185326D01*
X173294331Y-78185326D02*
X173341950Y-78090088D01*
X173341950Y-78090088D02*
X173437188Y-77994850D01*
X173437188Y-77994850D02*
X173580045Y-77947231D01*
X173580045Y-77947231D02*
X173675283Y-77947231D01*
X173675283Y-77947231D02*
X173818140Y-77994850D01*
X173818140Y-77994850D02*
X173865759Y-78042469D01*
X175056236Y-78423421D02*
X175818141Y-78423421D01*
X175818141Y-78709135D02*
X175056236Y-78709135D01*
X177580045Y-78947231D02*
X177008617Y-78947231D01*
X177294331Y-78947231D02*
X177294331Y-77947231D01*
X177294331Y-77947231D02*
X177199093Y-78090088D01*
X177199093Y-78090088D02*
X177103855Y-78185326D01*
X177103855Y-78185326D02*
X177008617Y-78232945D01*
X178199093Y-77947231D02*
X178294331Y-77947231D01*
X178294331Y-77947231D02*
X178389569Y-77994850D01*
X178389569Y-77994850D02*
X178437188Y-78042469D01*
X178437188Y-78042469D02*
X178484807Y-78137707D01*
X178484807Y-78137707D02*
X178532426Y-78328183D01*
X178532426Y-78328183D02*
X178532426Y-78566278D01*
X178532426Y-78566278D02*
X178484807Y-78756754D01*
X178484807Y-78756754D02*
X178437188Y-78851992D01*
X178437188Y-78851992D02*
X178389569Y-78899612D01*
X178389569Y-78899612D02*
X178294331Y-78947231D01*
X178294331Y-78947231D02*
X178199093Y-78947231D01*
X178199093Y-78947231D02*
X178103855Y-78899612D01*
X178103855Y-78899612D02*
X178056236Y-78851992D01*
X178056236Y-78851992D02*
X178008617Y-78756754D01*
X178008617Y-78756754D02*
X177960998Y-78566278D01*
X177960998Y-78566278D02*
X177960998Y-78328183D01*
X177960998Y-78328183D02*
X178008617Y-78137707D01*
X178008617Y-78137707D02*
X178056236Y-78042469D01*
X178056236Y-78042469D02*
X178103855Y-77994850D01*
X178103855Y-77994850D02*
X178199093Y-77947231D01*
X179151474Y-77947231D02*
X179246712Y-77947231D01*
X179246712Y-77947231D02*
X179341950Y-77994850D01*
X179341950Y-77994850D02*
X179389569Y-78042469D01*
X179389569Y-78042469D02*
X179437188Y-78137707D01*
X179437188Y-78137707D02*
X179484807Y-78328183D01*
X179484807Y-78328183D02*
X179484807Y-78566278D01*
X179484807Y-78566278D02*
X179437188Y-78756754D01*
X179437188Y-78756754D02*
X179389569Y-78851992D01*
X179389569Y-78851992D02*
X179341950Y-78899612D01*
X179341950Y-78899612D02*
X179246712Y-78947231D01*
X179246712Y-78947231D02*
X179151474Y-78947231D01*
X179151474Y-78947231D02*
X179056236Y-78899612D01*
X179056236Y-78899612D02*
X179008617Y-78851992D01*
X179008617Y-78851992D02*
X178960998Y-78756754D01*
X178960998Y-78756754D02*
X178913379Y-78566278D01*
X178913379Y-78566278D02*
X178913379Y-78328183D01*
X178913379Y-78328183D02*
X178960998Y-78137707D01*
X178960998Y-78137707D02*
X179008617Y-78042469D01*
X179008617Y-78042469D02*
X179056236Y-77994850D01*
X179056236Y-77994850D02*
X179151474Y-77947231D01*
X179913379Y-78280564D02*
X179913379Y-78947231D01*
X179913379Y-78375802D02*
X179960998Y-78328183D01*
X179960998Y-78328183D02*
X180056236Y-78280564D01*
X180056236Y-78280564D02*
X180199093Y-78280564D01*
X180199093Y-78280564D02*
X180294331Y-78328183D01*
X180294331Y-78328183D02*
X180341950Y-78423421D01*
X180341950Y-78423421D02*
X180341950Y-78947231D01*
X173770521Y-80557175D02*
X173294331Y-80557175D01*
X173294331Y-80557175D02*
X173294331Y-79557175D01*
X174865760Y-80033365D02*
X175627665Y-80033365D01*
X175627665Y-80319079D02*
X174865760Y-80319079D01*
X176818141Y-79652413D02*
X176865760Y-79604794D01*
X176865760Y-79604794D02*
X176960998Y-79557175D01*
X176960998Y-79557175D02*
X177199093Y-79557175D01*
X177199093Y-79557175D02*
X177294331Y-79604794D01*
X177294331Y-79604794D02*
X177341950Y-79652413D01*
X177341950Y-79652413D02*
X177389569Y-79747651D01*
X177389569Y-79747651D02*
X177389569Y-79842889D01*
X177389569Y-79842889D02*
X177341950Y-79985746D01*
X177341950Y-79985746D02*
X176770522Y-80557175D01*
X176770522Y-80557175D02*
X177389569Y-80557175D01*
X177770522Y-79652413D02*
X177818141Y-79604794D01*
X177818141Y-79604794D02*
X177913379Y-79557175D01*
X177913379Y-79557175D02*
X178151474Y-79557175D01*
X178151474Y-79557175D02*
X178246712Y-79604794D01*
X178246712Y-79604794D02*
X178294331Y-79652413D01*
X178294331Y-79652413D02*
X178341950Y-79747651D01*
X178341950Y-79747651D02*
X178341950Y-79842889D01*
X178341950Y-79842889D02*
X178294331Y-79985746D01*
X178294331Y-79985746D02*
X177722903Y-80557175D01*
X177722903Y-80557175D02*
X178341950Y-80557175D01*
X178960998Y-79557175D02*
X179056236Y-79557175D01*
X179056236Y-79557175D02*
X179151474Y-79604794D01*
X179151474Y-79604794D02*
X179199093Y-79652413D01*
X179199093Y-79652413D02*
X179246712Y-79747651D01*
X179246712Y-79747651D02*
X179294331Y-79938127D01*
X179294331Y-79938127D02*
X179294331Y-80176222D01*
X179294331Y-80176222D02*
X179246712Y-80366698D01*
X179246712Y-80366698D02*
X179199093Y-80461936D01*
X179199093Y-80461936D02*
X179151474Y-80509556D01*
X179151474Y-80509556D02*
X179056236Y-80557175D01*
X179056236Y-80557175D02*
X178960998Y-80557175D01*
X178960998Y-80557175D02*
X178865760Y-80509556D01*
X178865760Y-80509556D02*
X178818141Y-80461936D01*
X178818141Y-80461936D02*
X178770522Y-80366698D01*
X178770522Y-80366698D02*
X178722903Y-80176222D01*
X178722903Y-80176222D02*
X178722903Y-79938127D01*
X178722903Y-79938127D02*
X178770522Y-79747651D01*
X178770522Y-79747651D02*
X178818141Y-79652413D01*
X178818141Y-79652413D02*
X178865760Y-79604794D01*
X178865760Y-79604794D02*
X178960998Y-79557175D01*
X180151474Y-79890508D02*
X180151474Y-80557175D01*
X179722903Y-79890508D02*
X179722903Y-80414317D01*
X179722903Y-80414317D02*
X179770522Y-80509556D01*
X179770522Y-80509556D02*
X179865760Y-80557175D01*
X179865760Y-80557175D02*
X180008617Y-80557175D01*
X180008617Y-80557175D02*
X180103855Y-80509556D01*
X180103855Y-80509556D02*
X180151474Y-80461936D01*
X173865759Y-82167119D02*
X173532426Y-81690928D01*
X173294331Y-82167119D02*
X173294331Y-81167119D01*
X173294331Y-81167119D02*
X173675283Y-81167119D01*
X173675283Y-81167119D02*
X173770521Y-81214738D01*
X173770521Y-81214738D02*
X173818140Y-81262357D01*
X173818140Y-81262357D02*
X173865759Y-81357595D01*
X173865759Y-81357595D02*
X173865759Y-81500452D01*
X173865759Y-81500452D02*
X173818140Y-81595690D01*
X173818140Y-81595690D02*
X173770521Y-81643309D01*
X173770521Y-81643309D02*
X173675283Y-81690928D01*
X173675283Y-81690928D02*
X173294331Y-81690928D01*
X175056236Y-81643309D02*
X175818141Y-81643309D01*
X175818141Y-81929023D02*
X175056236Y-81929023D01*
X177580045Y-82167119D02*
X177008617Y-82167119D01*
X177294331Y-82167119D02*
X177294331Y-81167119D01*
X177294331Y-81167119D02*
X177199093Y-81309976D01*
X177199093Y-81309976D02*
X177103855Y-81405214D01*
X177103855Y-81405214D02*
X177008617Y-81452833D01*
X178199093Y-81167119D02*
X178294331Y-81167119D01*
X178294331Y-81167119D02*
X178389569Y-81214738D01*
X178389569Y-81214738D02*
X178437188Y-81262357D01*
X178437188Y-81262357D02*
X178484807Y-81357595D01*
X178484807Y-81357595D02*
X178532426Y-81548071D01*
X178532426Y-81548071D02*
X178532426Y-81786166D01*
X178532426Y-81786166D02*
X178484807Y-81976642D01*
X178484807Y-81976642D02*
X178437188Y-82071880D01*
X178437188Y-82071880D02*
X178389569Y-82119500D01*
X178389569Y-82119500D02*
X178294331Y-82167119D01*
X178294331Y-82167119D02*
X178199093Y-82167119D01*
X178199093Y-82167119D02*
X178103855Y-82119500D01*
X178103855Y-82119500D02*
X178056236Y-82071880D01*
X178056236Y-82071880D02*
X178008617Y-81976642D01*
X178008617Y-81976642D02*
X177960998Y-81786166D01*
X177960998Y-81786166D02*
X177960998Y-81548071D01*
X177960998Y-81548071D02*
X178008617Y-81357595D01*
X178008617Y-81357595D02*
X178056236Y-81262357D01*
X178056236Y-81262357D02*
X178103855Y-81214738D01*
X178103855Y-81214738D02*
X178199093Y-81167119D01*
X178960998Y-82167119D02*
X178960998Y-81167119D01*
X179056236Y-81786166D02*
X179341950Y-82167119D01*
X179341950Y-81500452D02*
X178960998Y-81881404D01*
X152879093Y-86955928D02*
X153736236Y-86955928D01*
X153307664Y-88455928D02*
X153307664Y-86955928D01*
X154807664Y-88384500D02*
X154664807Y-88455928D01*
X154664807Y-88455928D02*
X154379093Y-88455928D01*
X154379093Y-88455928D02*
X154236235Y-88384500D01*
X154236235Y-88384500D02*
X154164807Y-88241642D01*
X154164807Y-88241642D02*
X154164807Y-87670214D01*
X154164807Y-87670214D02*
X154236235Y-87527357D01*
X154236235Y-87527357D02*
X154379093Y-87455928D01*
X154379093Y-87455928D02*
X154664807Y-87455928D01*
X154664807Y-87455928D02*
X154807664Y-87527357D01*
X154807664Y-87527357D02*
X154879093Y-87670214D01*
X154879093Y-87670214D02*
X154879093Y-87813071D01*
X154879093Y-87813071D02*
X154164807Y-87955928D01*
X155736235Y-88455928D02*
X155593378Y-88384500D01*
X155593378Y-88384500D02*
X155521949Y-88241642D01*
X155521949Y-88241642D02*
X155521949Y-86955928D01*
X156879092Y-88384500D02*
X156736235Y-88455928D01*
X156736235Y-88455928D02*
X156450521Y-88455928D01*
X156450521Y-88455928D02*
X156307663Y-88384500D01*
X156307663Y-88384500D02*
X156236235Y-88241642D01*
X156236235Y-88241642D02*
X156236235Y-87670214D01*
X156236235Y-87670214D02*
X156307663Y-87527357D01*
X156307663Y-87527357D02*
X156450521Y-87455928D01*
X156450521Y-87455928D02*
X156736235Y-87455928D01*
X156736235Y-87455928D02*
X156879092Y-87527357D01*
X156879092Y-87527357D02*
X156950521Y-87670214D01*
X156950521Y-87670214D02*
X156950521Y-87813071D01*
X156950521Y-87813071D02*
X156236235Y-87955928D01*
X157521949Y-88384500D02*
X157664806Y-88455928D01*
X157664806Y-88455928D02*
X157950520Y-88455928D01*
X157950520Y-88455928D02*
X158093377Y-88384500D01*
X158093377Y-88384500D02*
X158164806Y-88241642D01*
X158164806Y-88241642D02*
X158164806Y-88170214D01*
X158164806Y-88170214D02*
X158093377Y-88027357D01*
X158093377Y-88027357D02*
X157950520Y-87955928D01*
X157950520Y-87955928D02*
X157736235Y-87955928D01*
X157736235Y-87955928D02*
X157593377Y-87884500D01*
X157593377Y-87884500D02*
X157521949Y-87741642D01*
X157521949Y-87741642D02*
X157521949Y-87670214D01*
X157521949Y-87670214D02*
X157593377Y-87527357D01*
X157593377Y-87527357D02*
X157736235Y-87455928D01*
X157736235Y-87455928D02*
X157950520Y-87455928D01*
X157950520Y-87455928D02*
X158093377Y-87527357D01*
X159450521Y-88384500D02*
X159307663Y-88455928D01*
X159307663Y-88455928D02*
X159021949Y-88455928D01*
X159021949Y-88455928D02*
X158879092Y-88384500D01*
X158879092Y-88384500D02*
X158807663Y-88313071D01*
X158807663Y-88313071D02*
X158736235Y-88170214D01*
X158736235Y-88170214D02*
X158736235Y-87741642D01*
X158736235Y-87741642D02*
X158807663Y-87598785D01*
X158807663Y-87598785D02*
X158879092Y-87527357D01*
X158879092Y-87527357D02*
X159021949Y-87455928D01*
X159021949Y-87455928D02*
X159307663Y-87455928D01*
X159307663Y-87455928D02*
X159450521Y-87527357D01*
X160664806Y-88384500D02*
X160521949Y-88455928D01*
X160521949Y-88455928D02*
X160236235Y-88455928D01*
X160236235Y-88455928D02*
X160093377Y-88384500D01*
X160093377Y-88384500D02*
X160021949Y-88241642D01*
X160021949Y-88241642D02*
X160021949Y-87670214D01*
X160021949Y-87670214D02*
X160093377Y-87527357D01*
X160093377Y-87527357D02*
X160236235Y-87455928D01*
X160236235Y-87455928D02*
X160521949Y-87455928D01*
X160521949Y-87455928D02*
X160664806Y-87527357D01*
X160664806Y-87527357D02*
X160736235Y-87670214D01*
X160736235Y-87670214D02*
X160736235Y-87813071D01*
X160736235Y-87813071D02*
X160021949Y-87955928D01*
X161379091Y-87455928D02*
X161379091Y-88455928D01*
X161379091Y-87598785D02*
X161450520Y-87527357D01*
X161450520Y-87527357D02*
X161593377Y-87455928D01*
X161593377Y-87455928D02*
X161807663Y-87455928D01*
X161807663Y-87455928D02*
X161950520Y-87527357D01*
X161950520Y-87527357D02*
X162021949Y-87670214D01*
X162021949Y-87670214D02*
X162021949Y-88455928D01*
X162521949Y-87455928D02*
X163093377Y-87455928D01*
X162736234Y-86955928D02*
X162736234Y-88241642D01*
X162736234Y-88241642D02*
X162807663Y-88384500D01*
X162807663Y-88384500D02*
X162950520Y-88455928D01*
X162950520Y-88455928D02*
X163093377Y-88455928D01*
X164736234Y-87670214D02*
X165236234Y-87670214D01*
X165450520Y-88455928D02*
X164736234Y-88455928D01*
X164736234Y-88455928D02*
X164736234Y-86955928D01*
X164736234Y-86955928D02*
X165450520Y-86955928D01*
X166093377Y-88455928D02*
X166093377Y-87455928D01*
X166093377Y-87598785D02*
X166164806Y-87527357D01*
X166164806Y-87527357D02*
X166307663Y-87455928D01*
X166307663Y-87455928D02*
X166521949Y-87455928D01*
X166521949Y-87455928D02*
X166664806Y-87527357D01*
X166664806Y-87527357D02*
X166736235Y-87670214D01*
X166736235Y-87670214D02*
X166736235Y-88455928D01*
X166736235Y-87670214D02*
X166807663Y-87527357D01*
X166807663Y-87527357D02*
X166950520Y-87455928D01*
X166950520Y-87455928D02*
X167164806Y-87455928D01*
X167164806Y-87455928D02*
X167307663Y-87527357D01*
X167307663Y-87527357D02*
X167379092Y-87670214D01*
X167379092Y-87670214D02*
X167379092Y-88455928D01*
X168093377Y-88455928D02*
X168093377Y-87455928D01*
X168093377Y-86955928D02*
X168021949Y-87027357D01*
X168021949Y-87027357D02*
X168093377Y-87098785D01*
X168093377Y-87098785D02*
X168164806Y-87027357D01*
X168164806Y-87027357D02*
X168093377Y-86955928D01*
X168093377Y-86955928D02*
X168093377Y-87098785D01*
X168593378Y-87455928D02*
X169164806Y-87455928D01*
X168807663Y-86955928D02*
X168807663Y-88241642D01*
X168807663Y-88241642D02*
X168879092Y-88384500D01*
X168879092Y-88384500D02*
X169021949Y-88455928D01*
X169021949Y-88455928D02*
X169164806Y-88455928D01*
X169450521Y-87455928D02*
X170021949Y-87455928D01*
X169664806Y-86955928D02*
X169664806Y-88241642D01*
X169664806Y-88241642D02*
X169736235Y-88384500D01*
X169736235Y-88384500D02*
X169879092Y-88455928D01*
X169879092Y-88455928D02*
X170021949Y-88455928D01*
X171093378Y-88384500D02*
X170950521Y-88455928D01*
X170950521Y-88455928D02*
X170664807Y-88455928D01*
X170664807Y-88455928D02*
X170521949Y-88384500D01*
X170521949Y-88384500D02*
X170450521Y-88241642D01*
X170450521Y-88241642D02*
X170450521Y-87670214D01*
X170450521Y-87670214D02*
X170521949Y-87527357D01*
X170521949Y-87527357D02*
X170664807Y-87455928D01*
X170664807Y-87455928D02*
X170950521Y-87455928D01*
X170950521Y-87455928D02*
X171093378Y-87527357D01*
X171093378Y-87527357D02*
X171164807Y-87670214D01*
X171164807Y-87670214D02*
X171164807Y-87813071D01*
X171164807Y-87813071D02*
X170450521Y-87955928D01*
X171807663Y-88455928D02*
X171807663Y-87455928D01*
X171807663Y-87741642D02*
X171879092Y-87598785D01*
X171879092Y-87598785D02*
X171950521Y-87527357D01*
X171950521Y-87527357D02*
X172093378Y-87455928D01*
X172093378Y-87455928D02*
X172236235Y-87455928D01*
X174736234Y-88313071D02*
X174664806Y-88384500D01*
X174664806Y-88384500D02*
X174450520Y-88455928D01*
X174450520Y-88455928D02*
X174307663Y-88455928D01*
X174307663Y-88455928D02*
X174093377Y-88384500D01*
X174093377Y-88384500D02*
X173950520Y-88241642D01*
X173950520Y-88241642D02*
X173879091Y-88098785D01*
X173879091Y-88098785D02*
X173807663Y-87813071D01*
X173807663Y-87813071D02*
X173807663Y-87598785D01*
X173807663Y-87598785D02*
X173879091Y-87313071D01*
X173879091Y-87313071D02*
X173950520Y-87170214D01*
X173950520Y-87170214D02*
X174093377Y-87027357D01*
X174093377Y-87027357D02*
X174307663Y-86955928D01*
X174307663Y-86955928D02*
X174450520Y-86955928D01*
X174450520Y-86955928D02*
X174664806Y-87027357D01*
X174664806Y-87027357D02*
X174736234Y-87098785D01*
X175379091Y-88455928D02*
X175379091Y-87455928D01*
X175379091Y-86955928D02*
X175307663Y-87027357D01*
X175307663Y-87027357D02*
X175379091Y-87098785D01*
X175379091Y-87098785D02*
X175450520Y-87027357D01*
X175450520Y-87027357D02*
X175379091Y-86955928D01*
X175379091Y-86955928D02*
X175379091Y-87098785D01*
X176093377Y-88455928D02*
X176093377Y-87455928D01*
X176093377Y-87741642D02*
X176164806Y-87598785D01*
X176164806Y-87598785D02*
X176236235Y-87527357D01*
X176236235Y-87527357D02*
X176379092Y-87455928D01*
X176379092Y-87455928D02*
X176521949Y-87455928D01*
X177664806Y-88384500D02*
X177521948Y-88455928D01*
X177521948Y-88455928D02*
X177236234Y-88455928D01*
X177236234Y-88455928D02*
X177093377Y-88384500D01*
X177093377Y-88384500D02*
X177021948Y-88313071D01*
X177021948Y-88313071D02*
X176950520Y-88170214D01*
X176950520Y-88170214D02*
X176950520Y-87741642D01*
X176950520Y-87741642D02*
X177021948Y-87598785D01*
X177021948Y-87598785D02*
X177093377Y-87527357D01*
X177093377Y-87527357D02*
X177236234Y-87455928D01*
X177236234Y-87455928D02*
X177521948Y-87455928D01*
X177521948Y-87455928D02*
X177664806Y-87527357D01*
X178950520Y-87455928D02*
X178950520Y-88455928D01*
X178307662Y-87455928D02*
X178307662Y-88241642D01*
X178307662Y-88241642D02*
X178379091Y-88384500D01*
X178379091Y-88384500D02*
X178521948Y-88455928D01*
X178521948Y-88455928D02*
X178736234Y-88455928D01*
X178736234Y-88455928D02*
X178879091Y-88384500D01*
X178879091Y-88384500D02*
X178950520Y-88313071D01*
X179664805Y-88455928D02*
X179664805Y-87455928D01*
X179664805Y-86955928D02*
X179593377Y-87027357D01*
X179593377Y-87027357D02*
X179664805Y-87098785D01*
X179664805Y-87098785D02*
X179736234Y-87027357D01*
X179736234Y-87027357D02*
X179664805Y-86955928D01*
X179664805Y-86955928D02*
X179664805Y-87098785D01*
X180164806Y-87455928D02*
X180736234Y-87455928D01*
X180379091Y-86955928D02*
X180379091Y-88241642D01*
X180379091Y-88241642D02*
X180450520Y-88384500D01*
X180450520Y-88384500D02*
X180593377Y-88455928D01*
X180593377Y-88455928D02*
X180736234Y-88455928D01*
D11*
X126261905Y-74218819D02*
X126261905Y-73218819D01*
X126261905Y-73218819D02*
X126500000Y-73218819D01*
X126500000Y-73218819D02*
X126642857Y-73266438D01*
X126642857Y-73266438D02*
X126738095Y-73361676D01*
X126738095Y-73361676D02*
X126785714Y-73456914D01*
X126785714Y-73456914D02*
X126833333Y-73647390D01*
X126833333Y-73647390D02*
X126833333Y-73790247D01*
X126833333Y-73790247D02*
X126785714Y-73980723D01*
X126785714Y-73980723D02*
X126738095Y-74075961D01*
X126738095Y-74075961D02*
X126642857Y-74171200D01*
X126642857Y-74171200D02*
X126500000Y-74218819D01*
X126500000Y-74218819D02*
X126261905Y-74218819D01*
X127214286Y-73314057D02*
X127261905Y-73266438D01*
X127261905Y-73266438D02*
X127357143Y-73218819D01*
X127357143Y-73218819D02*
X127595238Y-73218819D01*
X127595238Y-73218819D02*
X127690476Y-73266438D01*
X127690476Y-73266438D02*
X127738095Y-73314057D01*
X127738095Y-73314057D02*
X127785714Y-73409295D01*
X127785714Y-73409295D02*
X127785714Y-73504533D01*
X127785714Y-73504533D02*
X127738095Y-73647390D01*
X127738095Y-73647390D02*
X127166667Y-74218819D01*
X127166667Y-74218819D02*
X127785714Y-74218819D01*
D12*
X164380333Y-80584318D02*
X163775571Y-80584318D01*
X163775571Y-80584318D02*
X163775571Y-79314318D01*
X165347952Y-79737651D02*
X165347952Y-80584318D01*
X165045571Y-79253842D02*
X164743190Y-80160984D01*
X164743190Y-80160984D02*
X165529381Y-80160984D01*
D11*
X134692819Y-76366666D02*
X134216628Y-76699999D01*
X134692819Y-76938094D02*
X133692819Y-76938094D01*
X133692819Y-76938094D02*
X133692819Y-76557142D01*
X133692819Y-76557142D02*
X133740438Y-76461904D01*
X133740438Y-76461904D02*
X133788057Y-76414285D01*
X133788057Y-76414285D02*
X133883295Y-76366666D01*
X133883295Y-76366666D02*
X134026152Y-76366666D01*
X134026152Y-76366666D02*
X134121390Y-76414285D01*
X134121390Y-76414285D02*
X134169009Y-76461904D01*
X134169009Y-76461904D02*
X134216628Y-76557142D01*
X134216628Y-76557142D02*
X134216628Y-76938094D01*
X134692819Y-75890475D02*
X134692819Y-75699999D01*
X134692819Y-75699999D02*
X134645200Y-75604761D01*
X134645200Y-75604761D02*
X134597580Y-75557142D01*
X134597580Y-75557142D02*
X134454723Y-75461904D01*
X134454723Y-75461904D02*
X134264247Y-75414285D01*
X134264247Y-75414285D02*
X133883295Y-75414285D01*
X133883295Y-75414285D02*
X133788057Y-75461904D01*
X133788057Y-75461904D02*
X133740438Y-75509523D01*
X133740438Y-75509523D02*
X133692819Y-75604761D01*
X133692819Y-75604761D02*
X133692819Y-75795237D01*
X133692819Y-75795237D02*
X133740438Y-75890475D01*
X133740438Y-75890475D02*
X133788057Y-75938094D01*
X133788057Y-75938094D02*
X133883295Y-75985713D01*
X133883295Y-75985713D02*
X134121390Y-75985713D01*
X134121390Y-75985713D02*
X134216628Y-75938094D01*
X134216628Y-75938094D02*
X134264247Y-75890475D01*
X134264247Y-75890475D02*
X134311866Y-75795237D01*
X134311866Y-75795237D02*
X134311866Y-75604761D01*
X134311866Y-75604761D02*
X134264247Y-75509523D01*
X134264247Y-75509523D02*
X134216628Y-75461904D01*
X134216628Y-75461904D02*
X134121390Y-75414285D01*
D12*
X154552333Y-67630318D02*
X153947571Y-67630318D01*
X153947571Y-67630318D02*
X153947571Y-66360318D01*
X154915190Y-66481270D02*
X154975666Y-66420794D01*
X154975666Y-66420794D02*
X155096619Y-66360318D01*
X155096619Y-66360318D02*
X155399000Y-66360318D01*
X155399000Y-66360318D02*
X155519952Y-66420794D01*
X155519952Y-66420794D02*
X155580428Y-66481270D01*
X155580428Y-66481270D02*
X155640905Y-66602222D01*
X155640905Y-66602222D02*
X155640905Y-66723175D01*
X155640905Y-66723175D02*
X155580428Y-66904603D01*
X155580428Y-66904603D02*
X154854714Y-67630318D01*
X154854714Y-67630318D02*
X155640905Y-67630318D01*
X145076333Y-84394318D02*
X144471571Y-84394318D01*
X144471571Y-84394318D02*
X144471571Y-83124318D01*
X146104428Y-83124318D02*
X145499666Y-83124318D01*
X145499666Y-83124318D02*
X145439190Y-83729080D01*
X145439190Y-83729080D02*
X145499666Y-83668603D01*
X145499666Y-83668603D02*
X145620619Y-83608127D01*
X145620619Y-83608127D02*
X145923000Y-83608127D01*
X145923000Y-83608127D02*
X146043952Y-83668603D01*
X146043952Y-83668603D02*
X146104428Y-83729080D01*
X146104428Y-83729080D02*
X146164905Y-83850032D01*
X146164905Y-83850032D02*
X146164905Y-84152413D01*
X146164905Y-84152413D02*
X146104428Y-84273365D01*
X146104428Y-84273365D02*
X146043952Y-84333842D01*
X146043952Y-84333842D02*
X145923000Y-84394318D01*
X145923000Y-84394318D02*
X145620619Y-84394318D01*
X145620619Y-84394318D02*
X145499666Y-84333842D01*
X145499666Y-84333842D02*
X145439190Y-84273365D01*
X173700333Y-97348318D02*
X173095571Y-97348318D01*
X173095571Y-97348318D02*
X173095571Y-96078318D01*
X174667952Y-96078318D02*
X174426047Y-96078318D01*
X174426047Y-96078318D02*
X174305095Y-96138794D01*
X174305095Y-96138794D02*
X174244619Y-96199270D01*
X174244619Y-96199270D02*
X174123666Y-96380699D01*
X174123666Y-96380699D02*
X174063190Y-96622603D01*
X174063190Y-96622603D02*
X174063190Y-97106413D01*
X174063190Y-97106413D02*
X174123666Y-97227365D01*
X174123666Y-97227365D02*
X174184143Y-97287842D01*
X174184143Y-97287842D02*
X174305095Y-97348318D01*
X174305095Y-97348318D02*
X174547000Y-97348318D01*
X174547000Y-97348318D02*
X174667952Y-97287842D01*
X174667952Y-97287842D02*
X174728428Y-97227365D01*
X174728428Y-97227365D02*
X174788905Y-97106413D01*
X174788905Y-97106413D02*
X174788905Y-96804032D01*
X174788905Y-96804032D02*
X174728428Y-96683080D01*
X174728428Y-96683080D02*
X174667952Y-96622603D01*
X174667952Y-96622603D02*
X174547000Y-96562127D01*
X174547000Y-96562127D02*
X174305095Y-96562127D01*
X174305095Y-96562127D02*
X174184143Y-96622603D01*
X174184143Y-96622603D02*
X174123666Y-96683080D01*
X174123666Y-96683080D02*
X174063190Y-96804032D01*
X173778333Y-67630318D02*
X173173571Y-67630318D01*
X173173571Y-67630318D02*
X173173571Y-66360318D01*
X174080714Y-66360318D02*
X174866905Y-66360318D01*
X174866905Y-66360318D02*
X174443571Y-66844127D01*
X174443571Y-66844127D02*
X174625000Y-66844127D01*
X174625000Y-66844127D02*
X174745952Y-66904603D01*
X174745952Y-66904603D02*
X174806428Y-66965080D01*
X174806428Y-66965080D02*
X174866905Y-67086032D01*
X174866905Y-67086032D02*
X174866905Y-67388413D01*
X174866905Y-67388413D02*
X174806428Y-67509365D01*
X174806428Y-67509365D02*
X174745952Y-67569842D01*
X174745952Y-67569842D02*
X174625000Y-67630318D01*
X174625000Y-67630318D02*
X174262143Y-67630318D01*
X174262143Y-67630318D02*
X174141190Y-67569842D01*
X174141190Y-67569842D02*
X174080714Y-67509365D01*
X135248333Y-67630318D02*
X134643571Y-67630318D01*
X134643571Y-67630318D02*
X134643571Y-66360318D01*
X136336905Y-67630318D02*
X135611190Y-67630318D01*
X135974047Y-67630318D02*
X135974047Y-66360318D01*
X135974047Y-66360318D02*
X135853095Y-66541746D01*
X135853095Y-66541746D02*
X135732143Y-66662699D01*
X135732143Y-66662699D02*
X135611190Y-66723175D01*
X135170333Y-97348318D02*
X134565571Y-97348318D01*
X134565571Y-97348318D02*
X134565571Y-96078318D01*
X135775095Y-96622603D02*
X135654143Y-96562127D01*
X135654143Y-96562127D02*
X135593666Y-96501651D01*
X135593666Y-96501651D02*
X135533190Y-96380699D01*
X135533190Y-96380699D02*
X135533190Y-96320222D01*
X135533190Y-96320222D02*
X135593666Y-96199270D01*
X135593666Y-96199270D02*
X135654143Y-96138794D01*
X135654143Y-96138794D02*
X135775095Y-96078318D01*
X135775095Y-96078318D02*
X136017000Y-96078318D01*
X136017000Y-96078318D02*
X136137952Y-96138794D01*
X136137952Y-96138794D02*
X136198428Y-96199270D01*
X136198428Y-96199270D02*
X136258905Y-96320222D01*
X136258905Y-96320222D02*
X136258905Y-96380699D01*
X136258905Y-96380699D02*
X136198428Y-96501651D01*
X136198428Y-96501651D02*
X136137952Y-96562127D01*
X136137952Y-96562127D02*
X136017000Y-96622603D01*
X136017000Y-96622603D02*
X135775095Y-96622603D01*
X135775095Y-96622603D02*
X135654143Y-96683080D01*
X135654143Y-96683080D02*
X135593666Y-96743556D01*
X135593666Y-96743556D02*
X135533190Y-96864508D01*
X135533190Y-96864508D02*
X135533190Y-97106413D01*
X135533190Y-97106413D02*
X135593666Y-97227365D01*
X135593666Y-97227365D02*
X135654143Y-97287842D01*
X135654143Y-97287842D02*
X135775095Y-97348318D01*
X135775095Y-97348318D02*
X136017000Y-97348318D01*
X136017000Y-97348318D02*
X136137952Y-97287842D01*
X136137952Y-97287842D02*
X136198428Y-97227365D01*
X136198428Y-97227365D02*
X136258905Y-97106413D01*
X136258905Y-97106413D02*
X136258905Y-96864508D01*
X136258905Y-96864508D02*
X136198428Y-96743556D01*
X136198428Y-96743556D02*
X136137952Y-96683080D01*
X136137952Y-96683080D02*
X136017000Y-96622603D01*
X121686318Y-83566332D02*
X122593461Y-83566332D01*
X122593461Y-83566332D02*
X122774889Y-83626809D01*
X122774889Y-83626809D02*
X122895842Y-83747761D01*
X122895842Y-83747761D02*
X122956318Y-83929190D01*
X122956318Y-83929190D02*
X122956318Y-84050142D01*
X121686318Y-82719666D02*
X121686318Y-82598713D01*
X121686318Y-82598713D02*
X121746794Y-82477761D01*
X121746794Y-82477761D02*
X121807270Y-82417285D01*
X121807270Y-82417285D02*
X121928222Y-82356809D01*
X121928222Y-82356809D02*
X122170127Y-82296332D01*
X122170127Y-82296332D02*
X122472508Y-82296332D01*
X122472508Y-82296332D02*
X122714413Y-82356809D01*
X122714413Y-82356809D02*
X122835365Y-82417285D01*
X122835365Y-82417285D02*
X122895842Y-82477761D01*
X122895842Y-82477761D02*
X122956318Y-82598713D01*
X122956318Y-82598713D02*
X122956318Y-82719666D01*
X122956318Y-82719666D02*
X122895842Y-82840618D01*
X122895842Y-82840618D02*
X122835365Y-82901094D01*
X122835365Y-82901094D02*
X122714413Y-82961571D01*
X122714413Y-82961571D02*
X122472508Y-83022047D01*
X122472508Y-83022047D02*
X122170127Y-83022047D01*
X122170127Y-83022047D02*
X121928222Y-82961571D01*
X121928222Y-82961571D02*
X121807270Y-82901094D01*
X121807270Y-82901094D02*
X121746794Y-82840618D01*
X121746794Y-82840618D02*
X121686318Y-82719666D01*
X154396333Y-97348318D02*
X153791571Y-97348318D01*
X153791571Y-97348318D02*
X153791571Y-96078318D01*
X154698714Y-96078318D02*
X155545381Y-96078318D01*
X155545381Y-96078318D02*
X155001095Y-97348318D01*
D13*
%TO.C,R2*%
X165713000Y-71077064D02*
X165713000Y-70622936D01*
X167183000Y-71077064D02*
X167183000Y-70622936D01*
%TO.C,D2*%
X124440000Y-76179000D02*
X124440000Y-79269000D01*
X124440000Y-76179170D02*
G75*
G02*
X129990000Y-77724000I2560000J-1544830D01*
G01*
X129990000Y-77724000D02*
G75*
G02*
X124440000Y-79268830I-2990000J0D01*
G01*
X129500000Y-77724000D02*
G75*
G02*
X124500000Y-77724000I-2500000J0D01*
G01*
X124500000Y-77724000D02*
G75*
G02*
X129500000Y-77724000I2500000J0D01*
G01*
%TO.C,Q8*%
X143082500Y-90830000D02*
X144602500Y-90830000D01*
X143082500Y-91830000D02*
X143082500Y-90830000D01*
X143082500Y-93950000D02*
X143082500Y-92950000D01*
X144602500Y-90830000D02*
X144602500Y-90880000D01*
X144602500Y-92000000D02*
X144602500Y-92780000D01*
X144602500Y-93900000D02*
X144602500Y-93950000D01*
X144602500Y-93950000D02*
X143082500Y-93950000D01*
X145142500Y-92770000D02*
X144902500Y-92440000D01*
X145382500Y-92440000D01*
X145142500Y-92770000D01*
G36*
X145142500Y-92770000D02*
G01*
X144902500Y-92440000D01*
X145382500Y-92440000D01*
X145142500Y-92770000D01*
G37*
%TO.C,Q2*%
X162210500Y-70068000D02*
X163730500Y-70068000D01*
X162210500Y-71068000D02*
X162210500Y-70068000D01*
X162210500Y-73188000D02*
X162210500Y-72188000D01*
X163730500Y-70068000D02*
X163730500Y-70118000D01*
X163730500Y-71238000D02*
X163730500Y-72018000D01*
X163730500Y-73138000D02*
X163730500Y-73188000D01*
X163730500Y-73188000D02*
X162210500Y-73188000D01*
X164270500Y-72008000D02*
X164030500Y-71678000D01*
X164510500Y-71678000D01*
X164270500Y-72008000D01*
G36*
X164270500Y-72008000D02*
G01*
X164030500Y-71678000D01*
X164510500Y-71678000D01*
X164270500Y-72008000D01*
G37*
%TO.C,C6*%
X182110748Y-95113000D02*
X182633252Y-95113000D01*
X182110748Y-96583000D02*
X182633252Y-96583000D01*
D14*
%TO.C,L4*%
X159492000Y-85010000D02*
X169692000Y-85010000D01*
X169692000Y-75010000D02*
X159492000Y-75010000D01*
D13*
%TO.C,Q5*%
X183860000Y-83727500D02*
X184860000Y-83727500D01*
X183860000Y-85247500D02*
X183860000Y-83727500D01*
X183910000Y-85247500D02*
X183860000Y-85247500D01*
X185810000Y-85247500D02*
X185030000Y-85247500D01*
X185980000Y-83727500D02*
X186980000Y-83727500D01*
X186980000Y-83727500D02*
X186980000Y-85247500D01*
X186980000Y-85247500D02*
X186930000Y-85247500D01*
X185370000Y-86027500D02*
X185040000Y-85787500D01*
X185370000Y-85547500D01*
X185370000Y-86027500D01*
G36*
X185370000Y-86027500D02*
G01*
X185040000Y-85787500D01*
X185370000Y-85547500D01*
X185370000Y-86027500D01*
G37*
%TO.C,R9*%
X131853000Y-75972936D02*
X131853000Y-76427064D01*
X133323000Y-75972936D02*
X133323000Y-76427064D01*
%TO.C,J7*%
X161294000Y-98108000D02*
X161294000Y-105928000D01*
X161294000Y-99708000D02*
X162214000Y-99708000D01*
X161294000Y-105928000D02*
X167414000Y-105928000D01*
X162214000Y-98108000D02*
X161294000Y-98108000D01*
X162214000Y-99708000D02*
X162214000Y-98108000D01*
X162494000Y-99708000D02*
X162214000Y-99708000D01*
X162494000Y-99708000D02*
X162494000Y-98493000D01*
X162554000Y-103668000D02*
X162554000Y-105928000D01*
X163054000Y-103668000D02*
X163054000Y-105928000D01*
X163854000Y-101568000D02*
X164854000Y-101568000D01*
X163854000Y-105928000D02*
X163854000Y-101568000D01*
X164854000Y-101568000D02*
X164854000Y-105928000D01*
X166494000Y-98108000D02*
X166494000Y-99708000D01*
X166494000Y-99708000D02*
X166214000Y-99708000D01*
X167414000Y-98108000D02*
X166494000Y-98108000D01*
X167414000Y-99708000D02*
X166494000Y-99708000D01*
X167414000Y-105928000D02*
X167414000Y-98108000D01*
X162054000Y-102068000D02*
X163054000Y-102068000D01*
X163054000Y-103668000D01*
X162054000Y-103668000D01*
X162054000Y-102068000D01*
X165654000Y-102068000D02*
X166654000Y-102068000D01*
X166654000Y-103668000D01*
X165654000Y-103668000D01*
X165654000Y-102068000D01*
%TO.C,J1*%
X142052000Y-58140000D02*
X142052000Y-65960000D01*
X142052000Y-64360000D02*
X142972000Y-64360000D01*
X142052000Y-65960000D02*
X142972000Y-65960000D01*
X142972000Y-64360000D02*
X143252000Y-64360000D01*
X142972000Y-65960000D02*
X142972000Y-64360000D01*
X144612000Y-62500000D02*
X144612000Y-58140000D01*
X145612000Y-58140000D02*
X145612000Y-62500000D01*
X145612000Y-62500000D02*
X144612000Y-62500000D01*
X146412000Y-60400000D02*
X146412000Y-58140000D01*
X146912000Y-60400000D02*
X146912000Y-58140000D01*
X146972000Y-64360000D02*
X146972000Y-65575000D01*
X146972000Y-64360000D02*
X147252000Y-64360000D01*
X147252000Y-64360000D02*
X147252000Y-65960000D01*
X147252000Y-65960000D02*
X148172000Y-65960000D01*
X148172000Y-58140000D02*
X142052000Y-58140000D01*
X148172000Y-64360000D02*
X147252000Y-64360000D01*
X148172000Y-65960000D02*
X148172000Y-58140000D01*
X143812000Y-62000000D02*
X142812000Y-62000000D01*
X142812000Y-60400000D01*
X143812000Y-60400000D01*
X143812000Y-62000000D01*
X147412000Y-62000000D02*
X146412000Y-62000000D01*
X146412000Y-60400000D01*
X147412000Y-60400000D01*
X147412000Y-62000000D01*
D14*
%TO.C,L2*%
X149664000Y-72056000D02*
X159864000Y-72056000D01*
X159864000Y-62056000D02*
X149664000Y-62056000D01*
D13*
%TO.C,J5*%
X191162000Y-83030000D02*
X191162000Y-83950000D01*
X191162000Y-83950000D02*
X192762000Y-83950000D01*
X191162000Y-88230000D02*
X191162000Y-89150000D01*
X191162000Y-89150000D02*
X198982000Y-89150000D01*
X192762000Y-83030000D02*
X192762000Y-83950000D01*
X192762000Y-83950000D02*
X192762000Y-84230000D01*
X192762000Y-87950000D02*
X191547000Y-87950000D01*
X192762000Y-87950000D02*
X192762000Y-88230000D01*
X192762000Y-88230000D02*
X191162000Y-88230000D01*
X192762000Y-89150000D02*
X192762000Y-88230000D01*
X194622000Y-85590000D02*
X198982000Y-85590000D01*
X194622000Y-86590000D02*
X194622000Y-85590000D01*
X196722000Y-87390000D02*
X198982000Y-87390000D01*
X196722000Y-87890000D02*
X198982000Y-87890000D01*
X198982000Y-83030000D02*
X191162000Y-83030000D01*
X198982000Y-86590000D02*
X194622000Y-86590000D01*
X198982000Y-89150000D02*
X198982000Y-83030000D01*
X195122000Y-84790000D02*
X196722000Y-84790000D01*
X196722000Y-83790000D01*
X195122000Y-83790000D01*
X195122000Y-84790000D01*
X195122000Y-88390000D02*
X196722000Y-88390000D01*
X196722000Y-87390000D01*
X195122000Y-87390000D01*
X195122000Y-88390000D01*
D14*
%TO.C,L5*%
X140188000Y-88820000D02*
X150388000Y-88820000D01*
X150388000Y-78820000D02*
X140188000Y-78820000D01*
D13*
%TO.C,J8*%
X141990000Y-98108000D02*
X141990000Y-105928000D01*
X141990000Y-99708000D02*
X142910000Y-99708000D01*
X141990000Y-105928000D02*
X148110000Y-105928000D01*
X142910000Y-98108000D02*
X141990000Y-98108000D01*
X142910000Y-99708000D02*
X142910000Y-98108000D01*
X143190000Y-99708000D02*
X142910000Y-99708000D01*
X143190000Y-99708000D02*
X143190000Y-98493000D01*
X143250000Y-103668000D02*
X143250000Y-105928000D01*
X143750000Y-103668000D02*
X143750000Y-105928000D01*
X144550000Y-101568000D02*
X145550000Y-101568000D01*
X144550000Y-105928000D02*
X144550000Y-101568000D01*
X145550000Y-101568000D02*
X145550000Y-105928000D01*
X147190000Y-98108000D02*
X147190000Y-99708000D01*
X147190000Y-99708000D02*
X146910000Y-99708000D01*
X148110000Y-98108000D02*
X147190000Y-98108000D01*
X148110000Y-99708000D02*
X147190000Y-99708000D01*
X148110000Y-105928000D02*
X148110000Y-98108000D01*
X142750000Y-102068000D02*
X143750000Y-102068000D01*
X143750000Y-103668000D01*
X142750000Y-103668000D01*
X142750000Y-102068000D01*
X146350000Y-102068000D02*
X147350000Y-102068000D01*
X147350000Y-103668000D01*
X146350000Y-103668000D01*
X146350000Y-102068000D01*
D14*
%TO.C,L6*%
X168812000Y-101774000D02*
X179012000Y-101774000D01*
X179012000Y-91774000D02*
X168812000Y-91774000D01*
D13*
%TO.C,R1*%
X146409000Y-71077064D02*
X146409000Y-70622936D01*
X147879000Y-71077064D02*
X147879000Y-70622936D01*
%TO.C,R5*%
X185192936Y-86879000D02*
X185647064Y-86879000D01*
X185192936Y-88349000D02*
X185647064Y-88349000D01*
%TO.C,R8*%
X146585000Y-92667064D02*
X146585000Y-92212936D01*
X148055000Y-92667064D02*
X148055000Y-92212936D01*
%TO.C,C5*%
X187987000Y-84326248D02*
X187987000Y-84848752D01*
X189457000Y-84326248D02*
X189457000Y-84848752D01*
D14*
%TO.C,L3*%
X168890000Y-72056000D02*
X179090000Y-72056000D01*
X179090000Y-62056000D02*
X168890000Y-62056000D01*
D13*
%TO.C,Q1*%
X142906500Y-70002000D02*
X144426500Y-70002000D01*
X142906500Y-71002000D02*
X142906500Y-70002000D01*
X142906500Y-73122000D02*
X142906500Y-72122000D01*
X144426500Y-70002000D02*
X144426500Y-70052000D01*
X144426500Y-71172000D02*
X144426500Y-71952000D01*
X144426500Y-73072000D02*
X144426500Y-73122000D01*
X144426500Y-73122000D02*
X142906500Y-73122000D01*
X144966500Y-71942000D02*
X144726500Y-71612000D01*
X145206500Y-71612000D01*
X144966500Y-71942000D01*
G36*
X144966500Y-71942000D02*
G01*
X144726500Y-71612000D01*
X145206500Y-71612000D01*
X144966500Y-71942000D01*
G37*
%TO.C,R7*%
X165635000Y-92683064D02*
X165635000Y-92228936D01*
X167105000Y-92683064D02*
X167105000Y-92228936D01*
%TO.C,C1*%
X143559248Y-67337000D02*
X144081752Y-67337000D01*
X143559248Y-68807000D02*
X144081752Y-68807000D01*
%TO.C,J3*%
X180644000Y-58140000D02*
X180644000Y-65960000D01*
X180644000Y-64360000D02*
X181564000Y-64360000D01*
X180644000Y-65960000D02*
X181564000Y-65960000D01*
X181564000Y-64360000D02*
X181844000Y-64360000D01*
X181564000Y-65960000D02*
X181564000Y-64360000D01*
X183204000Y-62500000D02*
X183204000Y-58140000D01*
X184204000Y-58140000D02*
X184204000Y-62500000D01*
X184204000Y-62500000D02*
X183204000Y-62500000D01*
X185004000Y-60400000D02*
X185004000Y-58140000D01*
X185504000Y-60400000D02*
X185504000Y-58140000D01*
X185564000Y-64360000D02*
X185564000Y-65575000D01*
X185564000Y-64360000D02*
X185844000Y-64360000D01*
X185844000Y-64360000D02*
X185844000Y-65960000D01*
X185844000Y-65960000D02*
X186764000Y-65960000D01*
X186764000Y-58140000D02*
X180644000Y-58140000D01*
X186764000Y-64360000D02*
X185844000Y-64360000D01*
X186764000Y-65960000D02*
X186764000Y-58140000D01*
X182404000Y-62000000D02*
X181404000Y-62000000D01*
X181404000Y-60400000D01*
X182404000Y-60400000D01*
X182404000Y-62000000D01*
X186004000Y-62000000D02*
X185004000Y-62000000D01*
X185004000Y-60400000D01*
X186004000Y-60400000D01*
X186004000Y-62000000D01*
D14*
%TO.C,L1*%
X130360000Y-72056000D02*
X140560000Y-72056000D01*
X140560000Y-62056000D02*
X130360000Y-62056000D01*
D13*
%TO.C,J6*%
X180598000Y-98108000D02*
X180598000Y-105928000D01*
X180598000Y-99708000D02*
X181518000Y-99708000D01*
X180598000Y-105928000D02*
X186718000Y-105928000D01*
X181518000Y-98108000D02*
X180598000Y-98108000D01*
X181518000Y-99708000D02*
X181518000Y-98108000D01*
X181798000Y-99708000D02*
X181518000Y-99708000D01*
X181798000Y-99708000D02*
X181798000Y-98493000D01*
X181858000Y-103668000D02*
X181858000Y-105928000D01*
X182358000Y-103668000D02*
X182358000Y-105928000D01*
X183158000Y-101568000D02*
X184158000Y-101568000D01*
X183158000Y-105928000D02*
X183158000Y-101568000D01*
X184158000Y-101568000D02*
X184158000Y-105928000D01*
X185798000Y-98108000D02*
X185798000Y-99708000D01*
X185798000Y-99708000D02*
X185518000Y-99708000D01*
X186718000Y-98108000D02*
X185798000Y-98108000D01*
X186718000Y-99708000D02*
X185798000Y-99708000D01*
X186718000Y-105928000D02*
X186718000Y-98108000D01*
X181358000Y-102068000D02*
X182358000Y-102068000D01*
X182358000Y-103668000D01*
X181358000Y-103668000D01*
X181358000Y-102068000D01*
X184958000Y-102068000D02*
X185958000Y-102068000D01*
X185958000Y-103668000D01*
X184958000Y-103668000D01*
X184958000Y-102068000D01*
%TO.C,R4*%
X185208936Y-78751000D02*
X185663064Y-78751000D01*
X185208936Y-80221000D02*
X185663064Y-80221000D01*
%TO.C,C7*%
X162785248Y-95023000D02*
X163307752Y-95023000D01*
X162785248Y-96493000D02*
X163307752Y-96493000D01*
%TO.C,R6*%
X184939000Y-92683064D02*
X184939000Y-92228936D01*
X186409000Y-92683064D02*
X186409000Y-92228936D01*
%TO.C,C2*%
X162863248Y-67337000D02*
X163385752Y-67337000D01*
X162863248Y-68807000D02*
X163385752Y-68807000D01*
D14*
%TO.C,L8*%
X130282000Y-101774000D02*
X140482000Y-101774000D01*
X140482000Y-91774000D02*
X130282000Y-91774000D01*
D13*
%TO.C,Q3*%
X181514500Y-70002000D02*
X183034500Y-70002000D01*
X181514500Y-71002000D02*
X181514500Y-70002000D01*
X181514500Y-73122000D02*
X181514500Y-72122000D01*
X183034500Y-70002000D02*
X183034500Y-70052000D01*
X183034500Y-71172000D02*
X183034500Y-71952000D01*
X183034500Y-73072000D02*
X183034500Y-73122000D01*
X183034500Y-73122000D02*
X181514500Y-73122000D01*
X183574500Y-71942000D02*
X183334500Y-71612000D01*
X183814500Y-71612000D01*
X183574500Y-71942000D01*
G36*
X183574500Y-71942000D02*
G01*
X183334500Y-71612000D01*
X183814500Y-71612000D01*
X183574500Y-71942000D01*
G37*
%TO.C,C3*%
X182210248Y-67337000D02*
X182732752Y-67337000D01*
X182210248Y-68807000D02*
X182732752Y-68807000D01*
%TO.C,Q4*%
X183860000Y-75556500D02*
X184860000Y-75556500D01*
X183860000Y-77076500D02*
X183860000Y-75556500D01*
X183910000Y-77076500D02*
X183860000Y-77076500D01*
X185810000Y-77076500D02*
X185030000Y-77076500D01*
X185980000Y-75556500D02*
X186980000Y-75556500D01*
X186980000Y-75556500D02*
X186980000Y-77076500D01*
X186980000Y-77076500D02*
X186930000Y-77076500D01*
X185370000Y-77856500D02*
X185040000Y-77616500D01*
X185370000Y-77376500D01*
X185370000Y-77856500D01*
G36*
X185370000Y-77856500D02*
G01*
X185040000Y-77616500D01*
X185370000Y-77376500D01*
X185370000Y-77856500D01*
G37*
%TO.C,J2*%
X161372000Y-58140000D02*
X161372000Y-65960000D01*
X161372000Y-64360000D02*
X162292000Y-64360000D01*
X161372000Y-65960000D02*
X162292000Y-65960000D01*
X162292000Y-64360000D02*
X162572000Y-64360000D01*
X162292000Y-65960000D02*
X162292000Y-64360000D01*
X163932000Y-62500000D02*
X163932000Y-58140000D01*
X164932000Y-58140000D02*
X164932000Y-62500000D01*
X164932000Y-62500000D02*
X163932000Y-62500000D01*
X165732000Y-60400000D02*
X165732000Y-58140000D01*
X166232000Y-60400000D02*
X166232000Y-58140000D01*
X166292000Y-64360000D02*
X166292000Y-65575000D01*
X166292000Y-64360000D02*
X166572000Y-64360000D01*
X166572000Y-64360000D02*
X166572000Y-65960000D01*
X166572000Y-65960000D02*
X167492000Y-65960000D01*
X167492000Y-58140000D02*
X161372000Y-58140000D01*
X167492000Y-64360000D02*
X166572000Y-64360000D01*
X167492000Y-65960000D02*
X167492000Y-58140000D01*
X163132000Y-62000000D02*
X162132000Y-62000000D01*
X162132000Y-60400000D01*
X163132000Y-60400000D01*
X163132000Y-62000000D01*
X166732000Y-62000000D02*
X165732000Y-62000000D01*
X165732000Y-60400000D01*
X166732000Y-60400000D01*
X166732000Y-62000000D01*
D15*
%TO.C,J0*%
X107598000Y-62485000D02*
X120098000Y-62485000D01*
X107598000Y-101585000D02*
X107598000Y-62485000D01*
X120098000Y-62485000D02*
X120098000Y-101585000D01*
X120098000Y-101585000D02*
X107598000Y-101585000D01*
D13*
%TO.C,C4*%
X187987000Y-76155248D02*
X187987000Y-76677752D01*
X189457000Y-76155248D02*
X189457000Y-76677752D01*
D14*
%TO.C,L7*%
X149508000Y-101774000D02*
X159708000Y-101774000D01*
X159708000Y-91774000D02*
X149508000Y-91774000D01*
D13*
%TO.C,Q6*%
X181436500Y-90830000D02*
X182956500Y-90830000D01*
X181436500Y-91830000D02*
X181436500Y-90830000D01*
X181436500Y-93950000D02*
X181436500Y-92950000D01*
X182956500Y-90830000D02*
X182956500Y-90880000D01*
X182956500Y-92000000D02*
X182956500Y-92780000D01*
X182956500Y-93900000D02*
X182956500Y-93950000D01*
X182956500Y-93950000D02*
X181436500Y-93950000D01*
X183496500Y-92770000D02*
X183256500Y-92440000D01*
X183736500Y-92440000D01*
X183496500Y-92770000D01*
G36*
X183496500Y-92770000D02*
G01*
X183256500Y-92440000D01*
X183736500Y-92440000D01*
X183496500Y-92770000D01*
G37*
%TO.C,J4*%
X191162000Y-74902000D02*
X191162000Y-75822000D01*
X191162000Y-75822000D02*
X192762000Y-75822000D01*
X191162000Y-80102000D02*
X191162000Y-81022000D01*
X191162000Y-81022000D02*
X198982000Y-81022000D01*
X192762000Y-74902000D02*
X192762000Y-75822000D01*
X192762000Y-75822000D02*
X192762000Y-76102000D01*
X192762000Y-79822000D02*
X191547000Y-79822000D01*
X192762000Y-79822000D02*
X192762000Y-80102000D01*
X192762000Y-80102000D02*
X191162000Y-80102000D01*
X192762000Y-81022000D02*
X192762000Y-80102000D01*
X194622000Y-77462000D02*
X198982000Y-77462000D01*
X194622000Y-78462000D02*
X194622000Y-77462000D01*
X196722000Y-79262000D02*
X198982000Y-79262000D01*
X196722000Y-79762000D02*
X198982000Y-79762000D01*
X198982000Y-74902000D02*
X191162000Y-74902000D01*
X198982000Y-78462000D02*
X194622000Y-78462000D01*
X198982000Y-81022000D02*
X198982000Y-74902000D01*
X195122000Y-76662000D02*
X196722000Y-76662000D01*
X196722000Y-75662000D01*
X195122000Y-75662000D01*
X195122000Y-76662000D01*
X195122000Y-80262000D02*
X196722000Y-80262000D01*
X196722000Y-79262000D01*
X195122000Y-79262000D01*
X195122000Y-80262000D01*
%TO.C,C8*%
X143481248Y-95023000D02*
X144003752Y-95023000D01*
X143481248Y-96493000D02*
X144003752Y-96493000D01*
%TO.C,Q7*%
X162132500Y-90830000D02*
X163652500Y-90830000D01*
X162132500Y-91830000D02*
X162132500Y-90830000D01*
X162132500Y-93950000D02*
X162132500Y-92950000D01*
X163652500Y-90830000D02*
X163652500Y-90880000D01*
X163652500Y-92000000D02*
X163652500Y-92780000D01*
X163652500Y-93900000D02*
X163652500Y-93950000D01*
X163652500Y-93950000D02*
X162132500Y-93950000D01*
X164192500Y-92770000D02*
X163952500Y-92440000D01*
X164432500Y-92440000D01*
X164192500Y-92770000D01*
G36*
X164192500Y-92770000D02*
G01*
X163952500Y-92440000D01*
X164432500Y-92440000D01*
X164192500Y-92770000D01*
G37*
%TO.C,R3*%
X184939000Y-71093064D02*
X184939000Y-70638936D01*
X186409000Y-71093064D02*
X186409000Y-70638936D01*
%TD*%
%LPC*%
D16*
%TO.C,R2*%
X166448000Y-71850000D03*
X166448000Y-69850000D03*
%TD*%
D17*
%TO.C,D2*%
X125730000Y-77724000D03*
D18*
X128270000Y-77724000D03*
%TD*%
D19*
%TO.C,Q8*%
X142905000Y-92390000D03*
X144780000Y-93340000D03*
X144780000Y-91440000D03*
%TD*%
%TO.C,Q2*%
X162033000Y-71628000D03*
X163908000Y-72578000D03*
X163908000Y-70678000D03*
%TD*%
D20*
%TO.C,C6*%
X181334500Y-95848000D03*
X183409500Y-95848000D03*
%TD*%
D21*
%TO.C,L4*%
X159942000Y-80010000D03*
X169242000Y-80010000D03*
%TD*%
D22*
%TO.C,Q5*%
X185420000Y-83550000D03*
X184470000Y-85425000D03*
X186370000Y-85425000D03*
%TD*%
D23*
%TO.C,R9*%
X132588000Y-75200000D03*
X132588000Y-77200000D03*
%TD*%
D24*
%TO.C,J7*%
X163354000Y-99568000D03*
D25*
X165354000Y-99568000D03*
%TD*%
D26*
%TO.C,J1*%
X146112000Y-64500000D03*
D25*
X144112000Y-64500000D03*
%TD*%
D27*
%TO.C,H1*%
X125000000Y-66000000D03*
%TD*%
D21*
%TO.C,L2*%
X150114000Y-67056000D03*
X159414000Y-67056000D03*
%TD*%
D28*
%TO.C,J5*%
X192622000Y-87090000D03*
D29*
X192622000Y-85090000D03*
%TD*%
D21*
%TO.C,L5*%
X140638000Y-83820000D03*
X149938000Y-83820000D03*
%TD*%
D24*
%TO.C,J8*%
X144050000Y-99568000D03*
D25*
X146050000Y-99568000D03*
%TD*%
D21*
%TO.C,L6*%
X169262000Y-96774000D03*
X178562000Y-96774000D03*
%TD*%
D16*
%TO.C,R1*%
X147144000Y-71850000D03*
X147144000Y-69850000D03*
%TD*%
D30*
%TO.C,R5*%
X184420000Y-87614000D03*
X186420000Y-87614000D03*
%TD*%
D27*
%TO.C,H4*%
X125000000Y-98000000D03*
%TD*%
D16*
%TO.C,R8*%
X147320000Y-93440000D03*
X147320000Y-91440000D03*
%TD*%
D31*
%TO.C,C5*%
X188722000Y-83550000D03*
X188722000Y-85625000D03*
%TD*%
D21*
%TO.C,L3*%
X169340000Y-67056000D03*
X178640000Y-67056000D03*
%TD*%
D19*
%TO.C,Q1*%
X142729000Y-71562000D03*
X144604000Y-72512000D03*
X144604000Y-70612000D03*
%TD*%
D16*
%TO.C,R7*%
X166370000Y-93456000D03*
X166370000Y-91456000D03*
%TD*%
D20*
%TO.C,C1*%
X142783000Y-68072000D03*
X144858000Y-68072000D03*
%TD*%
D26*
%TO.C,J3*%
X184704000Y-64500000D03*
D25*
X182704000Y-64500000D03*
%TD*%
D21*
%TO.C,L1*%
X130810000Y-67056000D03*
X140110000Y-67056000D03*
%TD*%
D24*
%TO.C,J6*%
X182658000Y-99568000D03*
D25*
X184658000Y-99568000D03*
%TD*%
D30*
%TO.C,R4*%
X184436000Y-79486000D03*
X186436000Y-79486000D03*
%TD*%
D20*
%TO.C,C7*%
X162009000Y-95758000D03*
X164084000Y-95758000D03*
%TD*%
D16*
%TO.C,R6*%
X185674000Y-93456000D03*
X185674000Y-91456000D03*
%TD*%
D20*
%TO.C,C2*%
X162087000Y-68072000D03*
X164162000Y-68072000D03*
%TD*%
D21*
%TO.C,L8*%
X130732000Y-96774000D03*
X140032000Y-96774000D03*
%TD*%
D27*
%TO.C,H2*%
X191000000Y-66000000D03*
%TD*%
D19*
%TO.C,Q3*%
X181337000Y-71562000D03*
X183212000Y-72512000D03*
X183212000Y-70612000D03*
%TD*%
D20*
%TO.C,C3*%
X181434000Y-68072000D03*
X183509000Y-68072000D03*
%TD*%
D22*
%TO.C,Q4*%
X185420000Y-75379000D03*
X184470000Y-77254000D03*
X186370000Y-77254000D03*
%TD*%
D26*
%TO.C,J2*%
X165432000Y-64500000D03*
D25*
X163432000Y-64500000D03*
%TD*%
D32*
%TO.C,J0*%
X118618000Y-91625000D03*
D33*
X118618000Y-88885000D03*
X118618000Y-86145000D03*
X118618000Y-83405000D03*
X118618000Y-80665000D03*
X118618000Y-77925000D03*
X118618000Y-75185000D03*
X118618000Y-72445000D03*
X115778000Y-90255000D03*
X115778000Y-87515000D03*
X115778000Y-84775000D03*
X115778000Y-82035000D03*
X115778000Y-79295000D03*
X115778000Y-76555000D03*
X115778000Y-73815000D03*
D34*
X117198000Y-65375000D03*
X117198000Y-98695000D03*
%TD*%
D31*
%TO.C,C4*%
X188722000Y-75379000D03*
X188722000Y-77454000D03*
%TD*%
D27*
%TO.C,H3*%
X191000000Y-98000000D03*
%TD*%
D21*
%TO.C,L7*%
X149958000Y-96774000D03*
X159258000Y-96774000D03*
%TD*%
D19*
%TO.C,Q6*%
X181259000Y-92390000D03*
X183134000Y-93340000D03*
X183134000Y-91440000D03*
%TD*%
D28*
%TO.C,J4*%
X192622000Y-78962000D03*
D29*
X192622000Y-76962000D03*
%TD*%
D20*
%TO.C,C8*%
X142705000Y-95758000D03*
X144780000Y-95758000D03*
%TD*%
D19*
%TO.C,Q7*%
X161955000Y-92390000D03*
X163830000Y-93340000D03*
X163830000Y-91440000D03*
%TD*%
D16*
%TO.C,R3*%
X185674000Y-71866000D03*
X185674000Y-69866000D03*
%TD*%
%LPD*%
M02*
