%TF.GenerationSoftware,KiCad,Pcbnew,9.0.7*%
%TF.CreationDate,2026-03-11T20:41:50+01:00*%
%TF.ProjectId,Multi-emitter V2 Thesis,4d756c74-692d-4656-9d69-747465722056,rev?*%
%TF.SameCoordinates,Original*%
%TF.FileFunction,Copper,L1,Top*%
%TF.FilePolarity,Positive*%
%FSLAX46Y46*%
G04 Gerber Fmt 4.6, Leading zero omitted, Abs format (unit mm)*
G04 Created by KiCad (PCBNEW 9.0.7) date 2026-03-11 20:41:50*
%MOMM*%
%LPD*%
G01*
G04 APERTURE LIST*
G04 Aperture macros list*
%AMRoundRect*
0 Rectangle with rounded corners*
0 $1 Rounding radius*
0 $2 $3 $4 $5 $6 $7 $8 $9 X,Y pos of 4 corners*
0 Add a 4 corners polygon primitive as box body*
4,1,4,$2,$3,$4,$5,$6,$7,$8,$9,$2,$3,0*
0 Add four circle primitives for the rounded corners*
1,1,$1+$1,$2,$3*
1,1,$1+$1,$4,$5*
1,1,$1+$1,$6,$7*
1,1,$1+$1,$8,$9*
0 Add four rect primitives between the rounded corners*
20,1,$1+$1,$2,$3,$4,$5,0*
20,1,$1+$1,$4,$5,$6,$7,0*
20,1,$1+$1,$6,$7,$8,$9,0*
20,1,$1+$1,$8,$9,$2,$3,0*%
G04 Aperture macros list end*
%TA.AperFunction,SMDPad,CuDef*%
%ADD10RoundRect,0.250000X0.450000X-0.350000X0.450000X0.350000X-0.450000X0.350000X-0.450000X-0.350000X0*%
%TD*%
%TA.AperFunction,ComponentPad*%
%ADD11R,1.800000X1.800000*%
%TD*%
%TA.AperFunction,ComponentPad*%
%ADD12C,1.800000*%
%TD*%
%TA.AperFunction,SMDPad,CuDef*%
%ADD13RoundRect,0.150000X0.587500X0.150000X-0.587500X0.150000X-0.587500X-0.150000X0.587500X-0.150000X0*%
%TD*%
%TA.AperFunction,SMDPad,CuDef*%
%ADD14RoundRect,0.250000X-0.337500X-0.475000X0.337500X-0.475000X0.337500X0.475000X-0.337500X0.475000X0*%
%TD*%
%TA.AperFunction,SMDPad,CuDef*%
%ADD15R,2.200000X3.050000*%
%TD*%
%TA.AperFunction,SMDPad,CuDef*%
%ADD16RoundRect,0.150000X0.150000X-0.587500X0.150000X0.587500X-0.150000X0.587500X-0.150000X-0.587500X0*%
%TD*%
%TA.AperFunction,SMDPad,CuDef*%
%ADD17RoundRect,0.250000X-0.450000X0.350000X-0.450000X-0.350000X0.450000X-0.350000X0.450000X0.350000X0*%
%TD*%
%TA.AperFunction,ComponentPad*%
%ADD18RoundRect,0.250000X-0.350000X-0.625000X0.350000X-0.625000X0.350000X0.625000X-0.350000X0.625000X0*%
%TD*%
%TA.AperFunction,ComponentPad*%
%ADD19O,1.200000X1.750000*%
%TD*%
%TA.AperFunction,ComponentPad*%
%ADD20RoundRect,0.250000X0.350000X0.625000X-0.350000X0.625000X-0.350000X-0.625000X0.350000X-0.625000X0*%
%TD*%
%TA.AperFunction,ComponentPad*%
%ADD21C,5.600000*%
%TD*%
%TA.AperFunction,ComponentPad*%
%ADD22RoundRect,0.250000X0.625000X-0.350000X0.625000X0.350000X-0.625000X0.350000X-0.625000X-0.350000X0*%
%TD*%
%TA.AperFunction,ComponentPad*%
%ADD23O,1.750000X1.200000*%
%TD*%
%TA.AperFunction,SMDPad,CuDef*%
%ADD24RoundRect,0.250000X-0.350000X-0.450000X0.350000X-0.450000X0.350000X0.450000X-0.350000X0.450000X0*%
%TD*%
%TA.AperFunction,SMDPad,CuDef*%
%ADD25RoundRect,0.250000X-0.475000X0.337500X-0.475000X-0.337500X0.475000X-0.337500X0.475000X0.337500X0*%
%TD*%
%TA.AperFunction,ComponentPad*%
%ADD26R,1.650000X1.650000*%
%TD*%
%TA.AperFunction,ComponentPad*%
%ADD27C,1.650000*%
%TD*%
%TA.AperFunction,ComponentPad*%
%ADD28C,4.950000*%
%TD*%
%TA.AperFunction,ViaPad*%
%ADD29C,0.600000*%
%TD*%
%TA.AperFunction,Conductor*%
%ADD30C,0.250000*%
%TD*%
%TA.AperFunction,Conductor*%
%ADD31C,1.500000*%
%TD*%
%TA.AperFunction,Conductor*%
%ADD32C,1.200000*%
%TD*%
G04 APERTURE END LIST*
D10*
%TO.P,R2,1*%
%TO.N,/PWM2*%
X166448000Y-71850000D03*
%TO.P,R2,2*%
%TO.N,GND*%
X166448000Y-69850000D03*
%TD*%
D11*
%TO.P,D2,1,K*%
%TO.N,GND*%
X125730000Y-77724000D03*
D12*
%TO.P,D2,2,A*%
%TO.N,Net-(D2-A)*%
X128270000Y-77724000D03*
%TD*%
D13*
%TO.P,Q8,1,D*%
%TO.N,Net-(Q8-D)*%
X142905000Y-92390000D03*
%TO.P,Q8,2,G*%
%TO.N,/PWM8*%
X144780000Y-93340000D03*
%TO.P,Q8,3,S*%
%TO.N,GND*%
X144780000Y-91440000D03*
%TD*%
%TO.P,Q2,1,D*%
%TO.N,Net-(Q2-D)*%
X162033000Y-71628000D03*
%TO.P,Q2,2,G*%
%TO.N,/PWM2*%
X163908000Y-72578000D03*
%TO.P,Q2,3,S*%
%TO.N,GND*%
X163908000Y-70678000D03*
%TD*%
D14*
%TO.P,C6,1*%
%TO.N,Net-(Q6-D)*%
X181334500Y-95848000D03*
%TO.P,C6,2*%
%TO.N,Net-(J6-Pin_1)*%
X183409500Y-95848000D03*
%TD*%
D15*
%TO.P,L4,1,1*%
%TO.N,VCC*%
X159942000Y-80010000D03*
%TO.P,L4,2,2*%
%TO.N,Net-(Q4-D)*%
X169242000Y-80010000D03*
%TD*%
D16*
%TO.P,Q5,1,D*%
%TO.N,Net-(Q5-D)*%
X185420000Y-83550000D03*
%TO.P,Q5,2,G*%
%TO.N,/PWM5*%
X184470000Y-85425000D03*
%TO.P,Q5,3,S*%
%TO.N,GND*%
X186370000Y-85425000D03*
%TD*%
D17*
%TO.P,R9,1*%
%TO.N,VCC*%
X132588000Y-75200000D03*
%TO.P,R9,2*%
%TO.N,Net-(D2-A)*%
X132588000Y-77200000D03*
%TD*%
D18*
%TO.P,J7,1,Pin_1*%
%TO.N,Net-(J7-Pin_1)*%
X163354000Y-99568000D03*
D19*
%TO.P,J7,2,Pin_2*%
%TO.N,GND*%
X165354000Y-99568000D03*
%TD*%
D20*
%TO.P,J1,1,Pin_1*%
%TO.N,Net-(J1-Pin_1)*%
X146112000Y-64500000D03*
D19*
%TO.P,J1,2,Pin_2*%
%TO.N,GND*%
X144112000Y-64500000D03*
%TD*%
D21*
%TO.P,H1,1*%
%TO.N,N/C*%
X125000000Y-66000000D03*
%TD*%
D15*
%TO.P,L2,1,1*%
%TO.N,VCC*%
X150114000Y-67056000D03*
%TO.P,L2,2,2*%
%TO.N,Net-(Q2-D)*%
X159414000Y-67056000D03*
%TD*%
D22*
%TO.P,J5,1,Pin_1*%
%TO.N,Net-(J5-Pin_1)*%
X192622000Y-87090000D03*
D23*
%TO.P,J5,2,Pin_2*%
%TO.N,GND*%
X192622000Y-85090000D03*
%TD*%
D15*
%TO.P,L5,1,1*%
%TO.N,VCC*%
X140638000Y-83820000D03*
%TO.P,L5,2,2*%
%TO.N,Net-(Q5-D)*%
X149938000Y-83820000D03*
%TD*%
D18*
%TO.P,J8,1,Pin_1*%
%TO.N,Net-(J8-Pin_1)*%
X144050000Y-99568000D03*
D19*
%TO.P,J8,2,Pin_2*%
%TO.N,GND*%
X146050000Y-99568000D03*
%TD*%
D15*
%TO.P,L6,1,1*%
%TO.N,VCC*%
X169262000Y-96774000D03*
%TO.P,L6,2,2*%
%TO.N,Net-(Q6-D)*%
X178562000Y-96774000D03*
%TD*%
D10*
%TO.P,R1,1*%
%TO.N,/PWM1*%
X147144000Y-71850000D03*
%TO.P,R1,2*%
%TO.N,GND*%
X147144000Y-69850000D03*
%TD*%
D24*
%TO.P,R5,1*%
%TO.N,/PWM5*%
X184420000Y-87614000D03*
%TO.P,R5,2*%
%TO.N,GND*%
X186420000Y-87614000D03*
%TD*%
D21*
%TO.P,H4,1*%
%TO.N,N/C*%
X125000000Y-98000000D03*
%TD*%
D10*
%TO.P,R8,1*%
%TO.N,/PWM8*%
X147320000Y-93440000D03*
%TO.P,R8,2*%
%TO.N,GND*%
X147320000Y-91440000D03*
%TD*%
D25*
%TO.P,C5,1*%
%TO.N,Net-(Q5-D)*%
X188722000Y-83550000D03*
%TO.P,C5,2*%
%TO.N,Net-(J5-Pin_1)*%
X188722000Y-85625000D03*
%TD*%
D15*
%TO.P,L3,1,1*%
%TO.N,VCC*%
X169340000Y-67056000D03*
%TO.P,L3,2,2*%
%TO.N,Net-(Q3-D)*%
X178640000Y-67056000D03*
%TD*%
D13*
%TO.P,Q1,1,D*%
%TO.N,Net-(Q1-D)*%
X142729000Y-71562000D03*
%TO.P,Q1,2,G*%
%TO.N,/PWM1*%
X144604000Y-72512000D03*
%TO.P,Q1,3,S*%
%TO.N,GND*%
X144604000Y-70612000D03*
%TD*%
D10*
%TO.P,R7,1*%
%TO.N,/PWM7*%
X166370000Y-93456000D03*
%TO.P,R7,2*%
%TO.N,GND*%
X166370000Y-91456000D03*
%TD*%
D14*
%TO.P,C1,1*%
%TO.N,Net-(Q1-D)*%
X142783000Y-68072000D03*
%TO.P,C1,2*%
%TO.N,Net-(J1-Pin_1)*%
X144858000Y-68072000D03*
%TD*%
D20*
%TO.P,J3,1,Pin_1*%
%TO.N,Net-(J3-Pin_1)*%
X184704000Y-64500000D03*
D19*
%TO.P,J3,2,Pin_2*%
%TO.N,GND*%
X182704000Y-64500000D03*
%TD*%
D15*
%TO.P,L1,1,1*%
%TO.N,VCC*%
X130810000Y-67056000D03*
%TO.P,L1,2,2*%
%TO.N,Net-(Q1-D)*%
X140110000Y-67056000D03*
%TD*%
D18*
%TO.P,J6,1,Pin_1*%
%TO.N,Net-(J6-Pin_1)*%
X182658000Y-99568000D03*
D19*
%TO.P,J6,2,Pin_2*%
%TO.N,GND*%
X184658000Y-99568000D03*
%TD*%
D24*
%TO.P,R4,1*%
%TO.N,/PWM4*%
X184436000Y-79486000D03*
%TO.P,R4,2*%
%TO.N,GND*%
X186436000Y-79486000D03*
%TD*%
D14*
%TO.P,C7,1*%
%TO.N,Net-(Q7-D)*%
X162009000Y-95758000D03*
%TO.P,C7,2*%
%TO.N,Net-(J7-Pin_1)*%
X164084000Y-95758000D03*
%TD*%
D10*
%TO.P,R6,1*%
%TO.N,/PWM6*%
X185674000Y-93456000D03*
%TO.P,R6,2*%
%TO.N,GND*%
X185674000Y-91456000D03*
%TD*%
D14*
%TO.P,C2,1*%
%TO.N,Net-(Q2-D)*%
X162087000Y-68072000D03*
%TO.P,C2,2*%
%TO.N,Net-(J2-Pin_1)*%
X164162000Y-68072000D03*
%TD*%
D15*
%TO.P,L8,1,1*%
%TO.N,VCC*%
X130732000Y-96774000D03*
%TO.P,L8,2,2*%
%TO.N,Net-(Q8-D)*%
X140032000Y-96774000D03*
%TD*%
D21*
%TO.P,H2,1*%
%TO.N,N/C*%
X191000000Y-66000000D03*
%TD*%
D13*
%TO.P,Q3,1,D*%
%TO.N,Net-(Q3-D)*%
X181337000Y-71562000D03*
%TO.P,Q3,2,G*%
%TO.N,/PWM3*%
X183212000Y-72512000D03*
%TO.P,Q3,3,S*%
%TO.N,GND*%
X183212000Y-70612000D03*
%TD*%
D14*
%TO.P,C3,1*%
%TO.N,Net-(Q3-D)*%
X181434000Y-68072000D03*
%TO.P,C3,2*%
%TO.N,Net-(J3-Pin_1)*%
X183509000Y-68072000D03*
%TD*%
D16*
%TO.P,Q4,1,D*%
%TO.N,Net-(Q4-D)*%
X185420000Y-75379000D03*
%TO.P,Q4,2,G*%
%TO.N,/PWM4*%
X184470000Y-77254000D03*
%TO.P,Q4,3,S*%
%TO.N,GND*%
X186370000Y-77254000D03*
%TD*%
D20*
%TO.P,J2,1,Pin_1*%
%TO.N,Net-(J2-Pin_1)*%
X165432000Y-64500000D03*
D19*
%TO.P,J2,2,Pin_2*%
%TO.N,GND*%
X163432000Y-64500000D03*
%TD*%
D26*
%TO.P,J0,1,1*%
%TO.N,/PWM8*%
X118618000Y-91625000D03*
D27*
%TO.P,J0,2,2*%
%TO.N,/PWM6*%
X118618000Y-88885000D03*
%TO.P,J0,3,3*%
%TO.N,/PWM4*%
X118618000Y-86145000D03*
%TO.P,J0,4,4*%
%TO.N,/PWM2*%
X118618000Y-83405000D03*
%TO.P,J0,5,5*%
%TO.N,GND*%
X118618000Y-80665000D03*
%TO.P,J0,6,6*%
X118618000Y-77925000D03*
%TO.P,J0,7,7*%
%TO.N,VCC*%
X118618000Y-75185000D03*
%TO.P,J0,8,8*%
X118618000Y-72445000D03*
%TO.P,J0,9,P9*%
%TO.N,/PWM7*%
X115778000Y-90255000D03*
%TO.P,J0,10,P10*%
%TO.N,/PWM5*%
X115778000Y-87515000D03*
%TO.P,J0,11,P111*%
%TO.N,/PWM3*%
X115778000Y-84775000D03*
%TO.P,J0,12,P12*%
%TO.N,/PWM1*%
X115778000Y-82035000D03*
%TO.P,J0,13,P13*%
%TO.N,GND*%
X115778000Y-79295000D03*
%TO.P,J0,14,P14*%
X115778000Y-76555000D03*
%TO.P,J0,15,P15*%
%TO.N,VCC*%
X115778000Y-73815000D03*
D28*
%TO.P,J0,MH1*%
%TO.N,N/C*%
X117198000Y-65375000D03*
%TO.P,J0,MH2*%
X117198000Y-98695000D03*
%TD*%
D25*
%TO.P,C4,1*%
%TO.N,Net-(Q4-D)*%
X188722000Y-75379000D03*
%TO.P,C4,2*%
%TO.N,Net-(J4-Pin_1)*%
X188722000Y-77454000D03*
%TD*%
D21*
%TO.P,H3,1*%
%TO.N,N/C*%
X191000000Y-98000000D03*
%TD*%
D15*
%TO.P,L7,1,1*%
%TO.N,VCC*%
X149958000Y-96774000D03*
%TO.P,L7,2,2*%
%TO.N,Net-(Q7-D)*%
X159258000Y-96774000D03*
%TD*%
D13*
%TO.P,Q6,1,D*%
%TO.N,Net-(Q6-D)*%
X181259000Y-92390000D03*
%TO.P,Q6,2,G*%
%TO.N,/PWM6*%
X183134000Y-93340000D03*
%TO.P,Q6,3,S*%
%TO.N,GND*%
X183134000Y-91440000D03*
%TD*%
D22*
%TO.P,J4,1,Pin_1*%
%TO.N,Net-(J4-Pin_1)*%
X192622000Y-78962000D03*
D23*
%TO.P,J4,2,Pin_2*%
%TO.N,GND*%
X192622000Y-76962000D03*
%TD*%
D14*
%TO.P,C8,1*%
%TO.N,Net-(Q8-D)*%
X142705000Y-95758000D03*
%TO.P,C8,2*%
%TO.N,Net-(J8-Pin_1)*%
X144780000Y-95758000D03*
%TD*%
D13*
%TO.P,Q7,1,D*%
%TO.N,Net-(Q7-D)*%
X161955000Y-92390000D03*
%TO.P,Q7,2,G*%
%TO.N,/PWM7*%
X163830000Y-93340000D03*
%TO.P,Q7,3,S*%
%TO.N,GND*%
X163830000Y-91440000D03*
%TD*%
D10*
%TO.P,R3,1*%
%TO.N,/PWM3*%
X185674000Y-71866000D03*
%TO.P,R3,2*%
%TO.N,GND*%
X185674000Y-69866000D03*
%TD*%
D29*
%TO.N,Net-(Q5-D)*%
X165354000Y-83566000D03*
X161290000Y-83566000D03*
%TO.N,GND*%
X164846000Y-71628000D03*
X186690000Y-67310000D03*
X164846000Y-92202000D03*
X146304000Y-75946000D03*
X145796000Y-70866000D03*
X181610000Y-89154000D03*
X184150000Y-69850000D03*
X165100000Y-69850000D03*
X162560000Y-89916000D03*
X121666000Y-75438000D03*
X187198000Y-86614000D03*
X145796000Y-69850000D03*
X155448000Y-74168000D03*
X135890000Y-78740000D03*
X188722000Y-73406000D03*
X177800000Y-73406000D03*
X144018000Y-69596000D03*
X181356000Y-77216000D03*
X190754000Y-72390000D03*
X185674000Y-86614000D03*
X174498000Y-90170000D03*
X184150000Y-92202000D03*
X189738000Y-91186000D03*
X178816000Y-82550000D03*
X184150000Y-71374000D03*
X146050000Y-92456000D03*
X139954000Y-74168000D03*
X187198000Y-76962000D03*
X185674000Y-78232000D03*
X121920000Y-79248000D03*
X172720000Y-73660000D03*
%TO.N,/PWM8*%
X144780000Y-93340000D03*
X147320000Y-93440000D03*
%TO.N,/PWM2*%
X166448000Y-71850000D03*
X163908000Y-72578000D03*
%TO.N,/PWM6*%
X183134000Y-93340000D03*
X185674000Y-93456000D03*
%TO.N,/PWM4*%
X184436000Y-79486000D03*
X184470000Y-77254000D03*
%TO.N,/PWM7*%
X163830000Y-93340000D03*
X166370000Y-93456000D03*
%TO.N,/PWM3*%
X185674000Y-71866000D03*
X183212000Y-72512000D03*
%TO.N,/PWM5*%
X184420000Y-87614000D03*
X184470000Y-85425000D03*
%TO.N,/PWM1*%
X144604000Y-72512000D03*
X147144000Y-71850000D03*
%TD*%
D30*
%TO.N,Net-(J1-Pin_1)*%
X144858000Y-68072000D02*
X146112000Y-66818000D01*
X146112000Y-66818000D02*
X146112000Y-64500000D01*
%TO.N,Net-(Q1-D)*%
X142783000Y-68072000D02*
X142783000Y-71508000D01*
X140110000Y-67056000D02*
X141767000Y-67056000D01*
X142783000Y-71508000D02*
X142729000Y-71562000D01*
X141767000Y-67056000D02*
X142783000Y-68072000D01*
%TO.N,Net-(Q2-D)*%
X162033000Y-71628000D02*
X162033000Y-68126000D01*
X159414000Y-67056000D02*
X161071000Y-67056000D01*
X161071000Y-67056000D02*
X162087000Y-68072000D01*
X162033000Y-68126000D02*
X162087000Y-68072000D01*
%TO.N,Net-(J2-Pin_1)*%
X165354000Y-66880000D02*
X165354000Y-64578000D01*
X164162000Y-68072000D02*
X165354000Y-66880000D01*
X165354000Y-64578000D02*
X165432000Y-64500000D01*
%TO.N,Net-(Q3-D)*%
X181180000Y-67818000D02*
X181434000Y-68072000D01*
X178640000Y-67056000D02*
X179402000Y-67818000D01*
X181337000Y-71562000D02*
X181337000Y-68169000D01*
X181337000Y-68169000D02*
X181434000Y-68072000D01*
X179402000Y-67818000D02*
X181180000Y-67818000D01*
%TO.N,Net-(J3-Pin_1)*%
X184150000Y-67431000D02*
X184150000Y-65054000D01*
X183509000Y-68072000D02*
X184150000Y-67431000D01*
X184150000Y-65054000D02*
X184704000Y-64500000D01*
%TO.N,Net-(J4-Pin_1)*%
X192622000Y-78962000D02*
X190230000Y-78962000D01*
X190230000Y-78962000D02*
X188722000Y-77454000D01*
%TO.N,Net-(Q4-D)*%
X173873000Y-75379000D02*
X185420000Y-75379000D01*
X169242000Y-80010000D02*
X173873000Y-75379000D01*
X188722000Y-75379000D02*
X185420000Y-75379000D01*
%TO.N,Net-(J8-Pin_1)*%
X144780000Y-95758000D02*
X144526000Y-96012000D01*
X144526000Y-99092000D02*
X144050000Y-99568000D01*
X144526000Y-96012000D02*
X144526000Y-99092000D01*
%TO.N,Net-(Q8-D)*%
X142905000Y-92390000D02*
X142905000Y-92456000D01*
X140032000Y-96774000D02*
X140032000Y-95471500D01*
X141048000Y-95758000D02*
X140032000Y-96774000D01*
X142705000Y-95758000D02*
X141048000Y-95758000D01*
X142705000Y-92656000D02*
X142705000Y-95758000D01*
X142905000Y-92598500D02*
X142905000Y-92390000D01*
X142905000Y-92456000D02*
X142705000Y-92656000D01*
%TO.N,Net-(Q7-D)*%
X159258000Y-96774000D02*
X159512000Y-96774000D01*
X161955000Y-92390000D02*
X161955000Y-95704000D01*
X161955000Y-95704000D02*
X162009000Y-95758000D01*
X160274000Y-96012000D02*
X161755000Y-96012000D01*
X161755000Y-96012000D02*
X162009000Y-95758000D01*
X159512000Y-96774000D02*
X160274000Y-96012000D01*
%TO.N,Net-(J7-Pin_1)*%
X164084000Y-96012000D02*
X163830000Y-96266000D01*
X164084000Y-95758000D02*
X164084000Y-96012000D01*
X163830000Y-96266000D02*
X163830000Y-99092000D01*
X163830000Y-99092000D02*
X163354000Y-99568000D01*
%TO.N,Net-(J6-Pin_1)*%
X183134000Y-96123500D02*
X183409500Y-95848000D01*
X182658000Y-99568000D02*
X183134000Y-99092000D01*
X183134000Y-99092000D02*
X183134000Y-96123500D01*
%TO.N,Net-(Q6-D)*%
X181259000Y-95772500D02*
X181334500Y-95848000D01*
X181334500Y-95848000D02*
X179488000Y-95848000D01*
X179488000Y-95848000D02*
X178562000Y-96774000D01*
X181259000Y-92390000D02*
X181259000Y-95772500D01*
%TO.N,Net-(J5-Pin_1)*%
X190187000Y-87090000D02*
X188722000Y-85625000D01*
X192622000Y-87090000D02*
X190187000Y-87090000D01*
%TO.N,Net-(Q5-D)*%
X161290000Y-83566000D02*
X160782000Y-83566000D01*
X160782000Y-83566000D02*
X160528000Y-83820000D01*
X188722000Y-83550000D02*
X185420000Y-83550000D01*
X185420000Y-83550000D02*
X165370000Y-83550000D01*
X165370000Y-83550000D02*
X165354000Y-83566000D01*
X160528000Y-83820000D02*
X149938000Y-83820000D01*
D31*
%TO.N,VCC*%
X117248000Y-73815000D02*
X118618000Y-72445000D01*
D32*
X134675000Y-72445000D02*
X132334000Y-72445000D01*
D30*
X132588000Y-72699000D02*
X132334000Y-72445000D01*
D32*
X140638000Y-83820000D02*
X140638000Y-78408000D01*
D30*
X130732000Y-96774000D02*
X130732000Y-93726000D01*
D32*
X142904000Y-80010000D02*
X150114000Y-80010000D01*
D30*
X169340000Y-67056000D02*
X169340000Y-72722000D01*
D32*
X150114000Y-80010000D02*
X159942000Y-80010000D01*
D30*
X130810000Y-72191000D02*
X130556000Y-72445000D01*
D31*
X118618000Y-72445000D02*
X118618000Y-75185000D01*
D30*
X130810000Y-67056000D02*
X130810000Y-72191000D01*
X162052000Y-80010000D02*
X159942000Y-80010000D01*
X143764000Y-83820000D02*
X140638000Y-83820000D01*
D31*
X117248000Y-73815000D02*
X118618000Y-75185000D01*
X115778000Y-73815000D02*
X117248000Y-73815000D01*
D32*
X130556000Y-72445000D02*
X118618000Y-72445000D01*
X140638000Y-78408000D02*
X134675000Y-72445000D01*
X141302000Y-78408000D02*
X142904000Y-80010000D01*
D30*
X169262000Y-89330000D02*
X159942000Y-80010000D01*
D32*
X140638000Y-78408000D02*
X141302000Y-78408000D01*
D30*
X169262000Y-96774000D02*
X169262000Y-89330000D01*
X130732000Y-93726000D02*
X140638000Y-83820000D01*
X149958000Y-96774000D02*
X149958000Y-90014000D01*
X149958000Y-90014000D02*
X143764000Y-83820000D01*
D32*
X132334000Y-72445000D02*
X130556000Y-72445000D01*
D30*
X132588000Y-75200000D02*
X132588000Y-72699000D01*
X169340000Y-72722000D02*
X162052000Y-80010000D01*
X150114000Y-67056000D02*
X150114000Y-80010000D01*
%TO.N,Net-(D2-A)*%
X132318000Y-77470000D02*
X132588000Y-77200000D01*
X128524000Y-77470000D02*
X132318000Y-77470000D01*
X128270000Y-77724000D02*
X128524000Y-77470000D01*
%TD*%
%TA.AperFunction,Conductor*%
%TO.N,GND*%
G36*
X194942539Y-62020185D02*
G01*
X194988294Y-62072989D01*
X194999500Y-62124500D01*
X194999500Y-101875500D01*
X194979815Y-101942539D01*
X194927011Y-101988294D01*
X194875500Y-101999500D01*
X113124500Y-101999500D01*
X113057461Y-101979815D01*
X113011706Y-101927011D01*
X113000500Y-101875500D01*
X113000500Y-98527895D01*
X114222500Y-98527895D01*
X114222500Y-98862104D01*
X114259917Y-99194187D01*
X114259919Y-99194199D01*
X114334286Y-99520025D01*
X114334289Y-99520033D01*
X114444666Y-99835472D01*
X114589668Y-100136570D01*
X114589670Y-100136573D01*
X114767475Y-100419549D01*
X114975846Y-100680838D01*
X115212162Y-100917154D01*
X115473451Y-101125525D01*
X115756427Y-101303330D01*
X116057531Y-101448335D01*
X116294449Y-101531235D01*
X116372966Y-101558710D01*
X116372974Y-101558713D01*
X116372977Y-101558713D01*
X116372978Y-101558714D01*
X116698800Y-101633081D01*
X117030896Y-101670499D01*
X117030897Y-101670500D01*
X117030900Y-101670500D01*
X117365103Y-101670500D01*
X117365103Y-101670499D01*
X117697200Y-101633081D01*
X118023022Y-101558714D01*
X118338469Y-101448335D01*
X118639573Y-101303330D01*
X118922549Y-101125525D01*
X119183838Y-100917154D01*
X119420154Y-100680838D01*
X119628525Y-100419549D01*
X119806330Y-100136573D01*
X119951335Y-99835469D01*
X120061714Y-99520022D01*
X120136081Y-99194200D01*
X120173500Y-98862100D01*
X120173500Y-98527900D01*
X120136081Y-98195800D01*
X120061714Y-97869978D01*
X120061712Y-97869972D01*
X120061710Y-97869964D01*
X120050475Y-97837857D01*
X121699500Y-97837857D01*
X121699500Y-98162143D01*
X121702490Y-98192500D01*
X121731284Y-98484857D01*
X121731287Y-98484874D01*
X121794545Y-98802902D01*
X121794548Y-98802913D01*
X121888686Y-99113247D01*
X122012786Y-99412849D01*
X122012788Y-99412854D01*
X122165646Y-99698830D01*
X122165657Y-99698848D01*
X122345811Y-99968467D01*
X122345821Y-99968481D01*
X122551546Y-100219158D01*
X122780841Y-100448453D01*
X122780846Y-100448457D01*
X122780847Y-100448458D01*
X123031524Y-100654183D01*
X123301158Y-100834347D01*
X123301167Y-100834352D01*
X123301169Y-100834353D01*
X123587145Y-100987211D01*
X123587147Y-100987211D01*
X123587153Y-100987215D01*
X123886754Y-101111314D01*
X124197077Y-101205449D01*
X124197083Y-101205450D01*
X124197086Y-101205451D01*
X124197097Y-101205454D01*
X124396528Y-101245122D01*
X124515132Y-101268714D01*
X124837857Y-101300500D01*
X124837860Y-101300500D01*
X125162140Y-101300500D01*
X125162143Y-101300500D01*
X125484868Y-101268714D01*
X125642295Y-101237399D01*
X125802902Y-101205454D01*
X125802913Y-101205451D01*
X125802913Y-101205450D01*
X125802923Y-101205449D01*
X126113246Y-101111314D01*
X126412847Y-100987215D01*
X126698842Y-100834347D01*
X126968476Y-100654183D01*
X127219153Y-100448458D01*
X127448458Y-100219153D01*
X127654183Y-99968476D01*
X127834347Y-99698842D01*
X127987215Y-99412847D01*
X128111314Y-99113246D01*
X128205449Y-98802923D01*
X128205451Y-98802913D01*
X128205454Y-98802902D01*
X128241106Y-98623663D01*
X128268714Y-98484868D01*
X128300500Y-98162143D01*
X128300500Y-97837857D01*
X128268714Y-97515132D01*
X128245122Y-97396528D01*
X128205454Y-97197097D01*
X128205451Y-97197086D01*
X128205450Y-97197083D01*
X128205449Y-97197077D01*
X128111314Y-96886754D01*
X127987215Y-96587153D01*
X127926116Y-96472846D01*
X127834353Y-96301169D01*
X127834352Y-96301167D01*
X127834347Y-96301158D01*
X127654183Y-96031524D01*
X127448458Y-95780847D01*
X127448457Y-95780846D01*
X127448453Y-95780841D01*
X127219158Y-95551546D01*
X126968481Y-95345821D01*
X126968480Y-95345820D01*
X126968476Y-95345817D01*
X126751934Y-95201128D01*
X126698848Y-95165657D01*
X126698847Y-95165656D01*
X126698842Y-95165653D01*
X126698837Y-95165650D01*
X126698830Y-95165646D01*
X126412854Y-95012788D01*
X126412849Y-95012786D01*
X126404901Y-95009494D01*
X126294268Y-94963668D01*
X126113247Y-94888686D01*
X125802913Y-94794548D01*
X125802902Y-94794545D01*
X125484874Y-94731287D01*
X125484857Y-94731284D01*
X125240812Y-94707248D01*
X125162143Y-94699500D01*
X124837857Y-94699500D01*
X124765099Y-94706666D01*
X124515142Y-94731284D01*
X124515125Y-94731287D01*
X124197097Y-94794545D01*
X124197086Y-94794548D01*
X123886752Y-94888686D01*
X123587150Y-95012786D01*
X123587145Y-95012788D01*
X123301169Y-95165646D01*
X123301151Y-95165657D01*
X123031532Y-95345811D01*
X123031518Y-95345821D01*
X122780841Y-95551546D01*
X122551546Y-95780841D01*
X122345821Y-96031518D01*
X122345811Y-96031532D01*
X122165657Y-96301151D01*
X122165646Y-96301169D01*
X122012788Y-96587145D01*
X122012786Y-96587150D01*
X121888686Y-96886752D01*
X121794548Y-97197086D01*
X121794545Y-97197097D01*
X121731287Y-97515125D01*
X121731284Y-97515142D01*
X121727405Y-97554531D01*
X121699500Y-97837857D01*
X120050475Y-97837857D01*
X119995535Y-97680848D01*
X119951335Y-97554531D01*
X119806330Y-97253427D01*
X119628525Y-96970451D01*
X119420154Y-96709162D01*
X119183838Y-96472846D01*
X118922549Y-96264475D01*
X118639573Y-96086670D01*
X118639570Y-96086668D01*
X118338472Y-95941666D01*
X118023033Y-95831289D01*
X118023025Y-95831286D01*
X117778655Y-95775510D01*
X117697200Y-95756919D01*
X117697196Y-95756918D01*
X117697187Y-95756917D01*
X117365104Y-95719500D01*
X117365100Y-95719500D01*
X117030900Y-95719500D01*
X117030895Y-95719500D01*
X116698812Y-95756917D01*
X116698800Y-95756919D01*
X116372974Y-95831286D01*
X116372966Y-95831289D01*
X116057527Y-95941666D01*
X115756429Y-96086668D01*
X115473452Y-96264474D01*
X115212162Y-96472845D01*
X114975845Y-96709162D01*
X114767474Y-96970452D01*
X114589668Y-97253429D01*
X114444666Y-97554527D01*
X114334289Y-97869966D01*
X114334286Y-97869974D01*
X114259919Y-98195800D01*
X114259917Y-98195812D01*
X114222500Y-98527895D01*
X113000500Y-98527895D01*
X113000500Y-73710675D01*
X114452500Y-73710675D01*
X114452500Y-73919324D01*
X114485137Y-74125389D01*
X114549612Y-74323820D01*
X114583147Y-74389635D01*
X114644330Y-74509714D01*
X114766965Y-74678505D01*
X114914495Y-74826035D01*
X115083286Y-74948670D01*
X115269184Y-75043389D01*
X115342874Y-75067332D01*
X115400547Y-75106768D01*
X115427746Y-75171127D01*
X115415832Y-75239973D01*
X115368588Y-75291449D01*
X115342874Y-75303192D01*
X115269376Y-75327073D01*
X115083552Y-75421757D01*
X115034180Y-75457627D01*
X115607766Y-76031212D01*
X115565708Y-76042482D01*
X115440292Y-76114890D01*
X115337890Y-76217292D01*
X115265482Y-76342708D01*
X115254212Y-76384765D01*
X114680627Y-75811180D01*
X114644757Y-75860552D01*
X114550075Y-76046372D01*
X114485626Y-76244727D01*
X114453000Y-76450720D01*
X114453000Y-76659279D01*
X114485626Y-76865272D01*
X114550075Y-77063627D01*
X114644759Y-77249451D01*
X114680627Y-77298818D01*
X114680627Y-77298819D01*
X115254212Y-76725234D01*
X115265482Y-76767292D01*
X115337890Y-76892708D01*
X115440292Y-76995110D01*
X115565708Y-77067518D01*
X115607765Y-77078787D01*
X115034179Y-77652371D01*
X115034180Y-77652372D01*
X115083543Y-77688236D01*
X115083556Y-77688244D01*
X115269372Y-77782924D01*
X115343682Y-77807069D01*
X115401357Y-77846507D01*
X115428555Y-77910866D01*
X115416640Y-77979712D01*
X115369396Y-78031188D01*
X115343682Y-78042931D01*
X115269372Y-78067075D01*
X115083552Y-78161757D01*
X115034180Y-78197627D01*
X115607766Y-78771212D01*
X115565708Y-78782482D01*
X115440292Y-78854890D01*
X115337890Y-78957292D01*
X115265482Y-79082708D01*
X115254212Y-79124765D01*
X114680627Y-78551180D01*
X114644757Y-78600552D01*
X114550075Y-78786372D01*
X114485626Y-78984727D01*
X114453000Y-79190720D01*
X114453000Y-79399279D01*
X114485626Y-79605272D01*
X114550075Y-79803627D01*
X114644759Y-79989451D01*
X114680627Y-80038818D01*
X114680627Y-80038819D01*
X115254212Y-79465234D01*
X115265482Y-79507292D01*
X115337890Y-79632708D01*
X115440292Y-79735110D01*
X115565708Y-79807518D01*
X115607765Y-79818787D01*
X115034179Y-80392371D01*
X115034180Y-80392372D01*
X115083543Y-80428236D01*
X115083556Y-80428244D01*
X115269372Y-80522924D01*
X115342873Y-80546806D01*
X115400548Y-80586244D01*
X115427746Y-80650603D01*
X115415831Y-80719449D01*
X115368587Y-80770925D01*
X115342873Y-80782668D01*
X115269179Y-80806612D01*
X115083285Y-80901330D01*
X114914493Y-81023966D01*
X114766966Y-81171493D01*
X114644330Y-81340285D01*
X114549612Y-81526179D01*
X114485137Y-81724610D01*
X114452500Y-81930675D01*
X114452500Y-82139324D01*
X114485137Y-82345389D01*
X114549612Y-82543820D01*
X114634431Y-82710286D01*
X114644330Y-82729714D01*
X114766965Y-82898505D01*
X114914495Y-83046035D01*
X115083286Y-83168670D01*
X115162394Y-83208977D01*
X115269179Y-83263387D01*
X115269181Y-83263387D01*
X115269184Y-83263389D01*
X115342064Y-83287069D01*
X115399739Y-83326507D01*
X115426937Y-83390866D01*
X115415022Y-83459712D01*
X115367778Y-83511188D01*
X115342065Y-83522930D01*
X115323986Y-83528804D01*
X115269179Y-83546612D01*
X115083285Y-83641330D01*
X114914493Y-83763966D01*
X114766966Y-83911493D01*
X114644330Y-84080285D01*
X114549612Y-84266179D01*
X114485137Y-84464610D01*
X114452500Y-84670675D01*
X114452500Y-84879324D01*
X114485137Y-85085389D01*
X114549612Y-85283820D01*
X114634431Y-85450286D01*
X114644330Y-85469714D01*
X114766965Y-85638505D01*
X114914495Y-85786035D01*
X115083286Y-85908670D01*
X115171116Y-85953421D01*
X115269179Y-86003387D01*
X115269181Y-86003387D01*
X115269184Y-86003389D01*
X115342064Y-86027069D01*
X115399739Y-86066507D01*
X115426937Y-86130866D01*
X115415022Y-86199712D01*
X115367778Y-86251188D01*
X115342065Y-86262930D01*
X115323986Y-86268804D01*
X115269179Y-86286612D01*
X115083285Y-86381330D01*
X114914493Y-86503966D01*
X114766966Y-86651493D01*
X114644330Y-86820285D01*
X114549612Y-87006179D01*
X114485137Y-87204610D01*
X114452500Y-87410675D01*
X114452500Y-87619324D01*
X114485137Y-87825389D01*
X114549612Y-88023820D01*
X114634540Y-88190500D01*
X114644330Y-88209714D01*
X114766965Y-88378505D01*
X114914495Y-88526035D01*
X115083286Y-88648670D01*
X115171116Y-88693421D01*
X115269179Y-88743387D01*
X115269181Y-88743387D01*
X115269184Y-88743389D01*
X115342064Y-88767069D01*
X115399739Y-88806507D01*
X115426937Y-88870866D01*
X115415022Y-88939712D01*
X115367778Y-88991188D01*
X115342065Y-89002930D01*
X115323986Y-89008804D01*
X115269179Y-89026612D01*
X115083285Y-89121330D01*
X114914493Y-89243966D01*
X114766966Y-89391493D01*
X114644330Y-89560285D01*
X114549612Y-89746179D01*
X114485137Y-89944610D01*
X114452500Y-90150675D01*
X114452500Y-90359324D01*
X114485137Y-90565389D01*
X114549612Y-90763820D01*
X114638006Y-90937302D01*
X114644330Y-90949714D01*
X114766965Y-91118505D01*
X114914495Y-91266035D01*
X115083286Y-91388670D01*
X115171116Y-91433421D01*
X115269179Y-91483387D01*
X115269181Y-91483387D01*
X115269184Y-91483389D01*
X115375545Y-91517948D01*
X115467610Y-91547862D01*
X115673676Y-91580500D01*
X115673681Y-91580500D01*
X115882324Y-91580500D01*
X116088389Y-91547862D01*
X116286816Y-91483389D01*
X116472714Y-91388670D01*
X116641505Y-91266035D01*
X116789035Y-91118505D01*
X116911670Y-90949714D01*
X117006389Y-90763816D01*
X117070862Y-90565389D01*
X117079051Y-90513684D01*
X117103500Y-90359324D01*
X117103500Y-90150675D01*
X117070862Y-89944610D01*
X117006387Y-89746179D01*
X116911669Y-89560285D01*
X116906210Y-89552771D01*
X116789035Y-89391495D01*
X116641505Y-89243965D01*
X116472714Y-89121330D01*
X116286816Y-89026611D01*
X116213935Y-89002930D01*
X116156260Y-88963493D01*
X116129062Y-88899135D01*
X116140977Y-88830288D01*
X116188221Y-88778813D01*
X116213934Y-88767069D01*
X116286816Y-88743389D01*
X116472714Y-88648670D01*
X116641505Y-88526035D01*
X116789035Y-88378505D01*
X116911670Y-88209714D01*
X117006389Y-88023816D01*
X117070862Y-87825389D01*
X117103500Y-87619324D01*
X117103500Y-87410675D01*
X117070862Y-87204610D01*
X117008020Y-87011204D01*
X117006389Y-87006184D01*
X117006387Y-87006181D01*
X117006387Y-87006179D01*
X116924201Y-86844880D01*
X116911670Y-86820286D01*
X116789035Y-86651495D01*
X116641505Y-86503965D01*
X116472714Y-86381330D01*
X116286816Y-86286611D01*
X116213935Y-86262930D01*
X116156260Y-86223493D01*
X116129062Y-86159135D01*
X116140977Y-86090288D01*
X116188221Y-86038813D01*
X116213934Y-86027069D01*
X116286816Y-86003389D01*
X116472714Y-85908670D01*
X116641505Y-85786035D01*
X116789035Y-85638505D01*
X116911670Y-85469714D01*
X117006389Y-85283816D01*
X117070862Y-85085389D01*
X117089428Y-84968168D01*
X117103500Y-84879324D01*
X117103500Y-84670675D01*
X117070862Y-84464610D01*
X117031556Y-84343639D01*
X117006389Y-84266184D01*
X117006387Y-84266181D01*
X117006387Y-84266179D01*
X116911669Y-84080285D01*
X116882616Y-84040297D01*
X116789035Y-83911495D01*
X116641505Y-83763965D01*
X116472714Y-83641330D01*
X116286816Y-83546611D01*
X116213935Y-83522930D01*
X116156260Y-83483493D01*
X116129062Y-83419135D01*
X116140977Y-83350288D01*
X116188221Y-83298813D01*
X116213934Y-83287069D01*
X116286816Y-83263389D01*
X116472714Y-83168670D01*
X116641505Y-83046035D01*
X116789035Y-82898505D01*
X116911670Y-82729714D01*
X117006389Y-82543816D01*
X117070862Y-82345389D01*
X117086427Y-82247116D01*
X117103500Y-82139324D01*
X117103500Y-81930675D01*
X117070862Y-81724610D01*
X117040948Y-81632545D01*
X117006389Y-81526184D01*
X117006387Y-81526181D01*
X117006387Y-81526179D01*
X116946589Y-81408819D01*
X116911670Y-81340286D01*
X116789035Y-81171495D01*
X116641505Y-81023965D01*
X116472714Y-80901330D01*
X116286816Y-80806611D01*
X116213124Y-80782667D01*
X116155451Y-80743230D01*
X116128253Y-80678871D01*
X116140168Y-80610025D01*
X116187412Y-80558549D01*
X116213127Y-80546806D01*
X116286630Y-80522923D01*
X116286631Y-80522922D01*
X116438843Y-80445365D01*
X116438847Y-80445363D01*
X116472451Y-80428240D01*
X116521818Y-80392372D01*
X116521818Y-80392371D01*
X115948234Y-79818787D01*
X115990292Y-79807518D01*
X116115708Y-79735110D01*
X116218110Y-79632708D01*
X116290518Y-79507292D01*
X116301787Y-79465234D01*
X116875371Y-80038818D01*
X116875372Y-80038818D01*
X116911240Y-79989451D01*
X117005924Y-79803627D01*
X117070373Y-79605272D01*
X117103000Y-79399279D01*
X117103000Y-79190720D01*
X117071923Y-78994510D01*
X117071923Y-78994509D01*
X117071922Y-78994506D01*
X117070372Y-78984723D01*
X117005924Y-78786372D01*
X116911244Y-78600556D01*
X116911236Y-78600543D01*
X116875372Y-78551180D01*
X116875371Y-78551179D01*
X116301787Y-79124764D01*
X116290518Y-79082708D01*
X116218110Y-78957292D01*
X116115708Y-78854890D01*
X115990292Y-78782482D01*
X115948233Y-78771212D01*
X116521819Y-78197627D01*
X116472451Y-78161759D01*
X116286625Y-78067075D01*
X116212318Y-78042931D01*
X116154642Y-78003493D01*
X116127444Y-77939135D01*
X116139359Y-77870288D01*
X116186603Y-77818813D01*
X116212318Y-77807069D01*
X116286630Y-77782923D01*
X116286631Y-77782922D01*
X116438843Y-77705365D01*
X116438847Y-77705363D01*
X116472451Y-77688240D01*
X116521818Y-77652372D01*
X116521818Y-77652371D01*
X115948234Y-77078787D01*
X115990292Y-77067518D01*
X116115708Y-76995110D01*
X116218110Y-76892708D01*
X116290518Y-76767292D01*
X116301787Y-76725234D01*
X116875371Y-77298818D01*
X116875372Y-77298818D01*
X116911240Y-77249451D01*
X117005924Y-77063627D01*
X117070373Y-76865272D01*
X117103000Y-76659279D01*
X117103000Y-76450720D01*
X117070373Y-76244727D01*
X117005924Y-76046372D01*
X116911244Y-75860556D01*
X116911236Y-75860543D01*
X116875372Y-75811180D01*
X116875371Y-75811179D01*
X116301787Y-76384764D01*
X116290518Y-76342708D01*
X116218110Y-76217292D01*
X116115708Y-76114890D01*
X115990292Y-76042482D01*
X115948233Y-76031212D01*
X116521819Y-75457627D01*
X116472451Y-75421759D01*
X116286627Y-75327075D01*
X116226167Y-75307431D01*
X116168492Y-75267993D01*
X116141294Y-75203634D01*
X116153209Y-75134788D01*
X116200453Y-75083312D01*
X116264486Y-75065500D01*
X116678664Y-75065500D01*
X116745703Y-75085185D01*
X116766345Y-75101819D01*
X117408206Y-75743680D01*
X117431010Y-75775067D01*
X117484328Y-75879712D01*
X117491138Y-75889085D01*
X117606965Y-76048505D01*
X117754495Y-76196035D01*
X117923286Y-76318670D01*
X118109184Y-76413389D01*
X118182874Y-76437332D01*
X118240547Y-76476768D01*
X118267746Y-76541127D01*
X118255832Y-76609973D01*
X118208588Y-76661449D01*
X118182874Y-76673192D01*
X118109376Y-76697073D01*
X117923552Y-76791757D01*
X117874180Y-76827627D01*
X118447766Y-77401212D01*
X118405708Y-77412482D01*
X118280292Y-77484890D01*
X118177890Y-77587292D01*
X118105482Y-77712708D01*
X118094212Y-77754765D01*
X117520627Y-77181180D01*
X117484757Y-77230552D01*
X117390075Y-77416372D01*
X117325626Y-77614727D01*
X117293000Y-77820720D01*
X117293000Y-78029279D01*
X117325626Y-78235272D01*
X117390075Y-78433627D01*
X117484759Y-78619451D01*
X117520627Y-78668818D01*
X117520627Y-78668819D01*
X118094212Y-78095234D01*
X118105482Y-78137292D01*
X118177890Y-78262708D01*
X118280292Y-78365110D01*
X118405708Y-78437518D01*
X118447765Y-78448787D01*
X117874179Y-79022371D01*
X117874180Y-79022372D01*
X117923543Y-79058236D01*
X117923556Y-79058244D01*
X118109372Y-79152924D01*
X118183682Y-79177069D01*
X118241357Y-79216507D01*
X118268555Y-79280866D01*
X118256640Y-79349712D01*
X118209396Y-79401188D01*
X118183682Y-79412931D01*
X118109372Y-79437075D01*
X117923552Y-79531757D01*
X117874180Y-79567627D01*
X118447766Y-80141212D01*
X118405708Y-80152482D01*
X118280292Y-80224890D01*
X118177890Y-80327292D01*
X118105482Y-80452708D01*
X118094212Y-80494765D01*
X117520627Y-79921180D01*
X117484757Y-79970552D01*
X117390075Y-80156372D01*
X117325626Y-80354727D01*
X117293000Y-80560720D01*
X117293000Y-80769279D01*
X117325626Y-80975272D01*
X117390075Y-81173627D01*
X117484759Y-81359451D01*
X117520627Y-81408818D01*
X117520627Y-81408819D01*
X118094212Y-80835234D01*
X118105482Y-80877292D01*
X118177890Y-81002708D01*
X118280292Y-81105110D01*
X118405708Y-81177518D01*
X118447765Y-81188787D01*
X117874179Y-81762371D01*
X117874180Y-81762372D01*
X117923543Y-81798236D01*
X117923556Y-81798244D01*
X118109372Y-81892924D01*
X118182873Y-81916806D01*
X118240548Y-81956244D01*
X118267746Y-82020603D01*
X118255831Y-82089449D01*
X118208587Y-82140925D01*
X118182873Y-82152668D01*
X118109179Y-82176612D01*
X117923285Y-82271330D01*
X117754493Y-82393966D01*
X117606966Y-82541493D01*
X117484330Y-82710285D01*
X117389612Y-82896179D01*
X117325137Y-83094610D01*
X117292500Y-83300675D01*
X117292500Y-83509324D01*
X117325137Y-83715389D01*
X117389612Y-83913820D01*
X117474431Y-84080286D01*
X117484330Y-84099714D01*
X117606965Y-84268505D01*
X117754495Y-84416035D01*
X117923286Y-84538670D01*
X117989146Y-84572227D01*
X118109179Y-84633387D01*
X118109181Y-84633387D01*
X118109184Y-84633389D01*
X118182064Y-84657069D01*
X118239739Y-84696507D01*
X118266937Y-84760866D01*
X118255022Y-84829712D01*
X118207778Y-84881188D01*
X118182065Y-84892930D01*
X118177687Y-84894353D01*
X118109179Y-84916612D01*
X117923285Y-85011330D01*
X117754493Y-85133966D01*
X117606966Y-85281493D01*
X117484330Y-85450285D01*
X117389612Y-85636179D01*
X117325137Y-85834610D01*
X117292500Y-86040675D01*
X117292500Y-86249324D01*
X117325137Y-86455389D01*
X117389612Y-86653820D01*
X117474431Y-86820286D01*
X117484330Y-86839714D01*
X117606965Y-87008505D01*
X117754495Y-87156035D01*
X117923286Y-87278670D01*
X118011116Y-87323421D01*
X118109179Y-87373387D01*
X118109181Y-87373387D01*
X118109184Y-87373389D01*
X118182064Y-87397069D01*
X118239739Y-87436507D01*
X118266937Y-87500866D01*
X118255022Y-87569712D01*
X118207778Y-87621188D01*
X118182065Y-87632930D01*
X118163986Y-87638804D01*
X118109179Y-87656612D01*
X117923285Y-87751330D01*
X117754493Y-87873966D01*
X117606966Y-88021493D01*
X117484330Y-88190285D01*
X117389612Y-88376179D01*
X117325137Y-88574610D01*
X117292500Y-88780675D01*
X117292500Y-88989324D01*
X117325137Y-89195389D01*
X117389612Y-89393820D01*
X117474431Y-89560286D01*
X117484330Y-89579714D01*
X117606965Y-89748505D01*
X117754495Y-89896035D01*
X117832066Y-89952394D01*
X117923287Y-90018671D01*
X118014244Y-90065015D01*
X118065040Y-90112989D01*
X118081836Y-90180810D01*
X118059299Y-90246945D01*
X118004584Y-90290397D01*
X117957951Y-90299500D01*
X117745130Y-90299500D01*
X117745123Y-90299501D01*
X117685516Y-90305908D01*
X117550671Y-90356202D01*
X117550664Y-90356206D01*
X117435455Y-90442452D01*
X117435452Y-90442455D01*
X117349206Y-90557664D01*
X117349202Y-90557671D01*
X117298908Y-90692517D01*
X117292501Y-90752116D01*
X117292501Y-90752123D01*
X117292500Y-90752135D01*
X117292500Y-92497870D01*
X117292501Y-92497876D01*
X117298908Y-92557483D01*
X117349202Y-92692328D01*
X117349206Y-92692335D01*
X117435452Y-92807544D01*
X117435455Y-92807547D01*
X117550664Y-92893793D01*
X117550671Y-92893797D01*
X117685517Y-92944091D01*
X117685516Y-92944091D01*
X117692444Y-92944835D01*
X117745127Y-92950500D01*
X119490872Y-92950499D01*
X119550483Y-92944091D01*
X119685331Y-92893796D01*
X119800546Y-92807546D01*
X119886796Y-92692331D01*
X119937091Y-92557483D01*
X119943500Y-92497873D01*
X119943499Y-90752128D01*
X119937091Y-90692517D01*
X119935673Y-90688716D01*
X119886797Y-90557671D01*
X119886793Y-90557664D01*
X119800547Y-90442455D01*
X119800544Y-90442452D01*
X119685335Y-90356206D01*
X119685328Y-90356202D01*
X119550482Y-90305908D01*
X119550483Y-90305908D01*
X119490883Y-90299501D01*
X119490881Y-90299500D01*
X119490873Y-90299500D01*
X119490865Y-90299500D01*
X119278050Y-90299500D01*
X119211011Y-90279815D01*
X119165256Y-90227011D01*
X119155312Y-90157853D01*
X119184337Y-90094297D01*
X119221756Y-90065015D01*
X119312712Y-90018671D01*
X119312711Y-90018671D01*
X119312714Y-90018670D01*
X119481505Y-89896035D01*
X119629035Y-89748505D01*
X119751670Y-89579714D01*
X119846389Y-89393816D01*
X119910862Y-89195389D01*
X119922592Y-89121330D01*
X119943500Y-88989324D01*
X119943500Y-88780675D01*
X119910862Y-88574610D01*
X119880948Y-88482545D01*
X119846389Y-88376184D01*
X119846387Y-88376181D01*
X119846387Y-88376179D01*
X119751779Y-88190500D01*
X119751670Y-88190286D01*
X119629035Y-88021495D01*
X119481505Y-87873965D01*
X119312714Y-87751330D01*
X119126816Y-87656611D01*
X119053935Y-87632930D01*
X118996260Y-87593493D01*
X118969062Y-87529135D01*
X118980977Y-87460288D01*
X119028221Y-87408813D01*
X119053934Y-87397069D01*
X119126816Y-87373389D01*
X119312714Y-87278670D01*
X119481505Y-87156035D01*
X119629035Y-87008505D01*
X119751670Y-86839714D01*
X119846389Y-86653816D01*
X119910862Y-86455389D01*
X119921953Y-86385362D01*
X119943500Y-86249324D01*
X119943500Y-86040675D01*
X119910862Y-85834610D01*
X119846387Y-85636179D01*
X119796421Y-85538116D01*
X119751670Y-85450286D01*
X119629035Y-85281495D01*
X119481505Y-85133965D01*
X119312714Y-85011330D01*
X119126816Y-84916611D01*
X119053935Y-84892930D01*
X118996260Y-84853493D01*
X118969062Y-84789135D01*
X118980977Y-84720288D01*
X119028221Y-84668813D01*
X119053934Y-84657069D01*
X119126816Y-84633389D01*
X119312714Y-84538670D01*
X119481505Y-84416035D01*
X119629035Y-84268505D01*
X119751670Y-84099714D01*
X119846389Y-83913816D01*
X119910862Y-83715389D01*
X119922035Y-83644844D01*
X119943500Y-83509324D01*
X119943500Y-83300675D01*
X119910862Y-83094610D01*
X119880948Y-83002545D01*
X119846389Y-82896184D01*
X119846387Y-82896181D01*
X119846387Y-82896179D01*
X119779803Y-82765500D01*
X119751670Y-82710286D01*
X119629035Y-82541495D01*
X119481505Y-82393965D01*
X119312714Y-82271330D01*
X119265228Y-82247135D01*
X119126820Y-82176613D01*
X119126819Y-82176612D01*
X119126816Y-82176611D01*
X119053124Y-82152667D01*
X118995451Y-82113230D01*
X118968253Y-82048871D01*
X118980168Y-81980025D01*
X119027412Y-81928549D01*
X119053127Y-81916806D01*
X119126625Y-81892924D01*
X119312451Y-81798240D01*
X119361818Y-81762372D01*
X119361818Y-81762371D01*
X118788234Y-81188787D01*
X118830292Y-81177518D01*
X118955708Y-81105110D01*
X119058110Y-81002708D01*
X119130518Y-80877292D01*
X119141787Y-80835234D01*
X119715371Y-81408818D01*
X119715372Y-81408818D01*
X119751240Y-81359451D01*
X119845924Y-81173627D01*
X119910373Y-80975272D01*
X119943000Y-80769279D01*
X119943000Y-80560720D01*
X119910373Y-80354727D01*
X119845924Y-80156372D01*
X119751244Y-79970556D01*
X119751236Y-79970543D01*
X119715372Y-79921180D01*
X119715371Y-79921179D01*
X119141787Y-80494764D01*
X119130518Y-80452708D01*
X119058110Y-80327292D01*
X118955708Y-80224890D01*
X118830292Y-80152482D01*
X118788233Y-80141212D01*
X119361819Y-79567627D01*
X119312451Y-79531759D01*
X119126625Y-79437075D01*
X119052318Y-79412931D01*
X118994642Y-79373493D01*
X118967444Y-79309135D01*
X118979359Y-79240288D01*
X119026603Y-79188813D01*
X119052318Y-79177069D01*
X119126625Y-79152924D01*
X119312451Y-79058240D01*
X119361818Y-79022372D01*
X119361818Y-79022371D01*
X118788234Y-78448787D01*
X118830292Y-78437518D01*
X118955708Y-78365110D01*
X119058110Y-78262708D01*
X119130518Y-78137292D01*
X119141787Y-78095234D01*
X119715371Y-78668818D01*
X119715372Y-78668818D01*
X119751240Y-78619451D01*
X119845924Y-78433627D01*
X119910373Y-78235272D01*
X119943000Y-78029279D01*
X119943000Y-77820720D01*
X119910373Y-77614727D01*
X119845924Y-77416372D01*
X119751244Y-77230556D01*
X119751236Y-77230543D01*
X119715372Y-77181180D01*
X119715371Y-77181179D01*
X119141787Y-77754764D01*
X119130518Y-77712708D01*
X119058110Y-77587292D01*
X118955708Y-77484890D01*
X118830292Y-77412482D01*
X118788233Y-77401212D01*
X119361819Y-76827627D01*
X119312451Y-76791759D01*
X119126628Y-76697076D01*
X119053125Y-76673193D01*
X118995451Y-76633754D01*
X118968253Y-76569395D01*
X118980168Y-76500549D01*
X119027413Y-76449074D01*
X119053122Y-76437333D01*
X119126816Y-76413389D01*
X119312714Y-76318670D01*
X119481505Y-76196035D01*
X119629035Y-76048505D01*
X119751670Y-75879714D01*
X119846389Y-75693816D01*
X119910862Y-75495389D01*
X119922524Y-75421757D01*
X119943500Y-75289324D01*
X119943500Y-75080675D01*
X119910862Y-74874610D01*
X119875416Y-74765519D01*
X119874568Y-74762911D01*
X119868500Y-74724594D01*
X119868500Y-73669500D01*
X119888185Y-73602461D01*
X119940989Y-73556706D01*
X119992500Y-73545500D01*
X130469389Y-73545500D01*
X131838500Y-73545500D01*
X131905539Y-73565185D01*
X131951294Y-73617989D01*
X131962500Y-73669500D01*
X131962500Y-74027983D01*
X131942815Y-74095022D01*
X131890011Y-74140777D01*
X131877510Y-74145686D01*
X131818666Y-74165186D01*
X131818663Y-74165187D01*
X131669342Y-74257289D01*
X131545289Y-74381342D01*
X131453187Y-74530663D01*
X131453185Y-74530668D01*
X131425349Y-74614670D01*
X131398001Y-74697203D01*
X131398001Y-74697204D01*
X131398000Y-74697204D01*
X131387500Y-74799983D01*
X131387500Y-75600001D01*
X131387501Y-75600019D01*
X131398000Y-75702796D01*
X131398001Y-75702799D01*
X131450273Y-75860543D01*
X131453186Y-75869334D01*
X131536751Y-76004816D01*
X131545289Y-76018657D01*
X131638951Y-76112319D01*
X131672436Y-76173642D01*
X131667452Y-76243334D01*
X131638951Y-76287681D01*
X131545289Y-76381342D01*
X131453187Y-76530663D01*
X131453185Y-76530668D01*
X131429944Y-76600806D01*
X131398001Y-76697203D01*
X131398001Y-76697204D01*
X131398000Y-76697204D01*
X131394333Y-76733104D01*
X131367936Y-76797795D01*
X131310755Y-76837946D01*
X131270975Y-76844500D01*
X129422469Y-76844500D01*
X129355430Y-76824815D01*
X129334788Y-76808181D01*
X129182363Y-76655756D01*
X129182358Y-76655752D01*
X129004025Y-76526187D01*
X129004024Y-76526186D01*
X129004022Y-76526185D01*
X128941096Y-76494122D01*
X128807606Y-76426104D01*
X128807603Y-76426103D01*
X128597952Y-76357985D01*
X128465767Y-76337049D01*
X128380222Y-76323500D01*
X128159778Y-76323500D01*
X128087201Y-76334995D01*
X127942047Y-76357985D01*
X127732396Y-76426103D01*
X127732393Y-76426104D01*
X127535974Y-76526187D01*
X127357641Y-76655752D01*
X127357636Y-76655756D01*
X127307075Y-76706317D01*
X127245752Y-76739801D01*
X127176060Y-76734816D01*
X127120127Y-76692945D01*
X127103213Y-76661968D01*
X127073354Y-76581913D01*
X127073350Y-76581906D01*
X126987190Y-76466812D01*
X126987187Y-76466809D01*
X126872093Y-76380649D01*
X126872086Y-76380645D01*
X126737379Y-76330403D01*
X126737372Y-76330401D01*
X126677844Y-76324000D01*
X125980000Y-76324000D01*
X125980000Y-77348722D01*
X125903694Y-77304667D01*
X125789244Y-77274000D01*
X125670756Y-77274000D01*
X125556306Y-77304667D01*
X125480000Y-77348722D01*
X125480000Y-76324000D01*
X124782155Y-76324000D01*
X124722627Y-76330401D01*
X124722620Y-76330403D01*
X124587913Y-76380645D01*
X124587906Y-76380649D01*
X124472812Y-76466809D01*
X124472809Y-76466812D01*
X124386649Y-76581906D01*
X124386645Y-76581913D01*
X124336403Y-76716620D01*
X124336401Y-76716627D01*
X124330000Y-76776155D01*
X124330000Y-77474000D01*
X125354722Y-77474000D01*
X125310667Y-77550306D01*
X125280000Y-77664756D01*
X125280000Y-77783244D01*
X125310667Y-77897694D01*
X125354722Y-77974000D01*
X124330000Y-77974000D01*
X124330000Y-78671844D01*
X124336401Y-78731372D01*
X124336403Y-78731379D01*
X124386645Y-78866086D01*
X124386649Y-78866093D01*
X124472809Y-78981187D01*
X124472812Y-78981190D01*
X124587906Y-79067350D01*
X124587913Y-79067354D01*
X124722620Y-79117596D01*
X124722627Y-79117598D01*
X124782155Y-79123999D01*
X124782172Y-79124000D01*
X125480000Y-79124000D01*
X125480000Y-78099277D01*
X125556306Y-78143333D01*
X125670756Y-78174000D01*
X125789244Y-78174000D01*
X125903694Y-78143333D01*
X125980000Y-78099277D01*
X125980000Y-79124000D01*
X126677828Y-79124000D01*
X126677844Y-79123999D01*
X126737372Y-79117598D01*
X126737379Y-79117596D01*
X126872086Y-79067354D01*
X126872093Y-79067350D01*
X126987187Y-78981190D01*
X126987190Y-78981187D01*
X127073350Y-78866093D01*
X127073354Y-78866086D01*
X127103213Y-78786031D01*
X127145084Y-78730097D01*
X127210548Y-78705680D01*
X127278821Y-78720531D01*
X127307076Y-78741683D01*
X127357636Y-78792243D01*
X127357641Y-78792247D01*
X127503604Y-78898294D01*
X127535978Y-78921815D01*
X127661929Y-78985991D01*
X127732393Y-79021895D01*
X127732396Y-79021896D01*
X127837221Y-79055955D01*
X127942049Y-79090015D01*
X128159778Y-79124500D01*
X128159779Y-79124500D01*
X128380221Y-79124500D01*
X128380222Y-79124500D01*
X128597951Y-79090015D01*
X128807606Y-79021895D01*
X129004022Y-78921815D01*
X129182365Y-78792242D01*
X129338242Y-78636365D01*
X129467815Y-78458022D01*
X129567895Y-78261606D01*
X129572630Y-78247033D01*
X129594026Y-78181183D01*
X129633463Y-78123507D01*
X129697821Y-78096308D01*
X129711957Y-78095500D01*
X131570770Y-78095500D01*
X131637809Y-78115185D01*
X131658451Y-78131819D01*
X131669344Y-78142712D01*
X131818666Y-78234814D01*
X131985203Y-78289999D01*
X132087991Y-78300500D01*
X133088008Y-78300499D01*
X133088016Y-78300498D01*
X133088019Y-78300498D01*
X133164669Y-78292668D01*
X133190797Y-78289999D01*
X133357334Y-78234814D01*
X133506656Y-78142712D01*
X133630712Y-78018656D01*
X133722814Y-77869334D01*
X133777999Y-77702797D01*
X133788500Y-77600009D01*
X133788499Y-76799992D01*
X133788210Y-76797166D01*
X133777999Y-76697203D01*
X133777998Y-76697200D01*
X133770043Y-76673193D01*
X133722814Y-76530666D01*
X133630712Y-76381344D01*
X133537049Y-76287681D01*
X133503564Y-76226358D01*
X133508548Y-76156666D01*
X133537049Y-76112319D01*
X133580299Y-76069069D01*
X133630712Y-76018656D01*
X133722814Y-75869334D01*
X133777999Y-75702797D01*
X133788500Y-75600009D01*
X133788499Y-74799992D01*
X133784977Y-74765518D01*
X133777999Y-74697203D01*
X133777998Y-74697200D01*
X133736790Y-74572844D01*
X133722814Y-74530666D01*
X133630712Y-74381344D01*
X133506656Y-74257288D01*
X133357334Y-74165186D01*
X133298493Y-74145688D01*
X133241051Y-74105916D01*
X133214228Y-74041400D01*
X133213500Y-74027983D01*
X133213500Y-73669500D01*
X133233185Y-73602461D01*
X133285989Y-73556706D01*
X133337500Y-73545500D01*
X134167796Y-73545500D01*
X134234835Y-73565185D01*
X134255477Y-73581819D01*
X139501181Y-78827523D01*
X139534666Y-78888846D01*
X139537500Y-78915204D01*
X139537500Y-81678023D01*
X139517815Y-81745062D01*
X139465011Y-81790817D01*
X139437865Y-81798266D01*
X139438068Y-81799124D01*
X139430520Y-81800907D01*
X139295671Y-81851202D01*
X139295664Y-81851206D01*
X139180455Y-81937452D01*
X139180452Y-81937455D01*
X139094206Y-82052664D01*
X139094202Y-82052671D01*
X139043908Y-82187517D01*
X139037501Y-82247116D01*
X139037501Y-82247123D01*
X139037500Y-82247135D01*
X139037500Y-84484546D01*
X139017815Y-84551585D01*
X139001181Y-84572227D01*
X134643909Y-88929500D01*
X130333269Y-93240140D01*
X130333267Y-93240142D01*
X130291949Y-93281460D01*
X130246144Y-93327264D01*
X130246142Y-93327267D01*
X130223497Y-93361158D01*
X130223496Y-93361160D01*
X130223495Y-93361159D01*
X130177689Y-93429712D01*
X130177685Y-93429719D01*
X130146889Y-93504069D01*
X130140263Y-93520069D01*
X130130537Y-93543549D01*
X130109736Y-93648127D01*
X130106500Y-93664394D01*
X130106500Y-94624500D01*
X130086815Y-94691539D01*
X130034011Y-94737294D01*
X129982500Y-94748500D01*
X129584129Y-94748500D01*
X129584123Y-94748501D01*
X129524516Y-94754908D01*
X129389671Y-94805202D01*
X129389664Y-94805206D01*
X129274455Y-94891452D01*
X129274452Y-94891455D01*
X129188206Y-95006664D01*
X129188202Y-95006671D01*
X129137908Y-95141517D01*
X129131501Y-95201116D01*
X129131500Y-95201135D01*
X129131500Y-98346870D01*
X129131501Y-98346876D01*
X129137908Y-98406483D01*
X129188202Y-98541328D01*
X129188206Y-98541335D01*
X129274452Y-98656544D01*
X129274455Y-98656547D01*
X129389664Y-98742793D01*
X129389671Y-98742797D01*
X129524517Y-98793091D01*
X129524516Y-98793091D01*
X129531444Y-98793835D01*
X129584127Y-98799500D01*
X131879872Y-98799499D01*
X131939483Y-98793091D01*
X132074331Y-98742796D01*
X132189546Y-98656546D01*
X132275796Y-98541331D01*
X132326091Y-98406483D01*
X132332500Y-98346873D01*
X132332499Y-95201135D01*
X138431500Y-95201135D01*
X138431500Y-98346870D01*
X138431501Y-98346876D01*
X138437908Y-98406483D01*
X138488202Y-98541328D01*
X138488206Y-98541335D01*
X138574452Y-98656544D01*
X138574455Y-98656547D01*
X138689664Y-98742793D01*
X138689671Y-98742797D01*
X138824517Y-98793091D01*
X138824516Y-98793091D01*
X138831444Y-98793835D01*
X138884127Y-98799500D01*
X141179872Y-98799499D01*
X141239483Y-98793091D01*
X141374331Y-98742796D01*
X141489546Y-98656546D01*
X141575796Y-98541331D01*
X141626091Y-98406483D01*
X141632500Y-98346873D01*
X141632499Y-96858728D01*
X141652184Y-96791690D01*
X141704987Y-96745935D01*
X141774146Y-96735991D01*
X141837702Y-96765016D01*
X141844180Y-96771048D01*
X141898844Y-96825712D01*
X142048166Y-96917814D01*
X142214703Y-96972999D01*
X142317491Y-96983500D01*
X143092508Y-96983499D01*
X143092516Y-96983498D01*
X143092519Y-96983498D01*
X143148802Y-96977748D01*
X143195297Y-96972999D01*
X143361834Y-96917814D01*
X143511156Y-96825712D01*
X143635212Y-96701656D01*
X143636961Y-96698819D01*
X143638669Y-96697283D01*
X143639693Y-96695989D01*
X143639914Y-96696163D01*
X143688906Y-96652096D01*
X143757868Y-96640872D01*
X143821951Y-96668713D01*
X143836795Y-96683390D01*
X143843011Y-96690669D01*
X143849788Y-96701656D01*
X143867631Y-96719499D01*
X143870795Y-96723204D01*
X143883166Y-96750818D01*
X143897666Y-96777372D01*
X143898488Y-96785017D01*
X143899362Y-96786968D01*
X143898973Y-96789535D01*
X143900500Y-96803730D01*
X143900500Y-98068500D01*
X143880815Y-98135539D01*
X143828011Y-98181294D01*
X143776501Y-98192500D01*
X143649999Y-98192500D01*
X143649980Y-98192501D01*
X143547203Y-98203000D01*
X143547200Y-98203001D01*
X143380668Y-98258185D01*
X143380663Y-98258187D01*
X143231342Y-98350289D01*
X143107289Y-98474342D01*
X143015187Y-98623663D01*
X143015185Y-98623668D01*
X143004290Y-98656547D01*
X142960001Y-98790203D01*
X142960001Y-98790204D01*
X142960000Y-98790204D01*
X142949500Y-98892983D01*
X142949500Y-100243001D01*
X142949501Y-100243018D01*
X142960000Y-100345796D01*
X142960001Y-100345799D01*
X143015185Y-100512331D01*
X143015186Y-100512334D01*
X143107288Y-100661656D01*
X143231344Y-100785712D01*
X143380666Y-100877814D01*
X143547203Y-100932999D01*
X143649991Y-100943500D01*
X144450008Y-100943499D01*
X144450016Y-100943498D01*
X144450019Y-100943498D01*
X144506302Y-100937748D01*
X144552797Y-100932999D01*
X144719334Y-100877814D01*
X144868656Y-100785712D01*
X144992712Y-100661656D01*
X145032581Y-100597016D01*
X145084525Y-100550294D01*
X145153488Y-100539071D01*
X145217570Y-100566914D01*
X145225799Y-100574434D01*
X145333397Y-100682032D01*
X145473475Y-100783804D01*
X145627744Y-100862408D01*
X145792415Y-100915914D01*
X145792414Y-100915914D01*
X145799999Y-100917115D01*
X145800000Y-100917114D01*
X145800000Y-99848330D01*
X145819745Y-99868075D01*
X145905255Y-99917444D01*
X146000630Y-99943000D01*
X146099370Y-99943000D01*
X146194745Y-99917444D01*
X146280255Y-99868075D01*
X146300000Y-99848330D01*
X146300000Y-100917115D01*
X146307584Y-100915914D01*
X146472255Y-100862408D01*
X146626524Y-100783804D01*
X146766602Y-100682032D01*
X146889032Y-100559602D01*
X146990804Y-100419524D01*
X147069408Y-100265257D01*
X147122914Y-100100584D01*
X147150000Y-99929571D01*
X147150000Y-99818000D01*
X146330330Y-99818000D01*
X146350075Y-99798255D01*
X146399444Y-99712745D01*
X146425000Y-99617370D01*
X146425000Y-99518630D01*
X146399444Y-99423255D01*
X146350075Y-99337745D01*
X146330330Y-99318000D01*
X147150000Y-99318000D01*
X147150000Y-99206428D01*
X147122914Y-99035415D01*
X147069408Y-98870742D01*
X146990804Y-98716475D01*
X146889032Y-98576397D01*
X146766602Y-98453967D01*
X146626524Y-98352195D01*
X146472257Y-98273591D01*
X146307589Y-98220087D01*
X146307581Y-98220085D01*
X146300000Y-98218884D01*
X146300000Y-99287670D01*
X146280255Y-99267925D01*
X146194745Y-99218556D01*
X146099370Y-99193000D01*
X146000630Y-99193000D01*
X145905255Y-99218556D01*
X145819745Y-99267925D01*
X145800000Y-99287670D01*
X145800000Y-98218884D01*
X145799999Y-98218884D01*
X145792418Y-98220085D01*
X145792410Y-98220087D01*
X145627742Y-98273591D01*
X145473475Y-98352195D01*
X145348385Y-98443078D01*
X145282578Y-98466557D01*
X145214524Y-98450731D01*
X145165830Y-98400625D01*
X145151500Y-98342759D01*
X145151500Y-97097112D01*
X145171185Y-97030073D01*
X145223989Y-96984318D01*
X145262898Y-96973754D01*
X145270297Y-96972999D01*
X145436834Y-96917814D01*
X145586156Y-96825712D01*
X145710212Y-96701656D01*
X145802314Y-96552334D01*
X145857499Y-96385797D01*
X145868000Y-96283009D01*
X145867999Y-95232992D01*
X145864743Y-95201122D01*
X145857499Y-95130203D01*
X145857498Y-95130200D01*
X145839336Y-95075392D01*
X145802314Y-94963666D01*
X145710212Y-94814344D01*
X145586156Y-94690288D01*
X145464404Y-94615191D01*
X145436836Y-94598187D01*
X145436831Y-94598185D01*
X145405497Y-94587802D01*
X145270297Y-94543001D01*
X145270295Y-94543000D01*
X145167510Y-94532500D01*
X144392498Y-94532500D01*
X144392480Y-94532501D01*
X144289703Y-94543000D01*
X144289700Y-94543001D01*
X144123168Y-94598185D01*
X144123163Y-94598187D01*
X143973842Y-94690289D01*
X143849785Y-94814346D01*
X143848037Y-94817182D01*
X143846329Y-94818717D01*
X143845307Y-94820011D01*
X143845085Y-94819836D01*
X143796089Y-94863905D01*
X143727126Y-94875126D01*
X143663044Y-94847282D01*
X143636963Y-94817182D01*
X143635214Y-94814346D01*
X143511157Y-94690289D01*
X143511156Y-94690288D01*
X143389402Y-94615190D01*
X143342679Y-94563243D01*
X143330500Y-94509652D01*
X143330500Y-93725861D01*
X143350185Y-93658822D01*
X143402989Y-93613067D01*
X143472147Y-93603123D01*
X143535703Y-93632148D01*
X143573477Y-93690926D01*
X143573576Y-93691266D01*
X143590754Y-93750393D01*
X143590755Y-93750396D01*
X143674417Y-93891862D01*
X143674423Y-93891870D01*
X143790629Y-94008076D01*
X143790633Y-94008079D01*
X143790635Y-94008081D01*
X143932102Y-94091744D01*
X143973724Y-94103836D01*
X144089926Y-94137597D01*
X144089929Y-94137597D01*
X144089931Y-94137598D01*
X144126806Y-94140500D01*
X144126814Y-94140500D01*
X145433186Y-94140500D01*
X145433194Y-94140500D01*
X145470069Y-94137598D01*
X145470071Y-94137597D01*
X145470073Y-94137597D01*
X145512292Y-94125331D01*
X145627898Y-94091744D01*
X145769365Y-94008081D01*
X145885581Y-93891865D01*
X145897763Y-93871265D01*
X145948831Y-93823581D01*
X146017573Y-93811076D01*
X146082163Y-93837721D01*
X146122094Y-93895056D01*
X146127854Y-93921782D01*
X146130001Y-93942797D01*
X146130001Y-93942799D01*
X146185185Y-94109331D01*
X146185186Y-94109334D01*
X146277288Y-94258656D01*
X146401344Y-94382712D01*
X146550666Y-94474814D01*
X146717203Y-94529999D01*
X146819991Y-94540500D01*
X147820008Y-94540499D01*
X147820016Y-94540498D01*
X147820019Y-94540498D01*
X147876302Y-94534748D01*
X147922797Y-94529999D01*
X148089334Y-94474814D01*
X148238656Y-94382712D01*
X148362712Y-94258656D01*
X148454814Y-94109334D01*
X148509999Y-93942797D01*
X148520500Y-93840009D01*
X148520499Y-93039992D01*
X148509999Y-92937203D01*
X148454814Y-92770666D01*
X148362712Y-92621344D01*
X148268695Y-92527327D01*
X148235210Y-92466004D01*
X148240194Y-92396312D01*
X148268695Y-92351964D01*
X148362317Y-92258342D01*
X148454356Y-92109124D01*
X148454358Y-92109119D01*
X148509505Y-91942697D01*
X148509506Y-91942690D01*
X148519999Y-91839986D01*
X148520000Y-91839973D01*
X148520000Y-91690000D01*
X145030000Y-91690000D01*
X145030000Y-92240000D01*
X145433134Y-92240000D01*
X145433149Y-92239999D01*
X145469989Y-92237100D01*
X145469995Y-92237099D01*
X145627693Y-92191283D01*
X145627696Y-92191282D01*
X145769052Y-92107685D01*
X145769061Y-92107678D01*
X145885178Y-91991561D01*
X145885182Y-91991555D01*
X145914057Y-91942731D01*
X145965126Y-91895047D01*
X146033868Y-91882543D01*
X146098457Y-91909188D01*
X146138388Y-91966523D01*
X146138496Y-91966846D01*
X146185642Y-92109121D01*
X146185643Y-92109124D01*
X146277684Y-92258345D01*
X146371304Y-92351965D01*
X146404789Y-92413288D01*
X146399805Y-92482980D01*
X146371305Y-92527327D01*
X146277287Y-92621345D01*
X146185187Y-92770663D01*
X146185186Y-92770666D01*
X146175335Y-92800396D01*
X146159605Y-92847865D01*
X146119832Y-92905309D01*
X146055316Y-92932132D01*
X145986540Y-92919817D01*
X145935340Y-92872273D01*
X145935167Y-92871981D01*
X145897061Y-92807547D01*
X145885581Y-92788135D01*
X145885579Y-92788133D01*
X145885576Y-92788129D01*
X145769370Y-92671923D01*
X145769362Y-92671917D01*
X145627896Y-92588255D01*
X145627893Y-92588254D01*
X145470073Y-92542402D01*
X145470067Y-92542401D01*
X145433201Y-92539500D01*
X145433194Y-92539500D01*
X144267000Y-92539500D01*
X144258314Y-92536949D01*
X144249353Y-92538238D01*
X144225312Y-92527259D01*
X144199961Y-92519815D01*
X144194033Y-92512974D01*
X144185797Y-92509213D01*
X144171507Y-92486978D01*
X144154206Y-92467011D01*
X144151918Y-92456496D01*
X144148023Y-92450435D01*
X144143000Y-92415500D01*
X144143000Y-92364000D01*
X144162685Y-92296961D01*
X144215489Y-92251206D01*
X144267000Y-92240000D01*
X144530000Y-92240000D01*
X144530000Y-91690000D01*
X143874315Y-91690000D01*
X143811194Y-91672732D01*
X143752896Y-91638255D01*
X143752893Y-91638254D01*
X143595073Y-91592402D01*
X143595067Y-91592401D01*
X143558201Y-91589500D01*
X143558194Y-91589500D01*
X142251806Y-91589500D01*
X142251798Y-91589500D01*
X142214932Y-91592401D01*
X142214926Y-91592402D01*
X142057106Y-91638254D01*
X142057103Y-91638255D01*
X141915637Y-91721917D01*
X141915629Y-91721923D01*
X141799423Y-91838129D01*
X141799417Y-91838137D01*
X141715755Y-91979603D01*
X141715754Y-91979606D01*
X141669902Y-92137426D01*
X141669901Y-92137432D01*
X141667000Y-92174298D01*
X141667000Y-92605701D01*
X141669901Y-92642567D01*
X141669902Y-92642573D01*
X141715754Y-92800393D01*
X141715755Y-92800396D01*
X141799417Y-92941862D01*
X141799423Y-92941870D01*
X141915629Y-93058076D01*
X141915633Y-93058079D01*
X141915635Y-93058081D01*
X141915638Y-93058082D01*
X141915641Y-93058085D01*
X142018620Y-93118986D01*
X142066304Y-93170054D01*
X142079500Y-93225718D01*
X142079500Y-94509652D01*
X142059815Y-94576691D01*
X142020598Y-94615189D01*
X141991722Y-94633001D01*
X141898842Y-94690289D01*
X141774788Y-94814343D01*
X141774785Y-94814347D01*
X141715490Y-94910479D01*
X141663542Y-94957204D01*
X141594579Y-94968425D01*
X141530497Y-94940582D01*
X141510688Y-94919696D01*
X141489546Y-94891454D01*
X141466709Y-94874358D01*
X141374335Y-94805206D01*
X141374328Y-94805202D01*
X141239482Y-94754908D01*
X141239483Y-94754908D01*
X141179883Y-94748501D01*
X141179881Y-94748500D01*
X141179873Y-94748500D01*
X141179864Y-94748500D01*
X138884129Y-94748500D01*
X138884123Y-94748501D01*
X138824516Y-94754908D01*
X138689671Y-94805202D01*
X138689664Y-94805206D01*
X138574455Y-94891452D01*
X138574452Y-94891455D01*
X138488206Y-95006664D01*
X138488202Y-95006671D01*
X138437908Y-95141517D01*
X138431501Y-95201116D01*
X138431500Y-95201135D01*
X132332499Y-95201135D01*
X132332499Y-95201128D01*
X132326091Y-95141517D01*
X132321871Y-95130203D01*
X132275797Y-95006671D01*
X132275793Y-95006664D01*
X132189547Y-94891455D01*
X132189544Y-94891452D01*
X132074335Y-94805206D01*
X132074328Y-94805202D01*
X131939482Y-94754908D01*
X131939483Y-94754908D01*
X131879883Y-94748501D01*
X131879881Y-94748500D01*
X131879873Y-94748500D01*
X131879865Y-94748500D01*
X131481500Y-94748500D01*
X131414461Y-94728815D01*
X131368706Y-94676011D01*
X131357500Y-94624500D01*
X131357500Y-94036451D01*
X131377185Y-93969412D01*
X131393814Y-93948775D01*
X134152591Y-91189998D01*
X143545204Y-91189998D01*
X143545205Y-91190000D01*
X144530000Y-91190000D01*
X144530000Y-90640000D01*
X145030000Y-90640000D01*
X145030000Y-91190000D01*
X147070000Y-91190000D01*
X147570000Y-91190000D01*
X148519999Y-91190000D01*
X148519999Y-91040028D01*
X148519998Y-91040013D01*
X148509505Y-90937302D01*
X148454358Y-90770880D01*
X148454356Y-90770875D01*
X148362315Y-90621654D01*
X148238345Y-90497684D01*
X148089124Y-90405643D01*
X148089119Y-90405641D01*
X147922697Y-90350494D01*
X147922690Y-90350493D01*
X147819986Y-90340000D01*
X147570000Y-90340000D01*
X147570000Y-91190000D01*
X147070000Y-91190000D01*
X147070000Y-90340000D01*
X146820029Y-90340000D01*
X146820012Y-90340001D01*
X146717302Y-90350494D01*
X146550880Y-90405641D01*
X146550875Y-90405643D01*
X146401654Y-90497684D01*
X146277684Y-90621654D01*
X146185643Y-90770875D01*
X146185641Y-90770880D01*
X146138497Y-90913153D01*
X146098724Y-90970598D01*
X146034208Y-90997421D01*
X145965433Y-90985106D01*
X145914233Y-90937563D01*
X145914059Y-90937270D01*
X145885185Y-90888447D01*
X145885178Y-90888438D01*
X145769061Y-90772321D01*
X145769052Y-90772314D01*
X145627696Y-90688717D01*
X145627693Y-90688716D01*
X145469995Y-90642900D01*
X145469989Y-90642899D01*
X145433149Y-90640000D01*
X145030000Y-90640000D01*
X144530000Y-90640000D01*
X144126850Y-90640000D01*
X144090010Y-90642899D01*
X144090004Y-90642900D01*
X143932306Y-90688716D01*
X143932303Y-90688717D01*
X143790947Y-90772314D01*
X143790938Y-90772321D01*
X143674821Y-90888438D01*
X143674814Y-90888447D01*
X143591218Y-91029801D01*
X143545399Y-91187513D01*
X143545204Y-91189998D01*
X134152591Y-91189998D01*
X139460771Y-85881817D01*
X139522094Y-85848333D01*
X139548452Y-85845499D01*
X141785871Y-85845499D01*
X141785872Y-85845499D01*
X141845483Y-85839091D01*
X141980331Y-85788796D01*
X142095546Y-85702546D01*
X142181796Y-85587331D01*
X142232091Y-85452483D01*
X142238500Y-85392873D01*
X142238500Y-84569500D01*
X142258185Y-84502461D01*
X142310989Y-84456706D01*
X142362500Y-84445500D01*
X143453548Y-84445500D01*
X143520587Y-84465185D01*
X143541229Y-84481819D01*
X149296181Y-90236771D01*
X149329666Y-90298094D01*
X149332500Y-90324452D01*
X149332500Y-94624500D01*
X149312815Y-94691539D01*
X149260011Y-94737294D01*
X149208500Y-94748500D01*
X148810129Y-94748500D01*
X148810123Y-94748501D01*
X148750516Y-94754908D01*
X148615671Y-94805202D01*
X148615664Y-94805206D01*
X148500455Y-94891452D01*
X148500452Y-94891455D01*
X148414206Y-95006664D01*
X148414202Y-95006671D01*
X148363908Y-95141517D01*
X148357501Y-95201116D01*
X148357500Y-95201135D01*
X148357500Y-98346870D01*
X148357501Y-98346876D01*
X148363908Y-98406483D01*
X148414202Y-98541328D01*
X148414206Y-98541335D01*
X148500452Y-98656544D01*
X148500455Y-98656547D01*
X148615664Y-98742793D01*
X148615671Y-98742797D01*
X148750517Y-98793091D01*
X148750516Y-98793091D01*
X148757444Y-98793835D01*
X148810127Y-98799500D01*
X151105872Y-98799499D01*
X151165483Y-98793091D01*
X151300331Y-98742796D01*
X151415546Y-98656546D01*
X151501796Y-98541331D01*
X151552091Y-98406483D01*
X151558500Y-98346873D01*
X151558499Y-95201135D01*
X157657500Y-95201135D01*
X157657500Y-98346870D01*
X157657501Y-98346876D01*
X157663908Y-98406483D01*
X157714202Y-98541328D01*
X157714206Y-98541335D01*
X157800452Y-98656544D01*
X157800455Y-98656547D01*
X157915664Y-98742793D01*
X157915671Y-98742797D01*
X158050517Y-98793091D01*
X158050516Y-98793091D01*
X158057444Y-98793835D01*
X158110127Y-98799500D01*
X160405872Y-98799499D01*
X160465483Y-98793091D01*
X160600331Y-98742796D01*
X160715546Y-98656546D01*
X160801796Y-98541331D01*
X160852091Y-98406483D01*
X160858500Y-98346873D01*
X160858499Y-96779801D01*
X160878184Y-96712763D01*
X160930987Y-96667008D01*
X161000146Y-96657064D01*
X161063702Y-96686089D01*
X161074145Y-96697013D01*
X161078788Y-96701656D01*
X161202844Y-96825712D01*
X161352166Y-96917814D01*
X161518703Y-96972999D01*
X161621491Y-96983500D01*
X162396508Y-96983499D01*
X162396516Y-96983498D01*
X162396519Y-96983498D01*
X162452802Y-96977748D01*
X162499297Y-96972999D01*
X162665834Y-96917814D01*
X162815156Y-96825712D01*
X162939212Y-96701656D01*
X162940961Y-96698819D01*
X162942669Y-96697283D01*
X162943693Y-96695989D01*
X162943914Y-96696163D01*
X162992906Y-96652096D01*
X163061868Y-96640872D01*
X163125951Y-96668713D01*
X163140795Y-96683390D01*
X163147011Y-96690669D01*
X163153788Y-96701656D01*
X163171631Y-96719499D01*
X163174795Y-96723204D01*
X163187166Y-96750818D01*
X163201666Y-96777372D01*
X163202488Y-96785017D01*
X163203362Y-96786968D01*
X163202973Y-96789535D01*
X163204500Y-96803730D01*
X163204500Y-98068500D01*
X163184815Y-98135539D01*
X163132011Y-98181294D01*
X163080501Y-98192500D01*
X162953999Y-98192500D01*
X162953980Y-98192501D01*
X162851203Y-98203000D01*
X162851200Y-98203001D01*
X162684668Y-98258185D01*
X162684663Y-98258187D01*
X162535342Y-98350289D01*
X162411289Y-98474342D01*
X162319187Y-98623663D01*
X162319185Y-98623668D01*
X162308290Y-98656547D01*
X162264001Y-98790203D01*
X162264001Y-98790204D01*
X162264000Y-98790204D01*
X162253500Y-98892983D01*
X162253500Y-100243001D01*
X162253501Y-100243018D01*
X162264000Y-100345796D01*
X162264001Y-100345799D01*
X162319185Y-100512331D01*
X162319186Y-100512334D01*
X162411288Y-100661656D01*
X162535344Y-100785712D01*
X162684666Y-100877814D01*
X162851203Y-100932999D01*
X162953991Y-100943500D01*
X163754008Y-100943499D01*
X163754016Y-100943498D01*
X163754019Y-100943498D01*
X163810302Y-100937748D01*
X163856797Y-100932999D01*
X164023334Y-100877814D01*
X164172656Y-100785712D01*
X164296712Y-100661656D01*
X164336581Y-100597016D01*
X164388525Y-100550294D01*
X164457488Y-100539071D01*
X164521570Y-100566914D01*
X164529799Y-100574434D01*
X164637397Y-100682032D01*
X164777475Y-100783804D01*
X164931744Y-100862408D01*
X165096415Y-100915914D01*
X165096414Y-100915914D01*
X165103999Y-100917115D01*
X165104000Y-100917114D01*
X165104000Y-99848330D01*
X165123745Y-99868075D01*
X165209255Y-99917444D01*
X165304630Y-99943000D01*
X165403370Y-99943000D01*
X165498745Y-99917444D01*
X165584255Y-99868075D01*
X165604000Y-99848330D01*
X165604000Y-100917115D01*
X165611584Y-100915914D01*
X165776255Y-100862408D01*
X165930524Y-100783804D01*
X166070602Y-100682032D01*
X166193032Y-100559602D01*
X166294804Y-100419524D01*
X166373408Y-100265257D01*
X166426914Y-100100584D01*
X166454000Y-99929571D01*
X166454000Y-99818000D01*
X165634330Y-99818000D01*
X165654075Y-99798255D01*
X165703444Y-99712745D01*
X165729000Y-99617370D01*
X165729000Y-99518630D01*
X165703444Y-99423255D01*
X165654075Y-99337745D01*
X165634330Y-99318000D01*
X166454000Y-99318000D01*
X166454000Y-99206428D01*
X166426914Y-99035415D01*
X166373408Y-98870742D01*
X166294804Y-98716475D01*
X166193032Y-98576397D01*
X166070602Y-98453967D01*
X165930524Y-98352195D01*
X165776257Y-98273591D01*
X165611589Y-98220087D01*
X165611581Y-98220085D01*
X165604000Y-98218884D01*
X165604000Y-99287670D01*
X165584255Y-99267925D01*
X165498745Y-99218556D01*
X165403370Y-99193000D01*
X165304630Y-99193000D01*
X165209255Y-99218556D01*
X165123745Y-99267925D01*
X165104000Y-99287670D01*
X165104000Y-98218884D01*
X165103999Y-98218884D01*
X165096418Y-98220085D01*
X165096410Y-98220087D01*
X164931742Y-98273591D01*
X164777475Y-98352195D01*
X164652385Y-98443078D01*
X164586578Y-98466557D01*
X164518524Y-98450731D01*
X164469830Y-98400625D01*
X164455500Y-98342759D01*
X164455500Y-97097112D01*
X164475185Y-97030073D01*
X164527989Y-96984318D01*
X164566898Y-96973754D01*
X164574297Y-96972999D01*
X164740834Y-96917814D01*
X164890156Y-96825712D01*
X165014212Y-96701656D01*
X165106314Y-96552334D01*
X165161499Y-96385797D01*
X165172000Y-96283009D01*
X165171999Y-95232992D01*
X165168743Y-95201122D01*
X165161499Y-95130203D01*
X165161498Y-95130200D01*
X165143336Y-95075392D01*
X165106314Y-94963666D01*
X165014212Y-94814344D01*
X164890156Y-94690288D01*
X164768404Y-94615191D01*
X164740836Y-94598187D01*
X164740831Y-94598185D01*
X164709497Y-94587802D01*
X164574297Y-94543001D01*
X164574295Y-94543000D01*
X164471510Y-94532500D01*
X163696498Y-94532500D01*
X163696480Y-94532501D01*
X163593703Y-94543000D01*
X163593700Y-94543001D01*
X163427168Y-94598185D01*
X163427163Y-94598187D01*
X163277842Y-94690289D01*
X163153785Y-94814346D01*
X163152037Y-94817182D01*
X163150329Y-94818717D01*
X163149307Y-94820011D01*
X163149085Y-94819836D01*
X163100089Y-94863905D01*
X163031126Y-94875126D01*
X162967044Y-94847282D01*
X162940963Y-94817182D01*
X162939214Y-94814346D01*
X162815157Y-94690289D01*
X162815156Y-94690288D01*
X162693404Y-94615191D01*
X162665836Y-94598187D01*
X162665835Y-94598186D01*
X162665834Y-94598186D01*
X162665488Y-94598071D01*
X162665285Y-94597931D01*
X162659291Y-94595136D01*
X162659768Y-94594111D01*
X162608047Y-94558296D01*
X162581227Y-94493778D01*
X162580500Y-94480368D01*
X162580500Y-94047309D01*
X162600185Y-93980270D01*
X162652989Y-93934515D01*
X162722147Y-93924571D01*
X162785703Y-93953596D01*
X162792181Y-93959628D01*
X162840629Y-94008076D01*
X162840633Y-94008079D01*
X162840635Y-94008081D01*
X162982102Y-94091744D01*
X163023724Y-94103836D01*
X163139926Y-94137597D01*
X163139929Y-94137597D01*
X163139931Y-94137598D01*
X163176806Y-94140500D01*
X163176814Y-94140500D01*
X164483186Y-94140500D01*
X164483194Y-94140500D01*
X164520069Y-94137598D01*
X164520071Y-94137597D01*
X164520073Y-94137597D01*
X164562292Y-94125331D01*
X164677898Y-94091744D01*
X164819365Y-94008081D01*
X164935581Y-93891865D01*
X164946369Y-93873622D01*
X164997435Y-93825939D01*
X165066176Y-93813432D01*
X165130766Y-93840075D01*
X165170699Y-93897409D01*
X165176460Y-93924138D01*
X165180001Y-93958797D01*
X165180001Y-93958799D01*
X165196330Y-94008076D01*
X165235186Y-94125334D01*
X165327288Y-94274656D01*
X165451344Y-94398712D01*
X165600666Y-94490814D01*
X165767203Y-94545999D01*
X165869991Y-94556500D01*
X166870008Y-94556499D01*
X166870016Y-94556498D01*
X166870019Y-94556498D01*
X166926302Y-94550748D01*
X166972797Y-94545999D01*
X167139334Y-94490814D01*
X167288656Y-94398712D01*
X167412712Y-94274656D01*
X167504814Y-94125334D01*
X167559999Y-93958797D01*
X167570500Y-93856009D01*
X167570499Y-93055992D01*
X167568864Y-93039991D01*
X167559999Y-92953203D01*
X167559998Y-92953200D01*
X167548936Y-92919817D01*
X167504814Y-92786666D01*
X167412712Y-92637344D01*
X167318695Y-92543327D01*
X167285210Y-92482004D01*
X167290194Y-92412312D01*
X167318695Y-92367964D01*
X167412317Y-92274342D01*
X167504356Y-92125124D01*
X167504358Y-92125119D01*
X167559505Y-91958697D01*
X167559506Y-91958690D01*
X167569999Y-91855986D01*
X167570000Y-91855973D01*
X167570000Y-91706000D01*
X165107362Y-91706000D01*
X165052873Y-91690000D01*
X164080000Y-91690000D01*
X164080000Y-92240000D01*
X164483134Y-92240000D01*
X164483149Y-92239999D01*
X164519989Y-92237100D01*
X164519995Y-92237099D01*
X164677693Y-92191283D01*
X164677696Y-92191282D01*
X164819052Y-92107685D01*
X164819061Y-92107678D01*
X164935178Y-91991561D01*
X164935185Y-91991552D01*
X164960659Y-91948477D01*
X165011727Y-91900792D01*
X165080469Y-91888287D01*
X165145058Y-91914932D01*
X165184990Y-91972267D01*
X165185098Y-91972591D01*
X165235642Y-92125121D01*
X165235643Y-92125124D01*
X165327684Y-92274345D01*
X165421304Y-92367965D01*
X165454789Y-92429288D01*
X165449805Y-92498980D01*
X165421305Y-92543327D01*
X165327287Y-92637345D01*
X165235187Y-92786663D01*
X165235186Y-92786666D01*
X165213003Y-92853611D01*
X165173230Y-92911055D01*
X165108714Y-92937878D01*
X165039938Y-92925563D01*
X164988739Y-92878021D01*
X164985167Y-92871981D01*
X164935585Y-92788141D01*
X164935576Y-92788129D01*
X164819370Y-92671923D01*
X164819362Y-92671917D01*
X164677896Y-92588255D01*
X164677893Y-92588254D01*
X164520073Y-92542402D01*
X164520067Y-92542401D01*
X164483201Y-92539500D01*
X164483194Y-92539500D01*
X163317000Y-92539500D01*
X163308314Y-92536949D01*
X163299353Y-92538238D01*
X163275312Y-92527259D01*
X163249961Y-92519815D01*
X163244033Y-92512974D01*
X163235797Y-92509213D01*
X163221507Y-92486978D01*
X163204206Y-92467011D01*
X163201918Y-92456496D01*
X163198023Y-92450435D01*
X163193000Y-92415500D01*
X163193000Y-92364000D01*
X163212685Y-92296961D01*
X163265489Y-92251206D01*
X163317000Y-92240000D01*
X163580000Y-92240000D01*
X163580000Y-91690000D01*
X162924315Y-91690000D01*
X162861194Y-91672732D01*
X162802896Y-91638255D01*
X162802893Y-91638254D01*
X162645073Y-91592402D01*
X162645067Y-91592401D01*
X162608201Y-91589500D01*
X162608194Y-91589500D01*
X161301806Y-91589500D01*
X161301798Y-91589500D01*
X161264932Y-91592401D01*
X161264926Y-91592402D01*
X161107106Y-91638254D01*
X161107103Y-91638255D01*
X160965637Y-91721917D01*
X160965629Y-91721923D01*
X160849423Y-91838129D01*
X160849417Y-91838137D01*
X160765755Y-91979603D01*
X160765754Y-91979606D01*
X160719902Y-92137426D01*
X160719901Y-92137432D01*
X160717000Y-92174298D01*
X160717000Y-92605701D01*
X160719901Y-92642567D01*
X160719902Y-92642573D01*
X160765754Y-92800393D01*
X160765755Y-92800396D01*
X160849417Y-92941862D01*
X160849423Y-92941870D01*
X160965629Y-93058076D01*
X160965633Y-93058079D01*
X160965635Y-93058081D01*
X161107102Y-93141744D01*
X161240097Y-93180383D01*
X161298980Y-93217988D01*
X161328187Y-93281460D01*
X161329500Y-93299458D01*
X161329500Y-94542958D01*
X161309815Y-94609997D01*
X161270598Y-94648496D01*
X161202844Y-94690287D01*
X161078789Y-94814342D01*
X160984256Y-94967605D01*
X160932308Y-95014329D01*
X160863345Y-95025551D01*
X160799263Y-94997708D01*
X160779451Y-94976819D01*
X160715547Y-94891455D01*
X160715544Y-94891452D01*
X160600335Y-94805206D01*
X160600328Y-94805202D01*
X160465482Y-94754908D01*
X160465483Y-94754908D01*
X160405883Y-94748501D01*
X160405881Y-94748500D01*
X160405873Y-94748500D01*
X160405864Y-94748500D01*
X158110129Y-94748500D01*
X158110123Y-94748501D01*
X158050516Y-94754908D01*
X157915671Y-94805202D01*
X157915664Y-94805206D01*
X157800455Y-94891452D01*
X157800452Y-94891455D01*
X157714206Y-95006664D01*
X157714202Y-95006671D01*
X157663908Y-95141517D01*
X157657501Y-95201116D01*
X157657500Y-95201135D01*
X151558499Y-95201135D01*
X151558499Y-95201128D01*
X151552091Y-95141517D01*
X151547871Y-95130203D01*
X151501797Y-95006671D01*
X151501793Y-95006664D01*
X151415547Y-94891455D01*
X151415544Y-94891452D01*
X151300335Y-94805206D01*
X151300328Y-94805202D01*
X151165482Y-94754908D01*
X151165483Y-94754908D01*
X151105883Y-94748501D01*
X151105881Y-94748500D01*
X151105873Y-94748500D01*
X151105865Y-94748500D01*
X150707500Y-94748500D01*
X150640461Y-94728815D01*
X150594706Y-94676011D01*
X150583500Y-94624500D01*
X150583500Y-91189998D01*
X162595204Y-91189998D01*
X162595205Y-91190000D01*
X163580000Y-91190000D01*
X163580000Y-90640000D01*
X164080000Y-90640000D01*
X164080000Y-91190000D01*
X165130138Y-91190000D01*
X165184627Y-91206000D01*
X166120000Y-91206000D01*
X166620000Y-91206000D01*
X167569999Y-91206000D01*
X167569999Y-91056028D01*
X167569998Y-91056013D01*
X167559505Y-90953302D01*
X167504358Y-90786880D01*
X167504356Y-90786875D01*
X167412315Y-90637654D01*
X167288345Y-90513684D01*
X167139124Y-90421643D01*
X167139119Y-90421641D01*
X166972697Y-90366494D01*
X166972690Y-90366493D01*
X166869986Y-90356000D01*
X166620000Y-90356000D01*
X166620000Y-91206000D01*
X166120000Y-91206000D01*
X166120000Y-90356000D01*
X165870029Y-90356000D01*
X165870012Y-90356001D01*
X165767302Y-90366494D01*
X165600880Y-90421641D01*
X165600875Y-90421643D01*
X165451654Y-90513684D01*
X165327684Y-90637654D01*
X165235643Y-90786875D01*
X165235642Y-90786878D01*
X165191894Y-90918900D01*
X165152121Y-90976344D01*
X165087605Y-91003167D01*
X165018829Y-90990852D01*
X164967629Y-90943308D01*
X164967455Y-90943015D01*
X164935182Y-90888444D01*
X164935178Y-90888438D01*
X164819061Y-90772321D01*
X164819052Y-90772314D01*
X164677696Y-90688717D01*
X164677693Y-90688716D01*
X164519995Y-90642900D01*
X164519989Y-90642899D01*
X164483149Y-90640000D01*
X164080000Y-90640000D01*
X163580000Y-90640000D01*
X163176850Y-90640000D01*
X163140010Y-90642899D01*
X163140004Y-90642900D01*
X162982306Y-90688716D01*
X162982303Y-90688717D01*
X162840947Y-90772314D01*
X162840938Y-90772321D01*
X162724821Y-90888438D01*
X162724814Y-90888447D01*
X162641218Y-91029801D01*
X162595399Y-91187513D01*
X162595204Y-91189998D01*
X150583500Y-91189998D01*
X150583500Y-89952395D01*
X150583500Y-89952394D01*
X150582741Y-89948580D01*
X150559463Y-89831549D01*
X150552963Y-89815857D01*
X150539932Y-89784397D01*
X150512312Y-89717715D01*
X150495256Y-89692190D01*
X150443858Y-89615267D01*
X150443856Y-89615264D01*
X150353637Y-89525045D01*
X150353606Y-89525016D01*
X144257150Y-83428560D01*
X144249860Y-83421270D01*
X144249858Y-83421267D01*
X144162733Y-83334142D01*
X144111509Y-83299915D01*
X144060286Y-83265688D01*
X144060283Y-83265686D01*
X144060280Y-83265685D01*
X143986603Y-83235168D01*
X143986601Y-83235167D01*
X143979792Y-83232347D01*
X143946452Y-83218537D01*
X143886029Y-83206518D01*
X143881306Y-83205578D01*
X143881304Y-83205578D01*
X143825610Y-83194500D01*
X143825607Y-83194500D01*
X143825606Y-83194500D01*
X142362499Y-83194500D01*
X142295460Y-83174815D01*
X142249705Y-83122011D01*
X142238499Y-83070500D01*
X142238499Y-82247129D01*
X142238498Y-82247123D01*
X142238497Y-82247116D01*
X142232091Y-82187517D01*
X142228023Y-82176611D01*
X142181797Y-82052671D01*
X142181793Y-82052664D01*
X142095547Y-81937455D01*
X142095544Y-81937452D01*
X141980335Y-81851206D01*
X141980328Y-81851202D01*
X141845482Y-81800908D01*
X141837938Y-81799126D01*
X141838474Y-81796853D01*
X141784688Y-81774571D01*
X141744843Y-81717177D01*
X141738500Y-81678024D01*
X141738500Y-80700204D01*
X141758185Y-80633165D01*
X141810989Y-80587410D01*
X141880147Y-80577466D01*
X141943703Y-80606491D01*
X141950181Y-80612523D01*
X142187072Y-80849414D01*
X142327212Y-80951232D01*
X142481555Y-81029873D01*
X142646299Y-81083402D01*
X142817389Y-81110500D01*
X142990611Y-81110500D01*
X150027389Y-81110500D01*
X158217501Y-81110500D01*
X158284540Y-81130185D01*
X158330295Y-81182989D01*
X158341501Y-81234500D01*
X158341501Y-81582876D01*
X158347908Y-81642483D01*
X158398202Y-81777328D01*
X158398206Y-81777335D01*
X158484452Y-81892544D01*
X158484455Y-81892547D01*
X158599664Y-81978793D01*
X158599671Y-81978797D01*
X158734517Y-82029091D01*
X158734516Y-82029091D01*
X158741444Y-82029835D01*
X158794127Y-82035500D01*
X161031546Y-82035499D01*
X161098585Y-82055184D01*
X161119227Y-82071818D01*
X161634126Y-82586717D01*
X161667611Y-82648040D01*
X161662627Y-82717732D01*
X161620755Y-82773665D01*
X161555291Y-82798082D01*
X161522254Y-82796015D01*
X161368845Y-82765500D01*
X161368842Y-82765500D01*
X161211158Y-82765500D01*
X161211155Y-82765500D01*
X161056510Y-82796261D01*
X161056498Y-82796264D01*
X160910827Y-82856602D01*
X160910815Y-82856609D01*
X160816541Y-82919602D01*
X160749864Y-82940480D01*
X160747650Y-82940500D01*
X160720393Y-82940500D01*
X160679988Y-82948537D01*
X160679987Y-82948536D01*
X160599555Y-82964535D01*
X160599545Y-82964538D01*
X160485716Y-83011687D01*
X160485707Y-83011692D01*
X160383268Y-83080140D01*
X160344248Y-83119160D01*
X160305226Y-83158182D01*
X160243906Y-83191666D01*
X160217547Y-83194500D01*
X151662499Y-83194500D01*
X151595460Y-83174815D01*
X151549705Y-83122011D01*
X151538499Y-83070500D01*
X151538499Y-82247129D01*
X151538498Y-82247123D01*
X151538497Y-82247116D01*
X151532091Y-82187517D01*
X151528023Y-82176611D01*
X151481797Y-82052671D01*
X151481793Y-82052664D01*
X151395547Y-81937455D01*
X151395544Y-81937452D01*
X151280335Y-81851206D01*
X151280328Y-81851202D01*
X151145482Y-81800908D01*
X151145483Y-81800908D01*
X151085883Y-81794501D01*
X151085881Y-81794500D01*
X151085873Y-81794500D01*
X151085864Y-81794500D01*
X148790129Y-81794500D01*
X148790123Y-81794501D01*
X148730516Y-81800908D01*
X148595671Y-81851202D01*
X148595664Y-81851206D01*
X148480455Y-81937452D01*
X148480452Y-81937455D01*
X148394206Y-82052664D01*
X148394202Y-82052671D01*
X148343908Y-82187517D01*
X148337501Y-82247116D01*
X148337501Y-82247123D01*
X148337500Y-82247135D01*
X148337500Y-85392870D01*
X148337501Y-85392876D01*
X148343908Y-85452483D01*
X148394202Y-85587328D01*
X148394206Y-85587335D01*
X148480452Y-85702544D01*
X148480455Y-85702547D01*
X148595664Y-85788793D01*
X148595671Y-85788797D01*
X148730517Y-85839091D01*
X148730516Y-85839091D01*
X148737444Y-85839835D01*
X148790127Y-85845500D01*
X151085872Y-85845499D01*
X151145483Y-85839091D01*
X151280331Y-85788796D01*
X151395546Y-85702546D01*
X151481796Y-85587331D01*
X151532091Y-85452483D01*
X151538500Y-85392873D01*
X151538500Y-84569500D01*
X151558185Y-84502461D01*
X151610989Y-84456706D01*
X151662500Y-84445500D01*
X160589607Y-84445500D01*
X160650029Y-84433481D01*
X160710452Y-84421463D01*
X160743792Y-84407652D01*
X160824286Y-84374312D01*
X160875509Y-84340084D01*
X160893684Y-84327939D01*
X160921635Y-84319189D01*
X160960354Y-84307065D01*
X160960362Y-84307065D01*
X160960379Y-84307069D01*
X161010021Y-84316483D01*
X161056503Y-84335737D01*
X161056506Y-84335737D01*
X161056511Y-84335739D01*
X161211153Y-84366499D01*
X161211156Y-84366500D01*
X161211158Y-84366500D01*
X161368844Y-84366500D01*
X161368845Y-84366499D01*
X161523497Y-84335737D01*
X161669179Y-84275394D01*
X161800289Y-84187789D01*
X161911789Y-84076289D01*
X161999394Y-83945179D01*
X162059737Y-83799497D01*
X162090500Y-83644842D01*
X162090500Y-83487158D01*
X162090500Y-83487155D01*
X162059984Y-83333746D01*
X162066211Y-83264154D01*
X162109074Y-83208977D01*
X162174963Y-83185732D01*
X162242960Y-83201800D01*
X162269282Y-83221873D01*
X168600181Y-89552771D01*
X168633666Y-89614094D01*
X168636500Y-89640452D01*
X168636500Y-94624500D01*
X168616815Y-94691539D01*
X168564011Y-94737294D01*
X168512500Y-94748500D01*
X168114129Y-94748500D01*
X168114123Y-94748501D01*
X168054516Y-94754908D01*
X167919671Y-94805202D01*
X167919664Y-94805206D01*
X167804455Y-94891452D01*
X167804452Y-94891455D01*
X167718206Y-95006664D01*
X167718202Y-95006671D01*
X167667908Y-95141517D01*
X167661501Y-95201116D01*
X167661500Y-95201135D01*
X167661500Y-98346870D01*
X167661501Y-98346876D01*
X167667908Y-98406483D01*
X167718202Y-98541328D01*
X167718206Y-98541335D01*
X167804452Y-98656544D01*
X167804455Y-98656547D01*
X167919664Y-98742793D01*
X167919671Y-98742797D01*
X168054517Y-98793091D01*
X168054516Y-98793091D01*
X168061444Y-98793835D01*
X168114127Y-98799500D01*
X170409872Y-98799499D01*
X170469483Y-98793091D01*
X170604331Y-98742796D01*
X170719546Y-98656546D01*
X170805796Y-98541331D01*
X170856091Y-98406483D01*
X170862500Y-98346873D01*
X170862499Y-95201135D01*
X176961500Y-95201135D01*
X176961500Y-98346870D01*
X176961501Y-98346876D01*
X176967908Y-98406483D01*
X177018202Y-98541328D01*
X177018206Y-98541335D01*
X177104452Y-98656544D01*
X177104455Y-98656547D01*
X177219664Y-98742793D01*
X177219671Y-98742797D01*
X177354517Y-98793091D01*
X177354516Y-98793091D01*
X177361444Y-98793835D01*
X177414127Y-98799500D01*
X179709872Y-98799499D01*
X179769483Y-98793091D01*
X179904331Y-98742796D01*
X180019546Y-98656546D01*
X180105796Y-98541331D01*
X180156091Y-98406483D01*
X180162500Y-98346873D01*
X180162499Y-96836890D01*
X180182184Y-96769852D01*
X180234987Y-96724097D01*
X180304146Y-96714153D01*
X180367702Y-96743178D01*
X180392036Y-96771793D01*
X180404288Y-96791656D01*
X180528344Y-96915712D01*
X180677666Y-97007814D01*
X180844203Y-97062999D01*
X180946991Y-97073500D01*
X181722008Y-97073499D01*
X181722016Y-97073498D01*
X181722019Y-97073498D01*
X181778302Y-97067748D01*
X181824797Y-97062999D01*
X181991334Y-97007814D01*
X182140656Y-96915712D01*
X182264712Y-96791656D01*
X182266461Y-96788819D01*
X182268169Y-96787283D01*
X182269193Y-96785989D01*
X182269414Y-96786163D01*
X182291420Y-96766369D01*
X182315858Y-96743353D01*
X182317309Y-96743082D01*
X182318406Y-96742096D01*
X182351532Y-96736704D01*
X182384545Y-96730552D01*
X182385911Y-96731108D01*
X182387368Y-96730872D01*
X182418160Y-96744249D01*
X182449249Y-96756918D01*
X182450458Y-96758281D01*
X182451451Y-96758713D01*
X182473447Y-96782611D01*
X182475586Y-96785655D01*
X182479288Y-96791656D01*
X182481026Y-96793394D01*
X182485947Y-96800395D01*
X182496088Y-96830289D01*
X182507906Y-96859579D01*
X182508223Y-96866061D01*
X182508393Y-96866561D01*
X182508271Y-96867046D01*
X182508500Y-96871700D01*
X182508500Y-98068500D01*
X182488815Y-98135539D01*
X182436011Y-98181294D01*
X182384501Y-98192500D01*
X182257999Y-98192500D01*
X182257980Y-98192501D01*
X182155203Y-98203000D01*
X182155200Y-98203001D01*
X181988668Y-98258185D01*
X181988663Y-98258187D01*
X181839342Y-98350289D01*
X181715289Y-98474342D01*
X181623187Y-98623663D01*
X181623185Y-98623668D01*
X181612290Y-98656547D01*
X181568001Y-98790203D01*
X181568001Y-98790204D01*
X181568000Y-98790204D01*
X181557500Y-98892983D01*
X181557500Y-100243001D01*
X181557501Y-100243018D01*
X181568000Y-100345796D01*
X181568001Y-100345799D01*
X181623185Y-100512331D01*
X181623186Y-100512334D01*
X181715288Y-100661656D01*
X181839344Y-100785712D01*
X181988666Y-100877814D01*
X182155203Y-100932999D01*
X182257991Y-100943500D01*
X183058008Y-100943499D01*
X183058016Y-100943498D01*
X183058019Y-100943498D01*
X183114302Y-100937748D01*
X183160797Y-100932999D01*
X183327334Y-100877814D01*
X183476656Y-100785712D01*
X183600712Y-100661656D01*
X183640581Y-100597016D01*
X183692525Y-100550294D01*
X183761488Y-100539071D01*
X183825570Y-100566914D01*
X183833799Y-100574434D01*
X183941397Y-100682032D01*
X184081475Y-100783804D01*
X184235744Y-100862408D01*
X184400415Y-100915914D01*
X184400414Y-100915914D01*
X184407999Y-100917115D01*
X184408000Y-100917114D01*
X184408000Y-99848330D01*
X184427745Y-99868075D01*
X184513255Y-99917444D01*
X184608630Y-99943000D01*
X184707370Y-99943000D01*
X184802745Y-99917444D01*
X184888255Y-99868075D01*
X184908000Y-99848330D01*
X184908000Y-100917115D01*
X184915584Y-100915914D01*
X185080255Y-100862408D01*
X185234524Y-100783804D01*
X185374602Y-100682032D01*
X185497032Y-100559602D01*
X185598804Y-100419524D01*
X185677408Y-100265257D01*
X185730914Y-100100584D01*
X185758000Y-99929571D01*
X185758000Y-99818000D01*
X184938330Y-99818000D01*
X184958075Y-99798255D01*
X185007444Y-99712745D01*
X185033000Y-99617370D01*
X185033000Y-99518630D01*
X185007444Y-99423255D01*
X184958075Y-99337745D01*
X184938330Y-99318000D01*
X185758000Y-99318000D01*
X185758000Y-99206428D01*
X185730914Y-99035415D01*
X185677408Y-98870742D01*
X185598804Y-98716475D01*
X185497032Y-98576397D01*
X185374602Y-98453967D01*
X185234524Y-98352195D01*
X185080257Y-98273591D01*
X184915589Y-98220087D01*
X184915581Y-98220085D01*
X184908000Y-98218884D01*
X184908000Y-99287670D01*
X184888255Y-99267925D01*
X184802745Y-99218556D01*
X184707370Y-99193000D01*
X184608630Y-99193000D01*
X184513255Y-99218556D01*
X184427745Y-99267925D01*
X184408000Y-99287670D01*
X184408000Y-98218884D01*
X184407999Y-98218884D01*
X184400418Y-98220085D01*
X184400410Y-98220087D01*
X184235742Y-98273591D01*
X184081475Y-98352195D01*
X183956385Y-98443078D01*
X183890578Y-98466557D01*
X183822524Y-98450731D01*
X183773830Y-98400625D01*
X183759500Y-98342759D01*
X183759500Y-97837857D01*
X187699500Y-97837857D01*
X187699500Y-98162143D01*
X187702490Y-98192500D01*
X187731284Y-98484857D01*
X187731287Y-98484874D01*
X187794545Y-98802902D01*
X187794548Y-98802913D01*
X187888686Y-99113247D01*
X188012786Y-99412849D01*
X188012788Y-99412854D01*
X188165646Y-99698830D01*
X188165657Y-99698848D01*
X188345811Y-99968467D01*
X188345821Y-99968481D01*
X188551546Y-100219158D01*
X188780841Y-100448453D01*
X188780846Y-100448457D01*
X188780847Y-100448458D01*
X189031524Y-100654183D01*
X189301158Y-100834347D01*
X189301167Y-100834352D01*
X189301169Y-100834353D01*
X189587145Y-100987211D01*
X189587147Y-100987211D01*
X189587153Y-100987215D01*
X189886754Y-101111314D01*
X190197077Y-101205449D01*
X190197083Y-101205450D01*
X190197086Y-101205451D01*
X190197097Y-101205454D01*
X190396528Y-101245122D01*
X190515132Y-101268714D01*
X190837857Y-101300500D01*
X190837860Y-101300500D01*
X191162140Y-101300500D01*
X191162143Y-101300500D01*
X191484868Y-101268714D01*
X191642295Y-101237399D01*
X191802902Y-101205454D01*
X191802913Y-101205451D01*
X191802913Y-101205450D01*
X191802923Y-101205449D01*
X192113246Y-101111314D01*
X192412847Y-100987215D01*
X192698842Y-100834347D01*
X192968476Y-100654183D01*
X193219153Y-100448458D01*
X193448458Y-100219153D01*
X193654183Y-99968476D01*
X193834347Y-99698842D01*
X193987215Y-99412847D01*
X194111314Y-99113246D01*
X194205449Y-98802923D01*
X194205451Y-98802913D01*
X194205454Y-98802902D01*
X194241106Y-98623663D01*
X194268714Y-98484868D01*
X194300500Y-98162143D01*
X194300500Y-97837857D01*
X194268714Y-97515132D01*
X194245122Y-97396528D01*
X194205454Y-97197097D01*
X194205451Y-97197086D01*
X194205450Y-97197083D01*
X194205449Y-97197077D01*
X194111314Y-96886754D01*
X193987215Y-96587153D01*
X193926116Y-96472846D01*
X193834353Y-96301169D01*
X193834352Y-96301167D01*
X193834347Y-96301158D01*
X193654183Y-96031524D01*
X193448458Y-95780847D01*
X193448457Y-95780846D01*
X193448453Y-95780841D01*
X193219158Y-95551546D01*
X192968481Y-95345821D01*
X192968480Y-95345820D01*
X192968476Y-95345817D01*
X192751934Y-95201128D01*
X192698848Y-95165657D01*
X192698847Y-95165656D01*
X192698842Y-95165653D01*
X192698837Y-95165650D01*
X192698830Y-95165646D01*
X192412854Y-95012788D01*
X192412849Y-95012786D01*
X192404901Y-95009494D01*
X192294268Y-94963668D01*
X192113247Y-94888686D01*
X191802913Y-94794548D01*
X191802902Y-94794545D01*
X191484874Y-94731287D01*
X191484857Y-94731284D01*
X191240812Y-94707248D01*
X191162143Y-94699500D01*
X190837857Y-94699500D01*
X190765099Y-94706666D01*
X190515142Y-94731284D01*
X190515125Y-94731287D01*
X190197097Y-94794545D01*
X190197086Y-94794548D01*
X189886752Y-94888686D01*
X189587150Y-95012786D01*
X189587145Y-95012788D01*
X189301169Y-95165646D01*
X189301151Y-95165657D01*
X189031532Y-95345811D01*
X189031518Y-95345821D01*
X188780841Y-95551546D01*
X188551546Y-95780841D01*
X188345821Y-96031518D01*
X188345811Y-96031532D01*
X188165657Y-96301151D01*
X188165646Y-96301169D01*
X188012788Y-96587145D01*
X188012786Y-96587150D01*
X187888686Y-96886752D01*
X187794548Y-97197086D01*
X187794545Y-97197097D01*
X187731287Y-97515125D01*
X187731284Y-97515142D01*
X187727405Y-97554531D01*
X187699500Y-97837857D01*
X183759500Y-97837857D01*
X183759500Y-97189309D01*
X183779185Y-97122270D01*
X183831989Y-97076515D01*
X183870899Y-97065951D01*
X183879053Y-97065117D01*
X183899797Y-97062999D01*
X184066334Y-97007814D01*
X184215656Y-96915712D01*
X184339712Y-96791656D01*
X184431814Y-96642334D01*
X184486999Y-96475797D01*
X184497500Y-96373009D01*
X184497499Y-95322992D01*
X184486999Y-95220203D01*
X184431814Y-95053666D01*
X184339712Y-94904344D01*
X184215656Y-94780288D01*
X184069742Y-94690288D01*
X184066336Y-94688187D01*
X184066331Y-94688185D01*
X184029592Y-94676011D01*
X183899797Y-94633001D01*
X183899795Y-94633000D01*
X183797010Y-94622500D01*
X183021998Y-94622500D01*
X183021980Y-94622501D01*
X182919203Y-94633000D01*
X182919200Y-94633001D01*
X182752668Y-94688185D01*
X182752663Y-94688187D01*
X182603342Y-94780289D01*
X182479285Y-94904346D01*
X182477537Y-94907182D01*
X182475829Y-94908717D01*
X182474807Y-94910011D01*
X182474585Y-94909836D01*
X182425589Y-94953905D01*
X182356626Y-94965126D01*
X182292544Y-94937282D01*
X182266463Y-94907182D01*
X182264714Y-94904346D01*
X182140657Y-94780289D01*
X182140656Y-94780288D01*
X181991334Y-94688186D01*
X181991333Y-94688185D01*
X181991332Y-94688185D01*
X181969493Y-94680948D01*
X181912049Y-94641174D01*
X181885228Y-94576658D01*
X181884500Y-94563243D01*
X181884500Y-94047309D01*
X181904185Y-93980270D01*
X181956989Y-93934515D01*
X182026147Y-93924571D01*
X182089703Y-93953596D01*
X182096181Y-93959628D01*
X182144629Y-94008076D01*
X182144633Y-94008079D01*
X182144635Y-94008081D01*
X182286102Y-94091744D01*
X182327724Y-94103836D01*
X182443926Y-94137597D01*
X182443929Y-94137597D01*
X182443931Y-94137598D01*
X182480806Y-94140500D01*
X182480814Y-94140500D01*
X183787186Y-94140500D01*
X183787194Y-94140500D01*
X183824069Y-94137598D01*
X183824071Y-94137597D01*
X183824073Y-94137597D01*
X183866292Y-94125331D01*
X183981898Y-94091744D01*
X184123365Y-94008081D01*
X184239581Y-93891865D01*
X184250369Y-93873622D01*
X184301435Y-93825939D01*
X184370176Y-93813432D01*
X184434766Y-93840075D01*
X184474699Y-93897409D01*
X184480460Y-93924138D01*
X184484001Y-93958797D01*
X184484001Y-93958799D01*
X184500330Y-94008076D01*
X184539186Y-94125334D01*
X184631288Y-94274656D01*
X184755344Y-94398712D01*
X184904666Y-94490814D01*
X185071203Y-94545999D01*
X185173991Y-94556500D01*
X186174008Y-94556499D01*
X186174016Y-94556498D01*
X186174019Y-94556498D01*
X186230302Y-94550748D01*
X186276797Y-94545999D01*
X186443334Y-94490814D01*
X186592656Y-94398712D01*
X186716712Y-94274656D01*
X186808814Y-94125334D01*
X186863999Y-93958797D01*
X186874500Y-93856009D01*
X186874499Y-93055992D01*
X186872864Y-93039991D01*
X186863999Y-92953203D01*
X186863998Y-92953200D01*
X186852936Y-92919817D01*
X186808814Y-92786666D01*
X186716712Y-92637344D01*
X186622695Y-92543327D01*
X186589210Y-92482004D01*
X186594194Y-92412312D01*
X186622695Y-92367964D01*
X186716317Y-92274342D01*
X186808356Y-92125124D01*
X186808358Y-92125119D01*
X186863505Y-91958697D01*
X186863506Y-91958690D01*
X186873999Y-91855986D01*
X186874000Y-91855973D01*
X186874000Y-91706000D01*
X184411362Y-91706000D01*
X184356873Y-91690000D01*
X183384000Y-91690000D01*
X183384000Y-92240000D01*
X183787134Y-92240000D01*
X183787149Y-92239999D01*
X183823989Y-92237100D01*
X183823995Y-92237099D01*
X183981693Y-92191283D01*
X183981696Y-92191282D01*
X184123052Y-92107685D01*
X184123061Y-92107678D01*
X184239178Y-91991561D01*
X184239185Y-91991552D01*
X184264659Y-91948477D01*
X184315727Y-91900792D01*
X184384469Y-91888287D01*
X184449058Y-91914932D01*
X184488990Y-91972267D01*
X184489098Y-91972591D01*
X184539642Y-92125121D01*
X184539643Y-92125124D01*
X184631684Y-92274345D01*
X184725304Y-92367965D01*
X184758789Y-92429288D01*
X184753805Y-92498980D01*
X184725305Y-92543327D01*
X184631287Y-92637345D01*
X184539187Y-92786663D01*
X184539186Y-92786666D01*
X184517003Y-92853611D01*
X184477230Y-92911055D01*
X184412714Y-92937878D01*
X184343938Y-92925563D01*
X184292739Y-92878021D01*
X184289167Y-92871981D01*
X184239585Y-92788141D01*
X184239576Y-92788129D01*
X184123370Y-92671923D01*
X184123362Y-92671917D01*
X183981896Y-92588255D01*
X183981893Y-92588254D01*
X183824073Y-92542402D01*
X183824067Y-92542401D01*
X183787201Y-92539500D01*
X183787194Y-92539500D01*
X182621000Y-92539500D01*
X182612314Y-92536949D01*
X182603353Y-92538238D01*
X182579312Y-92527259D01*
X182553961Y-92519815D01*
X182548033Y-92512974D01*
X182539797Y-92509213D01*
X182525507Y-92486978D01*
X182508206Y-92467011D01*
X182505918Y-92456496D01*
X182502023Y-92450435D01*
X182497000Y-92415500D01*
X182497000Y-92364000D01*
X182516685Y-92296961D01*
X182569489Y-92251206D01*
X182621000Y-92240000D01*
X182884000Y-92240000D01*
X182884000Y-91690000D01*
X182228315Y-91690000D01*
X182165194Y-91672732D01*
X182106896Y-91638255D01*
X182106893Y-91638254D01*
X181949073Y-91592402D01*
X181949067Y-91592401D01*
X181912201Y-91589500D01*
X181912194Y-91589500D01*
X180605806Y-91589500D01*
X180605798Y-91589500D01*
X180568932Y-91592401D01*
X180568926Y-91592402D01*
X180411106Y-91638254D01*
X180411103Y-91638255D01*
X180269637Y-91721917D01*
X180269629Y-91721923D01*
X180153423Y-91838129D01*
X180153417Y-91838137D01*
X180069755Y-91979603D01*
X180069754Y-91979606D01*
X180023902Y-92137426D01*
X180023901Y-92137432D01*
X180021000Y-92174298D01*
X180021000Y-92605701D01*
X180023901Y-92642567D01*
X180023902Y-92642573D01*
X180069754Y-92800393D01*
X180069755Y-92800396D01*
X180153417Y-92941862D01*
X180153423Y-92941870D01*
X180269629Y-93058076D01*
X180269633Y-93058079D01*
X180269635Y-93058081D01*
X180411102Y-93141744D01*
X180544097Y-93180383D01*
X180602980Y-93217988D01*
X180632187Y-93281460D01*
X180633500Y-93299458D01*
X180633500Y-94646220D01*
X180613815Y-94713259D01*
X180574597Y-94751758D01*
X180528347Y-94780285D01*
X180528343Y-94780288D01*
X180404289Y-94904342D01*
X180400504Y-94910479D01*
X180329528Y-95025551D01*
X180327605Y-95028668D01*
X180275657Y-95075392D01*
X180206694Y-95086615D01*
X180142612Y-95058771D01*
X180110900Y-95013987D01*
X180110047Y-95014454D01*
X180106057Y-95007148D01*
X180105884Y-95006903D01*
X180105798Y-95006673D01*
X180105793Y-95006664D01*
X180019547Y-94891455D01*
X180019544Y-94891452D01*
X179904335Y-94805206D01*
X179904328Y-94805202D01*
X179769482Y-94754908D01*
X179769483Y-94754908D01*
X179709883Y-94748501D01*
X179709881Y-94748500D01*
X179709873Y-94748500D01*
X179709864Y-94748500D01*
X177414129Y-94748500D01*
X177414123Y-94748501D01*
X177354516Y-94754908D01*
X177219671Y-94805202D01*
X177219664Y-94805206D01*
X177104455Y-94891452D01*
X177104452Y-94891455D01*
X177018206Y-95006664D01*
X177018202Y-95006671D01*
X176967908Y-95141517D01*
X176961501Y-95201116D01*
X176961500Y-95201135D01*
X170862499Y-95201135D01*
X170862499Y-95201128D01*
X170856091Y-95141517D01*
X170851871Y-95130203D01*
X170805797Y-95006671D01*
X170805793Y-95006664D01*
X170719547Y-94891455D01*
X170719544Y-94891452D01*
X170604335Y-94805206D01*
X170604328Y-94805202D01*
X170469482Y-94754908D01*
X170469483Y-94754908D01*
X170409883Y-94748501D01*
X170409881Y-94748500D01*
X170409873Y-94748500D01*
X170409865Y-94748500D01*
X170011500Y-94748500D01*
X169944461Y-94728815D01*
X169898706Y-94676011D01*
X169887500Y-94624500D01*
X169887500Y-91189998D01*
X181899204Y-91189998D01*
X181899205Y-91190000D01*
X182884000Y-91190000D01*
X182884000Y-90640000D01*
X183384000Y-90640000D01*
X183384000Y-91190000D01*
X184434138Y-91190000D01*
X184488627Y-91206000D01*
X185424000Y-91206000D01*
X185924000Y-91206000D01*
X186873999Y-91206000D01*
X186873999Y-91056028D01*
X186873998Y-91056013D01*
X186863505Y-90953302D01*
X186808358Y-90786880D01*
X186808356Y-90786875D01*
X186716315Y-90637654D01*
X186592345Y-90513684D01*
X186443124Y-90421643D01*
X186443119Y-90421641D01*
X186276697Y-90366494D01*
X186276690Y-90366493D01*
X186173986Y-90356000D01*
X185924000Y-90356000D01*
X185924000Y-91206000D01*
X185424000Y-91206000D01*
X185424000Y-90356000D01*
X185174029Y-90356000D01*
X185174012Y-90356001D01*
X185071302Y-90366494D01*
X184904880Y-90421641D01*
X184904875Y-90421643D01*
X184755654Y-90513684D01*
X184631684Y-90637654D01*
X184539643Y-90786875D01*
X184539642Y-90786878D01*
X184495894Y-90918900D01*
X184456121Y-90976344D01*
X184391605Y-91003167D01*
X184322829Y-90990852D01*
X184271629Y-90943308D01*
X184271455Y-90943015D01*
X184239182Y-90888444D01*
X184239178Y-90888438D01*
X184123061Y-90772321D01*
X184123052Y-90772314D01*
X183981696Y-90688717D01*
X183981693Y-90688716D01*
X183823995Y-90642900D01*
X183823989Y-90642899D01*
X183787149Y-90640000D01*
X183384000Y-90640000D01*
X182884000Y-90640000D01*
X182480850Y-90640000D01*
X182444010Y-90642899D01*
X182444004Y-90642900D01*
X182286306Y-90688716D01*
X182286303Y-90688717D01*
X182144947Y-90772314D01*
X182144938Y-90772321D01*
X182028821Y-90888438D01*
X182028814Y-90888447D01*
X181945218Y-91029801D01*
X181899399Y-91187513D01*
X181899204Y-91189998D01*
X169887500Y-91189998D01*
X169887500Y-89268393D01*
X169887499Y-89268389D01*
X169863464Y-89147555D01*
X169863463Y-89147548D01*
X169816311Y-89033714D01*
X169816310Y-89033713D01*
X169816307Y-89033707D01*
X169747859Y-88931268D01*
X169715726Y-88899135D01*
X169660733Y-88844142D01*
X169660732Y-88844141D01*
X165388565Y-84571975D01*
X165355081Y-84510653D01*
X165360065Y-84440961D01*
X165401937Y-84385028D01*
X165452056Y-84362678D01*
X165587497Y-84335737D01*
X165733179Y-84275394D01*
X165769737Y-84250967D01*
X165851405Y-84196398D01*
X165918082Y-84175520D01*
X165920296Y-84175500D01*
X183762691Y-84175500D01*
X183829730Y-84195185D01*
X183875485Y-84247989D01*
X183885429Y-84317147D01*
X183856404Y-84380703D01*
X183850372Y-84387181D01*
X183801923Y-84435629D01*
X183801917Y-84435637D01*
X183718255Y-84577103D01*
X183718254Y-84577106D01*
X183672402Y-84734926D01*
X183672401Y-84734932D01*
X183669500Y-84771798D01*
X183669500Y-86078201D01*
X183672401Y-86115067D01*
X183672402Y-86115073D01*
X183718254Y-86272893D01*
X183718255Y-86272896D01*
X183718256Y-86272898D01*
X183732913Y-86297681D01*
X183754352Y-86333933D01*
X183771535Y-86401657D01*
X183749375Y-86467920D01*
X183712717Y-86502593D01*
X183601342Y-86571289D01*
X183477289Y-86695342D01*
X183385187Y-86844663D01*
X183385185Y-86844668D01*
X183385115Y-86844880D01*
X183330001Y-87011203D01*
X183330001Y-87011204D01*
X183330000Y-87011204D01*
X183319500Y-87113983D01*
X183319500Y-88114001D01*
X183319501Y-88114019D01*
X183330000Y-88216796D01*
X183330001Y-88216799D01*
X183382815Y-88376179D01*
X183385186Y-88383334D01*
X183477288Y-88532656D01*
X183601344Y-88656712D01*
X183750666Y-88748814D01*
X183917203Y-88803999D01*
X184019991Y-88814500D01*
X184820008Y-88814499D01*
X184820016Y-88814498D01*
X184820019Y-88814498D01*
X184898245Y-88806507D01*
X184922797Y-88803999D01*
X185089334Y-88748814D01*
X185238656Y-88656712D01*
X185332675Y-88562692D01*
X185393994Y-88529210D01*
X185463686Y-88534194D01*
X185508034Y-88562695D01*
X185601654Y-88656315D01*
X185750875Y-88748356D01*
X185750880Y-88748358D01*
X185917302Y-88803505D01*
X185917309Y-88803506D01*
X186020019Y-88813999D01*
X186169999Y-88813999D01*
X186670000Y-88813999D01*
X186819972Y-88813999D01*
X186819986Y-88813998D01*
X186922697Y-88803505D01*
X187089119Y-88748358D01*
X187089124Y-88748356D01*
X187238345Y-88656315D01*
X187362315Y-88532345D01*
X187454356Y-88383124D01*
X187454358Y-88383119D01*
X187509505Y-88216697D01*
X187509506Y-88216690D01*
X187519999Y-88113986D01*
X187520000Y-88113973D01*
X187520000Y-87864000D01*
X186670000Y-87864000D01*
X186670000Y-88813999D01*
X186169999Y-88813999D01*
X186170000Y-88813998D01*
X186170000Y-86792500D01*
X186156319Y-86778819D01*
X186122834Y-86717496D01*
X186120000Y-86691138D01*
X186120000Y-86284000D01*
X186620000Y-86284000D01*
X186633681Y-86297681D01*
X186667166Y-86359004D01*
X186670000Y-86385362D01*
X186670000Y-87364000D01*
X187519999Y-87364000D01*
X187519999Y-87114028D01*
X187519998Y-87114013D01*
X187509505Y-87011302D01*
X187454358Y-86844880D01*
X187454356Y-86844875D01*
X187362315Y-86695654D01*
X187238345Y-86571684D01*
X187126603Y-86502761D01*
X187079879Y-86450813D01*
X187068656Y-86381850D01*
X187084968Y-86334101D01*
X187121282Y-86272696D01*
X187121283Y-86272693D01*
X187167099Y-86114995D01*
X187167100Y-86114989D01*
X187169999Y-86078149D01*
X187170000Y-86078134D01*
X187170000Y-85675000D01*
X186620000Y-85675000D01*
X186620000Y-86284000D01*
X186120000Y-86284000D01*
X186120000Y-85675000D01*
X185570000Y-85675000D01*
X185570000Y-86078149D01*
X185572899Y-86114989D01*
X185572900Y-86114995D01*
X185618716Y-86272693D01*
X185618717Y-86272696D01*
X185681759Y-86379295D01*
X185698942Y-86447019D01*
X185676782Y-86513282D01*
X185656636Y-86535775D01*
X185501962Y-86670982D01*
X185473870Y-86683958D01*
X185446710Y-86698789D01*
X185442429Y-86698482D01*
X185438533Y-86700283D01*
X185407886Y-86696012D01*
X185377019Y-86693805D01*
X185372859Y-86691131D01*
X185369332Y-86690640D01*
X185361122Y-86683588D01*
X185332672Y-86665304D01*
X185238655Y-86571287D01*
X185200554Y-86547786D01*
X185153830Y-86495838D01*
X185142609Y-86426875D01*
X185158919Y-86379129D01*
X185221744Y-86272898D01*
X185267598Y-86115069D01*
X185270500Y-86078194D01*
X185270500Y-84912000D01*
X185273050Y-84903314D01*
X185271762Y-84894353D01*
X185282740Y-84870312D01*
X185290185Y-84844961D01*
X185297025Y-84839033D01*
X185300787Y-84830797D01*
X185323021Y-84816507D01*
X185342989Y-84799206D01*
X185353503Y-84796918D01*
X185359565Y-84793023D01*
X185394500Y-84788000D01*
X185446000Y-84788000D01*
X185513039Y-84807685D01*
X185558794Y-84860489D01*
X185570000Y-84912000D01*
X185570000Y-85175000D01*
X187170000Y-85175000D01*
X187170000Y-84771865D01*
X187169999Y-84771850D01*
X187167100Y-84735010D01*
X187167099Y-84735004D01*
X187121283Y-84577306D01*
X187121282Y-84577303D01*
X187037685Y-84435947D01*
X187037678Y-84435938D01*
X186988921Y-84387181D01*
X186955436Y-84325858D01*
X186960420Y-84256166D01*
X187002292Y-84200233D01*
X187067756Y-84175816D01*
X187076602Y-84175500D01*
X187473652Y-84175500D01*
X187540691Y-84195185D01*
X187579189Y-84234401D01*
X187654288Y-84356156D01*
X187654289Y-84356157D01*
X187778346Y-84480214D01*
X187781182Y-84481963D01*
X187782717Y-84483670D01*
X187784011Y-84484693D01*
X187783836Y-84484914D01*
X187827905Y-84533911D01*
X187839126Y-84602874D01*
X187811282Y-84666956D01*
X187781182Y-84693037D01*
X187778346Y-84694785D01*
X187654289Y-84818842D01*
X187562187Y-84968163D01*
X187562186Y-84968166D01*
X187507001Y-85134703D01*
X187507001Y-85134704D01*
X187507000Y-85134704D01*
X187496500Y-85237483D01*
X187496500Y-86012501D01*
X187496501Y-86012519D01*
X187507000Y-86115296D01*
X187507001Y-86115299D01*
X187551413Y-86249324D01*
X187562186Y-86281834D01*
X187654288Y-86431156D01*
X187778344Y-86555212D01*
X187927666Y-86647314D01*
X188094203Y-86702499D01*
X188196991Y-86713000D01*
X188874047Y-86712999D01*
X188941086Y-86732683D01*
X188961728Y-86749318D01*
X189701139Y-87488729D01*
X189701142Y-87488733D01*
X189788267Y-87575858D01*
X189852033Y-87618465D01*
X189890715Y-87644312D01*
X189957397Y-87671932D01*
X190004548Y-87691463D01*
X190064971Y-87703481D01*
X190125393Y-87715500D01*
X190125394Y-87715500D01*
X191215942Y-87715500D01*
X191282981Y-87735185D01*
X191321479Y-87774401D01*
X191404288Y-87908656D01*
X191528344Y-88032712D01*
X191677666Y-88124814D01*
X191844203Y-88179999D01*
X191946991Y-88190500D01*
X193297008Y-88190499D01*
X193399797Y-88179999D01*
X193566334Y-88124814D01*
X193715656Y-88032712D01*
X193839712Y-87908656D01*
X193931814Y-87759334D01*
X193986999Y-87592797D01*
X193997500Y-87490009D01*
X193997499Y-86689992D01*
X193993566Y-86651495D01*
X193986999Y-86587203D01*
X193986998Y-86587200D01*
X193931814Y-86420666D01*
X193839712Y-86271344D01*
X193715656Y-86147288D01*
X193715655Y-86147287D01*
X193651019Y-86107420D01*
X193604294Y-86055472D01*
X193593071Y-85986510D01*
X193620914Y-85922428D01*
X193628434Y-85914199D01*
X193736035Y-85806598D01*
X193837804Y-85666524D01*
X193916408Y-85512255D01*
X193969914Y-85347584D01*
X193971115Y-85340000D01*
X192902330Y-85340000D01*
X192922075Y-85320255D01*
X192971444Y-85234745D01*
X192997000Y-85139370D01*
X192997000Y-85040630D01*
X192971444Y-84945255D01*
X192922075Y-84859745D01*
X192902330Y-84840000D01*
X193971115Y-84840000D01*
X193971115Y-84839999D01*
X193969914Y-84832415D01*
X193916408Y-84667744D01*
X193837804Y-84513475D01*
X193736032Y-84373397D01*
X193613602Y-84250967D01*
X193473524Y-84149195D01*
X193319257Y-84070591D01*
X193154584Y-84017085D01*
X192983571Y-83990000D01*
X192872000Y-83990000D01*
X192872000Y-84809670D01*
X192852255Y-84789925D01*
X192766745Y-84740556D01*
X192671370Y-84715000D01*
X192572630Y-84715000D01*
X192477255Y-84740556D01*
X192391745Y-84789925D01*
X192372000Y-84809670D01*
X192372000Y-83990000D01*
X192260429Y-83990000D01*
X192089415Y-84017085D01*
X191924742Y-84070591D01*
X191770475Y-84149195D01*
X191630397Y-84250967D01*
X191507967Y-84373397D01*
X191406195Y-84513475D01*
X191327591Y-84667744D01*
X191274085Y-84832415D01*
X191272884Y-84839999D01*
X191272885Y-84840000D01*
X192341670Y-84840000D01*
X192321925Y-84859745D01*
X192272556Y-84945255D01*
X192247000Y-85040630D01*
X192247000Y-85139370D01*
X192272556Y-85234745D01*
X192321925Y-85320255D01*
X192341670Y-85340000D01*
X191272885Y-85340000D01*
X191274085Y-85347584D01*
X191327591Y-85512255D01*
X191406195Y-85666524D01*
X191507967Y-85806602D01*
X191615565Y-85914200D01*
X191649050Y-85975523D01*
X191644066Y-86045215D01*
X191602194Y-86101148D01*
X191592981Y-86107420D01*
X191528342Y-86147289D01*
X191404289Y-86271342D01*
X191396482Y-86284000D01*
X191336449Y-86381330D01*
X191321481Y-86405597D01*
X191269533Y-86452321D01*
X191215942Y-86464500D01*
X190497452Y-86464500D01*
X190430413Y-86444815D01*
X190409771Y-86428181D01*
X189983818Y-86002228D01*
X189950333Y-85940905D01*
X189947499Y-85914547D01*
X189947499Y-85237498D01*
X189947498Y-85237481D01*
X189936999Y-85134703D01*
X189936998Y-85134700D01*
X189896117Y-85011330D01*
X189881814Y-84968166D01*
X189789712Y-84818844D01*
X189665656Y-84694788D01*
X189662819Y-84693038D01*
X189661283Y-84691330D01*
X189659989Y-84690307D01*
X189660163Y-84690085D01*
X189616096Y-84641094D01*
X189604872Y-84572132D01*
X189632713Y-84508049D01*
X189662817Y-84481962D01*
X189665656Y-84480212D01*
X189789712Y-84356156D01*
X189881814Y-84206834D01*
X189936999Y-84040297D01*
X189947500Y-83937509D01*
X189947499Y-83162492D01*
X189936999Y-83059703D01*
X189881814Y-82893166D01*
X189789712Y-82743844D01*
X189665656Y-82619788D01*
X189516334Y-82527686D01*
X189349797Y-82472501D01*
X189349795Y-82472500D01*
X189247010Y-82462000D01*
X188196998Y-82462000D01*
X188196980Y-82462001D01*
X188094203Y-82472500D01*
X188094200Y-82472501D01*
X187927668Y-82527685D01*
X187927663Y-82527687D01*
X187778342Y-82619789D01*
X187654289Y-82743842D01*
X187635894Y-82773665D01*
X187582686Y-82859931D01*
X187579191Y-82865597D01*
X187527243Y-82912321D01*
X187473652Y-82924500D01*
X186329459Y-82924500D01*
X186262420Y-82904815D01*
X186216665Y-82852011D01*
X186210383Y-82835095D01*
X186171745Y-82702106D01*
X186171744Y-82702103D01*
X186171744Y-82702102D01*
X186088081Y-82560635D01*
X186088079Y-82560633D01*
X186088076Y-82560629D01*
X185971870Y-82444423D01*
X185971862Y-82444417D01*
X185830396Y-82360755D01*
X185830393Y-82360754D01*
X185672573Y-82314902D01*
X185672567Y-82314901D01*
X185635701Y-82312000D01*
X185635694Y-82312000D01*
X185204306Y-82312000D01*
X185204298Y-82312000D01*
X185167432Y-82314901D01*
X185167426Y-82314902D01*
X185009606Y-82360754D01*
X185009603Y-82360755D01*
X184868137Y-82444417D01*
X184868129Y-82444423D01*
X184751923Y-82560629D01*
X184751917Y-82560637D01*
X184668255Y-82702103D01*
X184668254Y-82702106D01*
X184629617Y-82835095D01*
X184592011Y-82893981D01*
X184528538Y-82923187D01*
X184510541Y-82924500D01*
X165872404Y-82924500D01*
X165805365Y-82904815D01*
X165803566Y-82903637D01*
X165733179Y-82856606D01*
X165733172Y-82856602D01*
X165587501Y-82796264D01*
X165587489Y-82796261D01*
X165432845Y-82765500D01*
X165432842Y-82765500D01*
X165275158Y-82765500D01*
X165275155Y-82765500D01*
X165120510Y-82796261D01*
X165120498Y-82796264D01*
X164974827Y-82856602D01*
X164974814Y-82856609D01*
X164843711Y-82944210D01*
X164843707Y-82944213D01*
X164732213Y-83055707D01*
X164732210Y-83055711D01*
X164644609Y-83186814D01*
X164644602Y-83186827D01*
X164584264Y-83332498D01*
X164584261Y-83332508D01*
X164557321Y-83467944D01*
X164524936Y-83529855D01*
X164464220Y-83564429D01*
X164394450Y-83560688D01*
X164348023Y-83531433D01*
X161663771Y-80847181D01*
X161630286Y-80785858D01*
X161635270Y-80716166D01*
X161677142Y-80660233D01*
X161742606Y-80635816D01*
X161751452Y-80635500D01*
X162113608Y-80635500D01*
X162113608Y-80635499D01*
X162187440Y-80620814D01*
X162234452Y-80611463D01*
X162267792Y-80597652D01*
X162348286Y-80564312D01*
X162401564Y-80528712D01*
X162450733Y-80495858D01*
X162537858Y-80408733D01*
X162537858Y-80408731D01*
X162548066Y-80398524D01*
X162548067Y-80398521D01*
X164509454Y-78437135D01*
X167641500Y-78437135D01*
X167641500Y-81582870D01*
X167641501Y-81582876D01*
X167647908Y-81642483D01*
X167698202Y-81777328D01*
X167698206Y-81777335D01*
X167784452Y-81892544D01*
X167784455Y-81892547D01*
X167899664Y-81978793D01*
X167899671Y-81978797D01*
X168034517Y-82029091D01*
X168034516Y-82029091D01*
X168041444Y-82029835D01*
X168094127Y-82035500D01*
X170389872Y-82035499D01*
X170449483Y-82029091D01*
X170584331Y-81978796D01*
X170699546Y-81892546D01*
X170785796Y-81777331D01*
X170836091Y-81642483D01*
X170842500Y-81582873D01*
X170842499Y-79345450D01*
X170862184Y-79278412D01*
X170878813Y-79257775D01*
X174095771Y-76040819D01*
X174157094Y-76007334D01*
X174183452Y-76004500D01*
X183762691Y-76004500D01*
X183829730Y-76024185D01*
X183875485Y-76076989D01*
X183885429Y-76146147D01*
X183856404Y-76209703D01*
X183850372Y-76216181D01*
X183801923Y-76264629D01*
X183801917Y-76264637D01*
X183718255Y-76406103D01*
X183718254Y-76406106D01*
X183672402Y-76563926D01*
X183672401Y-76563932D01*
X183669500Y-76600798D01*
X183669500Y-77907201D01*
X183672401Y-77944067D01*
X183672402Y-77944073D01*
X183718254Y-78101893D01*
X183718255Y-78101896D01*
X183718256Y-78101898D01*
X183733369Y-78127452D01*
X183777261Y-78201671D01*
X183794444Y-78269396D01*
X183772284Y-78335658D01*
X183735626Y-78370330D01*
X183617347Y-78443285D01*
X183617343Y-78443288D01*
X183493289Y-78567342D01*
X183401187Y-78716663D01*
X183401185Y-78716668D01*
X183392896Y-78741683D01*
X183346001Y-78883203D01*
X183346001Y-78883204D01*
X183346000Y-78883204D01*
X183335500Y-78985983D01*
X183335500Y-79986001D01*
X183335501Y-79986019D01*
X183346000Y-80088796D01*
X183346001Y-80088799D01*
X183367104Y-80152482D01*
X183401186Y-80255334D01*
X183493288Y-80404656D01*
X183617344Y-80528712D01*
X183766666Y-80620814D01*
X183933203Y-80675999D01*
X184035991Y-80686500D01*
X184836008Y-80686499D01*
X184836016Y-80686498D01*
X184836019Y-80686498D01*
X184892302Y-80680748D01*
X184938797Y-80675999D01*
X185105334Y-80620814D01*
X185254656Y-80528712D01*
X185348675Y-80434692D01*
X185409994Y-80401210D01*
X185479686Y-80406194D01*
X185524034Y-80434695D01*
X185617654Y-80528315D01*
X185766875Y-80620356D01*
X185766880Y-80620358D01*
X185933302Y-80675505D01*
X185933309Y-80675506D01*
X186036019Y-80685999D01*
X186185999Y-80685999D01*
X186686000Y-80685999D01*
X186835972Y-80685999D01*
X186835986Y-80685998D01*
X186938697Y-80675505D01*
X187105119Y-80620358D01*
X187105124Y-80620356D01*
X187254345Y-80528315D01*
X187378315Y-80404345D01*
X187470356Y-80255124D01*
X187470358Y-80255119D01*
X187525505Y-80088697D01*
X187525506Y-80088690D01*
X187535999Y-79985986D01*
X187536000Y-79985973D01*
X187536000Y-79736000D01*
X186686000Y-79736000D01*
X186686000Y-80685999D01*
X186185999Y-80685999D01*
X186186000Y-80685998D01*
X186186000Y-78621500D01*
X186156319Y-78591819D01*
X186122834Y-78530496D01*
X186120000Y-78504138D01*
X186120000Y-78156000D01*
X186620000Y-78156000D01*
X186649681Y-78185681D01*
X186683166Y-78247004D01*
X186686000Y-78273362D01*
X186686000Y-79236000D01*
X187535999Y-79236000D01*
X187535999Y-78986028D01*
X187535998Y-78986013D01*
X187525505Y-78883302D01*
X187470358Y-78716880D01*
X187470356Y-78716875D01*
X187378315Y-78567654D01*
X187254344Y-78443683D01*
X187254340Y-78443680D01*
X187112246Y-78356035D01*
X187065521Y-78304087D01*
X187054300Y-78235125D01*
X187070611Y-78187375D01*
X187121284Y-78101692D01*
X187167099Y-77943995D01*
X187167100Y-77943989D01*
X187169999Y-77907149D01*
X187170000Y-77907134D01*
X187170000Y-77504000D01*
X186620000Y-77504000D01*
X186620000Y-78156000D01*
X186120000Y-78156000D01*
X186120000Y-77504000D01*
X185570000Y-77504000D01*
X185570000Y-77907149D01*
X185572899Y-77943989D01*
X185572900Y-77943995D01*
X185618716Y-78101693D01*
X185618717Y-78101696D01*
X185704669Y-78247033D01*
X185721852Y-78314757D01*
X185699692Y-78381019D01*
X185678959Y-78404023D01*
X185517375Y-78543492D01*
X185489541Y-78556138D01*
X185462710Y-78570789D01*
X185458033Y-78570454D01*
X185453763Y-78572395D01*
X185423509Y-78567985D01*
X185393019Y-78565805D01*
X185388464Y-78562877D01*
X185384624Y-78562318D01*
X185376225Y-78555012D01*
X185348672Y-78537304D01*
X185254656Y-78443288D01*
X185254652Y-78443285D01*
X185186198Y-78401062D01*
X185139473Y-78349115D01*
X185128252Y-78280152D01*
X185144561Y-78232406D01*
X185221744Y-78101898D01*
X185257243Y-77979712D01*
X185267597Y-77944073D01*
X185267598Y-77944067D01*
X185268904Y-77927472D01*
X185270500Y-77907194D01*
X185270500Y-76741000D01*
X185273050Y-76732314D01*
X185271762Y-76723353D01*
X185282740Y-76699312D01*
X185290185Y-76673961D01*
X185297025Y-76668033D01*
X185300787Y-76659797D01*
X185323021Y-76645507D01*
X185342989Y-76628206D01*
X185353503Y-76625918D01*
X185359565Y-76622023D01*
X185394500Y-76617000D01*
X185446000Y-76617000D01*
X185513039Y-76636685D01*
X185558794Y-76689489D01*
X185570000Y-76741000D01*
X185570000Y-77004000D01*
X187170000Y-77004000D01*
X187170000Y-76600865D01*
X187169999Y-76600850D01*
X187167100Y-76564010D01*
X187167099Y-76564004D01*
X187121283Y-76406306D01*
X187121282Y-76406303D01*
X187037685Y-76264947D01*
X187037678Y-76264938D01*
X186988921Y-76216181D01*
X186955436Y-76154858D01*
X186960420Y-76085166D01*
X187002292Y-76029233D01*
X187067756Y-76004816D01*
X187076602Y-76004500D01*
X187473652Y-76004500D01*
X187540691Y-76024185D01*
X187579189Y-76063401D01*
X187654288Y-76185156D01*
X187654289Y-76185157D01*
X187778346Y-76309214D01*
X187781182Y-76310963D01*
X187782717Y-76312670D01*
X187784011Y-76313693D01*
X187783836Y-76313914D01*
X187827905Y-76362911D01*
X187839126Y-76431874D01*
X187811282Y-76495956D01*
X187781182Y-76522037D01*
X187778346Y-76523785D01*
X187654289Y-76647842D01*
X187562187Y-76797163D01*
X187562185Y-76797168D01*
X187558536Y-76808181D01*
X187507001Y-76963703D01*
X187507001Y-76963704D01*
X187507000Y-76963704D01*
X187496500Y-77066483D01*
X187496500Y-77841501D01*
X187496501Y-77841519D01*
X187507000Y-77944296D01*
X187507001Y-77944299D01*
X187562185Y-78110831D01*
X187562187Y-78110836D01*
X187578505Y-78137292D01*
X187654288Y-78260156D01*
X187778344Y-78384212D01*
X187927666Y-78476314D01*
X188094203Y-78531499D01*
X188196991Y-78542000D01*
X188874047Y-78541999D01*
X188941086Y-78561683D01*
X188961728Y-78578318D01*
X189744139Y-79360729D01*
X189744142Y-79360733D01*
X189831267Y-79447858D01*
X189881469Y-79481402D01*
X189933714Y-79516312D01*
X189933719Y-79516314D01*
X190007390Y-79546829D01*
X190007394Y-79546830D01*
X190014207Y-79549652D01*
X190047548Y-79563463D01*
X190107971Y-79575481D01*
X190168393Y-79587500D01*
X190168394Y-79587500D01*
X191215942Y-79587500D01*
X191282981Y-79607185D01*
X191321479Y-79646401D01*
X191404288Y-79780656D01*
X191528344Y-79904712D01*
X191677666Y-79996814D01*
X191844203Y-80051999D01*
X191946991Y-80062500D01*
X193297008Y-80062499D01*
X193399797Y-80051999D01*
X193566334Y-79996814D01*
X193715656Y-79904712D01*
X193839712Y-79780656D01*
X193931814Y-79631334D01*
X193986999Y-79464797D01*
X193997500Y-79362009D01*
X193997499Y-78561992D01*
X193997467Y-78561683D01*
X193986999Y-78459203D01*
X193986998Y-78459200D01*
X193962149Y-78384212D01*
X193931814Y-78292666D01*
X193839712Y-78143344D01*
X193715656Y-78019288D01*
X193715655Y-78019287D01*
X193659255Y-77984500D01*
X193651018Y-77979419D01*
X193604294Y-77927472D01*
X193593071Y-77858510D01*
X193620914Y-77794428D01*
X193628434Y-77786199D01*
X193736035Y-77678598D01*
X193837804Y-77538524D01*
X193916408Y-77384255D01*
X193969914Y-77219584D01*
X193971115Y-77212000D01*
X192902330Y-77212000D01*
X192922075Y-77192255D01*
X192971444Y-77106745D01*
X192997000Y-77011370D01*
X192997000Y-76912630D01*
X192971444Y-76817255D01*
X192922075Y-76731745D01*
X192902330Y-76712000D01*
X193971115Y-76712000D01*
X193971115Y-76711999D01*
X193969914Y-76704415D01*
X193916408Y-76539744D01*
X193837804Y-76385475D01*
X193736032Y-76245397D01*
X193613602Y-76122967D01*
X193473524Y-76021195D01*
X193319257Y-75942591D01*
X193154584Y-75889085D01*
X192983571Y-75862000D01*
X192872000Y-75862000D01*
X192872000Y-76681670D01*
X192852255Y-76661925D01*
X192766745Y-76612556D01*
X192671370Y-76587000D01*
X192572630Y-76587000D01*
X192477255Y-76612556D01*
X192391745Y-76661925D01*
X192372000Y-76681670D01*
X192372000Y-75862000D01*
X192260429Y-75862000D01*
X192089415Y-75889085D01*
X191924742Y-75942591D01*
X191770475Y-76021195D01*
X191630397Y-76122967D01*
X191507967Y-76245397D01*
X191406195Y-76385475D01*
X191327591Y-76539744D01*
X191274085Y-76704415D01*
X191272884Y-76711999D01*
X191272885Y-76712000D01*
X192341670Y-76712000D01*
X192321925Y-76731745D01*
X192272556Y-76817255D01*
X192247000Y-76912630D01*
X192247000Y-77011370D01*
X192272556Y-77106745D01*
X192321925Y-77192255D01*
X192341670Y-77212000D01*
X191272885Y-77212000D01*
X191274085Y-77219584D01*
X191327591Y-77384255D01*
X191406195Y-77538524D01*
X191507967Y-77678602D01*
X191615565Y-77786200D01*
X191649050Y-77847523D01*
X191644066Y-77917215D01*
X191602194Y-77973148D01*
X191592983Y-77979418D01*
X191584745Y-77984500D01*
X191528342Y-78019289D01*
X191404289Y-78143342D01*
X191385379Y-78174000D01*
X191332239Y-78260156D01*
X191321481Y-78277597D01*
X191269533Y-78324321D01*
X191215942Y-78336500D01*
X190540452Y-78336500D01*
X190473413Y-78316815D01*
X190452771Y-78300181D01*
X189983818Y-77831228D01*
X189950333Y-77769905D01*
X189947499Y-77743547D01*
X189947499Y-77066498D01*
X189947498Y-77066481D01*
X189936999Y-76963703D01*
X189936998Y-76963700D01*
X189918724Y-76908553D01*
X189881814Y-76797166D01*
X189789712Y-76647844D01*
X189665656Y-76523788D01*
X189662819Y-76522038D01*
X189661283Y-76520330D01*
X189659989Y-76519307D01*
X189660163Y-76519085D01*
X189616096Y-76470094D01*
X189604872Y-76401132D01*
X189632713Y-76337049D01*
X189662817Y-76310962D01*
X189665656Y-76309212D01*
X189789712Y-76185156D01*
X189881814Y-76035834D01*
X189936999Y-75869297D01*
X189947500Y-75766509D01*
X189947499Y-74991492D01*
X189946352Y-74980267D01*
X189936999Y-74888703D01*
X189936998Y-74888700D01*
X189907603Y-74799992D01*
X189881814Y-74722166D01*
X189789712Y-74572844D01*
X189665656Y-74448788D01*
X189516334Y-74356686D01*
X189349797Y-74301501D01*
X189349795Y-74301500D01*
X189247010Y-74291000D01*
X188196998Y-74291000D01*
X188196980Y-74291001D01*
X188094203Y-74301500D01*
X188094200Y-74301501D01*
X187927668Y-74356685D01*
X187927663Y-74356687D01*
X187778342Y-74448789D01*
X187654289Y-74572842D01*
X187654288Y-74572844D01*
X187582686Y-74688931D01*
X187579191Y-74694597D01*
X187527243Y-74741321D01*
X187473652Y-74753500D01*
X186329459Y-74753500D01*
X186262420Y-74733815D01*
X186216665Y-74681011D01*
X186210383Y-74664095D01*
X186171745Y-74531106D01*
X186171744Y-74531103D01*
X186171744Y-74531102D01*
X186088081Y-74389635D01*
X186088079Y-74389633D01*
X186088076Y-74389629D01*
X185971870Y-74273423D01*
X185971862Y-74273417D01*
X185830396Y-74189755D01*
X185830393Y-74189754D01*
X185672573Y-74143902D01*
X185672567Y-74143901D01*
X185635701Y-74141000D01*
X185635694Y-74141000D01*
X185204306Y-74141000D01*
X185204298Y-74141000D01*
X185167432Y-74143901D01*
X185167426Y-74143902D01*
X185009606Y-74189754D01*
X185009603Y-74189755D01*
X184868137Y-74273417D01*
X184868129Y-74273423D01*
X184751923Y-74389629D01*
X184751917Y-74389637D01*
X184668255Y-74531103D01*
X184668254Y-74531106D01*
X184629617Y-74664095D01*
X184592011Y-74722981D01*
X184528538Y-74752187D01*
X184510541Y-74753500D01*
X173811389Y-74753500D01*
X173750971Y-74765518D01*
X173713259Y-74773019D01*
X173690550Y-74777536D01*
X173690548Y-74777537D01*
X173657207Y-74791347D01*
X173576719Y-74824684D01*
X173576705Y-74824692D01*
X173474272Y-74893138D01*
X173474264Y-74893144D01*
X173387139Y-74980270D01*
X170419227Y-77948181D01*
X170357904Y-77981666D01*
X170331546Y-77984500D01*
X168094129Y-77984500D01*
X168094123Y-77984501D01*
X168034516Y-77990908D01*
X167899671Y-78041202D01*
X167899664Y-78041206D01*
X167784455Y-78127452D01*
X167784452Y-78127455D01*
X167698206Y-78242664D01*
X167698202Y-78242671D01*
X167647908Y-78377517D01*
X167645059Y-78404023D01*
X167641501Y-78437123D01*
X167641500Y-78437135D01*
X164509454Y-78437135D01*
X169825857Y-73120734D01*
X169826157Y-73120286D01*
X169894311Y-73018286D01*
X169941463Y-72904452D01*
X169956159Y-72830567D01*
X169960507Y-72808711D01*
X169960507Y-72808706D01*
X169965500Y-72783607D01*
X169965500Y-72660394D01*
X169965500Y-69205499D01*
X169985185Y-69138460D01*
X170037989Y-69092705D01*
X170089500Y-69081499D01*
X170487871Y-69081499D01*
X170487872Y-69081499D01*
X170547483Y-69075091D01*
X170682331Y-69024796D01*
X170797546Y-68938546D01*
X170883796Y-68823331D01*
X170934091Y-68688483D01*
X170940500Y-68628873D01*
X170940499Y-65483135D01*
X177039500Y-65483135D01*
X177039500Y-68628870D01*
X177039501Y-68628876D01*
X177045908Y-68688483D01*
X177096202Y-68823328D01*
X177096206Y-68823335D01*
X177182452Y-68938544D01*
X177182455Y-68938547D01*
X177297664Y-69024793D01*
X177297671Y-69024797D01*
X177432517Y-69075091D01*
X177432516Y-69075091D01*
X177439444Y-69075835D01*
X177492127Y-69081500D01*
X179787872Y-69081499D01*
X179847483Y-69075091D01*
X179982331Y-69024796D01*
X180097546Y-68938546D01*
X180131995Y-68892528D01*
X180189112Y-68816231D01*
X180191955Y-68818359D01*
X180229308Y-68780954D01*
X180297571Y-68766054D01*
X180363052Y-68790424D01*
X180404964Y-68846327D01*
X180406507Y-68850706D01*
X180410731Y-68863451D01*
X180411686Y-68866333D01*
X180411687Y-68866336D01*
X180427842Y-68892528D01*
X180503788Y-69015656D01*
X180627844Y-69139712D01*
X180652597Y-69154980D01*
X180699321Y-69206924D01*
X180711500Y-69260517D01*
X180711500Y-70652541D01*
X180691815Y-70719580D01*
X180639011Y-70765335D01*
X180622095Y-70771617D01*
X180489106Y-70810254D01*
X180489103Y-70810255D01*
X180347637Y-70893917D01*
X180347629Y-70893923D01*
X180231423Y-71010129D01*
X180231417Y-71010137D01*
X180147755Y-71151603D01*
X180147754Y-71151606D01*
X180101902Y-71309426D01*
X180101901Y-71309432D01*
X180099000Y-71346298D01*
X180099000Y-71777701D01*
X180101901Y-71814567D01*
X180101902Y-71814573D01*
X180147754Y-71972393D01*
X180147755Y-71972396D01*
X180231417Y-72113862D01*
X180231423Y-72113870D01*
X180347629Y-72230076D01*
X180347633Y-72230079D01*
X180347635Y-72230081D01*
X180489102Y-72313744D01*
X180529329Y-72325431D01*
X180646926Y-72359597D01*
X180646929Y-72359597D01*
X180646931Y-72359598D01*
X180683806Y-72362500D01*
X181850000Y-72362500D01*
X181917039Y-72382185D01*
X181962794Y-72434989D01*
X181974000Y-72486500D01*
X181974000Y-72727701D01*
X181976901Y-72764567D01*
X181976902Y-72764573D01*
X182022754Y-72922393D01*
X182022755Y-72922396D01*
X182022756Y-72922398D01*
X182048837Y-72966498D01*
X182106417Y-73063862D01*
X182106423Y-73063870D01*
X182222629Y-73180076D01*
X182222633Y-73180079D01*
X182222635Y-73180081D01*
X182364102Y-73263744D01*
X182405724Y-73275836D01*
X182521926Y-73309597D01*
X182521929Y-73309597D01*
X182521931Y-73309598D01*
X182558806Y-73312500D01*
X182558814Y-73312500D01*
X183865186Y-73312500D01*
X183865194Y-73312500D01*
X183902069Y-73309598D01*
X183902071Y-73309597D01*
X183902073Y-73309597D01*
X183943691Y-73297505D01*
X184059898Y-73263744D01*
X184201365Y-73180081D01*
X184317581Y-73063865D01*
X184401244Y-72922398D01*
X184447098Y-72764569D01*
X184447098Y-72764568D01*
X184448057Y-72761268D01*
X184485663Y-72702382D01*
X184549135Y-72673176D01*
X184618322Y-72682922D01*
X184654814Y-72708182D01*
X184755344Y-72808712D01*
X184904666Y-72900814D01*
X185071203Y-72955999D01*
X185173991Y-72966500D01*
X186174008Y-72966499D01*
X186174016Y-72966498D01*
X186174019Y-72966498D01*
X186230302Y-72960748D01*
X186276797Y-72955999D01*
X186443334Y-72900814D01*
X186592656Y-72808712D01*
X186716712Y-72684656D01*
X186808814Y-72535334D01*
X186863999Y-72368797D01*
X186874500Y-72266009D01*
X186874499Y-71465992D01*
X186872864Y-71449991D01*
X186863999Y-71363203D01*
X186863998Y-71363200D01*
X186846181Y-71309432D01*
X186808814Y-71196666D01*
X186716712Y-71047344D01*
X186622695Y-70953327D01*
X186589210Y-70892004D01*
X186594194Y-70822312D01*
X186622695Y-70777964D01*
X186716317Y-70684342D01*
X186808356Y-70535124D01*
X186808358Y-70535119D01*
X186863505Y-70368697D01*
X186863506Y-70368690D01*
X186873999Y-70265986D01*
X186874000Y-70265973D01*
X186874000Y-70116000D01*
X184422639Y-70116000D01*
X184422639Y-70112544D01*
X184378079Y-70109339D01*
X184322163Y-70067444D01*
X184319415Y-70063322D01*
X184317178Y-70060438D01*
X184201061Y-69944321D01*
X184201052Y-69944314D01*
X184059696Y-69860717D01*
X184059693Y-69860716D01*
X183901995Y-69814900D01*
X183901989Y-69814899D01*
X183865149Y-69812000D01*
X183462000Y-69812000D01*
X183462000Y-71412000D01*
X183865134Y-71412000D01*
X183865149Y-71411999D01*
X183901989Y-71409100D01*
X183901995Y-71409099D01*
X184059693Y-71363283D01*
X184059696Y-71363282D01*
X184201052Y-71279685D01*
X184201057Y-71279681D01*
X184295657Y-71185081D01*
X184356980Y-71151596D01*
X184426672Y-71156580D01*
X184482606Y-71198451D01*
X184507023Y-71263915D01*
X184501046Y-71311764D01*
X184484000Y-71363205D01*
X184473500Y-71465983D01*
X184473500Y-71816691D01*
X184453815Y-71883730D01*
X184401011Y-71929485D01*
X184331853Y-71939429D01*
X184268297Y-71910404D01*
X184261819Y-71904372D01*
X184201370Y-71843923D01*
X184201362Y-71843917D01*
X184086922Y-71776238D01*
X184059898Y-71760256D01*
X184059897Y-71760255D01*
X184059896Y-71760255D01*
X184059893Y-71760254D01*
X183902073Y-71714402D01*
X183902067Y-71714401D01*
X183865201Y-71711500D01*
X183865194Y-71711500D01*
X182699000Y-71711500D01*
X182690314Y-71708949D01*
X182681353Y-71710238D01*
X182657312Y-71699259D01*
X182631961Y-71691815D01*
X182626033Y-71684974D01*
X182617797Y-71681213D01*
X182603507Y-71658978D01*
X182586206Y-71639011D01*
X182583918Y-71628496D01*
X182580023Y-71622435D01*
X182575000Y-71587500D01*
X182575000Y-71536000D01*
X182594685Y-71468961D01*
X182647489Y-71423206D01*
X182699000Y-71412000D01*
X182962000Y-71412000D01*
X182962000Y-69812000D01*
X182558850Y-69812000D01*
X182522010Y-69814899D01*
X182522004Y-69814900D01*
X182364306Y-69860716D01*
X182364303Y-69860717D01*
X182222947Y-69944314D01*
X182222938Y-69944321D01*
X182174181Y-69993079D01*
X182112858Y-70026564D01*
X182043166Y-70021580D01*
X181987233Y-69979708D01*
X181962816Y-69914244D01*
X181962500Y-69905398D01*
X181962500Y-69363880D01*
X181982185Y-69296841D01*
X182034989Y-69251086D01*
X182047489Y-69246176D01*
X182090834Y-69231814D01*
X182240156Y-69139712D01*
X182364212Y-69015656D01*
X182365961Y-69012819D01*
X182367669Y-69011283D01*
X182368693Y-69009989D01*
X182368914Y-69010163D01*
X182417906Y-68966096D01*
X182486868Y-68954872D01*
X182550951Y-68982713D01*
X182577037Y-69012817D01*
X182578788Y-69015656D01*
X182702844Y-69139712D01*
X182852166Y-69231814D01*
X183018703Y-69286999D01*
X183121491Y-69297500D01*
X183896508Y-69297499D01*
X183896516Y-69297498D01*
X183896519Y-69297498D01*
X183952802Y-69291748D01*
X183999297Y-69286999D01*
X184165834Y-69231814D01*
X184315156Y-69139712D01*
X184315160Y-69139707D01*
X184320106Y-69135797D01*
X184384900Y-69109653D01*
X184453543Y-69122690D01*
X184504240Y-69170768D01*
X184520897Y-69238623D01*
X184514728Y-69272062D01*
X184484495Y-69363299D01*
X184484493Y-69363309D01*
X184474000Y-69466013D01*
X184474000Y-69616000D01*
X185424000Y-69616000D01*
X185924000Y-69616000D01*
X186873999Y-69616000D01*
X186873999Y-69466028D01*
X186873998Y-69466013D01*
X186863505Y-69363302D01*
X186808358Y-69196880D01*
X186808356Y-69196875D01*
X186716315Y-69047654D01*
X186592345Y-68923684D01*
X186443124Y-68831643D01*
X186443119Y-68831641D01*
X186276697Y-68776494D01*
X186276690Y-68776493D01*
X186173986Y-68766000D01*
X185924000Y-68766000D01*
X185924000Y-69616000D01*
X185424000Y-69616000D01*
X185424000Y-68766000D01*
X185174029Y-68766000D01*
X185174012Y-68766001D01*
X185071302Y-68776494D01*
X184904880Y-68831641D01*
X184904875Y-68831643D01*
X184755655Y-68923683D01*
X184750810Y-68927515D01*
X184686014Y-68953653D01*
X184617372Y-68940611D01*
X184566678Y-68892528D01*
X184550027Y-68824672D01*
X184556194Y-68791250D01*
X184586499Y-68699797D01*
X184597000Y-68597009D01*
X184596999Y-67919953D01*
X184616683Y-67852915D01*
X184619325Y-67848972D01*
X184625583Y-67840007D01*
X184635858Y-67829733D01*
X184704311Y-67727286D01*
X184704312Y-67727285D01*
X184733233Y-67657463D01*
X184751463Y-67613452D01*
X184758042Y-67580373D01*
X184764682Y-67546995D01*
X184764682Y-67546992D01*
X184775500Y-67492607D01*
X184775500Y-67369393D01*
X184775500Y-65999499D01*
X184795185Y-65932460D01*
X184847989Y-65886705D01*
X184899500Y-65875499D01*
X185104002Y-65875499D01*
X185104008Y-65875499D01*
X185116725Y-65874200D01*
X185131536Y-65872687D01*
X185206797Y-65864999D01*
X185288697Y-65837860D01*
X187699500Y-65837860D01*
X187699500Y-66162139D01*
X187731284Y-66484857D01*
X187731287Y-66484874D01*
X187794545Y-66802902D01*
X187794548Y-66802913D01*
X187888686Y-67113247D01*
X188012786Y-67412849D01*
X188012788Y-67412854D01*
X188165646Y-67698830D01*
X188165657Y-67698848D01*
X188345811Y-67968467D01*
X188345821Y-67968481D01*
X188551546Y-68219158D01*
X188780841Y-68448453D01*
X188780846Y-68448457D01*
X188780847Y-68448458D01*
X189031524Y-68654183D01*
X189301158Y-68834347D01*
X189301167Y-68834352D01*
X189301169Y-68834353D01*
X189587145Y-68987211D01*
X189587147Y-68987211D01*
X189587153Y-68987215D01*
X189886754Y-69111314D01*
X190197077Y-69205449D01*
X190197083Y-69205450D01*
X190197086Y-69205451D01*
X190197097Y-69205454D01*
X190381822Y-69242197D01*
X190515132Y-69268714D01*
X190837857Y-69300500D01*
X190837860Y-69300500D01*
X191162140Y-69300500D01*
X191162143Y-69300500D01*
X191484868Y-69268714D01*
X191645120Y-69236838D01*
X191802902Y-69205454D01*
X191802913Y-69205451D01*
X191802913Y-69205450D01*
X191802923Y-69205449D01*
X192113246Y-69111314D01*
X192412847Y-68987215D01*
X192698842Y-68834347D01*
X192968476Y-68654183D01*
X193219153Y-68448458D01*
X193448458Y-68219153D01*
X193654183Y-67968476D01*
X193834347Y-67698842D01*
X193987215Y-67412847D01*
X194111314Y-67113246D01*
X194205449Y-66802923D01*
X194205451Y-66802913D01*
X194205454Y-66802902D01*
X194239052Y-66633989D01*
X194268714Y-66484868D01*
X194300500Y-66162143D01*
X194300500Y-65837857D01*
X194268714Y-65515132D01*
X194245122Y-65396528D01*
X194205454Y-65197097D01*
X194205451Y-65197086D01*
X194205450Y-65197083D01*
X194205449Y-65197077D01*
X194111314Y-64886754D01*
X193987215Y-64587153D01*
X193967344Y-64549978D01*
X193834353Y-64301169D01*
X193834352Y-64301167D01*
X193834347Y-64301158D01*
X193654183Y-64031524D01*
X193448458Y-63780847D01*
X193448457Y-63780846D01*
X193448453Y-63780841D01*
X193219158Y-63551546D01*
X192968481Y-63345821D01*
X192968480Y-63345820D01*
X192968476Y-63345817D01*
X192698842Y-63165653D01*
X192698837Y-63165650D01*
X192698830Y-63165646D01*
X192412854Y-63012788D01*
X192412849Y-63012786D01*
X192113247Y-62888686D01*
X191802913Y-62794548D01*
X191802902Y-62794545D01*
X191484874Y-62731287D01*
X191484857Y-62731284D01*
X191240812Y-62707248D01*
X191162143Y-62699500D01*
X190837857Y-62699500D01*
X190765099Y-62706666D01*
X190515142Y-62731284D01*
X190515125Y-62731287D01*
X190197097Y-62794545D01*
X190197086Y-62794548D01*
X189886752Y-62888686D01*
X189587150Y-63012786D01*
X189587145Y-63012788D01*
X189301169Y-63165646D01*
X189301151Y-63165657D01*
X189031532Y-63345811D01*
X189031518Y-63345821D01*
X188780841Y-63551546D01*
X188551546Y-63780841D01*
X188345821Y-64031518D01*
X188345811Y-64031532D01*
X188165657Y-64301151D01*
X188165646Y-64301169D01*
X188012788Y-64587145D01*
X188012786Y-64587150D01*
X187888686Y-64886752D01*
X187794548Y-65197086D01*
X187794545Y-65197097D01*
X187731287Y-65515125D01*
X187731284Y-65515142D01*
X187707916Y-65752407D01*
X187700832Y-65824339D01*
X187699500Y-65837860D01*
X185288697Y-65837860D01*
X185373334Y-65809814D01*
X185522656Y-65717712D01*
X185646712Y-65593656D01*
X185738814Y-65444334D01*
X185793999Y-65277797D01*
X185804500Y-65175009D01*
X185804499Y-63824992D01*
X185793999Y-63722203D01*
X185738814Y-63555666D01*
X185646712Y-63406344D01*
X185522656Y-63282288D01*
X185373334Y-63190186D01*
X185206797Y-63135001D01*
X185206795Y-63135000D01*
X185104010Y-63124500D01*
X184303998Y-63124500D01*
X184303980Y-63124501D01*
X184201203Y-63135000D01*
X184201200Y-63135001D01*
X184034668Y-63190185D01*
X184034663Y-63190187D01*
X183885342Y-63282289D01*
X183761289Y-63406342D01*
X183721420Y-63470981D01*
X183669472Y-63517705D01*
X183600509Y-63528928D01*
X183536427Y-63501084D01*
X183528200Y-63493565D01*
X183420602Y-63385967D01*
X183280524Y-63284195D01*
X183126257Y-63205591D01*
X182961589Y-63152087D01*
X182961581Y-63152085D01*
X182954000Y-63150884D01*
X182954000Y-64219670D01*
X182934255Y-64199925D01*
X182848745Y-64150556D01*
X182753370Y-64125000D01*
X182654630Y-64125000D01*
X182559255Y-64150556D01*
X182473745Y-64199925D01*
X182454000Y-64219670D01*
X182454000Y-63150884D01*
X182453999Y-63150884D01*
X182446418Y-63152085D01*
X182446410Y-63152087D01*
X182281742Y-63205591D01*
X182127475Y-63284195D01*
X181987397Y-63385967D01*
X181864967Y-63508397D01*
X181763195Y-63648475D01*
X181684591Y-63802742D01*
X181631085Y-63967415D01*
X181604000Y-64138428D01*
X181604000Y-64250000D01*
X182423670Y-64250000D01*
X182403925Y-64269745D01*
X182354556Y-64355255D01*
X182329000Y-64450630D01*
X182329000Y-64549370D01*
X182354556Y-64644745D01*
X182403925Y-64730255D01*
X182423670Y-64750000D01*
X181604000Y-64750000D01*
X181604000Y-64861571D01*
X181631085Y-65032584D01*
X181684591Y-65197257D01*
X181763195Y-65351524D01*
X181864967Y-65491602D01*
X181987397Y-65614032D01*
X182127475Y-65715804D01*
X182281744Y-65794408D01*
X182446415Y-65847914D01*
X182446414Y-65847914D01*
X182453999Y-65849115D01*
X182454000Y-65849114D01*
X182454000Y-64780330D01*
X182473745Y-64800075D01*
X182559255Y-64849444D01*
X182654630Y-64875000D01*
X182753370Y-64875000D01*
X182848745Y-64849444D01*
X182934255Y-64800075D01*
X182954000Y-64780330D01*
X182954000Y-65849115D01*
X182961584Y-65847914D01*
X183126255Y-65794408D01*
X183280528Y-65715801D01*
X183327615Y-65681592D01*
X183393421Y-65658112D01*
X183461475Y-65673938D01*
X183510170Y-65724044D01*
X183524500Y-65781910D01*
X183524500Y-66722500D01*
X183504815Y-66789539D01*
X183452011Y-66835294D01*
X183400500Y-66846500D01*
X183121499Y-66846500D01*
X183121480Y-66846501D01*
X183018703Y-66857000D01*
X183018700Y-66857001D01*
X182852168Y-66912185D01*
X182852163Y-66912187D01*
X182702842Y-67004289D01*
X182578785Y-67128346D01*
X182577037Y-67131182D01*
X182575329Y-67132717D01*
X182574307Y-67134011D01*
X182574085Y-67133836D01*
X182525089Y-67177905D01*
X182456126Y-67189126D01*
X182392044Y-67161282D01*
X182365963Y-67131182D01*
X182364214Y-67128346D01*
X182240157Y-67004289D01*
X182240156Y-67004288D01*
X182090834Y-66912186D01*
X181924297Y-66857001D01*
X181924295Y-66857000D01*
X181821510Y-66846500D01*
X181046498Y-66846500D01*
X181046480Y-66846501D01*
X180943703Y-66857000D01*
X180943700Y-66857001D01*
X180777168Y-66912185D01*
X180777163Y-66912187D01*
X180627842Y-67004289D01*
X180503788Y-67128343D01*
X180500546Y-67133600D01*
X180492960Y-67140422D01*
X180488722Y-67149703D01*
X180467422Y-67163391D01*
X180448597Y-67180323D01*
X180436961Y-67182966D01*
X180429944Y-67187477D01*
X180395009Y-67192500D01*
X180364500Y-67192500D01*
X180297461Y-67172815D01*
X180251706Y-67120011D01*
X180240500Y-67068500D01*
X180240499Y-65483129D01*
X180240498Y-65483123D01*
X180240497Y-65483116D01*
X180234091Y-65423517D01*
X180207239Y-65351524D01*
X180183797Y-65288671D01*
X180183793Y-65288664D01*
X180097547Y-65173455D01*
X180097544Y-65173452D01*
X179982335Y-65087206D01*
X179982328Y-65087202D01*
X179847482Y-65036908D01*
X179847483Y-65036908D01*
X179787883Y-65030501D01*
X179787881Y-65030500D01*
X179787873Y-65030500D01*
X179787864Y-65030500D01*
X177492129Y-65030500D01*
X177492123Y-65030501D01*
X177432516Y-65036908D01*
X177297671Y-65087202D01*
X177297664Y-65087206D01*
X177182455Y-65173452D01*
X177182452Y-65173455D01*
X177096206Y-65288664D01*
X177096202Y-65288671D01*
X177045908Y-65423517D01*
X177040594Y-65472949D01*
X177039501Y-65483123D01*
X177039500Y-65483135D01*
X170940499Y-65483135D01*
X170940499Y-65483128D01*
X170934091Y-65423517D01*
X170907239Y-65351524D01*
X170883797Y-65288671D01*
X170883793Y-65288664D01*
X170797547Y-65173455D01*
X170797544Y-65173452D01*
X170682335Y-65087206D01*
X170682328Y-65087202D01*
X170547482Y-65036908D01*
X170547483Y-65036908D01*
X170487883Y-65030501D01*
X170487881Y-65030500D01*
X170487873Y-65030500D01*
X170487864Y-65030500D01*
X168192129Y-65030500D01*
X168192123Y-65030501D01*
X168132516Y-65036908D01*
X167997671Y-65087202D01*
X167997664Y-65087206D01*
X167882455Y-65173452D01*
X167882452Y-65173455D01*
X167796206Y-65288664D01*
X167796202Y-65288671D01*
X167745908Y-65423517D01*
X167740594Y-65472949D01*
X167739501Y-65483123D01*
X167739500Y-65483135D01*
X167739500Y-68628870D01*
X167739501Y-68628876D01*
X167745908Y-68688483D01*
X167796202Y-68823328D01*
X167796206Y-68823335D01*
X167882452Y-68938544D01*
X167882455Y-68938547D01*
X167997664Y-69024793D01*
X167997671Y-69024797D01*
X168016056Y-69031654D01*
X168132517Y-69075091D01*
X168192127Y-69081500D01*
X168590500Y-69081499D01*
X168657539Y-69101183D01*
X168703294Y-69153987D01*
X168714500Y-69205499D01*
X168714500Y-72411547D01*
X168694815Y-72478586D01*
X168678181Y-72499228D01*
X161829229Y-79348181D01*
X161802301Y-79362884D01*
X161776483Y-79379477D01*
X161770282Y-79380368D01*
X161767906Y-79381666D01*
X161741548Y-79384500D01*
X161666499Y-79384500D01*
X161599460Y-79364815D01*
X161553705Y-79312011D01*
X161542499Y-79260500D01*
X161542499Y-78437129D01*
X161542498Y-78437123D01*
X161542497Y-78437116D01*
X161536811Y-78384212D01*
X161536091Y-78377516D01*
X161485797Y-78242671D01*
X161485793Y-78242664D01*
X161399547Y-78127455D01*
X161399544Y-78127452D01*
X161284335Y-78041206D01*
X161284328Y-78041202D01*
X161149482Y-77990908D01*
X161149483Y-77990908D01*
X161089883Y-77984501D01*
X161089881Y-77984500D01*
X161089873Y-77984500D01*
X161089864Y-77984500D01*
X158794129Y-77984500D01*
X158794123Y-77984501D01*
X158734516Y-77990908D01*
X158599671Y-78041202D01*
X158599664Y-78041206D01*
X158484455Y-78127452D01*
X158484452Y-78127455D01*
X158398206Y-78242664D01*
X158398202Y-78242671D01*
X158347908Y-78377517D01*
X158345059Y-78404023D01*
X158341501Y-78437123D01*
X158341500Y-78437135D01*
X158341500Y-78785500D01*
X158321815Y-78852539D01*
X158269011Y-78898294D01*
X158217500Y-78909500D01*
X150863500Y-78909500D01*
X150796461Y-78889815D01*
X150750706Y-78837011D01*
X150739500Y-78785500D01*
X150739500Y-69205499D01*
X150759185Y-69138460D01*
X150811989Y-69092705D01*
X150863500Y-69081499D01*
X151261871Y-69081499D01*
X151261872Y-69081499D01*
X151321483Y-69075091D01*
X151456331Y-69024796D01*
X151571546Y-68938546D01*
X151657796Y-68823331D01*
X151708091Y-68688483D01*
X151714500Y-68628873D01*
X151714499Y-65483135D01*
X157813500Y-65483135D01*
X157813500Y-68628870D01*
X157813501Y-68628876D01*
X157819908Y-68688483D01*
X157870202Y-68823328D01*
X157870206Y-68823335D01*
X157956452Y-68938544D01*
X157956455Y-68938547D01*
X158071664Y-69024793D01*
X158071671Y-69024797D01*
X158206517Y-69075091D01*
X158206516Y-69075091D01*
X158213444Y-69075835D01*
X158266127Y-69081500D01*
X160561872Y-69081499D01*
X160621483Y-69075091D01*
X160756331Y-69024796D01*
X160871546Y-68938546D01*
X160892687Y-68910304D01*
X160948618Y-68868436D01*
X161018309Y-68863451D01*
X161079633Y-68896935D01*
X161097491Y-68919520D01*
X161109225Y-68938544D01*
X161139244Y-68987213D01*
X161156789Y-69015657D01*
X161280845Y-69139713D01*
X161303988Y-69153987D01*
X161348596Y-69181501D01*
X161395321Y-69233447D01*
X161407500Y-69287039D01*
X161407500Y-70718541D01*
X161387815Y-70785580D01*
X161335011Y-70831335D01*
X161318095Y-70837617D01*
X161185106Y-70876254D01*
X161185103Y-70876255D01*
X161043637Y-70959917D01*
X161043629Y-70959923D01*
X160927423Y-71076129D01*
X160927417Y-71076137D01*
X160843755Y-71217603D01*
X160843754Y-71217606D01*
X160797902Y-71375426D01*
X160797901Y-71375432D01*
X160795000Y-71412298D01*
X160795000Y-71843701D01*
X160797901Y-71880567D01*
X160797902Y-71880573D01*
X160843754Y-72038393D01*
X160843755Y-72038396D01*
X160927417Y-72179862D01*
X160927423Y-72179870D01*
X161043629Y-72296076D01*
X161043633Y-72296079D01*
X161043635Y-72296081D01*
X161185102Y-72379744D01*
X161193504Y-72382185D01*
X161342926Y-72425597D01*
X161342929Y-72425597D01*
X161342931Y-72425598D01*
X161379806Y-72428500D01*
X162546000Y-72428500D01*
X162613039Y-72448185D01*
X162658794Y-72500989D01*
X162670000Y-72552500D01*
X162670000Y-72793701D01*
X162672901Y-72830567D01*
X162672902Y-72830573D01*
X162718754Y-72988393D01*
X162718755Y-72988396D01*
X162802417Y-73129862D01*
X162802423Y-73129870D01*
X162918629Y-73246076D01*
X162918633Y-73246079D01*
X162918635Y-73246081D01*
X163060102Y-73329744D01*
X163101724Y-73341836D01*
X163217926Y-73375597D01*
X163217929Y-73375597D01*
X163217931Y-73375598D01*
X163254806Y-73378500D01*
X163254814Y-73378500D01*
X164561186Y-73378500D01*
X164561194Y-73378500D01*
X164598069Y-73375598D01*
X164598071Y-73375597D01*
X164598073Y-73375597D01*
X164639691Y-73363505D01*
X164755898Y-73329744D01*
X164897365Y-73246081D01*
X165013581Y-73129865D01*
X165097244Y-72988398D01*
X165143098Y-72830569D01*
X165146000Y-72793694D01*
X165146000Y-72685521D01*
X165165685Y-72618482D01*
X165218489Y-72572727D01*
X165287647Y-72562783D01*
X165351203Y-72591808D01*
X165375539Y-72620425D01*
X165405288Y-72668656D01*
X165529344Y-72792712D01*
X165678666Y-72884814D01*
X165845203Y-72939999D01*
X165947991Y-72950500D01*
X166948008Y-72950499D01*
X166948016Y-72950498D01*
X166948019Y-72950498D01*
X167004302Y-72944748D01*
X167050797Y-72939999D01*
X167217334Y-72884814D01*
X167366656Y-72792712D01*
X167490712Y-72668656D01*
X167582814Y-72519334D01*
X167637999Y-72352797D01*
X167648500Y-72250009D01*
X167648499Y-71449992D01*
X167646383Y-71429282D01*
X167637999Y-71347203D01*
X167637998Y-71347200D01*
X167625483Y-71309432D01*
X167582814Y-71180666D01*
X167490712Y-71031344D01*
X167396695Y-70937327D01*
X167363210Y-70876004D01*
X167368194Y-70806312D01*
X167396695Y-70761964D01*
X167490317Y-70668342D01*
X167582356Y-70519124D01*
X167582358Y-70519119D01*
X167637505Y-70352697D01*
X167637506Y-70352690D01*
X167647999Y-70249986D01*
X167648000Y-70249973D01*
X167648000Y-70100000D01*
X165248001Y-70100000D01*
X165235626Y-70112374D01*
X165228316Y-70137270D01*
X165175512Y-70183025D01*
X165106354Y-70192969D01*
X165042798Y-70163944D01*
X165017270Y-70133354D01*
X165013185Y-70126447D01*
X165013178Y-70126438D01*
X164897061Y-70010321D01*
X164897052Y-70010314D01*
X164755696Y-69926717D01*
X164755693Y-69926716D01*
X164597995Y-69880900D01*
X164597989Y-69880899D01*
X164561149Y-69878000D01*
X164158000Y-69878000D01*
X164158000Y-70428000D01*
X165193906Y-70428000D01*
X165260945Y-70447685D01*
X165306700Y-70500489D01*
X165311611Y-70512992D01*
X165313641Y-70519119D01*
X165313643Y-70519124D01*
X165405684Y-70668345D01*
X165499304Y-70761965D01*
X165532789Y-70823288D01*
X165527805Y-70892980D01*
X165499305Y-70937327D01*
X165405287Y-71031345D01*
X165337049Y-71141976D01*
X165337046Y-71141982D01*
X165313186Y-71180666D01*
X165293749Y-71239320D01*
X165293746Y-71239329D01*
X165258001Y-71347203D01*
X165258000Y-71347204D01*
X165247500Y-71449983D01*
X165247500Y-71968403D01*
X165227815Y-72035442D01*
X165175011Y-72081197D01*
X165105853Y-72091141D01*
X165042297Y-72062116D01*
X165016767Y-72031522D01*
X165013583Y-72026138D01*
X165013576Y-72026129D01*
X164897370Y-71909923D01*
X164897362Y-71909917D01*
X164785771Y-71843923D01*
X164755898Y-71826256D01*
X164755897Y-71826255D01*
X164755896Y-71826255D01*
X164755893Y-71826254D01*
X164598073Y-71780402D01*
X164598067Y-71780401D01*
X164561201Y-71777500D01*
X164561194Y-71777500D01*
X163395000Y-71777500D01*
X163386314Y-71774949D01*
X163377353Y-71776238D01*
X163353312Y-71765259D01*
X163327961Y-71757815D01*
X163322033Y-71750974D01*
X163313797Y-71747213D01*
X163299507Y-71724978D01*
X163282206Y-71705011D01*
X163279918Y-71694496D01*
X163276023Y-71688435D01*
X163271000Y-71653500D01*
X163271000Y-71602000D01*
X163290685Y-71534961D01*
X163343489Y-71489206D01*
X163395000Y-71478000D01*
X163658000Y-71478000D01*
X164158000Y-71478000D01*
X164561134Y-71478000D01*
X164561149Y-71477999D01*
X164597989Y-71475100D01*
X164597995Y-71475099D01*
X164755693Y-71429283D01*
X164755696Y-71429282D01*
X164897052Y-71345685D01*
X164897061Y-71345678D01*
X165013178Y-71229561D01*
X165013184Y-71229553D01*
X165067580Y-71137574D01*
X165110414Y-71041273D01*
X165142599Y-70930494D01*
X165142600Y-70930488D01*
X165142795Y-70928001D01*
X165142795Y-70928000D01*
X164158000Y-70928000D01*
X164158000Y-71478000D01*
X163658000Y-71478000D01*
X163658000Y-69878000D01*
X163254850Y-69878000D01*
X163218010Y-69880899D01*
X163218004Y-69880900D01*
X163060306Y-69926716D01*
X163060303Y-69926717D01*
X162918947Y-70010314D01*
X162918938Y-70010321D01*
X162870181Y-70059079D01*
X162808858Y-70092564D01*
X162739166Y-70087580D01*
X162683233Y-70045708D01*
X162658816Y-69980244D01*
X162658500Y-69971398D01*
X162658500Y-69450013D01*
X165248000Y-69450013D01*
X165248000Y-69600000D01*
X166198000Y-69600000D01*
X166698000Y-69600000D01*
X167647999Y-69600000D01*
X167647999Y-69450028D01*
X167647998Y-69450013D01*
X167637505Y-69347302D01*
X167582358Y-69180880D01*
X167582356Y-69180875D01*
X167490315Y-69031654D01*
X167366345Y-68907684D01*
X167217124Y-68815643D01*
X167217119Y-68815641D01*
X167050697Y-68760494D01*
X167050690Y-68760493D01*
X166947986Y-68750000D01*
X166698000Y-68750000D01*
X166698000Y-69600000D01*
X166198000Y-69600000D01*
X166198000Y-68750000D01*
X165948029Y-68750000D01*
X165948012Y-68750001D01*
X165845302Y-68760494D01*
X165678880Y-68815641D01*
X165678875Y-68815643D01*
X165529654Y-68907684D01*
X165405684Y-69031654D01*
X165313643Y-69180875D01*
X165313641Y-69180880D01*
X165258494Y-69347302D01*
X165258493Y-69347309D01*
X165248000Y-69450013D01*
X162658500Y-69450013D01*
X162658500Y-69349632D01*
X162678185Y-69282593D01*
X162730989Y-69236838D01*
X162743499Y-69231925D01*
X162743496Y-69231925D01*
X162743834Y-69231814D01*
X162893156Y-69139712D01*
X163017212Y-69015656D01*
X163018961Y-69012819D01*
X163020669Y-69011283D01*
X163021693Y-69009989D01*
X163021914Y-69010163D01*
X163070906Y-68966096D01*
X163139868Y-68954872D01*
X163203951Y-68982713D01*
X163230037Y-69012817D01*
X163231788Y-69015656D01*
X163355844Y-69139712D01*
X163505166Y-69231814D01*
X163671703Y-69286999D01*
X163774491Y-69297500D01*
X164549508Y-69297499D01*
X164549516Y-69297498D01*
X164549519Y-69297498D01*
X164605802Y-69291748D01*
X164652297Y-69286999D01*
X164818834Y-69231814D01*
X164968156Y-69139712D01*
X165092212Y-69015656D01*
X165184314Y-68866334D01*
X165239499Y-68699797D01*
X165250000Y-68597009D01*
X165249999Y-67919952D01*
X165269683Y-67852914D01*
X165286318Y-67832272D01*
X165839855Y-67278736D01*
X165839855Y-67278735D01*
X165839858Y-67278733D01*
X165908312Y-67176285D01*
X165955463Y-67062451D01*
X165979501Y-66941606D01*
X165979501Y-66818393D01*
X165979501Y-66813283D01*
X165979500Y-66813257D01*
X165979500Y-65939726D01*
X165999185Y-65872687D01*
X166051989Y-65826932D01*
X166064494Y-65822021D01*
X166101334Y-65809814D01*
X166250656Y-65717712D01*
X166374712Y-65593656D01*
X166466814Y-65444334D01*
X166521999Y-65277797D01*
X166532500Y-65175009D01*
X166532499Y-64450630D01*
X166532499Y-64133556D01*
X166532499Y-63824998D01*
X166532498Y-63824981D01*
X166521999Y-63722203D01*
X166521998Y-63722200D01*
X166498223Y-63650452D01*
X166466814Y-63555666D01*
X166374712Y-63406344D01*
X166250656Y-63282288D01*
X166101334Y-63190186D01*
X165934797Y-63135001D01*
X165934795Y-63135000D01*
X165832010Y-63124500D01*
X165031998Y-63124500D01*
X165031980Y-63124501D01*
X164929203Y-63135000D01*
X164929200Y-63135001D01*
X164762668Y-63190185D01*
X164762663Y-63190187D01*
X164613342Y-63282289D01*
X164489289Y-63406342D01*
X164449420Y-63470981D01*
X164397472Y-63517705D01*
X164328509Y-63528928D01*
X164264427Y-63501084D01*
X164256200Y-63493565D01*
X164148602Y-63385967D01*
X164008524Y-63284195D01*
X163854257Y-63205591D01*
X163689589Y-63152087D01*
X163689581Y-63152085D01*
X163682000Y-63150884D01*
X163682000Y-64219670D01*
X163662255Y-64199925D01*
X163576745Y-64150556D01*
X163481370Y-64125000D01*
X163382630Y-64125000D01*
X163287255Y-64150556D01*
X163201745Y-64199925D01*
X163182000Y-64219670D01*
X163182000Y-63150884D01*
X163181999Y-63150884D01*
X163174418Y-63152085D01*
X163174410Y-63152087D01*
X163009742Y-63205591D01*
X162855475Y-63284195D01*
X162715397Y-63385967D01*
X162592967Y-63508397D01*
X162491195Y-63648475D01*
X162412591Y-63802742D01*
X162359085Y-63967415D01*
X162332000Y-64138428D01*
X162332000Y-64250000D01*
X163151670Y-64250000D01*
X163131925Y-64269745D01*
X163082556Y-64355255D01*
X163057000Y-64450630D01*
X163057000Y-64549370D01*
X163082556Y-64644745D01*
X163131925Y-64730255D01*
X163151670Y-64750000D01*
X162332000Y-64750000D01*
X162332000Y-64861571D01*
X162359085Y-65032584D01*
X162412591Y-65197257D01*
X162491195Y-65351524D01*
X162592967Y-65491602D01*
X162715397Y-65614032D01*
X162855475Y-65715804D01*
X163009744Y-65794408D01*
X163174415Y-65847914D01*
X163174414Y-65847914D01*
X163181999Y-65849115D01*
X163182000Y-65849114D01*
X163182000Y-64780330D01*
X163201745Y-64800075D01*
X163287255Y-64849444D01*
X163382630Y-64875000D01*
X163481370Y-64875000D01*
X163576745Y-64849444D01*
X163662255Y-64800075D01*
X163682000Y-64780330D01*
X163682000Y-65849115D01*
X163689584Y-65847914D01*
X163854255Y-65794408D01*
X164008524Y-65715804D01*
X164148598Y-65614035D01*
X164256199Y-65506434D01*
X164317522Y-65472949D01*
X164387214Y-65477933D01*
X164443148Y-65519804D01*
X164449418Y-65529016D01*
X164489288Y-65593656D01*
X164613344Y-65717712D01*
X164669598Y-65752409D01*
X164716321Y-65804354D01*
X164728500Y-65857946D01*
X164728500Y-66569547D01*
X164719855Y-66598987D01*
X164713332Y-66628974D01*
X164709577Y-66633989D01*
X164708815Y-66636586D01*
X164692185Y-66657223D01*
X164593016Y-66756393D01*
X164539227Y-66810182D01*
X164477904Y-66843666D01*
X164451546Y-66846500D01*
X163774498Y-66846500D01*
X163774480Y-66846501D01*
X163671703Y-66857000D01*
X163671700Y-66857001D01*
X163505168Y-66912185D01*
X163505163Y-66912187D01*
X163355842Y-67004289D01*
X163231785Y-67128346D01*
X163230037Y-67131182D01*
X163228329Y-67132717D01*
X163227307Y-67134011D01*
X163227085Y-67133836D01*
X163178089Y-67177905D01*
X163109126Y-67189126D01*
X163045044Y-67161282D01*
X163018963Y-67131182D01*
X163017214Y-67128346D01*
X162893157Y-67004289D01*
X162893156Y-67004288D01*
X162743834Y-66912186D01*
X162577297Y-66857001D01*
X162577295Y-66857000D01*
X162474516Y-66846500D01*
X162474509Y-66846500D01*
X161797452Y-66846500D01*
X161768011Y-66837855D01*
X161738025Y-66831332D01*
X161733009Y-66827577D01*
X161730413Y-66826815D01*
X161709771Y-66810181D01*
X161561198Y-66661608D01*
X161561178Y-66661586D01*
X161469733Y-66570141D01*
X161424325Y-66539801D01*
X161424324Y-66539800D01*
X161418509Y-66535915D01*
X161367286Y-66501688D01*
X161286792Y-66468347D01*
X161271457Y-66461995D01*
X161253453Y-66454537D01*
X161243525Y-66452562D01*
X161193029Y-66442518D01*
X161132607Y-66430500D01*
X161132606Y-66430500D01*
X161127249Y-66430500D01*
X161116185Y-66428476D01*
X161094620Y-66417615D01*
X161071460Y-66410815D01*
X161063983Y-66402186D01*
X161053782Y-66397049D01*
X161041511Y-66376252D01*
X161025705Y-66358011D01*
X161022759Y-66344471D01*
X161018276Y-66336873D01*
X161018698Y-66325803D01*
X161014499Y-66306500D01*
X161014499Y-65483129D01*
X161014498Y-65483123D01*
X161014497Y-65483116D01*
X161008091Y-65423517D01*
X160981239Y-65351524D01*
X160957797Y-65288671D01*
X160957793Y-65288664D01*
X160871547Y-65173455D01*
X160871544Y-65173452D01*
X160756335Y-65087206D01*
X160756328Y-65087202D01*
X160621482Y-65036908D01*
X160621483Y-65036908D01*
X160561883Y-65030501D01*
X160561881Y-65030500D01*
X160561873Y-65030500D01*
X160561864Y-65030500D01*
X158266129Y-65030500D01*
X158266123Y-65030501D01*
X158206516Y-65036908D01*
X158071671Y-65087202D01*
X158071664Y-65087206D01*
X157956455Y-65173452D01*
X157956452Y-65173455D01*
X157870206Y-65288664D01*
X157870202Y-65288671D01*
X157819908Y-65423517D01*
X157814594Y-65472949D01*
X157813501Y-65483123D01*
X157813500Y-65483135D01*
X151714499Y-65483135D01*
X151714499Y-65483128D01*
X151708091Y-65423517D01*
X151681239Y-65351524D01*
X151657797Y-65288671D01*
X151657793Y-65288664D01*
X151571547Y-65173455D01*
X151571544Y-65173452D01*
X151456335Y-65087206D01*
X151456328Y-65087202D01*
X151321482Y-65036908D01*
X151321483Y-65036908D01*
X151261883Y-65030501D01*
X151261881Y-65030500D01*
X151261873Y-65030500D01*
X151261864Y-65030500D01*
X148966129Y-65030500D01*
X148966123Y-65030501D01*
X148906516Y-65036908D01*
X148771671Y-65087202D01*
X148771664Y-65087206D01*
X148656455Y-65173452D01*
X148656452Y-65173455D01*
X148570206Y-65288664D01*
X148570202Y-65288671D01*
X148519908Y-65423517D01*
X148514594Y-65472949D01*
X148513501Y-65483123D01*
X148513500Y-65483135D01*
X148513500Y-68628870D01*
X148513501Y-68628876D01*
X148519908Y-68688483D01*
X148570202Y-68823328D01*
X148570206Y-68823335D01*
X148656452Y-68938544D01*
X148656455Y-68938547D01*
X148771664Y-69024793D01*
X148771671Y-69024797D01*
X148790056Y-69031654D01*
X148906517Y-69075091D01*
X148966127Y-69081500D01*
X149364500Y-69081499D01*
X149431539Y-69101183D01*
X149477294Y-69153987D01*
X149488500Y-69205499D01*
X149488500Y-78785500D01*
X149468815Y-78852539D01*
X149416011Y-78898294D01*
X149364500Y-78909500D01*
X143411204Y-78909500D01*
X143344165Y-78889815D01*
X143323523Y-78873181D01*
X142018930Y-77568588D01*
X142018928Y-77568586D01*
X141878788Y-77466768D01*
X141724445Y-77388127D01*
X141559701Y-77334598D01*
X141559699Y-77334597D01*
X141559698Y-77334597D01*
X141413512Y-77311444D01*
X141388611Y-77307500D01*
X141388610Y-77307500D01*
X141145204Y-77307500D01*
X141078165Y-77287815D01*
X141057523Y-77271181D01*
X135391930Y-71605588D01*
X135391928Y-71605586D01*
X135251788Y-71503768D01*
X135097445Y-71425127D01*
X134932701Y-71371598D01*
X134932699Y-71371597D01*
X134932698Y-71371597D01*
X134778683Y-71347204D01*
X134761611Y-71344500D01*
X134761610Y-71344500D01*
X131559500Y-71344500D01*
X131492461Y-71324815D01*
X131446706Y-71272011D01*
X131435500Y-71220500D01*
X131435500Y-69205499D01*
X131455185Y-69138460D01*
X131507989Y-69092705D01*
X131559500Y-69081499D01*
X131957871Y-69081499D01*
X131957872Y-69081499D01*
X132017483Y-69075091D01*
X132152331Y-69024796D01*
X132267546Y-68938546D01*
X132353796Y-68823331D01*
X132404091Y-68688483D01*
X132410500Y-68628873D01*
X132410499Y-65483135D01*
X138509500Y-65483135D01*
X138509500Y-68628870D01*
X138509501Y-68628876D01*
X138515908Y-68688483D01*
X138566202Y-68823328D01*
X138566206Y-68823335D01*
X138652452Y-68938544D01*
X138652455Y-68938547D01*
X138767664Y-69024793D01*
X138767671Y-69024797D01*
X138902517Y-69075091D01*
X138902516Y-69075091D01*
X138909444Y-69075835D01*
X138962127Y-69081500D01*
X141257872Y-69081499D01*
X141317483Y-69075091D01*
X141452331Y-69024796D01*
X141567546Y-68938546D01*
X141588687Y-68910304D01*
X141644618Y-68868436D01*
X141714309Y-68863451D01*
X141775633Y-68896935D01*
X141793491Y-68919520D01*
X141805225Y-68938544D01*
X141852788Y-69015656D01*
X141976844Y-69139712D01*
X142098597Y-69214809D01*
X142145321Y-69266755D01*
X142157500Y-69320347D01*
X142157500Y-70640445D01*
X142137815Y-70707484D01*
X142085011Y-70753239D01*
X142043237Y-70764062D01*
X142038939Y-70764400D01*
X142038926Y-70764402D01*
X141881106Y-70810254D01*
X141881103Y-70810255D01*
X141739637Y-70893917D01*
X141739629Y-70893923D01*
X141623423Y-71010129D01*
X141623417Y-71010137D01*
X141539755Y-71151603D01*
X141539754Y-71151606D01*
X141493902Y-71309426D01*
X141493901Y-71309432D01*
X141491000Y-71346298D01*
X141491000Y-71777701D01*
X141493901Y-71814567D01*
X141493902Y-71814573D01*
X141539754Y-71972393D01*
X141539755Y-71972396D01*
X141623417Y-72113862D01*
X141623423Y-72113870D01*
X141739629Y-72230076D01*
X141739633Y-72230079D01*
X141739635Y-72230081D01*
X141881102Y-72313744D01*
X141921329Y-72325431D01*
X142038926Y-72359597D01*
X142038929Y-72359597D01*
X142038931Y-72359598D01*
X142075806Y-72362500D01*
X143242000Y-72362500D01*
X143309039Y-72382185D01*
X143354794Y-72434989D01*
X143366000Y-72486500D01*
X143366000Y-72727701D01*
X143368901Y-72764567D01*
X143368902Y-72764573D01*
X143414754Y-72922393D01*
X143414755Y-72922396D01*
X143414756Y-72922398D01*
X143440837Y-72966498D01*
X143498417Y-73063862D01*
X143498423Y-73063870D01*
X143614629Y-73180076D01*
X143614633Y-73180079D01*
X143614635Y-73180081D01*
X143756102Y-73263744D01*
X143797724Y-73275836D01*
X143913926Y-73309597D01*
X143913929Y-73309597D01*
X143913931Y-73309598D01*
X143950806Y-73312500D01*
X143950814Y-73312500D01*
X145257186Y-73312500D01*
X145257194Y-73312500D01*
X145294069Y-73309598D01*
X145294071Y-73309597D01*
X145294073Y-73309597D01*
X145335691Y-73297505D01*
X145451898Y-73263744D01*
X145593365Y-73180081D01*
X145709581Y-73063865D01*
X145793244Y-72922398D01*
X145839098Y-72764569D01*
X145842000Y-72727694D01*
X145842000Y-72685521D01*
X145861685Y-72618482D01*
X145914489Y-72572727D01*
X145983647Y-72562783D01*
X146047203Y-72591808D01*
X146071539Y-72620425D01*
X146101288Y-72668656D01*
X146225344Y-72792712D01*
X146374666Y-72884814D01*
X146541203Y-72939999D01*
X146643991Y-72950500D01*
X147644008Y-72950499D01*
X147644016Y-72950498D01*
X147644019Y-72950498D01*
X147700302Y-72944748D01*
X147746797Y-72939999D01*
X147913334Y-72884814D01*
X148062656Y-72792712D01*
X148186712Y-72668656D01*
X148278814Y-72519334D01*
X148333999Y-72352797D01*
X148344500Y-72250009D01*
X148344499Y-71449992D01*
X148342383Y-71429282D01*
X148333999Y-71347203D01*
X148333998Y-71347200D01*
X148321483Y-71309432D01*
X148278814Y-71180666D01*
X148186712Y-71031344D01*
X148092695Y-70937327D01*
X148059210Y-70876004D01*
X148064194Y-70806312D01*
X148092695Y-70761964D01*
X148186317Y-70668342D01*
X148278356Y-70519124D01*
X148278358Y-70519119D01*
X148333505Y-70352697D01*
X148333506Y-70352690D01*
X148343999Y-70249986D01*
X148344000Y-70249973D01*
X148344000Y-70100000D01*
X145944000Y-70100000D01*
X145924183Y-70119817D01*
X145862860Y-70153301D01*
X145793168Y-70148316D01*
X145737235Y-70106445D01*
X145729771Y-70095256D01*
X145709185Y-70060447D01*
X145709178Y-70060438D01*
X145593061Y-69944321D01*
X145593052Y-69944314D01*
X145451696Y-69860717D01*
X145451693Y-69860716D01*
X145293995Y-69814900D01*
X145293989Y-69814899D01*
X145257149Y-69812000D01*
X144854000Y-69812000D01*
X144854000Y-70362000D01*
X145868036Y-70362000D01*
X145935075Y-70381685D01*
X145980830Y-70434489D01*
X145985742Y-70446996D01*
X146009641Y-70519119D01*
X146009643Y-70519124D01*
X146101684Y-70668345D01*
X146195304Y-70761965D01*
X146228789Y-70823288D01*
X146223805Y-70892980D01*
X146195305Y-70937327D01*
X146101287Y-71031345D01*
X146009187Y-71180663D01*
X146009185Y-71180668D01*
X145996946Y-71217603D01*
X145954001Y-71347203D01*
X145954001Y-71347204D01*
X145954000Y-71347204D01*
X145943500Y-71449983D01*
X145943500Y-71902403D01*
X145923815Y-71969442D01*
X145871011Y-72015197D01*
X145801853Y-72025141D01*
X145738297Y-71996116D01*
X145712767Y-71965522D01*
X145709583Y-71960138D01*
X145709576Y-71960129D01*
X145593370Y-71843923D01*
X145593362Y-71843917D01*
X145478922Y-71776238D01*
X145451898Y-71760256D01*
X145451897Y-71760255D01*
X145451896Y-71760255D01*
X145451893Y-71760254D01*
X145294073Y-71714402D01*
X145294067Y-71714401D01*
X145257201Y-71711500D01*
X145257194Y-71711500D01*
X144091000Y-71711500D01*
X144082314Y-71708949D01*
X144073353Y-71710238D01*
X144049312Y-71699259D01*
X144023961Y-71691815D01*
X144018033Y-71684974D01*
X144009797Y-71681213D01*
X143995507Y-71658978D01*
X143978206Y-71639011D01*
X143975918Y-71628496D01*
X143972023Y-71622435D01*
X143967000Y-71587500D01*
X143967000Y-71536000D01*
X143986685Y-71468961D01*
X144039489Y-71423206D01*
X144091000Y-71412000D01*
X144354000Y-71412000D01*
X144854000Y-71412000D01*
X145257134Y-71412000D01*
X145257149Y-71411999D01*
X145293989Y-71409100D01*
X145293995Y-71409099D01*
X145451693Y-71363283D01*
X145451696Y-71363282D01*
X145593052Y-71279685D01*
X145593061Y-71279678D01*
X145709178Y-71163561D01*
X145709185Y-71163552D01*
X145792781Y-71022198D01*
X145838600Y-70864486D01*
X145838795Y-70862001D01*
X145838795Y-70862000D01*
X144854000Y-70862000D01*
X144854000Y-71412000D01*
X144354000Y-71412000D01*
X144354000Y-69812000D01*
X143950850Y-69812000D01*
X143914010Y-69814899D01*
X143914004Y-69814900D01*
X143756306Y-69860716D01*
X143756303Y-69860717D01*
X143614947Y-69944314D01*
X143608778Y-69949100D01*
X143606710Y-69946434D01*
X143558858Y-69972564D01*
X143489166Y-69967580D01*
X143433233Y-69925708D01*
X143408816Y-69860244D01*
X143408500Y-69851398D01*
X143408500Y-69450013D01*
X145944000Y-69450013D01*
X145944000Y-69600000D01*
X146894000Y-69600000D01*
X147394000Y-69600000D01*
X148343999Y-69600000D01*
X148343999Y-69450028D01*
X148343998Y-69450013D01*
X148333505Y-69347302D01*
X148278358Y-69180880D01*
X148278356Y-69180875D01*
X148186315Y-69031654D01*
X148062345Y-68907684D01*
X147913124Y-68815643D01*
X147913119Y-68815641D01*
X147746697Y-68760494D01*
X147746690Y-68760493D01*
X147643986Y-68750000D01*
X147394000Y-68750000D01*
X147394000Y-69600000D01*
X146894000Y-69600000D01*
X146894000Y-68750000D01*
X146644029Y-68750000D01*
X146644012Y-68750001D01*
X146541302Y-68760494D01*
X146374880Y-68815641D01*
X146374875Y-68815643D01*
X146225654Y-68907684D01*
X146101684Y-69031654D01*
X146009643Y-69180875D01*
X146009641Y-69180880D01*
X145954494Y-69347302D01*
X145954493Y-69347309D01*
X145944000Y-69450013D01*
X143408500Y-69450013D01*
X143408500Y-69320347D01*
X143428185Y-69253308D01*
X143467401Y-69214810D01*
X143589156Y-69139712D01*
X143713212Y-69015656D01*
X143714961Y-69012819D01*
X143716669Y-69011283D01*
X143717693Y-69009989D01*
X143717914Y-69010163D01*
X143766906Y-68966096D01*
X143835868Y-68954872D01*
X143899951Y-68982713D01*
X143926037Y-69012817D01*
X143927788Y-69015656D01*
X144051844Y-69139712D01*
X144201166Y-69231814D01*
X144367703Y-69286999D01*
X144470491Y-69297500D01*
X145245508Y-69297499D01*
X145245516Y-69297498D01*
X145245519Y-69297498D01*
X145301802Y-69291748D01*
X145348297Y-69286999D01*
X145514834Y-69231814D01*
X145664156Y-69139712D01*
X145788212Y-69015656D01*
X145880314Y-68866334D01*
X145935499Y-68699797D01*
X145946000Y-68597009D01*
X145945999Y-67919950D01*
X145965683Y-67852912D01*
X145982313Y-67832275D01*
X146510729Y-67303860D01*
X146510733Y-67303858D01*
X146597858Y-67216733D01*
X146666311Y-67114286D01*
X146666312Y-67114285D01*
X146666313Y-67114282D01*
X146666315Y-67114279D01*
X146676672Y-67089272D01*
X146713463Y-67000451D01*
X146737500Y-66879607D01*
X146737500Y-66756393D01*
X146737500Y-65906057D01*
X146757185Y-65839018D01*
X146796401Y-65800520D01*
X146930656Y-65717712D01*
X147054712Y-65593656D01*
X147146814Y-65444334D01*
X147201999Y-65277797D01*
X147212500Y-65175009D01*
X147212499Y-64450630D01*
X147212499Y-64133556D01*
X147212499Y-63824998D01*
X147212498Y-63824981D01*
X147201999Y-63722203D01*
X147201998Y-63722200D01*
X147178223Y-63650452D01*
X147146814Y-63555666D01*
X147054712Y-63406344D01*
X146930656Y-63282288D01*
X146781334Y-63190186D01*
X146614797Y-63135001D01*
X146614795Y-63135000D01*
X146512010Y-63124500D01*
X145711998Y-63124500D01*
X145711980Y-63124501D01*
X145609203Y-63135000D01*
X145609200Y-63135001D01*
X145442668Y-63190185D01*
X145442663Y-63190187D01*
X145293342Y-63282289D01*
X145169289Y-63406342D01*
X145129420Y-63470981D01*
X145077472Y-63517705D01*
X145008509Y-63528928D01*
X144944427Y-63501084D01*
X144936200Y-63493565D01*
X144828602Y-63385967D01*
X144688524Y-63284195D01*
X144534257Y-63205591D01*
X144369589Y-63152087D01*
X144369581Y-63152085D01*
X144362000Y-63150884D01*
X144362000Y-64219670D01*
X144342255Y-64199925D01*
X144256745Y-64150556D01*
X144161370Y-64125000D01*
X144062630Y-64125000D01*
X143967255Y-64150556D01*
X143881745Y-64199925D01*
X143862000Y-64219670D01*
X143862000Y-63150884D01*
X143861999Y-63150884D01*
X143854418Y-63152085D01*
X143854410Y-63152087D01*
X143689742Y-63205591D01*
X143535475Y-63284195D01*
X143395397Y-63385967D01*
X143272967Y-63508397D01*
X143171195Y-63648475D01*
X143092591Y-63802742D01*
X143039085Y-63967415D01*
X143012000Y-64138428D01*
X143012000Y-64250000D01*
X143831670Y-64250000D01*
X143811925Y-64269745D01*
X143762556Y-64355255D01*
X143737000Y-64450630D01*
X143737000Y-64549370D01*
X143762556Y-64644745D01*
X143811925Y-64730255D01*
X143831670Y-64750000D01*
X143012000Y-64750000D01*
X143012000Y-64861571D01*
X143039085Y-65032584D01*
X143092591Y-65197257D01*
X143171195Y-65351524D01*
X143272967Y-65491602D01*
X143395397Y-65614032D01*
X143535475Y-65715804D01*
X143689744Y-65794408D01*
X143854415Y-65847914D01*
X143854414Y-65847914D01*
X143861999Y-65849115D01*
X143862000Y-65849114D01*
X143862000Y-64780330D01*
X143881745Y-64800075D01*
X143967255Y-64849444D01*
X144062630Y-64875000D01*
X144161370Y-64875000D01*
X144256745Y-64849444D01*
X144342255Y-64800075D01*
X144362000Y-64780330D01*
X144362000Y-65849115D01*
X144369584Y-65847914D01*
X144534255Y-65794408D01*
X144688524Y-65715804D01*
X144828598Y-65614035D01*
X144936199Y-65506434D01*
X144997522Y-65472949D01*
X145067214Y-65477933D01*
X145123148Y-65519804D01*
X145129418Y-65529016D01*
X145169288Y-65593656D01*
X145293344Y-65717712D01*
X145427597Y-65800519D01*
X145474321Y-65852465D01*
X145486500Y-65906057D01*
X145486500Y-66507547D01*
X145466815Y-66574586D01*
X145450181Y-66595228D01*
X145235228Y-66810181D01*
X145173905Y-66843666D01*
X145147547Y-66846500D01*
X144470498Y-66846500D01*
X144470480Y-66846501D01*
X144367703Y-66857000D01*
X144367700Y-66857001D01*
X144201168Y-66912185D01*
X144201163Y-66912187D01*
X144051842Y-67004289D01*
X143927785Y-67128346D01*
X143926037Y-67131182D01*
X143924329Y-67132717D01*
X143923307Y-67134011D01*
X143923085Y-67133836D01*
X143874089Y-67177905D01*
X143805126Y-67189126D01*
X143741044Y-67161282D01*
X143714963Y-67131182D01*
X143713214Y-67128346D01*
X143589157Y-67004289D01*
X143589156Y-67004288D01*
X143439834Y-66912186D01*
X143273297Y-66857001D01*
X143273295Y-66857000D01*
X143170516Y-66846500D01*
X143170509Y-66846500D01*
X142493452Y-66846500D01*
X142464011Y-66837855D01*
X142434025Y-66831332D01*
X142429009Y-66827577D01*
X142426413Y-66826815D01*
X142405771Y-66810181D01*
X142257198Y-66661608D01*
X142257178Y-66661586D01*
X142165733Y-66570141D01*
X142120325Y-66539801D01*
X142120324Y-66539800D01*
X142114509Y-66535915D01*
X142063286Y-66501688D01*
X141982792Y-66468347D01*
X141967457Y-66461995D01*
X141949453Y-66454537D01*
X141939525Y-66452562D01*
X141889029Y-66442518D01*
X141828607Y-66430500D01*
X141828606Y-66430500D01*
X141823249Y-66430500D01*
X141812185Y-66428476D01*
X141790620Y-66417615D01*
X141767460Y-66410815D01*
X141759983Y-66402186D01*
X141749782Y-66397049D01*
X141737511Y-66376252D01*
X141721705Y-66358011D01*
X141718759Y-66344471D01*
X141714276Y-66336873D01*
X141714698Y-66325803D01*
X141710499Y-66306500D01*
X141710499Y-65483129D01*
X141710498Y-65483123D01*
X141710497Y-65483116D01*
X141704091Y-65423517D01*
X141677239Y-65351524D01*
X141653797Y-65288671D01*
X141653793Y-65288664D01*
X141567547Y-65173455D01*
X141567544Y-65173452D01*
X141452335Y-65087206D01*
X141452328Y-65087202D01*
X141317482Y-65036908D01*
X141317483Y-65036908D01*
X141257883Y-65030501D01*
X141257881Y-65030500D01*
X141257873Y-65030500D01*
X141257864Y-65030500D01*
X138962129Y-65030500D01*
X138962123Y-65030501D01*
X138902516Y-65036908D01*
X138767671Y-65087202D01*
X138767664Y-65087206D01*
X138652455Y-65173452D01*
X138652452Y-65173455D01*
X138566206Y-65288664D01*
X138566202Y-65288671D01*
X138515908Y-65423517D01*
X138510594Y-65472949D01*
X138509501Y-65483123D01*
X138509500Y-65483135D01*
X132410499Y-65483135D01*
X132410499Y-65483128D01*
X132404091Y-65423517D01*
X132377239Y-65351524D01*
X132353797Y-65288671D01*
X132353793Y-65288664D01*
X132267547Y-65173455D01*
X132267544Y-65173452D01*
X132152335Y-65087206D01*
X132152328Y-65087202D01*
X132017482Y-65036908D01*
X132017483Y-65036908D01*
X131957883Y-65030501D01*
X131957881Y-65030500D01*
X131957873Y-65030500D01*
X131957864Y-65030500D01*
X129662129Y-65030500D01*
X129662123Y-65030501D01*
X129602516Y-65036908D01*
X129467671Y-65087202D01*
X129467664Y-65087206D01*
X129352455Y-65173452D01*
X129352452Y-65173455D01*
X129266206Y-65288664D01*
X129266202Y-65288671D01*
X129215908Y-65423517D01*
X129210594Y-65472949D01*
X129209501Y-65483123D01*
X129209500Y-65483135D01*
X129209500Y-68628870D01*
X129209501Y-68628876D01*
X129215908Y-68688483D01*
X129266202Y-68823328D01*
X129266206Y-68823335D01*
X129352452Y-68938544D01*
X129352455Y-68938547D01*
X129467664Y-69024793D01*
X129467671Y-69024797D01*
X129486056Y-69031654D01*
X129602517Y-69075091D01*
X129662127Y-69081500D01*
X130060500Y-69081499D01*
X130127539Y-69101183D01*
X130173294Y-69153987D01*
X130184500Y-69205499D01*
X130184500Y-71220500D01*
X130164815Y-71287539D01*
X130112011Y-71333294D01*
X130060500Y-71344500D01*
X119398659Y-71344500D01*
X119331620Y-71324815D01*
X119325773Y-71320818D01*
X119312714Y-71311330D01*
X119126820Y-71216612D01*
X118928389Y-71152137D01*
X118722324Y-71119500D01*
X118722319Y-71119500D01*
X118513681Y-71119500D01*
X118513676Y-71119500D01*
X118307610Y-71152137D01*
X118109179Y-71216612D01*
X117923285Y-71311330D01*
X117754493Y-71433966D01*
X117606966Y-71581493D01*
X117484326Y-71750290D01*
X117431008Y-71854933D01*
X117408205Y-71886319D01*
X116766345Y-72528181D01*
X116705022Y-72561666D01*
X116678664Y-72564500D01*
X116238406Y-72564500D01*
X116200088Y-72558431D01*
X116181834Y-72552500D01*
X116088389Y-72522137D01*
X115882324Y-72489500D01*
X115882319Y-72489500D01*
X115673681Y-72489500D01*
X115673676Y-72489500D01*
X115467610Y-72522137D01*
X115269179Y-72586612D01*
X115083285Y-72681330D01*
X114914493Y-72803966D01*
X114766966Y-72951493D01*
X114644330Y-73120285D01*
X114549612Y-73306179D01*
X114485137Y-73504610D01*
X114452500Y-73710675D01*
X113000500Y-73710675D01*
X113000500Y-65207895D01*
X114222500Y-65207895D01*
X114222500Y-65542104D01*
X114259917Y-65874187D01*
X114259918Y-65874196D01*
X114259919Y-65874200D01*
X114262773Y-65886705D01*
X114334286Y-66200025D01*
X114334289Y-66200033D01*
X114444666Y-66515472D01*
X114589668Y-66816570D01*
X114629277Y-66879607D01*
X114767475Y-67099549D01*
X114910372Y-67278736D01*
X114936046Y-67310931D01*
X114975846Y-67360838D01*
X115212162Y-67597154D01*
X115473451Y-67805525D01*
X115756427Y-67983330D01*
X116057531Y-68128335D01*
X116294449Y-68211235D01*
X116372966Y-68238710D01*
X116372974Y-68238713D01*
X116372977Y-68238713D01*
X116372978Y-68238714D01*
X116698800Y-68313081D01*
X117030896Y-68350499D01*
X117030897Y-68350500D01*
X117030900Y-68350500D01*
X117365103Y-68350500D01*
X117365103Y-68350499D01*
X117697200Y-68313081D01*
X118023022Y-68238714D01*
X118338469Y-68128335D01*
X118639573Y-67983330D01*
X118922549Y-67805525D01*
X119183838Y-67597154D01*
X119420154Y-67360838D01*
X119628525Y-67099549D01*
X119806330Y-66816573D01*
X119951335Y-66515469D01*
X120061714Y-66200022D01*
X120136081Y-65874200D01*
X120138787Y-65850185D01*
X120140176Y-65837860D01*
X121699500Y-65837860D01*
X121699500Y-66162139D01*
X121731284Y-66484857D01*
X121731287Y-66484874D01*
X121794545Y-66802902D01*
X121794548Y-66802913D01*
X121888686Y-67113247D01*
X122012786Y-67412849D01*
X122012788Y-67412854D01*
X122165646Y-67698830D01*
X122165657Y-67698848D01*
X122345811Y-67968467D01*
X122345821Y-67968481D01*
X122551546Y-68219158D01*
X122780841Y-68448453D01*
X122780846Y-68448457D01*
X122780847Y-68448458D01*
X123031524Y-68654183D01*
X123301158Y-68834347D01*
X123301167Y-68834352D01*
X123301169Y-68834353D01*
X123587145Y-68987211D01*
X123587147Y-68987211D01*
X123587153Y-68987215D01*
X123886754Y-69111314D01*
X124197077Y-69205449D01*
X124197083Y-69205450D01*
X124197086Y-69205451D01*
X124197097Y-69205454D01*
X124381822Y-69242197D01*
X124515132Y-69268714D01*
X124837857Y-69300500D01*
X124837860Y-69300500D01*
X125162140Y-69300500D01*
X125162143Y-69300500D01*
X125484868Y-69268714D01*
X125645120Y-69236838D01*
X125802902Y-69205454D01*
X125802913Y-69205451D01*
X125802913Y-69205450D01*
X125802923Y-69205449D01*
X126113246Y-69111314D01*
X126412847Y-68987215D01*
X126698842Y-68834347D01*
X126968476Y-68654183D01*
X127219153Y-68448458D01*
X127448458Y-68219153D01*
X127654183Y-67968476D01*
X127834347Y-67698842D01*
X127987215Y-67412847D01*
X128111314Y-67113246D01*
X128205449Y-66802923D01*
X128205451Y-66802913D01*
X128205454Y-66802902D01*
X128239052Y-66633989D01*
X128268714Y-66484868D01*
X128300500Y-66162143D01*
X128300500Y-65837857D01*
X128268714Y-65515132D01*
X128245122Y-65396528D01*
X128205454Y-65197097D01*
X128205451Y-65197086D01*
X128205450Y-65197083D01*
X128205449Y-65197077D01*
X128111314Y-64886754D01*
X127987215Y-64587153D01*
X127967344Y-64549978D01*
X127834353Y-64301169D01*
X127834352Y-64301167D01*
X127834347Y-64301158D01*
X127654183Y-64031524D01*
X127448458Y-63780847D01*
X127448457Y-63780846D01*
X127448453Y-63780841D01*
X127219158Y-63551546D01*
X126968481Y-63345821D01*
X126968480Y-63345820D01*
X126968476Y-63345817D01*
X126698842Y-63165653D01*
X126698837Y-63165650D01*
X126698830Y-63165646D01*
X126412854Y-63012788D01*
X126412849Y-63012786D01*
X126113247Y-62888686D01*
X125802913Y-62794548D01*
X125802902Y-62794545D01*
X125484874Y-62731287D01*
X125484857Y-62731284D01*
X125240812Y-62707248D01*
X125162143Y-62699500D01*
X124837857Y-62699500D01*
X124765099Y-62706666D01*
X124515142Y-62731284D01*
X124515125Y-62731287D01*
X124197097Y-62794545D01*
X124197086Y-62794548D01*
X123886752Y-62888686D01*
X123587150Y-63012786D01*
X123587145Y-63012788D01*
X123301169Y-63165646D01*
X123301151Y-63165657D01*
X123031532Y-63345811D01*
X123031518Y-63345821D01*
X122780841Y-63551546D01*
X122551546Y-63780841D01*
X122345821Y-64031518D01*
X122345811Y-64031532D01*
X122165657Y-64301151D01*
X122165646Y-64301169D01*
X122012788Y-64587145D01*
X122012786Y-64587150D01*
X121888686Y-64886752D01*
X121794548Y-65197086D01*
X121794545Y-65197097D01*
X121731287Y-65515125D01*
X121731284Y-65515142D01*
X121707916Y-65752407D01*
X121700832Y-65824339D01*
X121699500Y-65837860D01*
X120140176Y-65837860D01*
X120142084Y-65820929D01*
X120167691Y-65593655D01*
X120173500Y-65542100D01*
X120173500Y-65207900D01*
X120136081Y-64875800D01*
X120061714Y-64549978D01*
X119951335Y-64234531D01*
X119806330Y-63933427D01*
X119628525Y-63650451D01*
X119420154Y-63389162D01*
X119183838Y-63152846D01*
X119148294Y-63124501D01*
X119117479Y-63099927D01*
X118922549Y-62944475D01*
X118639573Y-62766670D01*
X118639570Y-62766668D01*
X118338472Y-62621666D01*
X118023033Y-62511289D01*
X118023025Y-62511286D01*
X117778655Y-62455510D01*
X117697200Y-62436919D01*
X117697196Y-62436918D01*
X117697187Y-62436917D01*
X117365104Y-62399500D01*
X117365100Y-62399500D01*
X117030900Y-62399500D01*
X117030895Y-62399500D01*
X116698812Y-62436917D01*
X116698800Y-62436919D01*
X116372974Y-62511286D01*
X116372966Y-62511289D01*
X116057527Y-62621666D01*
X115756429Y-62766668D01*
X115473452Y-62944474D01*
X115212162Y-63152845D01*
X114975845Y-63389162D01*
X114767474Y-63650452D01*
X114589668Y-63933429D01*
X114444666Y-64234527D01*
X114334289Y-64549966D01*
X114334286Y-64549974D01*
X114259919Y-64875800D01*
X114259917Y-64875812D01*
X114222500Y-65207895D01*
X113000500Y-65207895D01*
X113000500Y-62124500D01*
X113020185Y-62057461D01*
X113072989Y-62011706D01*
X113124500Y-62000500D01*
X194875500Y-62000500D01*
X194942539Y-62020185D01*
G37*
%TD.AperFunction*%
%TD*%
M02*
