%TF.GenerationSoftware,KiCad,Pcbnew,9.0.7*%
%TF.CreationDate,2026-03-11T20:41:50+01:00*%
%TF.ProjectId,Multi-emitter V2 Thesis,4d756c74-692d-4656-9d69-747465722056,rev?*%
%TF.SameCoordinates,Original*%
%TF.FileFunction,Soldermask,Top*%
%TF.FilePolarity,Negative*%
%FSLAX46Y46*%
G04 Gerber Fmt 4.6, Leading zero omitted, Abs format (unit mm)*
G04 Created by KiCad (PCBNEW 9.0.7) date 2026-03-11 20:41:50*
%MOMM*%
%LPD*%
G01*
G04 APERTURE LIST*
G04 Aperture macros list*
%AMRoundRect*
0 Rectangle with rounded corners*
0 $1 Rounding radius*
0 $2 $3 $4 $5 $6 $7 $8 $9 X,Y pos of 4 corners*
0 Add a 4 corners polygon primitive as box body*
4,1,4,$2,$3,$4,$5,$6,$7,$8,$9,$2,$3,0*
0 Add four circle primitives for the rounded corners*
1,1,$1+$1,$2,$3*
1,1,$1+$1,$4,$5*
1,1,$1+$1,$6,$7*
1,1,$1+$1,$8,$9*
0 Add four rect primitives between the rounded corners*
20,1,$1+$1,$2,$3,$4,$5,0*
20,1,$1+$1,$4,$5,$6,$7,0*
20,1,$1+$1,$6,$7,$8,$9,0*
20,1,$1+$1,$8,$9,$2,$3,0*%
G04 Aperture macros list end*
%ADD10RoundRect,0.250000X0.450000X-0.350000X0.450000X0.350000X-0.450000X0.350000X-0.450000X-0.350000X0*%
%ADD11R,1.800000X1.800000*%
%ADD12C,1.800000*%
%ADD13RoundRect,0.150000X0.587500X0.150000X-0.587500X0.150000X-0.587500X-0.150000X0.587500X-0.150000X0*%
%ADD14RoundRect,0.250000X-0.337500X-0.475000X0.337500X-0.475000X0.337500X0.475000X-0.337500X0.475000X0*%
%ADD15R,2.200000X3.050000*%
%ADD16RoundRect,0.150000X0.150000X-0.587500X0.150000X0.587500X-0.150000X0.587500X-0.150000X-0.587500X0*%
%ADD17RoundRect,0.250000X-0.450000X0.350000X-0.450000X-0.350000X0.450000X-0.350000X0.450000X0.350000X0*%
%ADD18RoundRect,0.250000X-0.350000X-0.625000X0.350000X-0.625000X0.350000X0.625000X-0.350000X0.625000X0*%
%ADD19O,1.200000X1.750000*%
%ADD20RoundRect,0.250000X0.350000X0.625000X-0.350000X0.625000X-0.350000X-0.625000X0.350000X-0.625000X0*%
%ADD21C,5.600000*%
%ADD22RoundRect,0.250000X0.625000X-0.350000X0.625000X0.350000X-0.625000X0.350000X-0.625000X-0.350000X0*%
%ADD23O,1.750000X1.200000*%
%ADD24RoundRect,0.250000X-0.350000X-0.450000X0.350000X-0.450000X0.350000X0.450000X-0.350000X0.450000X0*%
%ADD25RoundRect,0.250000X-0.475000X0.337500X-0.475000X-0.337500X0.475000X-0.337500X0.475000X0.337500X0*%
%ADD26R,1.650000X1.650000*%
%ADD27C,1.650000*%
%ADD28C,4.950000*%
G04 APERTURE END LIST*
D10*
%TO.C,R2*%
X166448000Y-71850000D03*
X166448000Y-69850000D03*
%TD*%
D11*
%TO.C,D2*%
X125730000Y-77724000D03*
D12*
X128270000Y-77724000D03*
%TD*%
D13*
%TO.C,Q8*%
X142905000Y-92390000D03*
X144780000Y-93340000D03*
X144780000Y-91440000D03*
%TD*%
%TO.C,Q2*%
X162033000Y-71628000D03*
X163908000Y-72578000D03*
X163908000Y-70678000D03*
%TD*%
D14*
%TO.C,C6*%
X181334500Y-95848000D03*
X183409500Y-95848000D03*
%TD*%
D15*
%TO.C,L4*%
X159942000Y-80010000D03*
X169242000Y-80010000D03*
%TD*%
D16*
%TO.C,Q5*%
X185420000Y-83550000D03*
X184470000Y-85425000D03*
X186370000Y-85425000D03*
%TD*%
D17*
%TO.C,R9*%
X132588000Y-75200000D03*
X132588000Y-77200000D03*
%TD*%
D18*
%TO.C,J7*%
X163354000Y-99568000D03*
D19*
X165354000Y-99568000D03*
%TD*%
D20*
%TO.C,J1*%
X146112000Y-64500000D03*
D19*
X144112000Y-64500000D03*
%TD*%
D21*
%TO.C,H1*%
X125000000Y-66000000D03*
%TD*%
D15*
%TO.C,L2*%
X150114000Y-67056000D03*
X159414000Y-67056000D03*
%TD*%
D22*
%TO.C,J5*%
X192622000Y-87090000D03*
D23*
X192622000Y-85090000D03*
%TD*%
D15*
%TO.C,L5*%
X140638000Y-83820000D03*
X149938000Y-83820000D03*
%TD*%
D18*
%TO.C,J8*%
X144050000Y-99568000D03*
D19*
X146050000Y-99568000D03*
%TD*%
D15*
%TO.C,L6*%
X169262000Y-96774000D03*
X178562000Y-96774000D03*
%TD*%
D10*
%TO.C,R1*%
X147144000Y-71850000D03*
X147144000Y-69850000D03*
%TD*%
D24*
%TO.C,R5*%
X184420000Y-87614000D03*
X186420000Y-87614000D03*
%TD*%
D21*
%TO.C,H4*%
X125000000Y-98000000D03*
%TD*%
D10*
%TO.C,R8*%
X147320000Y-93440000D03*
X147320000Y-91440000D03*
%TD*%
D25*
%TO.C,C5*%
X188722000Y-83550000D03*
X188722000Y-85625000D03*
%TD*%
D15*
%TO.C,L3*%
X169340000Y-67056000D03*
X178640000Y-67056000D03*
%TD*%
D13*
%TO.C,Q1*%
X142729000Y-71562000D03*
X144604000Y-72512000D03*
X144604000Y-70612000D03*
%TD*%
D10*
%TO.C,R7*%
X166370000Y-93456000D03*
X166370000Y-91456000D03*
%TD*%
D14*
%TO.C,C1*%
X142783000Y-68072000D03*
X144858000Y-68072000D03*
%TD*%
D20*
%TO.C,J3*%
X184704000Y-64500000D03*
D19*
X182704000Y-64500000D03*
%TD*%
D15*
%TO.C,L1*%
X130810000Y-67056000D03*
X140110000Y-67056000D03*
%TD*%
D18*
%TO.C,J6*%
X182658000Y-99568000D03*
D19*
X184658000Y-99568000D03*
%TD*%
D24*
%TO.C,R4*%
X184436000Y-79486000D03*
X186436000Y-79486000D03*
%TD*%
D14*
%TO.C,C7*%
X162009000Y-95758000D03*
X164084000Y-95758000D03*
%TD*%
D10*
%TO.C,R6*%
X185674000Y-93456000D03*
X185674000Y-91456000D03*
%TD*%
D14*
%TO.C,C2*%
X162087000Y-68072000D03*
X164162000Y-68072000D03*
%TD*%
D15*
%TO.C,L8*%
X130732000Y-96774000D03*
X140032000Y-96774000D03*
%TD*%
D21*
%TO.C,H2*%
X191000000Y-66000000D03*
%TD*%
D13*
%TO.C,Q3*%
X181337000Y-71562000D03*
X183212000Y-72512000D03*
X183212000Y-70612000D03*
%TD*%
D14*
%TO.C,C3*%
X181434000Y-68072000D03*
X183509000Y-68072000D03*
%TD*%
D16*
%TO.C,Q4*%
X185420000Y-75379000D03*
X184470000Y-77254000D03*
X186370000Y-77254000D03*
%TD*%
D20*
%TO.C,J2*%
X165432000Y-64500000D03*
D19*
X163432000Y-64500000D03*
%TD*%
D26*
%TO.C,J0*%
X118618000Y-91625000D03*
D27*
X118618000Y-88885000D03*
X118618000Y-86145000D03*
X118618000Y-83405000D03*
X118618000Y-80665000D03*
X118618000Y-77925000D03*
X118618000Y-75185000D03*
X118618000Y-72445000D03*
X115778000Y-90255000D03*
X115778000Y-87515000D03*
X115778000Y-84775000D03*
X115778000Y-82035000D03*
X115778000Y-79295000D03*
X115778000Y-76555000D03*
X115778000Y-73815000D03*
D28*
X117198000Y-65375000D03*
X117198000Y-98695000D03*
%TD*%
D25*
%TO.C,C4*%
X188722000Y-75379000D03*
X188722000Y-77454000D03*
%TD*%
D21*
%TO.C,H3*%
X191000000Y-98000000D03*
%TD*%
D15*
%TO.C,L7*%
X149958000Y-96774000D03*
X159258000Y-96774000D03*
%TD*%
D13*
%TO.C,Q6*%
X181259000Y-92390000D03*
X183134000Y-93340000D03*
X183134000Y-91440000D03*
%TD*%
D22*
%TO.C,J4*%
X192622000Y-78962000D03*
D23*
X192622000Y-76962000D03*
%TD*%
D14*
%TO.C,C8*%
X142705000Y-95758000D03*
X144780000Y-95758000D03*
%TD*%
D13*
%TO.C,Q7*%
X161955000Y-92390000D03*
X163830000Y-93340000D03*
X163830000Y-91440000D03*
%TD*%
D10*
%TO.C,R3*%
X185674000Y-71866000D03*
X185674000Y-69866000D03*
%TD*%
M02*
