%TF.GenerationSoftware,KiCad,Pcbnew,9.0.7*%
%TF.CreationDate,2026-03-11T20:41:50+01:00*%
%TF.ProjectId,Multi-emitter V2 Thesis,4d756c74-692d-4656-9d69-747465722056,rev?*%
%TF.SameCoordinates,Original*%
%TF.FileFunction,Legend,Bot*%
%TF.FilePolarity,Positive*%
%FSLAX46Y46*%
G04 Gerber Fmt 4.6, Leading zero omitted, Abs format (unit mm)*
G04 Created by KiCad (PCBNEW 9.0.7) date 2026-03-11 20:41:50*
%MOMM*%
%LPD*%
G01*
G04 APERTURE LIST*
G04 Aperture macros list*
%AMRoundRect*
0 Rectangle with rounded corners*
0 $1 Rounding radius*
0 $2 $3 $4 $5 $6 $7 $8 $9 X,Y pos of 4 corners*
0 Add a 4 corners polygon primitive as box body*
4,1,4,$2,$3,$4,$5,$6,$7,$8,$9,$2,$3,0*
0 Add four circle primitives for the rounded corners*
1,1,$1+$1,$2,$3*
1,1,$1+$1,$4,$5*
1,1,$1+$1,$6,$7*
1,1,$1+$1,$8,$9*
0 Add four rect primitives between the rounded corners*
20,1,$1+$1,$2,$3,$4,$5,0*
20,1,$1+$1,$4,$5,$6,$7,0*
20,1,$1+$1,$6,$7,$8,$9,0*
20,1,$1+$1,$8,$9,$2,$3,0*%
G04 Aperture macros list end*
%ADD10R,1.800000X1.800000*%
%ADD11C,1.800000*%
%ADD12RoundRect,0.250000X-0.350000X-0.625000X0.350000X-0.625000X0.350000X0.625000X-0.350000X0.625000X0*%
%ADD13O,1.200000X1.750000*%
%ADD14RoundRect,0.250000X0.350000X0.625000X-0.350000X0.625000X-0.350000X-0.625000X0.350000X-0.625000X0*%
%ADD15C,5.600000*%
%ADD16RoundRect,0.250000X0.625000X-0.350000X0.625000X0.350000X-0.625000X0.350000X-0.625000X-0.350000X0*%
%ADD17O,1.750000X1.200000*%
%ADD18R,1.650000X1.650000*%
%ADD19C,1.650000*%
%ADD20C,4.950000*%
G04 APERTURE END LIST*
%LPC*%
D10*
%TO.C,D2*%
X125730000Y-77724000D03*
D11*
X128270000Y-77724000D03*
%TD*%
D12*
%TO.C,J7*%
X163354000Y-99568000D03*
D13*
X165354000Y-99568000D03*
%TD*%
D14*
%TO.C,J1*%
X146112000Y-64500000D03*
D13*
X144112000Y-64500000D03*
%TD*%
D15*
%TO.C,H1*%
X125000000Y-66000000D03*
%TD*%
D16*
%TO.C,J5*%
X192622000Y-87090000D03*
D17*
X192622000Y-85090000D03*
%TD*%
D12*
%TO.C,J8*%
X144050000Y-99568000D03*
D13*
X146050000Y-99568000D03*
%TD*%
D15*
%TO.C,H4*%
X125000000Y-98000000D03*
%TD*%
D14*
%TO.C,J3*%
X184704000Y-64500000D03*
D13*
X182704000Y-64500000D03*
%TD*%
D12*
%TO.C,J6*%
X182658000Y-99568000D03*
D13*
X184658000Y-99568000D03*
%TD*%
D15*
%TO.C,H2*%
X191000000Y-66000000D03*
%TD*%
D14*
%TO.C,J2*%
X165432000Y-64500000D03*
D13*
X163432000Y-64500000D03*
%TD*%
D18*
%TO.C,J0*%
X118618000Y-91625000D03*
D19*
X118618000Y-88885000D03*
X118618000Y-86145000D03*
X118618000Y-83405000D03*
X118618000Y-80665000D03*
X118618000Y-77925000D03*
X118618000Y-75185000D03*
X118618000Y-72445000D03*
X115778000Y-90255000D03*
X115778000Y-87515000D03*
X115778000Y-84775000D03*
X115778000Y-82035000D03*
X115778000Y-79295000D03*
X115778000Y-76555000D03*
X115778000Y-73815000D03*
D20*
X117198000Y-65375000D03*
X117198000Y-98695000D03*
%TD*%
D15*
%TO.C,H3*%
X191000000Y-98000000D03*
%TD*%
D16*
%TO.C,J4*%
X192622000Y-78962000D03*
D17*
X192622000Y-76962000D03*
%TD*%
%LPD*%
M02*
