M48
; DRILL file {KiCad 9.0.7} date 2026-03-11T20:42:29+0100
; FORMAT={-:-/ absolute / inch / decimal}
; #@! TF.CreationDate,2026-03-11T20:42:29+01:00
; #@! TF.GenerationSoftware,Kicad,Pcbnew,9.0.7
; #@! TF.FileFunction,Plated,1,2,PTH
FMAT,2
INCH
; #@! TA.AperFunction,Plated,PTH,ViaDrill
T1C0.0118
; #@! TA.AperFunction,Plated,PTH,ComponentDrill
T2C0.0295
; #@! TA.AperFunction,Plated,PTH,ComponentDrill
T3C0.0354
; #@! TA.AperFunction,Plated,PTH,ComponentDrill
T4C0.0433
; #@! TA.AperFunction,Plated,PTH,ComponentDrill
T5C0.1260
; #@! TA.AperFunction,Plated,PTH,ComponentDrill
T6C0.1299
%
G90
G05
T1
X4.79Y-2.97
X4.8Y-3.12
X5.35Y-3.1
X5.51Y-2.92
X5.67Y-2.74
X5.6931Y-2.8548
X5.7Y-3.6748
X5.74Y-2.75
X5.74Y-2.79
X5.75Y-3.64
X5.76Y-2.99
X5.7931Y-2.8287
X5.8Y-3.6787
X6.12Y-2.92
X6.35Y-3.29
X6.4Y-3.54
X6.45Y-3.6748
X6.4531Y-2.8574
X6.49Y-2.82
X6.49Y-3.63
X6.5Y-2.75
X6.51Y-3.29
X6.55Y-3.6794
X6.5531Y-2.8287
X6.8Y-2.9
X6.87Y-3.55
X7.0Y-2.89
X7.04Y-3.25
X7.14Y-3.04
X7.15Y-3.51
X7.21Y-3.6748
X7.2131Y-2.8548
X7.25Y-2.75
X7.25Y-2.81
X7.25Y-3.63
X7.2606Y-3.4494
X7.2613Y-3.1294
X7.2626Y-3.0415
X7.2626Y-3.3632
X7.31Y-2.8294
X7.31Y-3.08
X7.31Y-3.41
X7.31Y-3.6794
X7.35Y-2.65
X7.37Y-3.03
X7.37Y-3.41
X7.43Y-2.89
X7.47Y-3.59
X7.51Y-2.85
T2
X5.6713Y-3.92
X5.6737Y-2.5394
X5.75Y-3.92
X5.7524Y-2.5394
X6.4313Y-3.92
X6.4343Y-2.5394
X6.51Y-3.92
X6.5131Y-2.5394
X7.1913Y-3.92
X7.1931Y-2.5394
X7.27Y-3.92
X7.2718Y-2.5394
X7.5835Y-3.03
X7.5835Y-3.1087
X7.5835Y-3.35
X7.5835Y-3.4287
T3
X4.95Y-3.06
X5.05Y-3.06
T4
X4.5582Y-2.9061
X4.5582Y-3.014
X4.5582Y-3.1219
X4.5582Y-3.2297
X4.5582Y-3.3376
X4.5582Y-3.4455
X4.5582Y-3.5533
X4.67Y-2.8522
X4.67Y-2.96
X4.67Y-3.0679
X4.67Y-3.1758
X4.67Y-3.2837
X4.67Y-3.3915
X4.67Y-3.4994
X4.67Y-3.6073
T5
X4.9213Y-2.5984
X4.9213Y-3.8583
X7.5197Y-2.5984
X7.5197Y-3.8583
T6
X4.6141Y-2.5738
X4.6141Y-3.8856
M30
